<?xml version="1.0" encoding="UTF-8" standalone="no"?>
<!-- Created with Inkscape (http://www.inkscape.org/) -->

<svg
   width="210mm"
   height="297mm"
   viewBox="0 0 210 297"
   version="1.1"
   id="svg5"
   xml:space="preserve"
   inkscape:version="1.2.1 (9c6d41e410, 2022-07-14)"
   sodipodi:docname="drawing.svg"
   xmlns:inkscape="http://www.inkscape.org/namespaces/inkscape"
   xmlns:sodipodi="http://sodipodi.sourceforge.net/DTD/sodipodi-0.dtd"
   xmlns="http://www.w3.org/2000/svg"
   xmlns:svg="http://www.w3.org/2000/svg"><sodipodi:namedview
     id="namedview7"
     pagecolor="#ffffff"
     bordercolor="#666666"
     borderopacity="1.0"
     inkscape:showpageshadow="2"
     inkscape:pageopacity="0.0"
     inkscape:pagecheckerboard="0"
     inkscape:deskcolor="#d1d1d1"
     inkscape:document-units="mm"
     showgrid="false"
     inkscape:zoom="0.2102413"
     inkscape:cx="-271.11704"
     inkscape:cy="563.63806"
     inkscape:window-width="1920"
     inkscape:window-height="1052"
     inkscape:window-x="-8"
     inkscape:window-y="-8"
     inkscape:window-maximized="1"
     inkscape:current-layer="layer1" /><defs
     id="defs2" /><g
     inkscape:label="Layer 1"
     inkscape:groupmode="layer"
     id="layer1"><path
       style="fill:#000000;stroke-width:1"
       d="m 21.656247,229.04237 v -29.10416 h 9.260417 9.260416 v 29.10416 29.10417 h -9.260416 -9.260417 z m 19.84375,0 v -29.10416 h 0.804904 c 1.796016,0 4.999986,0.88162 7.39718,2.03545 2.115865,1.01842 2.874264,1.57055 4.793504,3.48979 1.919242,1.91924 2.471375,2.67764 3.489793,4.79351 2.071796,4.30436 2.035453,3.81796 2.035453,27.24092 v 20.64866 h -9.260417 -9.260417 z m 19.84375,0 v -29.10416 h 0.804905 c 1.796016,0 4.999985,0.88162 7.397179,2.03545 2.115865,1.01842 2.874264,1.57055 4.793504,3.48979 1.919242,1.91924 2.471375,2.67764 3.489793,4.79351 2.071796,4.30436 2.035453,3.81796 2.035453,27.24092 v 20.64866 h -9.260417 -9.260417 z m 44.846883,28.81088 c -15.257734,-2.19869 -26.475681,-16.52191 -24.792865,-31.65586 1.064032,-9.56909 6.046126,-17.30458 14.365449,-22.30464 2.470552,-1.48484 4.740616,-2.38975 8.046156,-3.20741 1.94546,-0.48123 3.1318,-0.58903 6.4823,-0.58903 4.42209,0 6.89351,0.43023 10.6392,1.8521 3.77615,1.43342 8.38569,4.69725 11.11873,7.87271 8.78099,10.20246 9.72168,24.21642 2.37238,35.34258 -2.75569,4.17186 -7.44598,8.2123 -11.97246,10.31366 -4.76411,2.21168 -11.03718,3.12835 -16.25889,2.37589 z m 34.52812,-8.96713 v -9.26042 h 29.10417 29.10417 v 0.80491 c 0,1.79133 -0.88212,5.00127 -2.03281,7.39718 -1.02547,2.13517 -1.553,2.85645 -3.50444,4.79156 -1.89974,1.88384 -2.72967,2.48919 -4.79615,3.4983 -4.22594,2.06363 -3.75975,2.02889 -27.22628,2.02889 h -20.64866 z m 0,-19.84375 v -9.26041 h 29.10417 29.10417 v 9.26041 9.26042 h -29.10417 -29.10417 z m 0,-11.38824 c 0,-1.79601 0.88163,-4.99998 2.03546,-7.39717 1.01841,-2.11587 1.57055,-2.87427 3.48979,-4.79351 1.91924,-1.91924 2.67764,-2.47137 4.7935,-3.48979 4.30437,-2.0718 3.81797,-2.03545 27.24093,-2.03545 h 20.64866 v 9.26041 9.26042 h -29.10417 -29.10417 z"
       id="path302" /></g></svg>
