%TF.GenerationSoftware,KiCad,Pcbnew,9.0.3*%
%TF.CreationDate,2025-07-14T16:06:07+02:00*%
%TF.ProjectId,IF-Board,49462d42-6f61-4726-942e-6b696361645f,rev?*%
%TF.SameCoordinates,Original*%
%TF.FileFunction,Legend,Bot*%
%TF.FilePolarity,Positive*%
%FSLAX46Y46*%
G04 Gerber Fmt 4.6, Leading zero omitted, Abs format (unit mm)*
G04 Created by KiCad (PCBNEW 9.0.3) date 2025-07-14 16:06:07*
%MOMM*%
%LPD*%
G01*
G04 APERTURE LIST*
%ADD10C,0.187500*%
%ADD11C,0.150000*%
%ADD12C,0.120000*%
%ADD13R,1.700000X1.700000*%
%ADD14C,1.700000*%
G04 APERTURE END LIST*
D10*
X148552846Y-76019497D02*
X147052846Y-76019497D01*
X147052846Y-76019497D02*
X147052846Y-76376640D01*
X147052846Y-76376640D02*
X147124275Y-76590926D01*
X147124275Y-76590926D02*
X147267132Y-76733783D01*
X147267132Y-76733783D02*
X147409989Y-76805212D01*
X147409989Y-76805212D02*
X147695703Y-76876640D01*
X147695703Y-76876640D02*
X147909989Y-76876640D01*
X147909989Y-76876640D02*
X148195703Y-76805212D01*
X148195703Y-76805212D02*
X148338560Y-76733783D01*
X148338560Y-76733783D02*
X148481418Y-76590926D01*
X148481418Y-76590926D02*
X148552846Y-76376640D01*
X148552846Y-76376640D02*
X148552846Y-76019497D01*
X148552846Y-77519497D02*
X147552846Y-77519497D01*
X147052846Y-77519497D02*
X147124275Y-77448069D01*
X147124275Y-77448069D02*
X147195703Y-77519497D01*
X147195703Y-77519497D02*
X147124275Y-77590926D01*
X147124275Y-77590926D02*
X147052846Y-77519497D01*
X147052846Y-77519497D02*
X147195703Y-77519497D01*
X148552846Y-78876641D02*
X147767132Y-78876641D01*
X147767132Y-78876641D02*
X147624275Y-78805212D01*
X147624275Y-78805212D02*
X147552846Y-78662355D01*
X147552846Y-78662355D02*
X147552846Y-78376641D01*
X147552846Y-78376641D02*
X147624275Y-78233783D01*
X148481418Y-78876641D02*
X148552846Y-78733783D01*
X148552846Y-78733783D02*
X148552846Y-78376641D01*
X148552846Y-78376641D02*
X148481418Y-78233783D01*
X148481418Y-78233783D02*
X148338560Y-78162355D01*
X148338560Y-78162355D02*
X148195703Y-78162355D01*
X148195703Y-78162355D02*
X148052846Y-78233783D01*
X148052846Y-78233783D02*
X147981418Y-78376641D01*
X147981418Y-78376641D02*
X147981418Y-78733783D01*
X147981418Y-78733783D02*
X147909989Y-78876641D01*
X147552846Y-80233784D02*
X148767132Y-80233784D01*
X148767132Y-80233784D02*
X148909989Y-80162355D01*
X148909989Y-80162355D02*
X148981418Y-80090926D01*
X148981418Y-80090926D02*
X149052846Y-79948069D01*
X149052846Y-79948069D02*
X149052846Y-79733784D01*
X149052846Y-79733784D02*
X148981418Y-79590926D01*
X148481418Y-80233784D02*
X148552846Y-80090926D01*
X148552846Y-80090926D02*
X148552846Y-79805212D01*
X148552846Y-79805212D02*
X148481418Y-79662355D01*
X148481418Y-79662355D02*
X148409989Y-79590926D01*
X148409989Y-79590926D02*
X148267132Y-79519498D01*
X148267132Y-79519498D02*
X147838560Y-79519498D01*
X147838560Y-79519498D02*
X147695703Y-79590926D01*
X147695703Y-79590926D02*
X147624275Y-79662355D01*
X147624275Y-79662355D02*
X147552846Y-79805212D01*
X147552846Y-79805212D02*
X147552846Y-80090926D01*
X147552846Y-80090926D02*
X147624275Y-80233784D01*
X147052846Y-81590927D02*
X147052846Y-81305212D01*
X147052846Y-81305212D02*
X147124275Y-81162355D01*
X147124275Y-81162355D02*
X147195703Y-81090927D01*
X147195703Y-81090927D02*
X147409989Y-80948069D01*
X147409989Y-80948069D02*
X147695703Y-80876641D01*
X147695703Y-80876641D02*
X148267132Y-80876641D01*
X148267132Y-80876641D02*
X148409989Y-80948069D01*
X148409989Y-80948069D02*
X148481418Y-81019498D01*
X148481418Y-81019498D02*
X148552846Y-81162355D01*
X148552846Y-81162355D02*
X148552846Y-81448069D01*
X148552846Y-81448069D02*
X148481418Y-81590927D01*
X148481418Y-81590927D02*
X148409989Y-81662355D01*
X148409989Y-81662355D02*
X148267132Y-81733784D01*
X148267132Y-81733784D02*
X147909989Y-81733784D01*
X147909989Y-81733784D02*
X147767132Y-81662355D01*
X147767132Y-81662355D02*
X147695703Y-81590927D01*
X147695703Y-81590927D02*
X147624275Y-81448069D01*
X147624275Y-81448069D02*
X147624275Y-81162355D01*
X147624275Y-81162355D02*
X147695703Y-81019498D01*
X147695703Y-81019498D02*
X147767132Y-80948069D01*
X147767132Y-80948069D02*
X147909989Y-80876641D01*
X147052846Y-83090926D02*
X147052846Y-82376640D01*
X147052846Y-82376640D02*
X147767132Y-82305212D01*
X147767132Y-82305212D02*
X147695703Y-82376640D01*
X147695703Y-82376640D02*
X147624275Y-82519498D01*
X147624275Y-82519498D02*
X147624275Y-82876640D01*
X147624275Y-82876640D02*
X147695703Y-83019498D01*
X147695703Y-83019498D02*
X147767132Y-83090926D01*
X147767132Y-83090926D02*
X147909989Y-83162355D01*
X147909989Y-83162355D02*
X148267132Y-83162355D01*
X148267132Y-83162355D02*
X148409989Y-83090926D01*
X148409989Y-83090926D02*
X148481418Y-83019498D01*
X148481418Y-83019498D02*
X148552846Y-82876640D01*
X148552846Y-82876640D02*
X148552846Y-82519498D01*
X148552846Y-82519498D02*
X148481418Y-82376640D01*
X148481418Y-82376640D02*
X148409989Y-82305212D01*
X147052846Y-84090926D02*
X147052846Y-84233783D01*
X147052846Y-84233783D02*
X147124275Y-84376640D01*
X147124275Y-84376640D02*
X147195703Y-84448069D01*
X147195703Y-84448069D02*
X147338560Y-84519497D01*
X147338560Y-84519497D02*
X147624275Y-84590926D01*
X147624275Y-84590926D02*
X147981418Y-84590926D01*
X147981418Y-84590926D02*
X148267132Y-84519497D01*
X148267132Y-84519497D02*
X148409989Y-84448069D01*
X148409989Y-84448069D02*
X148481418Y-84376640D01*
X148481418Y-84376640D02*
X148552846Y-84233783D01*
X148552846Y-84233783D02*
X148552846Y-84090926D01*
X148552846Y-84090926D02*
X148481418Y-83948069D01*
X148481418Y-83948069D02*
X148409989Y-83876640D01*
X148409989Y-83876640D02*
X148267132Y-83805211D01*
X148267132Y-83805211D02*
X147981418Y-83733783D01*
X147981418Y-83733783D02*
X147624275Y-83733783D01*
X147624275Y-83733783D02*
X147338560Y-83805211D01*
X147338560Y-83805211D02*
X147195703Y-83876640D01*
X147195703Y-83876640D02*
X147124275Y-83948069D01*
X147124275Y-83948069D02*
X147052846Y-84090926D01*
X147195703Y-85162354D02*
X147124275Y-85233782D01*
X147124275Y-85233782D02*
X147052846Y-85376640D01*
X147052846Y-85376640D02*
X147052846Y-85733782D01*
X147052846Y-85733782D02*
X147124275Y-85876640D01*
X147124275Y-85876640D02*
X147195703Y-85948068D01*
X147195703Y-85948068D02*
X147338560Y-86019497D01*
X147338560Y-86019497D02*
X147481418Y-86019497D01*
X147481418Y-86019497D02*
X147695703Y-85948068D01*
X147695703Y-85948068D02*
X148552846Y-85090925D01*
X148552846Y-85090925D02*
X148552846Y-86019497D01*
X148552846Y-87805210D02*
X147052846Y-87805210D01*
X147052846Y-87805210D02*
X148124275Y-88305210D01*
X148124275Y-88305210D02*
X147052846Y-88805210D01*
X147052846Y-88805210D02*
X148552846Y-88805210D01*
X147052846Y-89805211D02*
X147052846Y-90090925D01*
X147052846Y-90090925D02*
X147124275Y-90233782D01*
X147124275Y-90233782D02*
X147267132Y-90376639D01*
X147267132Y-90376639D02*
X147552846Y-90448068D01*
X147552846Y-90448068D02*
X148052846Y-90448068D01*
X148052846Y-90448068D02*
X148338560Y-90376639D01*
X148338560Y-90376639D02*
X148481418Y-90233782D01*
X148481418Y-90233782D02*
X148552846Y-90090925D01*
X148552846Y-90090925D02*
X148552846Y-89805211D01*
X148552846Y-89805211D02*
X148481418Y-89662354D01*
X148481418Y-89662354D02*
X148338560Y-89519496D01*
X148338560Y-89519496D02*
X148052846Y-89448068D01*
X148052846Y-89448068D02*
X147552846Y-89448068D01*
X147552846Y-89448068D02*
X147267132Y-89519496D01*
X147267132Y-89519496D02*
X147124275Y-89662354D01*
X147124275Y-89662354D02*
X147052846Y-89805211D01*
X148481418Y-91019497D02*
X148552846Y-91233783D01*
X148552846Y-91233783D02*
X148552846Y-91590925D01*
X148552846Y-91590925D02*
X148481418Y-91733783D01*
X148481418Y-91733783D02*
X148409989Y-91805211D01*
X148409989Y-91805211D02*
X148267132Y-91876640D01*
X148267132Y-91876640D02*
X148124275Y-91876640D01*
X148124275Y-91876640D02*
X147981418Y-91805211D01*
X147981418Y-91805211D02*
X147909989Y-91733783D01*
X147909989Y-91733783D02*
X147838560Y-91590925D01*
X147838560Y-91590925D02*
X147767132Y-91305211D01*
X147767132Y-91305211D02*
X147695703Y-91162354D01*
X147695703Y-91162354D02*
X147624275Y-91090925D01*
X147624275Y-91090925D02*
X147481418Y-91019497D01*
X147481418Y-91019497D02*
X147338560Y-91019497D01*
X147338560Y-91019497D02*
X147195703Y-91090925D01*
X147195703Y-91090925D02*
X147124275Y-91162354D01*
X147124275Y-91162354D02*
X147052846Y-91305211D01*
X147052846Y-91305211D02*
X147052846Y-91662354D01*
X147052846Y-91662354D02*
X147124275Y-91876640D01*
X147052846Y-93162354D02*
X147052846Y-92876639D01*
X147052846Y-92876639D02*
X147124275Y-92733782D01*
X147124275Y-92733782D02*
X147195703Y-92662354D01*
X147195703Y-92662354D02*
X147409989Y-92519496D01*
X147409989Y-92519496D02*
X147695703Y-92448068D01*
X147695703Y-92448068D02*
X148267132Y-92448068D01*
X148267132Y-92448068D02*
X148409989Y-92519496D01*
X148409989Y-92519496D02*
X148481418Y-92590925D01*
X148481418Y-92590925D02*
X148552846Y-92733782D01*
X148552846Y-92733782D02*
X148552846Y-93019496D01*
X148552846Y-93019496D02*
X148481418Y-93162354D01*
X148481418Y-93162354D02*
X148409989Y-93233782D01*
X148409989Y-93233782D02*
X148267132Y-93305211D01*
X148267132Y-93305211D02*
X147909989Y-93305211D01*
X147909989Y-93305211D02*
X147767132Y-93233782D01*
X147767132Y-93233782D02*
X147695703Y-93162354D01*
X147695703Y-93162354D02*
X147624275Y-93019496D01*
X147624275Y-93019496D02*
X147624275Y-92733782D01*
X147624275Y-92733782D02*
X147695703Y-92590925D01*
X147695703Y-92590925D02*
X147767132Y-92519496D01*
X147767132Y-92519496D02*
X147909989Y-92448068D01*
X147052846Y-94662353D02*
X147052846Y-93948067D01*
X147052846Y-93948067D02*
X147767132Y-93876639D01*
X147767132Y-93876639D02*
X147695703Y-93948067D01*
X147695703Y-93948067D02*
X147624275Y-94090925D01*
X147624275Y-94090925D02*
X147624275Y-94448067D01*
X147624275Y-94448067D02*
X147695703Y-94590925D01*
X147695703Y-94590925D02*
X147767132Y-94662353D01*
X147767132Y-94662353D02*
X147909989Y-94733782D01*
X147909989Y-94733782D02*
X148267132Y-94733782D01*
X148267132Y-94733782D02*
X148409989Y-94662353D01*
X148409989Y-94662353D02*
X148481418Y-94590925D01*
X148481418Y-94590925D02*
X148552846Y-94448067D01*
X148552846Y-94448067D02*
X148552846Y-94090925D01*
X148552846Y-94090925D02*
X148481418Y-93948067D01*
X148481418Y-93948067D02*
X148409989Y-93876639D01*
X147052846Y-95662353D02*
X147052846Y-95805210D01*
X147052846Y-95805210D02*
X147124275Y-95948067D01*
X147124275Y-95948067D02*
X147195703Y-96019496D01*
X147195703Y-96019496D02*
X147338560Y-96090924D01*
X147338560Y-96090924D02*
X147624275Y-96162353D01*
X147624275Y-96162353D02*
X147981418Y-96162353D01*
X147981418Y-96162353D02*
X148267132Y-96090924D01*
X148267132Y-96090924D02*
X148409989Y-96019496D01*
X148409989Y-96019496D02*
X148481418Y-95948067D01*
X148481418Y-95948067D02*
X148552846Y-95805210D01*
X148552846Y-95805210D02*
X148552846Y-95662353D01*
X148552846Y-95662353D02*
X148481418Y-95519496D01*
X148481418Y-95519496D02*
X148409989Y-95448067D01*
X148409989Y-95448067D02*
X148267132Y-95376638D01*
X148267132Y-95376638D02*
X147981418Y-95305210D01*
X147981418Y-95305210D02*
X147624275Y-95305210D01*
X147624275Y-95305210D02*
X147338560Y-95376638D01*
X147338560Y-95376638D02*
X147195703Y-95448067D01*
X147195703Y-95448067D02*
X147124275Y-95519496D01*
X147124275Y-95519496D02*
X147052846Y-95662353D01*
X147195703Y-96733781D02*
X147124275Y-96805209D01*
X147124275Y-96805209D02*
X147052846Y-96948067D01*
X147052846Y-96948067D02*
X147052846Y-97305209D01*
X147052846Y-97305209D02*
X147124275Y-97448067D01*
X147124275Y-97448067D02*
X147195703Y-97519495D01*
X147195703Y-97519495D02*
X147338560Y-97590924D01*
X147338560Y-97590924D02*
X147481418Y-97590924D01*
X147481418Y-97590924D02*
X147695703Y-97519495D01*
X147695703Y-97519495D02*
X148552846Y-96662352D01*
X148552846Y-96662352D02*
X148552846Y-97590924D01*
X148552846Y-99376637D02*
X147052846Y-99376637D01*
X146981418Y-101162352D02*
X148909989Y-99876638D01*
X147767132Y-102162352D02*
X147767132Y-101662352D01*
X148552846Y-101662352D02*
X147052846Y-101662352D01*
X147052846Y-101662352D02*
X147052846Y-102376638D01*
X150967762Y-76876640D02*
X150253476Y-76376640D01*
X150967762Y-76019497D02*
X149467762Y-76019497D01*
X149467762Y-76019497D02*
X149467762Y-76590926D01*
X149467762Y-76590926D02*
X149539191Y-76733783D01*
X149539191Y-76733783D02*
X149610619Y-76805212D01*
X149610619Y-76805212D02*
X149753476Y-76876640D01*
X149753476Y-76876640D02*
X149967762Y-76876640D01*
X149967762Y-76876640D02*
X150110619Y-76805212D01*
X150110619Y-76805212D02*
X150182048Y-76733783D01*
X150182048Y-76733783D02*
X150253476Y-76590926D01*
X150253476Y-76590926D02*
X150253476Y-76019497D01*
X150896334Y-78090926D02*
X150967762Y-77948069D01*
X150967762Y-77948069D02*
X150967762Y-77662355D01*
X150967762Y-77662355D02*
X150896334Y-77519497D01*
X150896334Y-77519497D02*
X150753476Y-77448069D01*
X150753476Y-77448069D02*
X150182048Y-77448069D01*
X150182048Y-77448069D02*
X150039191Y-77519497D01*
X150039191Y-77519497D02*
X149967762Y-77662355D01*
X149967762Y-77662355D02*
X149967762Y-77948069D01*
X149967762Y-77948069D02*
X150039191Y-78090926D01*
X150039191Y-78090926D02*
X150182048Y-78162355D01*
X150182048Y-78162355D02*
X150324905Y-78162355D01*
X150324905Y-78162355D02*
X150467762Y-77448069D01*
X149967762Y-78662354D02*
X150967762Y-79019497D01*
X150967762Y-79019497D02*
X149967762Y-79376640D01*
X150824905Y-79948068D02*
X150896334Y-80019497D01*
X150896334Y-80019497D02*
X150967762Y-79948068D01*
X150967762Y-79948068D02*
X150896334Y-79876640D01*
X150896334Y-79876640D02*
X150824905Y-79948068D01*
X150824905Y-79948068D02*
X150967762Y-79948068D01*
X150539191Y-80590926D02*
X150539191Y-81305212D01*
X150967762Y-80448069D02*
X149467762Y-80948069D01*
X149467762Y-80948069D02*
X150967762Y-81448069D01*
X149467762Y-82876640D02*
X149467762Y-83733783D01*
X150967762Y-83305211D02*
X149467762Y-83305211D01*
X150967762Y-84233782D02*
X149467762Y-84233782D01*
X150182048Y-84233782D02*
X150182048Y-85090925D01*
X150967762Y-85090925D02*
X149467762Y-85090925D01*
X149396334Y-86876640D02*
X151324905Y-85590926D01*
X149610619Y-87305212D02*
X149539191Y-87376640D01*
X149539191Y-87376640D02*
X149467762Y-87519498D01*
X149467762Y-87519498D02*
X149467762Y-87876640D01*
X149467762Y-87876640D02*
X149539191Y-88019498D01*
X149539191Y-88019498D02*
X149610619Y-88090926D01*
X149610619Y-88090926D02*
X149753476Y-88162355D01*
X149753476Y-88162355D02*
X149896334Y-88162355D01*
X149896334Y-88162355D02*
X150110619Y-88090926D01*
X150110619Y-88090926D02*
X150967762Y-87233783D01*
X150967762Y-87233783D02*
X150967762Y-88162355D01*
X149467762Y-89090926D02*
X149467762Y-89233783D01*
X149467762Y-89233783D02*
X149539191Y-89376640D01*
X149539191Y-89376640D02*
X149610619Y-89448069D01*
X149610619Y-89448069D02*
X149753476Y-89519497D01*
X149753476Y-89519497D02*
X150039191Y-89590926D01*
X150039191Y-89590926D02*
X150396334Y-89590926D01*
X150396334Y-89590926D02*
X150682048Y-89519497D01*
X150682048Y-89519497D02*
X150824905Y-89448069D01*
X150824905Y-89448069D02*
X150896334Y-89376640D01*
X150896334Y-89376640D02*
X150967762Y-89233783D01*
X150967762Y-89233783D02*
X150967762Y-89090926D01*
X150967762Y-89090926D02*
X150896334Y-88948069D01*
X150896334Y-88948069D02*
X150824905Y-88876640D01*
X150824905Y-88876640D02*
X150682048Y-88805211D01*
X150682048Y-88805211D02*
X150396334Y-88733783D01*
X150396334Y-88733783D02*
X150039191Y-88733783D01*
X150039191Y-88733783D02*
X149753476Y-88805211D01*
X149753476Y-88805211D02*
X149610619Y-88876640D01*
X149610619Y-88876640D02*
X149539191Y-88948069D01*
X149539191Y-88948069D02*
X149467762Y-89090926D01*
X149610619Y-90162354D02*
X149539191Y-90233782D01*
X149539191Y-90233782D02*
X149467762Y-90376640D01*
X149467762Y-90376640D02*
X149467762Y-90733782D01*
X149467762Y-90733782D02*
X149539191Y-90876640D01*
X149539191Y-90876640D02*
X149610619Y-90948068D01*
X149610619Y-90948068D02*
X149753476Y-91019497D01*
X149753476Y-91019497D02*
X149896334Y-91019497D01*
X149896334Y-91019497D02*
X150110619Y-90948068D01*
X150110619Y-90948068D02*
X150967762Y-90090925D01*
X150967762Y-90090925D02*
X150967762Y-91019497D01*
X149467762Y-92376639D02*
X149467762Y-91662353D01*
X149467762Y-91662353D02*
X150182048Y-91590925D01*
X150182048Y-91590925D02*
X150110619Y-91662353D01*
X150110619Y-91662353D02*
X150039191Y-91805211D01*
X150039191Y-91805211D02*
X150039191Y-92162353D01*
X150039191Y-92162353D02*
X150110619Y-92305211D01*
X150110619Y-92305211D02*
X150182048Y-92376639D01*
X150182048Y-92376639D02*
X150324905Y-92448068D01*
X150324905Y-92448068D02*
X150682048Y-92448068D01*
X150682048Y-92448068D02*
X150824905Y-92376639D01*
X150824905Y-92376639D02*
X150896334Y-92305211D01*
X150896334Y-92305211D02*
X150967762Y-92162353D01*
X150967762Y-92162353D02*
X150967762Y-91805211D01*
X150967762Y-91805211D02*
X150896334Y-91662353D01*
X150896334Y-91662353D02*
X150824905Y-91590925D01*
X150396334Y-93090924D02*
X150396334Y-94233782D01*
X149467762Y-95233782D02*
X149467762Y-95376639D01*
X149467762Y-95376639D02*
X149539191Y-95519496D01*
X149539191Y-95519496D02*
X149610619Y-95590925D01*
X149610619Y-95590925D02*
X149753476Y-95662353D01*
X149753476Y-95662353D02*
X150039191Y-95733782D01*
X150039191Y-95733782D02*
X150396334Y-95733782D01*
X150396334Y-95733782D02*
X150682048Y-95662353D01*
X150682048Y-95662353D02*
X150824905Y-95590925D01*
X150824905Y-95590925D02*
X150896334Y-95519496D01*
X150896334Y-95519496D02*
X150967762Y-95376639D01*
X150967762Y-95376639D02*
X150967762Y-95233782D01*
X150967762Y-95233782D02*
X150896334Y-95090925D01*
X150896334Y-95090925D02*
X150824905Y-95019496D01*
X150824905Y-95019496D02*
X150682048Y-94948067D01*
X150682048Y-94948067D02*
X150396334Y-94876639D01*
X150396334Y-94876639D02*
X150039191Y-94876639D01*
X150039191Y-94876639D02*
X149753476Y-94948067D01*
X149753476Y-94948067D02*
X149610619Y-95019496D01*
X149610619Y-95019496D02*
X149539191Y-95090925D01*
X149539191Y-95090925D02*
X149467762Y-95233782D01*
X149467762Y-96233781D02*
X149467762Y-97233781D01*
X149467762Y-97233781D02*
X150967762Y-96590924D01*
X153311250Y-75948069D02*
X153382678Y-76090926D01*
X153382678Y-76090926D02*
X153382678Y-76376640D01*
X153382678Y-76376640D02*
X153311250Y-76519497D01*
X153311250Y-76519497D02*
X153168392Y-76590926D01*
X153168392Y-76590926D02*
X153096964Y-76590926D01*
X153096964Y-76590926D02*
X152954107Y-76519497D01*
X152954107Y-76519497D02*
X152882678Y-76376640D01*
X152882678Y-76376640D02*
X152882678Y-76162355D01*
X152882678Y-76162355D02*
X152811250Y-76019497D01*
X152811250Y-76019497D02*
X152668392Y-75948069D01*
X152668392Y-75948069D02*
X152596964Y-75948069D01*
X152596964Y-75948069D02*
X152454107Y-76019497D01*
X152454107Y-76019497D02*
X152382678Y-76162355D01*
X152382678Y-76162355D02*
X152382678Y-76376640D01*
X152382678Y-76376640D02*
X152454107Y-76519497D01*
X152382678Y-77019498D02*
X152382678Y-77590926D01*
X151882678Y-77233783D02*
X153168392Y-77233783D01*
X153168392Y-77233783D02*
X153311250Y-77305212D01*
X153311250Y-77305212D02*
X153382678Y-77448069D01*
X153382678Y-77448069D02*
X153382678Y-77590926D01*
X153382678Y-78733784D02*
X152596964Y-78733784D01*
X152596964Y-78733784D02*
X152454107Y-78662355D01*
X152454107Y-78662355D02*
X152382678Y-78519498D01*
X152382678Y-78519498D02*
X152382678Y-78233784D01*
X152382678Y-78233784D02*
X152454107Y-78090926D01*
X153311250Y-78733784D02*
X153382678Y-78590926D01*
X153382678Y-78590926D02*
X153382678Y-78233784D01*
X153382678Y-78233784D02*
X153311250Y-78090926D01*
X153311250Y-78090926D02*
X153168392Y-78019498D01*
X153168392Y-78019498D02*
X153025535Y-78019498D01*
X153025535Y-78019498D02*
X152882678Y-78090926D01*
X152882678Y-78090926D02*
X152811250Y-78233784D01*
X152811250Y-78233784D02*
X152811250Y-78590926D01*
X152811250Y-78590926D02*
X152739821Y-78733784D01*
X153382678Y-79448069D02*
X152382678Y-79448069D01*
X152668392Y-79448069D02*
X152525535Y-79519498D01*
X152525535Y-79519498D02*
X152454107Y-79590927D01*
X152454107Y-79590927D02*
X152382678Y-79733784D01*
X152382678Y-79733784D02*
X152382678Y-79876641D01*
X152382678Y-80162355D02*
X152382678Y-80733783D01*
X151882678Y-80376640D02*
X153168392Y-80376640D01*
X153168392Y-80376640D02*
X153311250Y-80448069D01*
X153311250Y-80448069D02*
X153382678Y-80590926D01*
X153382678Y-80590926D02*
X153382678Y-80733783D01*
X152811250Y-81233783D02*
X152811250Y-82376641D01*
X153382678Y-83733784D02*
X152596964Y-83733784D01*
X152596964Y-83733784D02*
X152454107Y-83662355D01*
X152454107Y-83662355D02*
X152382678Y-83519498D01*
X152382678Y-83519498D02*
X152382678Y-83233784D01*
X152382678Y-83233784D02*
X152454107Y-83090926D01*
X153311250Y-83733784D02*
X153382678Y-83590926D01*
X153382678Y-83590926D02*
X153382678Y-83233784D01*
X153382678Y-83233784D02*
X153311250Y-83090926D01*
X153311250Y-83090926D02*
X153168392Y-83019498D01*
X153168392Y-83019498D02*
X153025535Y-83019498D01*
X153025535Y-83019498D02*
X152882678Y-83090926D01*
X152882678Y-83090926D02*
X152811250Y-83233784D01*
X152811250Y-83233784D02*
X152811250Y-83590926D01*
X152811250Y-83590926D02*
X152739821Y-83733784D01*
X152811250Y-84448069D02*
X152811250Y-85590927D01*
X153382678Y-86948070D02*
X151882678Y-86948070D01*
X153311250Y-86948070D02*
X153382678Y-86805212D01*
X153382678Y-86805212D02*
X153382678Y-86519498D01*
X153382678Y-86519498D02*
X153311250Y-86376641D01*
X153311250Y-86376641D02*
X153239821Y-86305212D01*
X153239821Y-86305212D02*
X153096964Y-86233784D01*
X153096964Y-86233784D02*
X152668392Y-86233784D01*
X152668392Y-86233784D02*
X152525535Y-86305212D01*
X152525535Y-86305212D02*
X152454107Y-86376641D01*
X152454107Y-86376641D02*
X152382678Y-86519498D01*
X152382678Y-86519498D02*
X152382678Y-86805212D01*
X152382678Y-86805212D02*
X152454107Y-86948070D01*
X153382678Y-87876641D02*
X153311250Y-87733784D01*
X153311250Y-87733784D02*
X153239821Y-87662355D01*
X153239821Y-87662355D02*
X153096964Y-87590927D01*
X153096964Y-87590927D02*
X152668392Y-87590927D01*
X152668392Y-87590927D02*
X152525535Y-87662355D01*
X152525535Y-87662355D02*
X152454107Y-87733784D01*
X152454107Y-87733784D02*
X152382678Y-87876641D01*
X152382678Y-87876641D02*
X152382678Y-88090927D01*
X152382678Y-88090927D02*
X152454107Y-88233784D01*
X152454107Y-88233784D02*
X152525535Y-88305213D01*
X152525535Y-88305213D02*
X152668392Y-88376641D01*
X152668392Y-88376641D02*
X153096964Y-88376641D01*
X153096964Y-88376641D02*
X153239821Y-88305213D01*
X153239821Y-88305213D02*
X153311250Y-88233784D01*
X153311250Y-88233784D02*
X153382678Y-88090927D01*
X153382678Y-88090927D02*
X153382678Y-87876641D01*
X152382678Y-88876641D02*
X152382678Y-89662356D01*
X152382678Y-89662356D02*
X153382678Y-88876641D01*
X153382678Y-88876641D02*
X153382678Y-89662356D01*
X153311250Y-90805213D02*
X153382678Y-90662356D01*
X153382678Y-90662356D02*
X153382678Y-90376642D01*
X153382678Y-90376642D02*
X153311250Y-90233784D01*
X153311250Y-90233784D02*
X153168392Y-90162356D01*
X153168392Y-90162356D02*
X152596964Y-90162356D01*
X152596964Y-90162356D02*
X152454107Y-90233784D01*
X152454107Y-90233784D02*
X152382678Y-90376642D01*
X152382678Y-90376642D02*
X152382678Y-90662356D01*
X152382678Y-90662356D02*
X152454107Y-90805213D01*
X152454107Y-90805213D02*
X152596964Y-90876642D01*
X152596964Y-90876642D02*
X152739821Y-90876642D01*
X152739821Y-90876642D02*
X152882678Y-90162356D01*
X152382678Y-91519498D02*
X153382678Y-91519498D01*
X152525535Y-91519498D02*
X152454107Y-91590927D01*
X152454107Y-91590927D02*
X152382678Y-91733784D01*
X152382678Y-91733784D02*
X152382678Y-91948070D01*
X152382678Y-91948070D02*
X152454107Y-92090927D01*
X152454107Y-92090927D02*
X152596964Y-92162356D01*
X152596964Y-92162356D02*
X153382678Y-92162356D01*
X153239821Y-92876641D02*
X153311250Y-92948070D01*
X153311250Y-92948070D02*
X153382678Y-92876641D01*
X153382678Y-92876641D02*
X153311250Y-92805213D01*
X153311250Y-92805213D02*
X153239821Y-92876641D01*
X153239821Y-92876641D02*
X153382678Y-92876641D01*
X153311250Y-94233785D02*
X153382678Y-94090927D01*
X153382678Y-94090927D02*
X153382678Y-93805213D01*
X153382678Y-93805213D02*
X153311250Y-93662356D01*
X153311250Y-93662356D02*
X153239821Y-93590927D01*
X153239821Y-93590927D02*
X153096964Y-93519499D01*
X153096964Y-93519499D02*
X152668392Y-93519499D01*
X152668392Y-93519499D02*
X152525535Y-93590927D01*
X152525535Y-93590927D02*
X152454107Y-93662356D01*
X152454107Y-93662356D02*
X152382678Y-93805213D01*
X152382678Y-93805213D02*
X152382678Y-94090927D01*
X152382678Y-94090927D02*
X152454107Y-94233785D01*
X153382678Y-95090927D02*
X153311250Y-94948070D01*
X153311250Y-94948070D02*
X153239821Y-94876641D01*
X153239821Y-94876641D02*
X153096964Y-94805213D01*
X153096964Y-94805213D02*
X152668392Y-94805213D01*
X152668392Y-94805213D02*
X152525535Y-94876641D01*
X152525535Y-94876641D02*
X152454107Y-94948070D01*
X152454107Y-94948070D02*
X152382678Y-95090927D01*
X152382678Y-95090927D02*
X152382678Y-95305213D01*
X152382678Y-95305213D02*
X152454107Y-95448070D01*
X152454107Y-95448070D02*
X152525535Y-95519499D01*
X152525535Y-95519499D02*
X152668392Y-95590927D01*
X152668392Y-95590927D02*
X153096964Y-95590927D01*
X153096964Y-95590927D02*
X153239821Y-95519499D01*
X153239821Y-95519499D02*
X153311250Y-95448070D01*
X153311250Y-95448070D02*
X153382678Y-95305213D01*
X153382678Y-95305213D02*
X153382678Y-95090927D01*
X153382678Y-96233784D02*
X152382678Y-96233784D01*
X152525535Y-96233784D02*
X152454107Y-96305213D01*
X152454107Y-96305213D02*
X152382678Y-96448070D01*
X152382678Y-96448070D02*
X152382678Y-96662356D01*
X152382678Y-96662356D02*
X152454107Y-96805213D01*
X152454107Y-96805213D02*
X152596964Y-96876642D01*
X152596964Y-96876642D02*
X153382678Y-96876642D01*
X152596964Y-96876642D02*
X152454107Y-96948070D01*
X152454107Y-96948070D02*
X152382678Y-97090927D01*
X152382678Y-97090927D02*
X152382678Y-97305213D01*
X152382678Y-97305213D02*
X152454107Y-97448070D01*
X152454107Y-97448070D02*
X152596964Y-97519499D01*
X152596964Y-97519499D02*
X153382678Y-97519499D01*
X151811250Y-99305213D02*
X153739821Y-98019499D01*
X153382678Y-100448071D02*
X151882678Y-100448071D01*
X153311250Y-100448071D02*
X153382678Y-100305213D01*
X153382678Y-100305213D02*
X153382678Y-100019499D01*
X153382678Y-100019499D02*
X153311250Y-99876642D01*
X153311250Y-99876642D02*
X153239821Y-99805213D01*
X153239821Y-99805213D02*
X153096964Y-99733785D01*
X153096964Y-99733785D02*
X152668392Y-99733785D01*
X152668392Y-99733785D02*
X152525535Y-99805213D01*
X152525535Y-99805213D02*
X152454107Y-99876642D01*
X152454107Y-99876642D02*
X152382678Y-100019499D01*
X152382678Y-100019499D02*
X152382678Y-100305213D01*
X152382678Y-100305213D02*
X152454107Y-100448071D01*
X153382678Y-101162356D02*
X152382678Y-101162356D01*
X151882678Y-101162356D02*
X151954107Y-101090928D01*
X151954107Y-101090928D02*
X152025535Y-101162356D01*
X152025535Y-101162356D02*
X151954107Y-101233785D01*
X151954107Y-101233785D02*
X151882678Y-101162356D01*
X151882678Y-101162356D02*
X152025535Y-101162356D01*
X153382678Y-102519500D02*
X152596964Y-102519500D01*
X152596964Y-102519500D02*
X152454107Y-102448071D01*
X152454107Y-102448071D02*
X152382678Y-102305214D01*
X152382678Y-102305214D02*
X152382678Y-102019500D01*
X152382678Y-102019500D02*
X152454107Y-101876642D01*
X153311250Y-102519500D02*
X153382678Y-102376642D01*
X153382678Y-102376642D02*
X153382678Y-102019500D01*
X153382678Y-102019500D02*
X153311250Y-101876642D01*
X153311250Y-101876642D02*
X153168392Y-101805214D01*
X153168392Y-101805214D02*
X153025535Y-101805214D01*
X153025535Y-101805214D02*
X152882678Y-101876642D01*
X152882678Y-101876642D02*
X152811250Y-102019500D01*
X152811250Y-102019500D02*
X152811250Y-102376642D01*
X152811250Y-102376642D02*
X152739821Y-102519500D01*
X152382678Y-103876643D02*
X153596964Y-103876643D01*
X153596964Y-103876643D02*
X153739821Y-103805214D01*
X153739821Y-103805214D02*
X153811250Y-103733785D01*
X153811250Y-103733785D02*
X153882678Y-103590928D01*
X153882678Y-103590928D02*
X153882678Y-103376643D01*
X153882678Y-103376643D02*
X153811250Y-103233785D01*
X153311250Y-103876643D02*
X153382678Y-103733785D01*
X153382678Y-103733785D02*
X153382678Y-103448071D01*
X153382678Y-103448071D02*
X153311250Y-103305214D01*
X153311250Y-103305214D02*
X153239821Y-103233785D01*
X153239821Y-103233785D02*
X153096964Y-103162357D01*
X153096964Y-103162357D02*
X152668392Y-103162357D01*
X152668392Y-103162357D02*
X152525535Y-103233785D01*
X152525535Y-103233785D02*
X152454107Y-103305214D01*
X152454107Y-103305214D02*
X152382678Y-103448071D01*
X152382678Y-103448071D02*
X152382678Y-103733785D01*
X152382678Y-103733785D02*
X152454107Y-103876643D01*
X151882678Y-105233786D02*
X151882678Y-104948071D01*
X151882678Y-104948071D02*
X151954107Y-104805214D01*
X151954107Y-104805214D02*
X152025535Y-104733786D01*
X152025535Y-104733786D02*
X152239821Y-104590928D01*
X152239821Y-104590928D02*
X152525535Y-104519500D01*
X152525535Y-104519500D02*
X153096964Y-104519500D01*
X153096964Y-104519500D02*
X153239821Y-104590928D01*
X153239821Y-104590928D02*
X153311250Y-104662357D01*
X153311250Y-104662357D02*
X153382678Y-104805214D01*
X153382678Y-104805214D02*
X153382678Y-105090928D01*
X153382678Y-105090928D02*
X153311250Y-105233786D01*
X153311250Y-105233786D02*
X153239821Y-105305214D01*
X153239821Y-105305214D02*
X153096964Y-105376643D01*
X153096964Y-105376643D02*
X152739821Y-105376643D01*
X152739821Y-105376643D02*
X152596964Y-105305214D01*
X152596964Y-105305214D02*
X152525535Y-105233786D01*
X152525535Y-105233786D02*
X152454107Y-105090928D01*
X152454107Y-105090928D02*
X152454107Y-104805214D01*
X152454107Y-104805214D02*
X152525535Y-104662357D01*
X152525535Y-104662357D02*
X152596964Y-104590928D01*
X152596964Y-104590928D02*
X152739821Y-104519500D01*
X151882678Y-106733785D02*
X151882678Y-106019499D01*
X151882678Y-106019499D02*
X152596964Y-105948071D01*
X152596964Y-105948071D02*
X152525535Y-106019499D01*
X152525535Y-106019499D02*
X152454107Y-106162357D01*
X152454107Y-106162357D02*
X152454107Y-106519499D01*
X152454107Y-106519499D02*
X152525535Y-106662357D01*
X152525535Y-106662357D02*
X152596964Y-106733785D01*
X152596964Y-106733785D02*
X152739821Y-106805214D01*
X152739821Y-106805214D02*
X153096964Y-106805214D01*
X153096964Y-106805214D02*
X153239821Y-106733785D01*
X153239821Y-106733785D02*
X153311250Y-106662357D01*
X153311250Y-106662357D02*
X153382678Y-106519499D01*
X153382678Y-106519499D02*
X153382678Y-106162357D01*
X153382678Y-106162357D02*
X153311250Y-106019499D01*
X153311250Y-106019499D02*
X153239821Y-105948071D01*
X151882678Y-107733785D02*
X151882678Y-107876642D01*
X151882678Y-107876642D02*
X151954107Y-108019499D01*
X151954107Y-108019499D02*
X152025535Y-108090928D01*
X152025535Y-108090928D02*
X152168392Y-108162356D01*
X152168392Y-108162356D02*
X152454107Y-108233785D01*
X152454107Y-108233785D02*
X152811250Y-108233785D01*
X152811250Y-108233785D02*
X153096964Y-108162356D01*
X153096964Y-108162356D02*
X153239821Y-108090928D01*
X153239821Y-108090928D02*
X153311250Y-108019499D01*
X153311250Y-108019499D02*
X153382678Y-107876642D01*
X153382678Y-107876642D02*
X153382678Y-107733785D01*
X153382678Y-107733785D02*
X153311250Y-107590928D01*
X153311250Y-107590928D02*
X153239821Y-107519499D01*
X153239821Y-107519499D02*
X153096964Y-107448070D01*
X153096964Y-107448070D02*
X152811250Y-107376642D01*
X152811250Y-107376642D02*
X152454107Y-107376642D01*
X152454107Y-107376642D02*
X152168392Y-107448070D01*
X152168392Y-107448070D02*
X152025535Y-107519499D01*
X152025535Y-107519499D02*
X151954107Y-107590928D01*
X151954107Y-107590928D02*
X151882678Y-107733785D01*
X152025535Y-108805213D02*
X151954107Y-108876641D01*
X151954107Y-108876641D02*
X151882678Y-109019499D01*
X151882678Y-109019499D02*
X151882678Y-109376641D01*
X151882678Y-109376641D02*
X151954107Y-109519499D01*
X151954107Y-109519499D02*
X152025535Y-109590927D01*
X152025535Y-109590927D02*
X152168392Y-109662356D01*
X152168392Y-109662356D02*
X152311250Y-109662356D01*
X152311250Y-109662356D02*
X152525535Y-109590927D01*
X152525535Y-109590927D02*
X153382678Y-108733784D01*
X153382678Y-108733784D02*
X153382678Y-109662356D01*
D11*
X146003523Y-74104819D02*
X146003523Y-74819104D01*
X146003523Y-74819104D02*
X146051142Y-74961961D01*
X146051142Y-74961961D02*
X146146380Y-75057200D01*
X146146380Y-75057200D02*
X146289237Y-75104819D01*
X146289237Y-75104819D02*
X146384475Y-75104819D01*
X145003523Y-75104819D02*
X145574951Y-75104819D01*
X145289237Y-75104819D02*
X145289237Y-74104819D01*
X145289237Y-74104819D02*
X145384475Y-74247676D01*
X145384475Y-74247676D02*
X145479713Y-74342914D01*
X145479713Y-74342914D02*
X145574951Y-74390533D01*
X144051142Y-75104819D02*
X144622570Y-75104819D01*
X144336856Y-75104819D02*
X144336856Y-74104819D01*
X144336856Y-74104819D02*
X144432094Y-74247676D01*
X144432094Y-74247676D02*
X144527332Y-74342914D01*
X144527332Y-74342914D02*
X144622570Y-74390533D01*
X155909523Y-73850819D02*
X155909523Y-74565104D01*
X155909523Y-74565104D02*
X155957142Y-74707961D01*
X155957142Y-74707961D02*
X156052380Y-74803200D01*
X156052380Y-74803200D02*
X156195237Y-74850819D01*
X156195237Y-74850819D02*
X156290475Y-74850819D01*
X154909523Y-74850819D02*
X155480951Y-74850819D01*
X155195237Y-74850819D02*
X155195237Y-73850819D01*
X155195237Y-73850819D02*
X155290475Y-73993676D01*
X155290475Y-73993676D02*
X155385713Y-74088914D01*
X155385713Y-74088914D02*
X155480951Y-74136533D01*
X154290475Y-73850819D02*
X154195237Y-73850819D01*
X154195237Y-73850819D02*
X154099999Y-73898438D01*
X154099999Y-73898438D02*
X154052380Y-73946057D01*
X154052380Y-73946057D02*
X154004761Y-74041295D01*
X154004761Y-74041295D02*
X153957142Y-74231771D01*
X153957142Y-74231771D02*
X153957142Y-74469866D01*
X153957142Y-74469866D02*
X154004761Y-74660342D01*
X154004761Y-74660342D02*
X154052380Y-74755580D01*
X154052380Y-74755580D02*
X154099999Y-74803200D01*
X154099999Y-74803200D02*
X154195237Y-74850819D01*
X154195237Y-74850819D02*
X154290475Y-74850819D01*
X154290475Y-74850819D02*
X154385713Y-74803200D01*
X154385713Y-74803200D02*
X154433332Y-74755580D01*
X154433332Y-74755580D02*
X154480951Y-74660342D01*
X154480951Y-74660342D02*
X154528570Y-74469866D01*
X154528570Y-74469866D02*
X154528570Y-74231771D01*
X154528570Y-74231771D02*
X154480951Y-74041295D01*
X154480951Y-74041295D02*
X154433332Y-73946057D01*
X154433332Y-73946057D02*
X154385713Y-73898438D01*
X154385713Y-73898438D02*
X154290475Y-73850819D01*
D12*
%TO.C,J11*%
X141020000Y-75920000D02*
X141020000Y-124290000D01*
X143780000Y-73270000D02*
X142400000Y-73270000D01*
X143780000Y-74650000D02*
X143780000Y-73270000D01*
X143780000Y-75920000D02*
X141020000Y-75920000D01*
X143780000Y-75920000D02*
X143780000Y-124290000D01*
X143780000Y-124290000D02*
X141020000Y-124290000D01*
%TO.C,J10*%
X156260000Y-75920000D02*
X156260000Y-124290000D01*
X159020000Y-73270000D02*
X157640000Y-73270000D01*
X159020000Y-74650000D02*
X159020000Y-73270000D01*
X159020000Y-75920000D02*
X156260000Y-75920000D01*
X159020000Y-75920000D02*
X159020000Y-124290000D01*
X159020000Y-124290000D02*
X156260000Y-124290000D01*
%TD*%
%LPC*%
D13*
%TO.C,J8*%
X157640000Y-125450000D03*
D14*
X155100000Y-125450000D03*
%TD*%
D13*
%TO.C,J4*%
X162720000Y-74650000D03*
D14*
X162720000Y-77190000D03*
X162720000Y-79730000D03*
X162720000Y-82270000D03*
X162720000Y-84810000D03*
X162720000Y-87350000D03*
X162720000Y-89890000D03*
X162720000Y-92430000D03*
X162720000Y-94970000D03*
X162720000Y-97510000D03*
X162720000Y-100050000D03*
X162720000Y-102590000D03*
X162720000Y-105130000D03*
X162720000Y-107670000D03*
X162720000Y-110210000D03*
X162720000Y-112750000D03*
X162720000Y-115290000D03*
X162720000Y-117830000D03*
X162720000Y-120370000D03*
X162720000Y-122910000D03*
%TD*%
D13*
%TO.C,J2*%
X137320000Y-74650000D03*
D14*
X137320000Y-77190000D03*
X137320000Y-79730000D03*
X137320000Y-82270000D03*
X137320000Y-84810000D03*
X137320000Y-87350000D03*
X137320000Y-89890000D03*
X137320000Y-92430000D03*
X137320000Y-94970000D03*
X137320000Y-97510000D03*
X137320000Y-100050000D03*
X137320000Y-102590000D03*
X137320000Y-105130000D03*
X137320000Y-107670000D03*
X137320000Y-110210000D03*
X137320000Y-112750000D03*
X137320000Y-115290000D03*
X137320000Y-117830000D03*
X137320000Y-120370000D03*
X137320000Y-122910000D03*
%TD*%
D13*
%TO.C,J11*%
X142400000Y-74650000D03*
D14*
X142400000Y-77190000D03*
X142400000Y-79730000D03*
X142400000Y-82270000D03*
X142400000Y-84810000D03*
X142400000Y-87350000D03*
X142400000Y-89890000D03*
X142400000Y-92430000D03*
X142400000Y-94970000D03*
X142400000Y-97510000D03*
X142400000Y-100050000D03*
X142400000Y-102590000D03*
X142400000Y-105130000D03*
X142400000Y-107670000D03*
X142400000Y-110210000D03*
X142400000Y-112750000D03*
X142400000Y-115290000D03*
X142400000Y-117830000D03*
X142400000Y-120370000D03*
X142400000Y-122910000D03*
%TD*%
D13*
%TO.C,J10*%
X157640000Y-74650000D03*
D14*
X157640000Y-77190000D03*
X157640000Y-79730000D03*
X157640000Y-82270000D03*
X157640000Y-84810000D03*
X157640000Y-87350000D03*
X157640000Y-89890000D03*
X157640000Y-92430000D03*
X157640000Y-94970000D03*
X157640000Y-97510000D03*
X157640000Y-100050000D03*
X157640000Y-102590000D03*
X157640000Y-105130000D03*
X157640000Y-107670000D03*
X157640000Y-110210000D03*
X157640000Y-112750000D03*
X157640000Y-115290000D03*
X157640000Y-117830000D03*
X157640000Y-120370000D03*
X157640000Y-122910000D03*
%TD*%
%LPD*%
M02*
