M48
; DRILL file {KiCad 9.0.3} date 2025-07-14T16:06:07+0200
; FORMAT={-:-/ absolute / inch / decimal}
; #@! TF.CreationDate,2025-07-14T16:06:07+02:00
; #@! TF.GenerationSoftware,Kicad,Pcbnew,9.0.3
; #@! TF.FileFunction,Plated,1,4,PTH
FMAT,2
INCH
; #@! TA.AperFunction,Plated,PTH,ViaDrill
T1C0.0118
; #@! TA.AperFunction,Plated,PTH,ComponentDrill
T2C0.0394
%
G90
G05
T1
X5.3813Y-3.089
X5.3813Y-3.189
X5.3813Y-3.289
X5.3813Y-3.389
X5.3813Y-3.489
X5.3813Y-3.589
X5.3813Y-3.689
X5.3813Y-3.789
X5.3813Y-3.889
X5.3813Y-3.989
X5.3813Y-4.089
X5.3813Y-4.189
X5.3813Y-4.289
X5.3813Y-4.389
X5.3813Y-4.489
X5.3813Y-4.589
X5.3813Y-4.689
X5.3813Y-4.789
X5.4813Y-2.939
X5.5059Y-3.824
X5.5063Y-3.524
X5.7103Y-4.479
X5.7185Y-3.6476
X5.7323Y-2.935
X5.7323Y-4.919
X5.7683Y-4.107
X5.7701Y-3.2563
X5.7835Y-3.3327
X5.7835Y-3.7579
X5.7835Y-4.5925
X5.8263Y-4.1831
X5.8583Y-3.3091
X5.8583Y-3.3563
X5.8583Y-3.4035
X5.8583Y-3.4508
X5.8583Y-3.498
X5.8583Y-3.5453
X5.8583Y-3.5925
X5.8583Y-3.6398
X5.8583Y-4.1909
X5.8583Y-4.2343
X5.8583Y-4.2776
X5.8583Y-4.3209
X5.8583Y-4.3642
X5.8583Y-4.4075
X5.8583Y-4.4508
X5.8583Y-4.4941
X5.8583Y-4.5768
X5.8583Y-4.624
X5.8583Y-4.6713
X5.874Y-4.6004
X5.874Y-4.6476
X5.878Y-3.3327
X5.878Y-3.3799
X5.878Y-3.4272
X5.878Y-3.4744
X5.878Y-3.5217
X5.878Y-3.5689
X5.878Y-3.6161
X5.8898Y-4.2106
X5.8898Y-4.2539
X5.8898Y-4.2972
X5.8898Y-4.3406
X5.8898Y-4.3839
X5.8898Y-4.4272
X5.8898Y-4.4705
X5.8963Y-4.919
X5.9173Y-2.935
X5.9173Y-2.9823
X5.9173Y-3.0295
X5.9173Y-3.0768
X5.9173Y-3.124
X5.9173Y-3.1713
X5.9173Y-4.7539
X5.9173Y-4.8012
X5.9173Y-4.8484
X5.9213Y-3.7697
X5.9213Y-3.8169
X5.9213Y-3.8642
X5.9213Y-3.9094
X5.9213Y-3.9567
X5.9213Y-4.0059
X5.9213Y-4.0512
X5.9331Y-4.7303
X5.9331Y-4.7776
X5.9331Y-4.8248
X5.9331Y-4.872
X5.9366Y-3.1476
X5.937Y-2.9114
X5.937Y-2.9587
X5.937Y-3.0059
X5.937Y-3.0531
X5.937Y-3.1004
X5.937Y-3.1949
X5.937Y-3.7461
X5.937Y-3.7933
X5.937Y-3.8406
X5.937Y-3.8878
X5.937Y-3.935
X5.937Y-3.9823
X5.937Y-4.0295
X5.937Y-4.0768
X5.9803Y-4.0413
X5.9843Y-4.531
X5.9882Y-3.6831
X5.9921Y-4.1083
X5.9941Y-3.252
X6.0113Y-4.919
X6.0283Y-4.531
X6.0374Y-3.252
X6.0383Y-3.681
X6.2813Y-3.039
X6.2813Y-3.139
X6.2813Y-3.239
X6.2813Y-3.339
X6.2813Y-3.439
X6.2813Y-3.539
X6.2813Y-3.639
X6.2813Y-3.739
X6.2813Y-3.839
X6.2813Y-3.939
X6.2813Y-4.039
X6.2813Y-4.139
X6.2813Y-4.239
X6.2813Y-4.339
X6.2813Y-4.439
X6.2813Y-4.539
X6.2813Y-4.639
X6.2813Y-4.739
X6.2813Y-4.839
X6.2813Y-4.939
T2
X5.4063Y-2.939
X5.4063Y-3.039
X5.4063Y-3.139
X5.4063Y-3.239
X5.4063Y-3.339
X5.4063Y-3.439
X5.4063Y-3.539
X5.4063Y-3.639
X5.4063Y-3.739
X5.4063Y-3.839
X5.4063Y-3.939
X5.4063Y-4.039
X5.4063Y-4.139
X5.4063Y-4.239
X5.4063Y-4.339
X5.4063Y-4.439
X5.4063Y-4.539
X5.4063Y-4.639
X5.4063Y-4.739
X5.4063Y-4.839
X5.6063Y-2.939
X5.6063Y-3.039
X5.6063Y-3.139
X5.6063Y-3.239
X5.6063Y-3.339
X5.6063Y-3.439
X5.6063Y-3.539
X5.6063Y-3.639
X5.6063Y-3.739
X5.6063Y-3.839
X5.6063Y-3.939
X5.6063Y-4.039
X5.6063Y-4.139
X5.6063Y-4.239
X5.6063Y-4.339
X5.6063Y-4.439
X5.6063Y-4.539
X5.6063Y-4.639
X5.6063Y-4.739
X5.6063Y-4.839
X6.1063Y-4.939
X6.2063Y-2.939
X6.2063Y-3.039
X6.2063Y-3.139
X6.2063Y-3.239
X6.2063Y-3.339
X6.2063Y-3.439
X6.2063Y-3.539
X6.2063Y-3.639
X6.2063Y-3.739
X6.2063Y-3.839
X6.2063Y-3.939
X6.2063Y-4.039
X6.2063Y-4.139
X6.2063Y-4.239
X6.2063Y-4.339
X6.2063Y-4.439
X6.2063Y-4.539
X6.2063Y-4.639
X6.2063Y-4.739
X6.2063Y-4.839
X6.2063Y-4.939
X6.4063Y-2.939
X6.4063Y-3.039
X6.4063Y-3.139
X6.4063Y-3.239
X6.4063Y-3.339
X6.4063Y-3.439
X6.4063Y-3.539
X6.4063Y-3.639
X6.4063Y-3.739
X6.4063Y-3.839
X6.4063Y-3.939
X6.4063Y-4.039
X6.4063Y-4.139
X6.4063Y-4.239
X6.4063Y-4.339
X6.4063Y-4.439
X6.4063Y-4.539
X6.4063Y-4.639
X6.4063Y-4.739
X6.4063Y-4.839
M30
