%TF.GenerationSoftware,KiCad,Pcbnew,9.0.3*%
%TF.CreationDate,2025-07-14T16:06:07+02:00*%
%TF.ProjectId,IF-Board,49462d42-6f61-4726-942e-6b696361645f,rev?*%
%TF.SameCoordinates,Original*%
%TF.FileFunction,Soldermask,Top*%
%TF.FilePolarity,Negative*%
%FSLAX46Y46*%
G04 Gerber Fmt 4.6, Leading zero omitted, Abs format (unit mm)*
G04 Created by KiCad (PCBNEW 9.0.3) date 2025-07-14 16:06:07*
%MOMM*%
%LPD*%
G01*
G04 APERTURE LIST*
G04 Aperture macros list*
%AMRoundRect*
0 Rectangle with rounded corners*
0 $1 Rounding radius*
0 $2 $3 $4 $5 $6 $7 $8 $9 X,Y pos of 4 corners*
0 Add a 4 corners polygon primitive as box body*
4,1,4,$2,$3,$4,$5,$6,$7,$8,$9,$2,$3,0*
0 Add four circle primitives for the rounded corners*
1,1,$1+$1,$2,$3*
1,1,$1+$1,$4,$5*
1,1,$1+$1,$6,$7*
1,1,$1+$1,$8,$9*
0 Add four rect primitives between the rounded corners*
20,1,$1+$1,$2,$3,$4,$5,0*
20,1,$1+$1,$4,$5,$6,$7,0*
20,1,$1+$1,$6,$7,$8,$9,0*
20,1,$1+$1,$8,$9,$2,$3,0*%
G04 Aperture macros list end*
%ADD10RoundRect,0.140000X0.140000X0.170000X-0.140000X0.170000X-0.140000X-0.170000X0.140000X-0.170000X0*%
%ADD11RoundRect,0.140000X-0.170000X0.140000X-0.170000X-0.140000X0.170000X-0.140000X0.170000X0.140000X0*%
%ADD12C,2.000000*%
%ADD13R,1.700000X1.700000*%
%ADD14C,1.700000*%
%ADD15RoundRect,0.140000X-0.140000X-0.170000X0.140000X-0.170000X0.140000X0.170000X-0.140000X0.170000X0*%
%ADD16RoundRect,0.100000X0.637500X0.100000X-0.637500X0.100000X-0.637500X-0.100000X0.637500X-0.100000X0*%
%ADD17RoundRect,0.225000X0.250000X-0.225000X0.250000X0.225000X-0.250000X0.225000X-0.250000X-0.225000X0*%
%ADD18RoundRect,0.135000X-0.185000X0.135000X-0.185000X-0.135000X0.185000X-0.135000X0.185000X0.135000X0*%
G04 APERTURE END LIST*
D10*
%TO.C,C5*%
X147706000Y-81914400D03*
X146746000Y-81914400D03*
%TD*%
D11*
%TO.C,C7*%
X145041600Y-90652500D03*
X145041600Y-91612500D03*
%TD*%
D12*
%TO.C,FID3*%
X162720000Y-125450000D03*
%TD*%
D13*
%TO.C,J8*%
X157640000Y-125450000D03*
D14*
X155100000Y-125450000D03*
%TD*%
D13*
%TO.C,J4*%
X162720000Y-74650000D03*
D14*
X162720000Y-77190000D03*
X162720000Y-79730000D03*
X162720000Y-82270000D03*
X162720000Y-84810000D03*
X162720000Y-87350000D03*
X162720000Y-89890000D03*
X162720000Y-92430000D03*
X162720000Y-94970000D03*
X162720000Y-97510000D03*
X162720000Y-100050000D03*
X162720000Y-102590000D03*
X162720000Y-105130000D03*
X162720000Y-107670000D03*
X162720000Y-110210000D03*
X162720000Y-112750000D03*
X162720000Y-115290000D03*
X162720000Y-117830000D03*
X162720000Y-120370000D03*
X162720000Y-122910000D03*
%TD*%
D15*
%TO.C,C6*%
X152070000Y-92684000D03*
X153030000Y-92684000D03*
%TD*%
D13*
%TO.C,J2*%
X137320000Y-74650000D03*
D14*
X137320000Y-77190000D03*
X137320000Y-79730000D03*
X137320000Y-82270000D03*
X137320000Y-84810000D03*
X137320000Y-87350000D03*
X137320000Y-89890000D03*
X137320000Y-92430000D03*
X137320000Y-94970000D03*
X137320000Y-97510000D03*
X137320000Y-100050000D03*
X137320000Y-102590000D03*
X137320000Y-105130000D03*
X137320000Y-107670000D03*
X137320000Y-110210000D03*
X137320000Y-112750000D03*
X137320000Y-115290000D03*
X137320000Y-117830000D03*
X137320000Y-120370000D03*
X137320000Y-122910000D03*
%TD*%
D16*
%TO.C,U4*%
X152882500Y-80475000D03*
X152882500Y-79825000D03*
X152882500Y-79175000D03*
X152882500Y-78525000D03*
X152882500Y-77875000D03*
X152882500Y-77225000D03*
X152882500Y-76575000D03*
X152882500Y-75925000D03*
X152882500Y-75275000D03*
X152882500Y-74625000D03*
X147157500Y-74625000D03*
X147157500Y-75275000D03*
X147157500Y-75925000D03*
X147157500Y-76575000D03*
X147157500Y-77225000D03*
X147157500Y-77875000D03*
X147157500Y-78525000D03*
X147157500Y-79175000D03*
X147157500Y-79825000D03*
X147157500Y-80475000D03*
%TD*%
%TO.C,U5*%
X152645000Y-91225000D03*
X152645000Y-90575000D03*
X152645000Y-89925000D03*
X152645000Y-89275000D03*
X152645000Y-88625000D03*
X152645000Y-87975000D03*
X152645000Y-87325000D03*
X152645000Y-86675000D03*
X152645000Y-86025000D03*
X152645000Y-85375000D03*
X146920000Y-85375000D03*
X146920000Y-86025000D03*
X146920000Y-86675000D03*
X146920000Y-87325000D03*
X146920000Y-87975000D03*
X146920000Y-88625000D03*
X146920000Y-89275000D03*
X146920000Y-89925000D03*
X146920000Y-90575000D03*
X146920000Y-91225000D03*
%TD*%
D17*
%TO.C,C14*%
X155100000Y-122769500D03*
X155100000Y-121219500D03*
%TD*%
D12*
%TO.C,FID1*%
X160180000Y-74650000D03*
%TD*%
D18*
%TO.C,R15*%
X139860000Y-94204000D03*
X139860000Y-95224000D03*
%TD*%
D16*
%TO.C,U7*%
X152645000Y-112725000D03*
X152645000Y-112075000D03*
X152645000Y-111425000D03*
X152645000Y-110775000D03*
X152645000Y-110125000D03*
X152645000Y-109475000D03*
X152645000Y-108825000D03*
X152645000Y-108175000D03*
X152645000Y-107525000D03*
X152645000Y-106875000D03*
X146920000Y-106875000D03*
X146920000Y-107525000D03*
X146920000Y-108175000D03*
X146920000Y-108825000D03*
X146920000Y-109475000D03*
X146920000Y-110125000D03*
X146920000Y-110775000D03*
X146920000Y-111425000D03*
X146920000Y-112075000D03*
X146920000Y-112725000D03*
%TD*%
D10*
%TO.C,C8*%
X152880000Y-103450000D03*
X151920000Y-103450000D03*
%TD*%
D15*
%TO.C,C10*%
X152070000Y-114172400D03*
X153030000Y-114172400D03*
%TD*%
D11*
%TO.C,C13*%
X145000000Y-122870000D03*
X145000000Y-123830000D03*
%TD*%
D16*
%TO.C,U6*%
X152645000Y-101975000D03*
X152645000Y-101325000D03*
X152645000Y-100675000D03*
X152645000Y-100025000D03*
X152645000Y-99375000D03*
X152645000Y-98725000D03*
X152645000Y-98075000D03*
X152645000Y-97425000D03*
X152645000Y-96775000D03*
X152645000Y-96125000D03*
X146920000Y-96125000D03*
X146920000Y-96775000D03*
X146920000Y-97425000D03*
X146920000Y-98075000D03*
X146920000Y-98725000D03*
X146920000Y-99375000D03*
X146920000Y-100025000D03*
X146920000Y-100675000D03*
X146920000Y-101325000D03*
X146920000Y-101975000D03*
%TD*%
D17*
%TO.C,C15*%
X139860000Y-92443000D03*
X139860000Y-90893000D03*
%TD*%
D12*
%TO.C,FID2*%
X137320000Y-125450000D03*
%TD*%
D10*
%TO.C,C9*%
X147480000Y-103402800D03*
X146520000Y-103402800D03*
%TD*%
D16*
%TO.C,U8*%
X152645000Y-123475000D03*
X152645000Y-122825000D03*
X152645000Y-122175000D03*
X152645000Y-121525000D03*
X152645000Y-120875000D03*
X152645000Y-120225000D03*
X152645000Y-119575000D03*
X152645000Y-118925000D03*
X152645000Y-118275000D03*
X152645000Y-117625000D03*
X146920000Y-117625000D03*
X146920000Y-118275000D03*
X146920000Y-118925000D03*
X146920000Y-119575000D03*
X146920000Y-120225000D03*
X146920000Y-120875000D03*
X146920000Y-121525000D03*
X146920000Y-122175000D03*
X146920000Y-122825000D03*
X146920000Y-123475000D03*
%TD*%
D10*
%TO.C,C12*%
X151770000Y-124942000D03*
X150810000Y-124942000D03*
%TD*%
D11*
%TO.C,C11*%
X145041600Y-112066800D03*
X145041600Y-113026800D03*
%TD*%
D15*
%TO.C,C4*%
X152283200Y-81914400D03*
X153243200Y-81914400D03*
%TD*%
D13*
%TO.C,J11*%
X142400000Y-74650000D03*
D14*
X142400000Y-77190000D03*
X142400000Y-79730000D03*
X142400000Y-82270000D03*
X142400000Y-84810000D03*
X142400000Y-87350000D03*
X142400000Y-89890000D03*
X142400000Y-92430000D03*
X142400000Y-94970000D03*
X142400000Y-97510000D03*
X142400000Y-100050000D03*
X142400000Y-102590000D03*
X142400000Y-105130000D03*
X142400000Y-107670000D03*
X142400000Y-110210000D03*
X142400000Y-112750000D03*
X142400000Y-115290000D03*
X142400000Y-117830000D03*
X142400000Y-120370000D03*
X142400000Y-122910000D03*
%TD*%
D13*
%TO.C,J10*%
X157640000Y-74650000D03*
D14*
X157640000Y-77190000D03*
X157640000Y-79730000D03*
X157640000Y-82270000D03*
X157640000Y-84810000D03*
X157640000Y-87350000D03*
X157640000Y-89890000D03*
X157640000Y-92430000D03*
X157640000Y-94970000D03*
X157640000Y-97510000D03*
X157640000Y-100050000D03*
X157640000Y-102590000D03*
X157640000Y-105130000D03*
X157640000Y-107670000D03*
X157640000Y-110210000D03*
X157640000Y-112750000D03*
X157640000Y-115290000D03*
X157640000Y-117830000D03*
X157640000Y-120370000D03*
X157640000Y-122910000D03*
%TD*%
M02*
