%TF.GenerationSoftware,KiCad,Pcbnew,9.0.3*%
%TF.CreationDate,2025-07-14T16:06:07+02:00*%
%TF.ProjectId,IF-Board,49462d42-6f61-4726-942e-6b696361645f,rev?*%
%TF.SameCoordinates,Original*%
%TF.FileFunction,Legend,Top*%
%TF.FilePolarity,Positive*%
%FSLAX46Y46*%
G04 Gerber Fmt 4.6, Leading zero omitted, Abs format (unit mm)*
G04 Created by KiCad (PCBNEW 9.0.3) date 2025-07-14 16:06:07*
%MOMM*%
%LPD*%
G01*
G04 APERTURE LIST*
G04 Aperture macros list*
%AMRoundRect*
0 Rectangle with rounded corners*
0 $1 Rounding radius*
0 $2 $3 $4 $5 $6 $7 $8 $9 X,Y pos of 4 corners*
0 Add a 4 corners polygon primitive as box body*
4,1,4,$2,$3,$4,$5,$6,$7,$8,$9,$2,$3,0*
0 Add four circle primitives for the rounded corners*
1,1,$1+$1,$2,$3*
1,1,$1+$1,$4,$5*
1,1,$1+$1,$6,$7*
1,1,$1+$1,$8,$9*
0 Add four rect primitives between the rounded corners*
20,1,$1+$1,$2,$3,$4,$5,0*
20,1,$1+$1,$4,$5,$6,$7,0*
20,1,$1+$1,$6,$7,$8,$9,0*
20,1,$1+$1,$8,$9,$2,$3,0*%
G04 Aperture macros list end*
%ADD10C,1.330625*%
%ADD11C,0.200000*%
%ADD12C,0.150000*%
%ADD13C,0.120000*%
%ADD14RoundRect,0.140000X0.140000X0.170000X-0.140000X0.170000X-0.140000X-0.170000X0.140000X-0.170000X0*%
%ADD15RoundRect,0.140000X-0.170000X0.140000X-0.170000X-0.140000X0.170000X-0.140000X0.170000X0.140000X0*%
%ADD16C,2.000000*%
%ADD17R,1.700000X1.700000*%
%ADD18C,1.700000*%
%ADD19RoundRect,0.140000X-0.140000X-0.170000X0.140000X-0.170000X0.140000X0.170000X-0.140000X0.170000X0*%
%ADD20RoundRect,0.100000X0.637500X0.100000X-0.637500X0.100000X-0.637500X-0.100000X0.637500X-0.100000X0*%
%ADD21RoundRect,0.225000X0.250000X-0.225000X0.250000X0.225000X-0.250000X0.225000X-0.250000X-0.225000X0*%
%ADD22RoundRect,0.135000X-0.185000X0.135000X-0.185000X-0.135000X0.185000X-0.135000X0.185000X0.135000X0*%
G04 APERTURE END LIST*
D10*
X140865312Y-74590000D02*
G75*
G02*
X139534688Y-74590000I-665312J0D01*
G01*
X139534688Y-74590000D02*
G75*
G02*
X140865312Y-74590000I665312J0D01*
G01*
D11*
X158994028Y-118730422D02*
X158994028Y-119016136D01*
X158994028Y-119016136D02*
X159065457Y-119158993D01*
X159065457Y-119158993D02*
X159136885Y-119230422D01*
X159136885Y-119230422D02*
X159351171Y-119373279D01*
X159351171Y-119373279D02*
X159636885Y-119444707D01*
X159636885Y-119444707D02*
X160208314Y-119444707D01*
X160208314Y-119444707D02*
X160351171Y-119373279D01*
X160351171Y-119373279D02*
X160422600Y-119301850D01*
X160422600Y-119301850D02*
X160494028Y-119158993D01*
X160494028Y-119158993D02*
X160494028Y-118873279D01*
X160494028Y-118873279D02*
X160422600Y-118730422D01*
X160422600Y-118730422D02*
X160351171Y-118658993D01*
X160351171Y-118658993D02*
X160208314Y-118587564D01*
X160208314Y-118587564D02*
X159851171Y-118587564D01*
X159851171Y-118587564D02*
X159708314Y-118658993D01*
X159708314Y-118658993D02*
X159636885Y-118730422D01*
X159636885Y-118730422D02*
X159565457Y-118873279D01*
X159565457Y-118873279D02*
X159565457Y-119158993D01*
X159565457Y-119158993D02*
X159636885Y-119301850D01*
X159636885Y-119301850D02*
X159708314Y-119373279D01*
X159708314Y-119373279D02*
X159851171Y-119444707D01*
X158994028Y-117230422D02*
X158994028Y-117944708D01*
X158994028Y-117944708D02*
X159708314Y-118016136D01*
X159708314Y-118016136D02*
X159636885Y-117944708D01*
X159636885Y-117944708D02*
X159565457Y-117801851D01*
X159565457Y-117801851D02*
X159565457Y-117444708D01*
X159565457Y-117444708D02*
X159636885Y-117301851D01*
X159636885Y-117301851D02*
X159708314Y-117230422D01*
X159708314Y-117230422D02*
X159851171Y-117158993D01*
X159851171Y-117158993D02*
X160208314Y-117158993D01*
X160208314Y-117158993D02*
X160351171Y-117230422D01*
X160351171Y-117230422D02*
X160422600Y-117301851D01*
X160422600Y-117301851D02*
X160494028Y-117444708D01*
X160494028Y-117444708D02*
X160494028Y-117801851D01*
X160494028Y-117801851D02*
X160422600Y-117944708D01*
X160422600Y-117944708D02*
X160351171Y-118016136D01*
X158994028Y-116230422D02*
X158994028Y-116087565D01*
X158994028Y-116087565D02*
X159065457Y-115944708D01*
X159065457Y-115944708D02*
X159136885Y-115873280D01*
X159136885Y-115873280D02*
X159279742Y-115801851D01*
X159279742Y-115801851D02*
X159565457Y-115730422D01*
X159565457Y-115730422D02*
X159922600Y-115730422D01*
X159922600Y-115730422D02*
X160208314Y-115801851D01*
X160208314Y-115801851D02*
X160351171Y-115873280D01*
X160351171Y-115873280D02*
X160422600Y-115944708D01*
X160422600Y-115944708D02*
X160494028Y-116087565D01*
X160494028Y-116087565D02*
X160494028Y-116230422D01*
X160494028Y-116230422D02*
X160422600Y-116373280D01*
X160422600Y-116373280D02*
X160351171Y-116444708D01*
X160351171Y-116444708D02*
X160208314Y-116516137D01*
X160208314Y-116516137D02*
X159922600Y-116587565D01*
X159922600Y-116587565D02*
X159565457Y-116587565D01*
X159565457Y-116587565D02*
X159279742Y-116516137D01*
X159279742Y-116516137D02*
X159136885Y-116444708D01*
X159136885Y-116444708D02*
X159065457Y-116373280D01*
X159065457Y-116373280D02*
X158994028Y-116230422D01*
X159136885Y-115158994D02*
X159065457Y-115087566D01*
X159065457Y-115087566D02*
X158994028Y-114944709D01*
X158994028Y-114944709D02*
X158994028Y-114587566D01*
X158994028Y-114587566D02*
X159065457Y-114444709D01*
X159065457Y-114444709D02*
X159136885Y-114373280D01*
X159136885Y-114373280D02*
X159279742Y-114301851D01*
X159279742Y-114301851D02*
X159422600Y-114301851D01*
X159422600Y-114301851D02*
X159636885Y-114373280D01*
X159636885Y-114373280D02*
X160494028Y-115230423D01*
X160494028Y-115230423D02*
X160494028Y-114301851D01*
X160494028Y-112516138D02*
X158994028Y-112516138D01*
X158922600Y-110730423D02*
X160851171Y-112016137D01*
X159708314Y-109730423D02*
X159708314Y-110230423D01*
X160494028Y-110230423D02*
X158994028Y-110230423D01*
X158994028Y-110230423D02*
X158994028Y-109516137D01*
X159922600Y-108944709D02*
X159922600Y-107801852D01*
X159708314Y-106587566D02*
X159779742Y-106373280D01*
X159779742Y-106373280D02*
X159851171Y-106301851D01*
X159851171Y-106301851D02*
X159994028Y-106230423D01*
X159994028Y-106230423D02*
X160208314Y-106230423D01*
X160208314Y-106230423D02*
X160351171Y-106301851D01*
X160351171Y-106301851D02*
X160422600Y-106373280D01*
X160422600Y-106373280D02*
X160494028Y-106516137D01*
X160494028Y-106516137D02*
X160494028Y-107087566D01*
X160494028Y-107087566D02*
X158994028Y-107087566D01*
X158994028Y-107087566D02*
X158994028Y-106587566D01*
X158994028Y-106587566D02*
X159065457Y-106444709D01*
X159065457Y-106444709D02*
X159136885Y-106373280D01*
X159136885Y-106373280D02*
X159279742Y-106301851D01*
X159279742Y-106301851D02*
X159422600Y-106301851D01*
X159422600Y-106301851D02*
X159565457Y-106373280D01*
X159565457Y-106373280D02*
X159636885Y-106444709D01*
X159636885Y-106444709D02*
X159708314Y-106587566D01*
X159708314Y-106587566D02*
X159708314Y-107087566D01*
X160494028Y-105373280D02*
X160422600Y-105516137D01*
X160422600Y-105516137D02*
X160351171Y-105587566D01*
X160351171Y-105587566D02*
X160208314Y-105658994D01*
X160208314Y-105658994D02*
X159779742Y-105658994D01*
X159779742Y-105658994D02*
X159636885Y-105587566D01*
X159636885Y-105587566D02*
X159565457Y-105516137D01*
X159565457Y-105516137D02*
X159494028Y-105373280D01*
X159494028Y-105373280D02*
X159494028Y-105158994D01*
X159494028Y-105158994D02*
X159565457Y-105016137D01*
X159565457Y-105016137D02*
X159636885Y-104944709D01*
X159636885Y-104944709D02*
X159779742Y-104873280D01*
X159779742Y-104873280D02*
X160208314Y-104873280D01*
X160208314Y-104873280D02*
X160351171Y-104944709D01*
X160351171Y-104944709D02*
X160422600Y-105016137D01*
X160422600Y-105016137D02*
X160494028Y-105158994D01*
X160494028Y-105158994D02*
X160494028Y-105373280D01*
X160494028Y-103587566D02*
X159708314Y-103587566D01*
X159708314Y-103587566D02*
X159565457Y-103658994D01*
X159565457Y-103658994D02*
X159494028Y-103801851D01*
X159494028Y-103801851D02*
X159494028Y-104087566D01*
X159494028Y-104087566D02*
X159565457Y-104230423D01*
X160422600Y-103587566D02*
X160494028Y-103730423D01*
X160494028Y-103730423D02*
X160494028Y-104087566D01*
X160494028Y-104087566D02*
X160422600Y-104230423D01*
X160422600Y-104230423D02*
X160279742Y-104301851D01*
X160279742Y-104301851D02*
X160136885Y-104301851D01*
X160136885Y-104301851D02*
X159994028Y-104230423D01*
X159994028Y-104230423D02*
X159922600Y-104087566D01*
X159922600Y-104087566D02*
X159922600Y-103730423D01*
X159922600Y-103730423D02*
X159851171Y-103587566D01*
X160494028Y-102873280D02*
X159494028Y-102873280D01*
X159779742Y-102873280D02*
X159636885Y-102801851D01*
X159636885Y-102801851D02*
X159565457Y-102730423D01*
X159565457Y-102730423D02*
X159494028Y-102587565D01*
X159494028Y-102587565D02*
X159494028Y-102444708D01*
X160494028Y-101301852D02*
X158994028Y-101301852D01*
X160422600Y-101301852D02*
X160494028Y-101444709D01*
X160494028Y-101444709D02*
X160494028Y-101730423D01*
X160494028Y-101730423D02*
X160422600Y-101873280D01*
X160422600Y-101873280D02*
X160351171Y-101944709D01*
X160351171Y-101944709D02*
X160208314Y-102016137D01*
X160208314Y-102016137D02*
X159779742Y-102016137D01*
X159779742Y-102016137D02*
X159636885Y-101944709D01*
X159636885Y-101944709D02*
X159565457Y-101873280D01*
X159565457Y-101873280D02*
X159494028Y-101730423D01*
X159494028Y-101730423D02*
X159494028Y-101444709D01*
X159494028Y-101444709D02*
X159565457Y-101301852D01*
X160494028Y-98587566D02*
X159779742Y-99087566D01*
X160494028Y-99444709D02*
X158994028Y-99444709D01*
X158994028Y-99444709D02*
X158994028Y-98873280D01*
X158994028Y-98873280D02*
X159065457Y-98730423D01*
X159065457Y-98730423D02*
X159136885Y-98658994D01*
X159136885Y-98658994D02*
X159279742Y-98587566D01*
X159279742Y-98587566D02*
X159494028Y-98587566D01*
X159494028Y-98587566D02*
X159636885Y-98658994D01*
X159636885Y-98658994D02*
X159708314Y-98730423D01*
X159708314Y-98730423D02*
X159779742Y-98873280D01*
X159779742Y-98873280D02*
X159779742Y-99444709D01*
X160422600Y-97373280D02*
X160494028Y-97516137D01*
X160494028Y-97516137D02*
X160494028Y-97801852D01*
X160494028Y-97801852D02*
X160422600Y-97944709D01*
X160422600Y-97944709D02*
X160279742Y-98016137D01*
X160279742Y-98016137D02*
X159708314Y-98016137D01*
X159708314Y-98016137D02*
X159565457Y-97944709D01*
X159565457Y-97944709D02*
X159494028Y-97801852D01*
X159494028Y-97801852D02*
X159494028Y-97516137D01*
X159494028Y-97516137D02*
X159565457Y-97373280D01*
X159565457Y-97373280D02*
X159708314Y-97301852D01*
X159708314Y-97301852D02*
X159851171Y-97301852D01*
X159851171Y-97301852D02*
X159994028Y-98016137D01*
X159494028Y-96801852D02*
X160494028Y-96444709D01*
X160494028Y-96444709D02*
X159494028Y-96087566D01*
X160351171Y-95516138D02*
X160422600Y-95444709D01*
X160422600Y-95444709D02*
X160494028Y-95516138D01*
X160494028Y-95516138D02*
X160422600Y-95587566D01*
X160422600Y-95587566D02*
X160351171Y-95516138D01*
X160351171Y-95516138D02*
X160494028Y-95516138D01*
X160065457Y-94873280D02*
X160065457Y-94158995D01*
X160494028Y-95016137D02*
X158994028Y-94516137D01*
X158994028Y-94516137D02*
X160494028Y-94016137D01*
X159136885Y-92444709D02*
X159065457Y-92373281D01*
X159065457Y-92373281D02*
X158994028Y-92230424D01*
X158994028Y-92230424D02*
X158994028Y-91873281D01*
X158994028Y-91873281D02*
X159065457Y-91730424D01*
X159065457Y-91730424D02*
X159136885Y-91658995D01*
X159136885Y-91658995D02*
X159279742Y-91587566D01*
X159279742Y-91587566D02*
X159422600Y-91587566D01*
X159422600Y-91587566D02*
X159636885Y-91658995D01*
X159636885Y-91658995D02*
X160494028Y-92516138D01*
X160494028Y-92516138D02*
X160494028Y-91587566D01*
X158994028Y-90658995D02*
X158994028Y-90516138D01*
X158994028Y-90516138D02*
X159065457Y-90373281D01*
X159065457Y-90373281D02*
X159136885Y-90301853D01*
X159136885Y-90301853D02*
X159279742Y-90230424D01*
X159279742Y-90230424D02*
X159565457Y-90158995D01*
X159565457Y-90158995D02*
X159922600Y-90158995D01*
X159922600Y-90158995D02*
X160208314Y-90230424D01*
X160208314Y-90230424D02*
X160351171Y-90301853D01*
X160351171Y-90301853D02*
X160422600Y-90373281D01*
X160422600Y-90373281D02*
X160494028Y-90516138D01*
X160494028Y-90516138D02*
X160494028Y-90658995D01*
X160494028Y-90658995D02*
X160422600Y-90801853D01*
X160422600Y-90801853D02*
X160351171Y-90873281D01*
X160351171Y-90873281D02*
X160208314Y-90944710D01*
X160208314Y-90944710D02*
X159922600Y-91016138D01*
X159922600Y-91016138D02*
X159565457Y-91016138D01*
X159565457Y-91016138D02*
X159279742Y-90944710D01*
X159279742Y-90944710D02*
X159136885Y-90873281D01*
X159136885Y-90873281D02*
X159065457Y-90801853D01*
X159065457Y-90801853D02*
X158994028Y-90658995D01*
X159136885Y-89587567D02*
X159065457Y-89516139D01*
X159065457Y-89516139D02*
X158994028Y-89373282D01*
X158994028Y-89373282D02*
X158994028Y-89016139D01*
X158994028Y-89016139D02*
X159065457Y-88873282D01*
X159065457Y-88873282D02*
X159136885Y-88801853D01*
X159136885Y-88801853D02*
X159279742Y-88730424D01*
X159279742Y-88730424D02*
X159422600Y-88730424D01*
X159422600Y-88730424D02*
X159636885Y-88801853D01*
X159636885Y-88801853D02*
X160494028Y-89658996D01*
X160494028Y-89658996D02*
X160494028Y-88730424D01*
X158994028Y-87373282D02*
X158994028Y-88087568D01*
X158994028Y-88087568D02*
X159708314Y-88158996D01*
X159708314Y-88158996D02*
X159636885Y-88087568D01*
X159636885Y-88087568D02*
X159565457Y-87944711D01*
X159565457Y-87944711D02*
X159565457Y-87587568D01*
X159565457Y-87587568D02*
X159636885Y-87444711D01*
X159636885Y-87444711D02*
X159708314Y-87373282D01*
X159708314Y-87373282D02*
X159851171Y-87301853D01*
X159851171Y-87301853D02*
X160208314Y-87301853D01*
X160208314Y-87301853D02*
X160351171Y-87373282D01*
X160351171Y-87373282D02*
X160422600Y-87444711D01*
X160422600Y-87444711D02*
X160494028Y-87587568D01*
X160494028Y-87587568D02*
X160494028Y-87944711D01*
X160494028Y-87944711D02*
X160422600Y-88087568D01*
X160422600Y-88087568D02*
X160351171Y-88158996D01*
X158922600Y-85587568D02*
X160851171Y-86873282D01*
X158994028Y-85230425D02*
X158994028Y-84301853D01*
X158994028Y-84301853D02*
X159565457Y-84801853D01*
X159565457Y-84801853D02*
X159565457Y-84587568D01*
X159565457Y-84587568D02*
X159636885Y-84444711D01*
X159636885Y-84444711D02*
X159708314Y-84373282D01*
X159708314Y-84373282D02*
X159851171Y-84301853D01*
X159851171Y-84301853D02*
X160208314Y-84301853D01*
X160208314Y-84301853D02*
X160351171Y-84373282D01*
X160351171Y-84373282D02*
X160422600Y-84444711D01*
X160422600Y-84444711D02*
X160494028Y-84587568D01*
X160494028Y-84587568D02*
X160494028Y-85016139D01*
X160494028Y-85016139D02*
X160422600Y-85158996D01*
X160422600Y-85158996D02*
X160351171Y-85230425D01*
X158994028Y-83373282D02*
X158994028Y-83230425D01*
X158994028Y-83230425D02*
X159065457Y-83087568D01*
X159065457Y-83087568D02*
X159136885Y-83016140D01*
X159136885Y-83016140D02*
X159279742Y-82944711D01*
X159279742Y-82944711D02*
X159565457Y-82873282D01*
X159565457Y-82873282D02*
X159922600Y-82873282D01*
X159922600Y-82873282D02*
X160208314Y-82944711D01*
X160208314Y-82944711D02*
X160351171Y-83016140D01*
X160351171Y-83016140D02*
X160422600Y-83087568D01*
X160422600Y-83087568D02*
X160494028Y-83230425D01*
X160494028Y-83230425D02*
X160494028Y-83373282D01*
X160494028Y-83373282D02*
X160422600Y-83516140D01*
X160422600Y-83516140D02*
X160351171Y-83587568D01*
X160351171Y-83587568D02*
X160208314Y-83658997D01*
X160208314Y-83658997D02*
X159922600Y-83730425D01*
X159922600Y-83730425D02*
X159565457Y-83730425D01*
X159565457Y-83730425D02*
X159279742Y-83658997D01*
X159279742Y-83658997D02*
X159136885Y-83587568D01*
X159136885Y-83587568D02*
X159065457Y-83516140D01*
X159065457Y-83516140D02*
X158994028Y-83373282D01*
D12*
X145033333Y-82309580D02*
X144985714Y-82357200D01*
X144985714Y-82357200D02*
X144842857Y-82404819D01*
X144842857Y-82404819D02*
X144747619Y-82404819D01*
X144747619Y-82404819D02*
X144604762Y-82357200D01*
X144604762Y-82357200D02*
X144509524Y-82261961D01*
X144509524Y-82261961D02*
X144461905Y-82166723D01*
X144461905Y-82166723D02*
X144414286Y-81976247D01*
X144414286Y-81976247D02*
X144414286Y-81833390D01*
X144414286Y-81833390D02*
X144461905Y-81642914D01*
X144461905Y-81642914D02*
X144509524Y-81547676D01*
X144509524Y-81547676D02*
X144604762Y-81452438D01*
X144604762Y-81452438D02*
X144747619Y-81404819D01*
X144747619Y-81404819D02*
X144842857Y-81404819D01*
X144842857Y-81404819D02*
X144985714Y-81452438D01*
X144985714Y-81452438D02*
X145033333Y-81500057D01*
X145938095Y-81404819D02*
X145461905Y-81404819D01*
X145461905Y-81404819D02*
X145414286Y-81881009D01*
X145414286Y-81881009D02*
X145461905Y-81833390D01*
X145461905Y-81833390D02*
X145557143Y-81785771D01*
X145557143Y-81785771D02*
X145795238Y-81785771D01*
X145795238Y-81785771D02*
X145890476Y-81833390D01*
X145890476Y-81833390D02*
X145938095Y-81881009D01*
X145938095Y-81881009D02*
X145985714Y-81976247D01*
X145985714Y-81976247D02*
X145985714Y-82214342D01*
X145985714Y-82214342D02*
X145938095Y-82309580D01*
X145938095Y-82309580D02*
X145890476Y-82357200D01*
X145890476Y-82357200D02*
X145795238Y-82404819D01*
X145795238Y-82404819D02*
X145557143Y-82404819D01*
X145557143Y-82404819D02*
X145461905Y-82357200D01*
X145461905Y-82357200D02*
X145414286Y-82309580D01*
X145345180Y-93358666D02*
X145392800Y-93406285D01*
X145392800Y-93406285D02*
X145440419Y-93549142D01*
X145440419Y-93549142D02*
X145440419Y-93644380D01*
X145440419Y-93644380D02*
X145392800Y-93787237D01*
X145392800Y-93787237D02*
X145297561Y-93882475D01*
X145297561Y-93882475D02*
X145202323Y-93930094D01*
X145202323Y-93930094D02*
X145011847Y-93977713D01*
X145011847Y-93977713D02*
X144868990Y-93977713D01*
X144868990Y-93977713D02*
X144678514Y-93930094D01*
X144678514Y-93930094D02*
X144583276Y-93882475D01*
X144583276Y-93882475D02*
X144488038Y-93787237D01*
X144488038Y-93787237D02*
X144440419Y-93644380D01*
X144440419Y-93644380D02*
X144440419Y-93549142D01*
X144440419Y-93549142D02*
X144488038Y-93406285D01*
X144488038Y-93406285D02*
X144535657Y-93358666D01*
X144440419Y-93025332D02*
X144440419Y-92358666D01*
X144440419Y-92358666D02*
X145440419Y-92787237D01*
X160076666Y-124904819D02*
X160076666Y-125619104D01*
X160076666Y-125619104D02*
X160029047Y-125761961D01*
X160029047Y-125761961D02*
X159933809Y-125857200D01*
X159933809Y-125857200D02*
X159790952Y-125904819D01*
X159790952Y-125904819D02*
X159695714Y-125904819D01*
X160695714Y-125333390D02*
X160600476Y-125285771D01*
X160600476Y-125285771D02*
X160552857Y-125238152D01*
X160552857Y-125238152D02*
X160505238Y-125142914D01*
X160505238Y-125142914D02*
X160505238Y-125095295D01*
X160505238Y-125095295D02*
X160552857Y-125000057D01*
X160552857Y-125000057D02*
X160600476Y-124952438D01*
X160600476Y-124952438D02*
X160695714Y-124904819D01*
X160695714Y-124904819D02*
X160886190Y-124904819D01*
X160886190Y-124904819D02*
X160981428Y-124952438D01*
X160981428Y-124952438D02*
X161029047Y-125000057D01*
X161029047Y-125000057D02*
X161076666Y-125095295D01*
X161076666Y-125095295D02*
X161076666Y-125142914D01*
X161076666Y-125142914D02*
X161029047Y-125238152D01*
X161029047Y-125238152D02*
X160981428Y-125285771D01*
X160981428Y-125285771D02*
X160886190Y-125333390D01*
X160886190Y-125333390D02*
X160695714Y-125333390D01*
X160695714Y-125333390D02*
X160600476Y-125381009D01*
X160600476Y-125381009D02*
X160552857Y-125428628D01*
X160552857Y-125428628D02*
X160505238Y-125523866D01*
X160505238Y-125523866D02*
X160505238Y-125714342D01*
X160505238Y-125714342D02*
X160552857Y-125809580D01*
X160552857Y-125809580D02*
X160600476Y-125857200D01*
X160600476Y-125857200D02*
X160695714Y-125904819D01*
X160695714Y-125904819D02*
X160886190Y-125904819D01*
X160886190Y-125904819D02*
X160981428Y-125857200D01*
X160981428Y-125857200D02*
X161029047Y-125809580D01*
X161029047Y-125809580D02*
X161076666Y-125714342D01*
X161076666Y-125714342D02*
X161076666Y-125523866D01*
X161076666Y-125523866D02*
X161029047Y-125428628D01*
X161029047Y-125428628D02*
X160981428Y-125381009D01*
X160981428Y-125381009D02*
X160886190Y-125333390D01*
X159846666Y-76644819D02*
X159846666Y-77359104D01*
X159846666Y-77359104D02*
X159799047Y-77501961D01*
X159799047Y-77501961D02*
X159703809Y-77597200D01*
X159703809Y-77597200D02*
X159560952Y-77644819D01*
X159560952Y-77644819D02*
X159465714Y-77644819D01*
X160751428Y-76978152D02*
X160751428Y-77644819D01*
X160513333Y-76597200D02*
X160275238Y-77311485D01*
X160275238Y-77311485D02*
X160894285Y-77311485D01*
X154374533Y-93094380D02*
X154326914Y-93142000D01*
X154326914Y-93142000D02*
X154184057Y-93189619D01*
X154184057Y-93189619D02*
X154088819Y-93189619D01*
X154088819Y-93189619D02*
X153945962Y-93142000D01*
X153945962Y-93142000D02*
X153850724Y-93046761D01*
X153850724Y-93046761D02*
X153803105Y-92951523D01*
X153803105Y-92951523D02*
X153755486Y-92761047D01*
X153755486Y-92761047D02*
X153755486Y-92618190D01*
X153755486Y-92618190D02*
X153803105Y-92427714D01*
X153803105Y-92427714D02*
X153850724Y-92332476D01*
X153850724Y-92332476D02*
X153945962Y-92237238D01*
X153945962Y-92237238D02*
X154088819Y-92189619D01*
X154088819Y-92189619D02*
X154184057Y-92189619D01*
X154184057Y-92189619D02*
X154326914Y-92237238D01*
X154326914Y-92237238D02*
X154374533Y-92284857D01*
X155231676Y-92189619D02*
X155041200Y-92189619D01*
X155041200Y-92189619D02*
X154945962Y-92237238D01*
X154945962Y-92237238D02*
X154898343Y-92284857D01*
X154898343Y-92284857D02*
X154803105Y-92427714D01*
X154803105Y-92427714D02*
X154755486Y-92618190D01*
X154755486Y-92618190D02*
X154755486Y-92999142D01*
X154755486Y-92999142D02*
X154803105Y-93094380D01*
X154803105Y-93094380D02*
X154850724Y-93142000D01*
X154850724Y-93142000D02*
X154945962Y-93189619D01*
X154945962Y-93189619D02*
X155136438Y-93189619D01*
X155136438Y-93189619D02*
X155231676Y-93142000D01*
X155231676Y-93142000D02*
X155279295Y-93094380D01*
X155279295Y-93094380D02*
X155326914Y-92999142D01*
X155326914Y-92999142D02*
X155326914Y-92761047D01*
X155326914Y-92761047D02*
X155279295Y-92665809D01*
X155279295Y-92665809D02*
X155231676Y-92618190D01*
X155231676Y-92618190D02*
X155136438Y-92570571D01*
X155136438Y-92570571D02*
X154945962Y-92570571D01*
X154945962Y-92570571D02*
X154850724Y-92618190D01*
X154850724Y-92618190D02*
X154803105Y-92665809D01*
X154803105Y-92665809D02*
X154755486Y-92761047D01*
X139526666Y-76644819D02*
X139526666Y-77359104D01*
X139526666Y-77359104D02*
X139479047Y-77501961D01*
X139479047Y-77501961D02*
X139383809Y-77597200D01*
X139383809Y-77597200D02*
X139240952Y-77644819D01*
X139240952Y-77644819D02*
X139145714Y-77644819D01*
X139955238Y-76740057D02*
X140002857Y-76692438D01*
X140002857Y-76692438D02*
X140098095Y-76644819D01*
X140098095Y-76644819D02*
X140336190Y-76644819D01*
X140336190Y-76644819D02*
X140431428Y-76692438D01*
X140431428Y-76692438D02*
X140479047Y-76740057D01*
X140479047Y-76740057D02*
X140526666Y-76835295D01*
X140526666Y-76835295D02*
X140526666Y-76930533D01*
X140526666Y-76930533D02*
X140479047Y-77073390D01*
X140479047Y-77073390D02*
X139907619Y-77644819D01*
X139907619Y-77644819D02*
X140526666Y-77644819D01*
X149258095Y-81204819D02*
X149258095Y-82014342D01*
X149258095Y-82014342D02*
X149305714Y-82109580D01*
X149305714Y-82109580D02*
X149353333Y-82157200D01*
X149353333Y-82157200D02*
X149448571Y-82204819D01*
X149448571Y-82204819D02*
X149639047Y-82204819D01*
X149639047Y-82204819D02*
X149734285Y-82157200D01*
X149734285Y-82157200D02*
X149781904Y-82109580D01*
X149781904Y-82109580D02*
X149829523Y-82014342D01*
X149829523Y-82014342D02*
X149829523Y-81204819D01*
X150734285Y-81538152D02*
X150734285Y-82204819D01*
X150496190Y-81157200D02*
X150258095Y-81871485D01*
X150258095Y-81871485D02*
X150877142Y-81871485D01*
X149020595Y-91954819D02*
X149020595Y-92764342D01*
X149020595Y-92764342D02*
X149068214Y-92859580D01*
X149068214Y-92859580D02*
X149115833Y-92907200D01*
X149115833Y-92907200D02*
X149211071Y-92954819D01*
X149211071Y-92954819D02*
X149401547Y-92954819D01*
X149401547Y-92954819D02*
X149496785Y-92907200D01*
X149496785Y-92907200D02*
X149544404Y-92859580D01*
X149544404Y-92859580D02*
X149592023Y-92764342D01*
X149592023Y-92764342D02*
X149592023Y-91954819D01*
X150544404Y-91954819D02*
X150068214Y-91954819D01*
X150068214Y-91954819D02*
X150020595Y-92431009D01*
X150020595Y-92431009D02*
X150068214Y-92383390D01*
X150068214Y-92383390D02*
X150163452Y-92335771D01*
X150163452Y-92335771D02*
X150401547Y-92335771D01*
X150401547Y-92335771D02*
X150496785Y-92383390D01*
X150496785Y-92383390D02*
X150544404Y-92431009D01*
X150544404Y-92431009D02*
X150592023Y-92526247D01*
X150592023Y-92526247D02*
X150592023Y-92764342D01*
X150592023Y-92764342D02*
X150544404Y-92859580D01*
X150544404Y-92859580D02*
X150496785Y-92907200D01*
X150496785Y-92907200D02*
X150401547Y-92954819D01*
X150401547Y-92954819D02*
X150163452Y-92954819D01*
X150163452Y-92954819D02*
X150068214Y-92907200D01*
X150068214Y-92907200D02*
X150020595Y-92859580D01*
X155459580Y-119488857D02*
X155507200Y-119536476D01*
X155507200Y-119536476D02*
X155554819Y-119679333D01*
X155554819Y-119679333D02*
X155554819Y-119774571D01*
X155554819Y-119774571D02*
X155507200Y-119917428D01*
X155507200Y-119917428D02*
X155411961Y-120012666D01*
X155411961Y-120012666D02*
X155316723Y-120060285D01*
X155316723Y-120060285D02*
X155126247Y-120107904D01*
X155126247Y-120107904D02*
X154983390Y-120107904D01*
X154983390Y-120107904D02*
X154792914Y-120060285D01*
X154792914Y-120060285D02*
X154697676Y-120012666D01*
X154697676Y-120012666D02*
X154602438Y-119917428D01*
X154602438Y-119917428D02*
X154554819Y-119774571D01*
X154554819Y-119774571D02*
X154554819Y-119679333D01*
X154554819Y-119679333D02*
X154602438Y-119536476D01*
X154602438Y-119536476D02*
X154650057Y-119488857D01*
X155554819Y-118536476D02*
X155554819Y-119107904D01*
X155554819Y-118822190D02*
X154554819Y-118822190D01*
X154554819Y-118822190D02*
X154697676Y-118917428D01*
X154697676Y-118917428D02*
X154792914Y-119012666D01*
X154792914Y-119012666D02*
X154840533Y-119107904D01*
X154888152Y-117679333D02*
X155554819Y-117679333D01*
X154507200Y-117917428D02*
X155221485Y-118155523D01*
X155221485Y-118155523D02*
X155221485Y-117536476D01*
X140254819Y-98792857D02*
X139778628Y-99126190D01*
X140254819Y-99364285D02*
X139254819Y-99364285D01*
X139254819Y-99364285D02*
X139254819Y-98983333D01*
X139254819Y-98983333D02*
X139302438Y-98888095D01*
X139302438Y-98888095D02*
X139350057Y-98840476D01*
X139350057Y-98840476D02*
X139445295Y-98792857D01*
X139445295Y-98792857D02*
X139588152Y-98792857D01*
X139588152Y-98792857D02*
X139683390Y-98840476D01*
X139683390Y-98840476D02*
X139731009Y-98888095D01*
X139731009Y-98888095D02*
X139778628Y-98983333D01*
X139778628Y-98983333D02*
X139778628Y-99364285D01*
X140254819Y-97840476D02*
X140254819Y-98411904D01*
X140254819Y-98126190D02*
X139254819Y-98126190D01*
X139254819Y-98126190D02*
X139397676Y-98221428D01*
X139397676Y-98221428D02*
X139492914Y-98316666D01*
X139492914Y-98316666D02*
X139540533Y-98411904D01*
X139254819Y-96935714D02*
X139254819Y-97411904D01*
X139254819Y-97411904D02*
X139731009Y-97459523D01*
X139731009Y-97459523D02*
X139683390Y-97411904D01*
X139683390Y-97411904D02*
X139635771Y-97316666D01*
X139635771Y-97316666D02*
X139635771Y-97078571D01*
X139635771Y-97078571D02*
X139683390Y-96983333D01*
X139683390Y-96983333D02*
X139731009Y-96935714D01*
X139731009Y-96935714D02*
X139826247Y-96888095D01*
X139826247Y-96888095D02*
X140064342Y-96888095D01*
X140064342Y-96888095D02*
X140159580Y-96935714D01*
X140159580Y-96935714D02*
X140207200Y-96983333D01*
X140207200Y-96983333D02*
X140254819Y-97078571D01*
X140254819Y-97078571D02*
X140254819Y-97316666D01*
X140254819Y-97316666D02*
X140207200Y-97411904D01*
X140207200Y-97411904D02*
X140159580Y-97459523D01*
X149020595Y-113454819D02*
X149020595Y-114264342D01*
X149020595Y-114264342D02*
X149068214Y-114359580D01*
X149068214Y-114359580D02*
X149115833Y-114407200D01*
X149115833Y-114407200D02*
X149211071Y-114454819D01*
X149211071Y-114454819D02*
X149401547Y-114454819D01*
X149401547Y-114454819D02*
X149496785Y-114407200D01*
X149496785Y-114407200D02*
X149544404Y-114359580D01*
X149544404Y-114359580D02*
X149592023Y-114264342D01*
X149592023Y-114264342D02*
X149592023Y-113454819D01*
X149972976Y-113454819D02*
X150639642Y-113454819D01*
X150639642Y-113454819D02*
X150211071Y-114454819D01*
X154233333Y-103809580D02*
X154185714Y-103857200D01*
X154185714Y-103857200D02*
X154042857Y-103904819D01*
X154042857Y-103904819D02*
X153947619Y-103904819D01*
X153947619Y-103904819D02*
X153804762Y-103857200D01*
X153804762Y-103857200D02*
X153709524Y-103761961D01*
X153709524Y-103761961D02*
X153661905Y-103666723D01*
X153661905Y-103666723D02*
X153614286Y-103476247D01*
X153614286Y-103476247D02*
X153614286Y-103333390D01*
X153614286Y-103333390D02*
X153661905Y-103142914D01*
X153661905Y-103142914D02*
X153709524Y-103047676D01*
X153709524Y-103047676D02*
X153804762Y-102952438D01*
X153804762Y-102952438D02*
X153947619Y-102904819D01*
X153947619Y-102904819D02*
X154042857Y-102904819D01*
X154042857Y-102904819D02*
X154185714Y-102952438D01*
X154185714Y-102952438D02*
X154233333Y-103000057D01*
X154804762Y-103333390D02*
X154709524Y-103285771D01*
X154709524Y-103285771D02*
X154661905Y-103238152D01*
X154661905Y-103238152D02*
X154614286Y-103142914D01*
X154614286Y-103142914D02*
X154614286Y-103095295D01*
X154614286Y-103095295D02*
X154661905Y-103000057D01*
X154661905Y-103000057D02*
X154709524Y-102952438D01*
X154709524Y-102952438D02*
X154804762Y-102904819D01*
X154804762Y-102904819D02*
X154995238Y-102904819D01*
X154995238Y-102904819D02*
X155090476Y-102952438D01*
X155090476Y-102952438D02*
X155138095Y-103000057D01*
X155138095Y-103000057D02*
X155185714Y-103095295D01*
X155185714Y-103095295D02*
X155185714Y-103142914D01*
X155185714Y-103142914D02*
X155138095Y-103238152D01*
X155138095Y-103238152D02*
X155090476Y-103285771D01*
X155090476Y-103285771D02*
X154995238Y-103333390D01*
X154995238Y-103333390D02*
X154804762Y-103333390D01*
X154804762Y-103333390D02*
X154709524Y-103381009D01*
X154709524Y-103381009D02*
X154661905Y-103428628D01*
X154661905Y-103428628D02*
X154614286Y-103523866D01*
X154614286Y-103523866D02*
X154614286Y-103714342D01*
X154614286Y-103714342D02*
X154661905Y-103809580D01*
X154661905Y-103809580D02*
X154709524Y-103857200D01*
X154709524Y-103857200D02*
X154804762Y-103904819D01*
X154804762Y-103904819D02*
X154995238Y-103904819D01*
X154995238Y-103904819D02*
X155090476Y-103857200D01*
X155090476Y-103857200D02*
X155138095Y-103809580D01*
X155138095Y-103809580D02*
X155185714Y-103714342D01*
X155185714Y-103714342D02*
X155185714Y-103523866D01*
X155185714Y-103523866D02*
X155138095Y-103428628D01*
X155138095Y-103428628D02*
X155090476Y-103381009D01*
X155090476Y-103381009D02*
X154995238Y-103333390D01*
X154203142Y-114601980D02*
X154155523Y-114649600D01*
X154155523Y-114649600D02*
X154012666Y-114697219D01*
X154012666Y-114697219D02*
X153917428Y-114697219D01*
X153917428Y-114697219D02*
X153774571Y-114649600D01*
X153774571Y-114649600D02*
X153679333Y-114554361D01*
X153679333Y-114554361D02*
X153631714Y-114459123D01*
X153631714Y-114459123D02*
X153584095Y-114268647D01*
X153584095Y-114268647D02*
X153584095Y-114125790D01*
X153584095Y-114125790D02*
X153631714Y-113935314D01*
X153631714Y-113935314D02*
X153679333Y-113840076D01*
X153679333Y-113840076D02*
X153774571Y-113744838D01*
X153774571Y-113744838D02*
X153917428Y-113697219D01*
X153917428Y-113697219D02*
X154012666Y-113697219D01*
X154012666Y-113697219D02*
X154155523Y-113744838D01*
X154155523Y-113744838D02*
X154203142Y-113792457D01*
X155155523Y-114697219D02*
X154584095Y-114697219D01*
X154869809Y-114697219D02*
X154869809Y-113697219D01*
X154869809Y-113697219D02*
X154774571Y-113840076D01*
X154774571Y-113840076D02*
X154679333Y-113935314D01*
X154679333Y-113935314D02*
X154584095Y-113982933D01*
X155774571Y-113697219D02*
X155869809Y-113697219D01*
X155869809Y-113697219D02*
X155965047Y-113744838D01*
X155965047Y-113744838D02*
X156012666Y-113792457D01*
X156012666Y-113792457D02*
X156060285Y-113887695D01*
X156060285Y-113887695D02*
X156107904Y-114078171D01*
X156107904Y-114078171D02*
X156107904Y-114316266D01*
X156107904Y-114316266D02*
X156060285Y-114506742D01*
X156060285Y-114506742D02*
X156012666Y-114601980D01*
X156012666Y-114601980D02*
X155965047Y-114649600D01*
X155965047Y-114649600D02*
X155869809Y-114697219D01*
X155869809Y-114697219D02*
X155774571Y-114697219D01*
X155774571Y-114697219D02*
X155679333Y-114649600D01*
X155679333Y-114649600D02*
X155631714Y-114601980D01*
X155631714Y-114601980D02*
X155584095Y-114506742D01*
X155584095Y-114506742D02*
X155536476Y-114316266D01*
X155536476Y-114316266D02*
X155536476Y-114078171D01*
X155536476Y-114078171D02*
X155584095Y-113887695D01*
X155584095Y-113887695D02*
X155631714Y-113792457D01*
X155631714Y-113792457D02*
X155679333Y-113744838D01*
X155679333Y-113744838D02*
X155774571Y-113697219D01*
X145359580Y-121592857D02*
X145407200Y-121640476D01*
X145407200Y-121640476D02*
X145454819Y-121783333D01*
X145454819Y-121783333D02*
X145454819Y-121878571D01*
X145454819Y-121878571D02*
X145407200Y-122021428D01*
X145407200Y-122021428D02*
X145311961Y-122116666D01*
X145311961Y-122116666D02*
X145216723Y-122164285D01*
X145216723Y-122164285D02*
X145026247Y-122211904D01*
X145026247Y-122211904D02*
X144883390Y-122211904D01*
X144883390Y-122211904D02*
X144692914Y-122164285D01*
X144692914Y-122164285D02*
X144597676Y-122116666D01*
X144597676Y-122116666D02*
X144502438Y-122021428D01*
X144502438Y-122021428D02*
X144454819Y-121878571D01*
X144454819Y-121878571D02*
X144454819Y-121783333D01*
X144454819Y-121783333D02*
X144502438Y-121640476D01*
X144502438Y-121640476D02*
X144550057Y-121592857D01*
X145454819Y-120640476D02*
X145454819Y-121211904D01*
X145454819Y-120926190D02*
X144454819Y-120926190D01*
X144454819Y-120926190D02*
X144597676Y-121021428D01*
X144597676Y-121021428D02*
X144692914Y-121116666D01*
X144692914Y-121116666D02*
X144740533Y-121211904D01*
X144454819Y-120307142D02*
X144454819Y-119688095D01*
X144454819Y-119688095D02*
X144835771Y-120021428D01*
X144835771Y-120021428D02*
X144835771Y-119878571D01*
X144835771Y-119878571D02*
X144883390Y-119783333D01*
X144883390Y-119783333D02*
X144931009Y-119735714D01*
X144931009Y-119735714D02*
X145026247Y-119688095D01*
X145026247Y-119688095D02*
X145264342Y-119688095D01*
X145264342Y-119688095D02*
X145359580Y-119735714D01*
X145359580Y-119735714D02*
X145407200Y-119783333D01*
X145407200Y-119783333D02*
X145454819Y-119878571D01*
X145454819Y-119878571D02*
X145454819Y-120164285D01*
X145454819Y-120164285D02*
X145407200Y-120259523D01*
X145407200Y-120259523D02*
X145359580Y-120307142D01*
X149020595Y-102704819D02*
X149020595Y-103514342D01*
X149020595Y-103514342D02*
X149068214Y-103609580D01*
X149068214Y-103609580D02*
X149115833Y-103657200D01*
X149115833Y-103657200D02*
X149211071Y-103704819D01*
X149211071Y-103704819D02*
X149401547Y-103704819D01*
X149401547Y-103704819D02*
X149496785Y-103657200D01*
X149496785Y-103657200D02*
X149544404Y-103609580D01*
X149544404Y-103609580D02*
X149592023Y-103514342D01*
X149592023Y-103514342D02*
X149592023Y-102704819D01*
X150496785Y-102704819D02*
X150306309Y-102704819D01*
X150306309Y-102704819D02*
X150211071Y-102752438D01*
X150211071Y-102752438D02*
X150163452Y-102800057D01*
X150163452Y-102800057D02*
X150068214Y-102942914D01*
X150068214Y-102942914D02*
X150020595Y-103133390D01*
X150020595Y-103133390D02*
X150020595Y-103514342D01*
X150020595Y-103514342D02*
X150068214Y-103609580D01*
X150068214Y-103609580D02*
X150115833Y-103657200D01*
X150115833Y-103657200D02*
X150211071Y-103704819D01*
X150211071Y-103704819D02*
X150401547Y-103704819D01*
X150401547Y-103704819D02*
X150496785Y-103657200D01*
X150496785Y-103657200D02*
X150544404Y-103609580D01*
X150544404Y-103609580D02*
X150592023Y-103514342D01*
X150592023Y-103514342D02*
X150592023Y-103276247D01*
X150592023Y-103276247D02*
X150544404Y-103181009D01*
X150544404Y-103181009D02*
X150496785Y-103133390D01*
X150496785Y-103133390D02*
X150401547Y-103085771D01*
X150401547Y-103085771D02*
X150211071Y-103085771D01*
X150211071Y-103085771D02*
X150115833Y-103133390D01*
X150115833Y-103133390D02*
X150068214Y-103181009D01*
X150068214Y-103181009D02*
X150020595Y-103276247D01*
X140219580Y-88246857D02*
X140267200Y-88294476D01*
X140267200Y-88294476D02*
X140314819Y-88437333D01*
X140314819Y-88437333D02*
X140314819Y-88532571D01*
X140314819Y-88532571D02*
X140267200Y-88675428D01*
X140267200Y-88675428D02*
X140171961Y-88770666D01*
X140171961Y-88770666D02*
X140076723Y-88818285D01*
X140076723Y-88818285D02*
X139886247Y-88865904D01*
X139886247Y-88865904D02*
X139743390Y-88865904D01*
X139743390Y-88865904D02*
X139552914Y-88818285D01*
X139552914Y-88818285D02*
X139457676Y-88770666D01*
X139457676Y-88770666D02*
X139362438Y-88675428D01*
X139362438Y-88675428D02*
X139314819Y-88532571D01*
X139314819Y-88532571D02*
X139314819Y-88437333D01*
X139314819Y-88437333D02*
X139362438Y-88294476D01*
X139362438Y-88294476D02*
X139410057Y-88246857D01*
X140314819Y-87294476D02*
X140314819Y-87865904D01*
X140314819Y-87580190D02*
X139314819Y-87580190D01*
X139314819Y-87580190D02*
X139457676Y-87675428D01*
X139457676Y-87675428D02*
X139552914Y-87770666D01*
X139552914Y-87770666D02*
X139600533Y-87865904D01*
X139314819Y-86389714D02*
X139314819Y-86865904D01*
X139314819Y-86865904D02*
X139791009Y-86913523D01*
X139791009Y-86913523D02*
X139743390Y-86865904D01*
X139743390Y-86865904D02*
X139695771Y-86770666D01*
X139695771Y-86770666D02*
X139695771Y-86532571D01*
X139695771Y-86532571D02*
X139743390Y-86437333D01*
X139743390Y-86437333D02*
X139791009Y-86389714D01*
X139791009Y-86389714D02*
X139886247Y-86342095D01*
X139886247Y-86342095D02*
X140124342Y-86342095D01*
X140124342Y-86342095D02*
X140219580Y-86389714D01*
X140219580Y-86389714D02*
X140267200Y-86437333D01*
X140267200Y-86437333D02*
X140314819Y-86532571D01*
X140314819Y-86532571D02*
X140314819Y-86770666D01*
X140314819Y-86770666D02*
X140267200Y-86865904D01*
X140267200Y-86865904D02*
X140219580Y-86913523D01*
X144933333Y-103809580D02*
X144885714Y-103857200D01*
X144885714Y-103857200D02*
X144742857Y-103904819D01*
X144742857Y-103904819D02*
X144647619Y-103904819D01*
X144647619Y-103904819D02*
X144504762Y-103857200D01*
X144504762Y-103857200D02*
X144409524Y-103761961D01*
X144409524Y-103761961D02*
X144361905Y-103666723D01*
X144361905Y-103666723D02*
X144314286Y-103476247D01*
X144314286Y-103476247D02*
X144314286Y-103333390D01*
X144314286Y-103333390D02*
X144361905Y-103142914D01*
X144361905Y-103142914D02*
X144409524Y-103047676D01*
X144409524Y-103047676D02*
X144504762Y-102952438D01*
X144504762Y-102952438D02*
X144647619Y-102904819D01*
X144647619Y-102904819D02*
X144742857Y-102904819D01*
X144742857Y-102904819D02*
X144885714Y-102952438D01*
X144885714Y-102952438D02*
X144933333Y-103000057D01*
X145409524Y-103904819D02*
X145600000Y-103904819D01*
X145600000Y-103904819D02*
X145695238Y-103857200D01*
X145695238Y-103857200D02*
X145742857Y-103809580D01*
X145742857Y-103809580D02*
X145838095Y-103666723D01*
X145838095Y-103666723D02*
X145885714Y-103476247D01*
X145885714Y-103476247D02*
X145885714Y-103095295D01*
X145885714Y-103095295D02*
X145838095Y-103000057D01*
X145838095Y-103000057D02*
X145790476Y-102952438D01*
X145790476Y-102952438D02*
X145695238Y-102904819D01*
X145695238Y-102904819D02*
X145504762Y-102904819D01*
X145504762Y-102904819D02*
X145409524Y-102952438D01*
X145409524Y-102952438D02*
X145361905Y-103000057D01*
X145361905Y-103000057D02*
X145314286Y-103095295D01*
X145314286Y-103095295D02*
X145314286Y-103333390D01*
X145314286Y-103333390D02*
X145361905Y-103428628D01*
X145361905Y-103428628D02*
X145409524Y-103476247D01*
X145409524Y-103476247D02*
X145504762Y-103523866D01*
X145504762Y-103523866D02*
X145695238Y-103523866D01*
X145695238Y-103523866D02*
X145790476Y-103476247D01*
X145790476Y-103476247D02*
X145838095Y-103428628D01*
X145838095Y-103428628D02*
X145885714Y-103333390D01*
X147738095Y-124504819D02*
X147738095Y-125314342D01*
X147738095Y-125314342D02*
X147785714Y-125409580D01*
X147785714Y-125409580D02*
X147833333Y-125457200D01*
X147833333Y-125457200D02*
X147928571Y-125504819D01*
X147928571Y-125504819D02*
X148119047Y-125504819D01*
X148119047Y-125504819D02*
X148214285Y-125457200D01*
X148214285Y-125457200D02*
X148261904Y-125409580D01*
X148261904Y-125409580D02*
X148309523Y-125314342D01*
X148309523Y-125314342D02*
X148309523Y-124504819D01*
X148928571Y-124933390D02*
X148833333Y-124885771D01*
X148833333Y-124885771D02*
X148785714Y-124838152D01*
X148785714Y-124838152D02*
X148738095Y-124742914D01*
X148738095Y-124742914D02*
X148738095Y-124695295D01*
X148738095Y-124695295D02*
X148785714Y-124600057D01*
X148785714Y-124600057D02*
X148833333Y-124552438D01*
X148833333Y-124552438D02*
X148928571Y-124504819D01*
X148928571Y-124504819D02*
X149119047Y-124504819D01*
X149119047Y-124504819D02*
X149214285Y-124552438D01*
X149214285Y-124552438D02*
X149261904Y-124600057D01*
X149261904Y-124600057D02*
X149309523Y-124695295D01*
X149309523Y-124695295D02*
X149309523Y-124742914D01*
X149309523Y-124742914D02*
X149261904Y-124838152D01*
X149261904Y-124838152D02*
X149214285Y-124885771D01*
X149214285Y-124885771D02*
X149119047Y-124933390D01*
X149119047Y-124933390D02*
X148928571Y-124933390D01*
X148928571Y-124933390D02*
X148833333Y-124981009D01*
X148833333Y-124981009D02*
X148785714Y-125028628D01*
X148785714Y-125028628D02*
X148738095Y-125123866D01*
X148738095Y-125123866D02*
X148738095Y-125314342D01*
X148738095Y-125314342D02*
X148785714Y-125409580D01*
X148785714Y-125409580D02*
X148833333Y-125457200D01*
X148833333Y-125457200D02*
X148928571Y-125504819D01*
X148928571Y-125504819D02*
X149119047Y-125504819D01*
X149119047Y-125504819D02*
X149214285Y-125457200D01*
X149214285Y-125457200D02*
X149261904Y-125409580D01*
X149261904Y-125409580D02*
X149309523Y-125314342D01*
X149309523Y-125314342D02*
X149309523Y-125123866D01*
X149309523Y-125123866D02*
X149261904Y-125028628D01*
X149261904Y-125028628D02*
X149214285Y-124981009D01*
X149214285Y-124981009D02*
X149119047Y-124933390D01*
X150647142Y-126461580D02*
X150599523Y-126509200D01*
X150599523Y-126509200D02*
X150456666Y-126556819D01*
X150456666Y-126556819D02*
X150361428Y-126556819D01*
X150361428Y-126556819D02*
X150218571Y-126509200D01*
X150218571Y-126509200D02*
X150123333Y-126413961D01*
X150123333Y-126413961D02*
X150075714Y-126318723D01*
X150075714Y-126318723D02*
X150028095Y-126128247D01*
X150028095Y-126128247D02*
X150028095Y-125985390D01*
X150028095Y-125985390D02*
X150075714Y-125794914D01*
X150075714Y-125794914D02*
X150123333Y-125699676D01*
X150123333Y-125699676D02*
X150218571Y-125604438D01*
X150218571Y-125604438D02*
X150361428Y-125556819D01*
X150361428Y-125556819D02*
X150456666Y-125556819D01*
X150456666Y-125556819D02*
X150599523Y-125604438D01*
X150599523Y-125604438D02*
X150647142Y-125652057D01*
X151599523Y-126556819D02*
X151028095Y-126556819D01*
X151313809Y-126556819D02*
X151313809Y-125556819D01*
X151313809Y-125556819D02*
X151218571Y-125699676D01*
X151218571Y-125699676D02*
X151123333Y-125794914D01*
X151123333Y-125794914D02*
X151028095Y-125842533D01*
X151980476Y-125652057D02*
X152028095Y-125604438D01*
X152028095Y-125604438D02*
X152123333Y-125556819D01*
X152123333Y-125556819D02*
X152361428Y-125556819D01*
X152361428Y-125556819D02*
X152456666Y-125604438D01*
X152456666Y-125604438D02*
X152504285Y-125652057D01*
X152504285Y-125652057D02*
X152551904Y-125747295D01*
X152551904Y-125747295D02*
X152551904Y-125842533D01*
X152551904Y-125842533D02*
X152504285Y-125985390D01*
X152504285Y-125985390D02*
X151932857Y-126556819D01*
X151932857Y-126556819D02*
X152551904Y-126556819D01*
X145345180Y-115792857D02*
X145392800Y-115840476D01*
X145392800Y-115840476D02*
X145440419Y-115983333D01*
X145440419Y-115983333D02*
X145440419Y-116078571D01*
X145440419Y-116078571D02*
X145392800Y-116221428D01*
X145392800Y-116221428D02*
X145297561Y-116316666D01*
X145297561Y-116316666D02*
X145202323Y-116364285D01*
X145202323Y-116364285D02*
X145011847Y-116411904D01*
X145011847Y-116411904D02*
X144868990Y-116411904D01*
X144868990Y-116411904D02*
X144678514Y-116364285D01*
X144678514Y-116364285D02*
X144583276Y-116316666D01*
X144583276Y-116316666D02*
X144488038Y-116221428D01*
X144488038Y-116221428D02*
X144440419Y-116078571D01*
X144440419Y-116078571D02*
X144440419Y-115983333D01*
X144440419Y-115983333D02*
X144488038Y-115840476D01*
X144488038Y-115840476D02*
X144535657Y-115792857D01*
X145440419Y-114840476D02*
X145440419Y-115411904D01*
X145440419Y-115126190D02*
X144440419Y-115126190D01*
X144440419Y-115126190D02*
X144583276Y-115221428D01*
X144583276Y-115221428D02*
X144678514Y-115316666D01*
X144678514Y-115316666D02*
X144726133Y-115411904D01*
X145440419Y-113888095D02*
X145440419Y-114459523D01*
X145440419Y-114173809D02*
X144440419Y-114173809D01*
X144440419Y-114173809D02*
X144583276Y-114269047D01*
X144583276Y-114269047D02*
X144678514Y-114364285D01*
X144678514Y-114364285D02*
X144726133Y-114459523D01*
X154647333Y-82335980D02*
X154599714Y-82383600D01*
X154599714Y-82383600D02*
X154456857Y-82431219D01*
X154456857Y-82431219D02*
X154361619Y-82431219D01*
X154361619Y-82431219D02*
X154218762Y-82383600D01*
X154218762Y-82383600D02*
X154123524Y-82288361D01*
X154123524Y-82288361D02*
X154075905Y-82193123D01*
X154075905Y-82193123D02*
X154028286Y-82002647D01*
X154028286Y-82002647D02*
X154028286Y-81859790D01*
X154028286Y-81859790D02*
X154075905Y-81669314D01*
X154075905Y-81669314D02*
X154123524Y-81574076D01*
X154123524Y-81574076D02*
X154218762Y-81478838D01*
X154218762Y-81478838D02*
X154361619Y-81431219D01*
X154361619Y-81431219D02*
X154456857Y-81431219D01*
X154456857Y-81431219D02*
X154599714Y-81478838D01*
X154599714Y-81478838D02*
X154647333Y-81526457D01*
X155504476Y-81764552D02*
X155504476Y-82431219D01*
X155266381Y-81383600D02*
X155028286Y-82097885D01*
X155028286Y-82097885D02*
X155647333Y-82097885D01*
D13*
%TO.C,C5*%
X147333836Y-81554400D02*
X147118164Y-81554400D01*
X147333836Y-82274400D02*
X147118164Y-82274400D01*
%TO.C,C7*%
X144681600Y-91024664D02*
X144681600Y-91240336D01*
X145401600Y-91024664D02*
X145401600Y-91240336D01*
%TO.C,J8*%
X153770000Y-124120000D02*
X153770000Y-126780000D01*
X156370000Y-124120000D02*
X153770000Y-124120000D01*
X156370000Y-124120000D02*
X156370000Y-126780000D01*
X156370000Y-126780000D02*
X153770000Y-126780000D01*
X158970000Y-125450000D02*
X158970000Y-126780000D01*
X158970000Y-126780000D02*
X157640000Y-126780000D01*
%TO.C,J4*%
X161390000Y-75920000D02*
X161390000Y-124240000D01*
X161390000Y-75920000D02*
X164050000Y-75920000D01*
X161390000Y-124240000D02*
X164050000Y-124240000D01*
X162720000Y-73320000D02*
X164050000Y-73320000D01*
X164050000Y-73320000D02*
X164050000Y-74650000D01*
X164050000Y-75920000D02*
X164050000Y-124240000D01*
%TO.C,C6*%
X152442164Y-92324000D02*
X152657836Y-92324000D01*
X152442164Y-93044000D02*
X152657836Y-93044000D01*
%TO.C,J2*%
X135990000Y-75920000D02*
X135990000Y-124240000D01*
X135990000Y-75920000D02*
X138650000Y-75920000D01*
X135990000Y-124240000D02*
X138650000Y-124240000D01*
X137320000Y-73320000D02*
X138650000Y-73320000D01*
X138650000Y-73320000D02*
X138650000Y-74650000D01*
X138650000Y-75920000D02*
X138650000Y-124240000D01*
%TO.C,U4*%
X150020000Y-74165000D02*
X147820000Y-74165000D01*
X150020000Y-74165000D02*
X152220000Y-74165000D01*
X150020000Y-80935000D02*
X147820000Y-80935000D01*
X150020000Y-80935000D02*
X152220000Y-80935000D01*
X154210000Y-80715000D02*
X153880000Y-80475000D01*
X154210000Y-80235000D01*
X154210000Y-80715000D01*
G36*
X154210000Y-80715000D02*
G01*
X153880000Y-80475000D01*
X154210000Y-80235000D01*
X154210000Y-80715000D01*
G37*
%TO.C,U5*%
X149782500Y-84915000D02*
X147582500Y-84915000D01*
X149782500Y-84915000D02*
X151982500Y-84915000D01*
X149782500Y-91685000D02*
X147582500Y-91685000D01*
X149782500Y-91685000D02*
X151982500Y-91685000D01*
X153972500Y-91465000D02*
X153642500Y-91225000D01*
X153972500Y-90985000D01*
X153972500Y-91465000D01*
G36*
X153972500Y-91465000D02*
G01*
X153642500Y-91225000D01*
X153972500Y-90985000D01*
X153972500Y-91465000D01*
G37*
%TO.C,C14*%
X154590000Y-122135080D02*
X154590000Y-121853920D01*
X155610000Y-122135080D02*
X155610000Y-121853920D01*
%TO.C,R15*%
X139480000Y-94560359D02*
X139480000Y-94867641D01*
X140240000Y-94560359D02*
X140240000Y-94867641D01*
%TO.C,U7*%
X149782500Y-106415000D02*
X147582500Y-106415000D01*
X149782500Y-106415000D02*
X151982500Y-106415000D01*
X149782500Y-113185000D02*
X147582500Y-113185000D01*
X149782500Y-113185000D02*
X151982500Y-113185000D01*
X153972500Y-112965000D02*
X153642500Y-112725000D01*
X153972500Y-112485000D01*
X153972500Y-112965000D01*
G36*
X153972500Y-112965000D02*
G01*
X153642500Y-112725000D01*
X153972500Y-112485000D01*
X153972500Y-112965000D01*
G37*
%TO.C,C8*%
X152507836Y-103090000D02*
X152292164Y-103090000D01*
X152507836Y-103810000D02*
X152292164Y-103810000D01*
%TO.C,C10*%
X152442164Y-113812400D02*
X152657836Y-113812400D01*
X152442164Y-114532400D02*
X152657836Y-114532400D01*
%TO.C,C13*%
X144640000Y-123242164D02*
X144640000Y-123457836D01*
X145360000Y-123242164D02*
X145360000Y-123457836D01*
%TO.C,U6*%
X149782500Y-95665000D02*
X147582500Y-95665000D01*
X149782500Y-95665000D02*
X151982500Y-95665000D01*
X149782500Y-102435000D02*
X147582500Y-102435000D01*
X149782500Y-102435000D02*
X151982500Y-102435000D01*
X153972500Y-102215000D02*
X153642500Y-101975000D01*
X153972500Y-101735000D01*
X153972500Y-102215000D01*
G36*
X153972500Y-102215000D02*
G01*
X153642500Y-101975000D01*
X153972500Y-101735000D01*
X153972500Y-102215000D01*
G37*
%TO.C,C15*%
X139350000Y-91808580D02*
X139350000Y-91527420D01*
X140370000Y-91808580D02*
X140370000Y-91527420D01*
%TO.C,C9*%
X147107836Y-103042800D02*
X146892164Y-103042800D01*
X147107836Y-103762800D02*
X146892164Y-103762800D01*
%TO.C,U8*%
X149782500Y-117165000D02*
X147582500Y-117165000D01*
X149782500Y-117165000D02*
X151982500Y-117165000D01*
X149782500Y-123935000D02*
X147582500Y-123935000D01*
X149782500Y-123935000D02*
X151982500Y-123935000D01*
X153972500Y-123715000D02*
X153642500Y-123475000D01*
X153972500Y-123235000D01*
X153972500Y-123715000D01*
G36*
X153972500Y-123715000D02*
G01*
X153642500Y-123475000D01*
X153972500Y-123235000D01*
X153972500Y-123715000D01*
G37*
%TO.C,C12*%
X151397836Y-124582000D02*
X151182164Y-124582000D01*
X151397836Y-125302000D02*
X151182164Y-125302000D01*
%TO.C,C11*%
X144681600Y-112438964D02*
X144681600Y-112654636D01*
X145401600Y-112438964D02*
X145401600Y-112654636D01*
%TO.C,C4*%
X152655364Y-81554400D02*
X152871036Y-81554400D01*
X152655364Y-82274400D02*
X152871036Y-82274400D01*
%TD*%
%LPC*%
D14*
%TO.C,C5*%
X147706000Y-81914400D03*
X146746000Y-81914400D03*
%TD*%
D15*
%TO.C,C7*%
X145041600Y-90652500D03*
X145041600Y-91612500D03*
%TD*%
D16*
%TO.C,FID3*%
X162720000Y-125450000D03*
%TD*%
D17*
%TO.C,J8*%
X157640000Y-125450000D03*
D18*
X155100000Y-125450000D03*
%TD*%
D17*
%TO.C,J4*%
X162720000Y-74650000D03*
D18*
X162720000Y-77190000D03*
X162720000Y-79730000D03*
X162720000Y-82270000D03*
X162720000Y-84810000D03*
X162720000Y-87350000D03*
X162720000Y-89890000D03*
X162720000Y-92430000D03*
X162720000Y-94970000D03*
X162720000Y-97510000D03*
X162720000Y-100050000D03*
X162720000Y-102590000D03*
X162720000Y-105130000D03*
X162720000Y-107670000D03*
X162720000Y-110210000D03*
X162720000Y-112750000D03*
X162720000Y-115290000D03*
X162720000Y-117830000D03*
X162720000Y-120370000D03*
X162720000Y-122910000D03*
%TD*%
D19*
%TO.C,C6*%
X152070000Y-92684000D03*
X153030000Y-92684000D03*
%TD*%
D17*
%TO.C,J2*%
X137320000Y-74650000D03*
D18*
X137320000Y-77190000D03*
X137320000Y-79730000D03*
X137320000Y-82270000D03*
X137320000Y-84810000D03*
X137320000Y-87350000D03*
X137320000Y-89890000D03*
X137320000Y-92430000D03*
X137320000Y-94970000D03*
X137320000Y-97510000D03*
X137320000Y-100050000D03*
X137320000Y-102590000D03*
X137320000Y-105130000D03*
X137320000Y-107670000D03*
X137320000Y-110210000D03*
X137320000Y-112750000D03*
X137320000Y-115290000D03*
X137320000Y-117830000D03*
X137320000Y-120370000D03*
X137320000Y-122910000D03*
%TD*%
D20*
%TO.C,U4*%
X152882500Y-80475000D03*
X152882500Y-79825000D03*
X152882500Y-79175000D03*
X152882500Y-78525000D03*
X152882500Y-77875000D03*
X152882500Y-77225000D03*
X152882500Y-76575000D03*
X152882500Y-75925000D03*
X152882500Y-75275000D03*
X152882500Y-74625000D03*
X147157500Y-74625000D03*
X147157500Y-75275000D03*
X147157500Y-75925000D03*
X147157500Y-76575000D03*
X147157500Y-77225000D03*
X147157500Y-77875000D03*
X147157500Y-78525000D03*
X147157500Y-79175000D03*
X147157500Y-79825000D03*
X147157500Y-80475000D03*
%TD*%
%TO.C,U5*%
X152645000Y-91225000D03*
X152645000Y-90575000D03*
X152645000Y-89925000D03*
X152645000Y-89275000D03*
X152645000Y-88625000D03*
X152645000Y-87975000D03*
X152645000Y-87325000D03*
X152645000Y-86675000D03*
X152645000Y-86025000D03*
X152645000Y-85375000D03*
X146920000Y-85375000D03*
X146920000Y-86025000D03*
X146920000Y-86675000D03*
X146920000Y-87325000D03*
X146920000Y-87975000D03*
X146920000Y-88625000D03*
X146920000Y-89275000D03*
X146920000Y-89925000D03*
X146920000Y-90575000D03*
X146920000Y-91225000D03*
%TD*%
D21*
%TO.C,C14*%
X155100000Y-122769500D03*
X155100000Y-121219500D03*
%TD*%
D16*
%TO.C,FID1*%
X160180000Y-74650000D03*
%TD*%
D22*
%TO.C,R15*%
X139860000Y-94204000D03*
X139860000Y-95224000D03*
%TD*%
D20*
%TO.C,U7*%
X152645000Y-112725000D03*
X152645000Y-112075000D03*
X152645000Y-111425000D03*
X152645000Y-110775000D03*
X152645000Y-110125000D03*
X152645000Y-109475000D03*
X152645000Y-108825000D03*
X152645000Y-108175000D03*
X152645000Y-107525000D03*
X152645000Y-106875000D03*
X146920000Y-106875000D03*
X146920000Y-107525000D03*
X146920000Y-108175000D03*
X146920000Y-108825000D03*
X146920000Y-109475000D03*
X146920000Y-110125000D03*
X146920000Y-110775000D03*
X146920000Y-111425000D03*
X146920000Y-112075000D03*
X146920000Y-112725000D03*
%TD*%
D14*
%TO.C,C8*%
X152880000Y-103450000D03*
X151920000Y-103450000D03*
%TD*%
D19*
%TO.C,C10*%
X152070000Y-114172400D03*
X153030000Y-114172400D03*
%TD*%
D15*
%TO.C,C13*%
X145000000Y-122870000D03*
X145000000Y-123830000D03*
%TD*%
D20*
%TO.C,U6*%
X152645000Y-101975000D03*
X152645000Y-101325000D03*
X152645000Y-100675000D03*
X152645000Y-100025000D03*
X152645000Y-99375000D03*
X152645000Y-98725000D03*
X152645000Y-98075000D03*
X152645000Y-97425000D03*
X152645000Y-96775000D03*
X152645000Y-96125000D03*
X146920000Y-96125000D03*
X146920000Y-96775000D03*
X146920000Y-97425000D03*
X146920000Y-98075000D03*
X146920000Y-98725000D03*
X146920000Y-99375000D03*
X146920000Y-100025000D03*
X146920000Y-100675000D03*
X146920000Y-101325000D03*
X146920000Y-101975000D03*
%TD*%
D21*
%TO.C,C15*%
X139860000Y-92443000D03*
X139860000Y-90893000D03*
%TD*%
D16*
%TO.C,FID2*%
X137320000Y-125450000D03*
%TD*%
D14*
%TO.C,C9*%
X147480000Y-103402800D03*
X146520000Y-103402800D03*
%TD*%
D20*
%TO.C,U8*%
X152645000Y-123475000D03*
X152645000Y-122825000D03*
X152645000Y-122175000D03*
X152645000Y-121525000D03*
X152645000Y-120875000D03*
X152645000Y-120225000D03*
X152645000Y-119575000D03*
X152645000Y-118925000D03*
X152645000Y-118275000D03*
X152645000Y-117625000D03*
X146920000Y-117625000D03*
X146920000Y-118275000D03*
X146920000Y-118925000D03*
X146920000Y-119575000D03*
X146920000Y-120225000D03*
X146920000Y-120875000D03*
X146920000Y-121525000D03*
X146920000Y-122175000D03*
X146920000Y-122825000D03*
X146920000Y-123475000D03*
%TD*%
D14*
%TO.C,C12*%
X151770000Y-124942000D03*
X150810000Y-124942000D03*
%TD*%
D15*
%TO.C,C11*%
X145041600Y-112066800D03*
X145041600Y-113026800D03*
%TD*%
D19*
%TO.C,C4*%
X152283200Y-81914400D03*
X153243200Y-81914400D03*
%TD*%
D17*
%TO.C,J11*%
X142400000Y-74650000D03*
D18*
X142400000Y-77190000D03*
X142400000Y-79730000D03*
X142400000Y-82270000D03*
X142400000Y-84810000D03*
X142400000Y-87350000D03*
X142400000Y-89890000D03*
X142400000Y-92430000D03*
X142400000Y-94970000D03*
X142400000Y-97510000D03*
X142400000Y-100050000D03*
X142400000Y-102590000D03*
X142400000Y-105130000D03*
X142400000Y-107670000D03*
X142400000Y-110210000D03*
X142400000Y-112750000D03*
X142400000Y-115290000D03*
X142400000Y-117830000D03*
X142400000Y-120370000D03*
X142400000Y-122910000D03*
%TD*%
D17*
%TO.C,J10*%
X157640000Y-74650000D03*
D18*
X157640000Y-77190000D03*
X157640000Y-79730000D03*
X157640000Y-82270000D03*
X157640000Y-84810000D03*
X157640000Y-87350000D03*
X157640000Y-89890000D03*
X157640000Y-92430000D03*
X157640000Y-94970000D03*
X157640000Y-97510000D03*
X157640000Y-100050000D03*
X157640000Y-102590000D03*
X157640000Y-105130000D03*
X157640000Y-107670000D03*
X157640000Y-110210000D03*
X157640000Y-112750000D03*
X157640000Y-115290000D03*
X157640000Y-117830000D03*
X157640000Y-120370000D03*
X157640000Y-122910000D03*
%TD*%
%LPD*%
M02*
