%TF.GenerationSoftware,KiCad,Pcbnew,9.0.3*%
%TF.CreationDate,2025-07-14T16:06:07+02:00*%
%TF.ProjectId,IF-Board,49462d42-6f61-4726-942e-6b696361645f,rev?*%
%TF.SameCoordinates,Original*%
%TF.FileFunction,Copper,L3,Inr*%
%TF.FilePolarity,Positive*%
%FSLAX46Y46*%
G04 Gerber Fmt 4.6, Leading zero omitted, Abs format (unit mm)*
G04 Created by KiCad (PCBNEW 9.0.3) date 2025-07-14 16:06:07*
%MOMM*%
%LPD*%
G01*
G04 APERTURE LIST*
%TA.AperFunction,ViaPad*%
%ADD10C,0.500000*%
%TD*%
G04 APERTURE END LIST*
D10*
%TO.N,/Level Shifters & CPU Interface/PIN_28*%
X148800000Y-110850000D03*
%TO.N,/Level Shifters & CPU Interface/PIN_31*%
X148800000Y-107550000D03*
%TO.N,/Level Shifters & CPU Interface/CPU_16*%
X150800000Y-103550000D03*
%TO.N,/Level Shifters & CPU Interface/GND_I*%
X136685000Y-121640000D03*
X136685000Y-83540000D03*
X136685000Y-88620000D03*
X149600000Y-112450000D03*
X149300000Y-87050000D03*
X159545000Y-82270000D03*
X150400000Y-102900000D03*
X136685000Y-103860000D03*
X149300000Y-84650000D03*
X149600000Y-110250000D03*
X149300000Y-89450000D03*
X146900000Y-116650000D03*
X159545000Y-105130000D03*
X159545000Y-110210000D03*
X150400000Y-95750000D03*
X149600000Y-109150000D03*
X149600000Y-111350000D03*
X159545000Y-94970000D03*
X136685000Y-114020000D03*
X153372800Y-93496800D03*
X136685000Y-78460000D03*
X136685000Y-119100000D03*
X159545000Y-97510000D03*
X159545000Y-77190000D03*
X159545000Y-125450000D03*
X136685000Y-116560000D03*
X150300000Y-75750000D03*
X159545000Y-87350000D03*
X145600000Y-74550000D03*
X150400000Y-96950000D03*
X136685000Y-91160000D03*
X149200000Y-116850000D03*
X139225000Y-74650000D03*
X159545000Y-112750000D03*
X136685000Y-106400000D03*
X136685000Y-98780000D03*
X147988000Y-106250000D03*
X159545000Y-84810000D03*
X150300000Y-121950000D03*
X159545000Y-102590000D03*
X136685000Y-101320000D03*
X150300000Y-78150000D03*
X159545000Y-120370000D03*
X159545000Y-115290000D03*
X159545000Y-89890000D03*
X136685000Y-93700000D03*
X149766000Y-124942000D03*
X149300000Y-85850000D03*
X159545000Y-122910000D03*
X149200000Y-118050000D03*
X150400000Y-98150000D03*
X146900000Y-84650000D03*
X150400000Y-100500000D03*
X149300000Y-88250000D03*
X139860000Y-89509000D03*
X151900000Y-102650000D03*
X150300000Y-80550000D03*
X149300000Y-90650000D03*
X150300000Y-123150000D03*
X153350000Y-82600000D03*
X159545000Y-107670000D03*
X159545000Y-92430000D03*
X146560850Y-82710851D03*
X153118800Y-115086800D03*
X159545000Y-79730000D03*
X149600000Y-108050000D03*
X146514800Y-104317200D03*
X139850000Y-97129000D03*
X159545000Y-100050000D03*
X149300000Y-91850000D03*
X150400000Y-99300000D03*
X146900000Y-95450000D03*
X136685000Y-81000000D03*
X136685000Y-96240000D03*
X145041600Y-113766000D03*
X136685000Y-86080000D03*
X145250000Y-92650000D03*
X149600000Y-106950000D03*
X150300000Y-79350000D03*
X149600000Y-113550000D03*
X150300000Y-74550000D03*
X136685000Y-111480000D03*
X136685000Y-108940000D03*
X150300000Y-120750000D03*
X150400000Y-101750000D03*
X150300000Y-76950000D03*
X159545000Y-117830000D03*
X145600400Y-124942000D03*
%TD*%
%TA.AperFunction,Conductor*%
%TO.N,/Level Shifters & CPU Interface/GND_I*%
G36*
X164158691Y-73169407D02*
G01*
X164194655Y-73218907D01*
X164199500Y-73249500D01*
X164199500Y-122469679D01*
X164180593Y-122527870D01*
X164131093Y-122563834D01*
X164069907Y-122563834D01*
X164020407Y-122527870D01*
X164006345Y-122500272D01*
X163971095Y-122391784D01*
X163874623Y-122202446D01*
X163874619Y-122202440D01*
X163835270Y-122148282D01*
X163835269Y-122148282D01*
X163202962Y-122780589D01*
X163185925Y-122717007D01*
X163120099Y-122602993D01*
X163027007Y-122509901D01*
X162912993Y-122444075D01*
X162849407Y-122427037D01*
X163481716Y-121794729D01*
X163481716Y-121794728D01*
X163427559Y-121755380D01*
X163427553Y-121755376D01*
X163238215Y-121658904D01*
X163036121Y-121593240D01*
X162826250Y-121560000D01*
X162613750Y-121560000D01*
X162403878Y-121593240D01*
X162201784Y-121658904D01*
X162012446Y-121755376D01*
X162012442Y-121755378D01*
X161958282Y-121794728D01*
X162590591Y-122427037D01*
X162527007Y-122444075D01*
X162412993Y-122509901D01*
X162319901Y-122602993D01*
X162254075Y-122717007D01*
X162237037Y-122780591D01*
X161604728Y-122148282D01*
X161565378Y-122202442D01*
X161565376Y-122202446D01*
X161468904Y-122391784D01*
X161403240Y-122593878D01*
X161370000Y-122803749D01*
X161370000Y-123016250D01*
X161403240Y-123226121D01*
X161468904Y-123428215D01*
X161565376Y-123617553D01*
X161565380Y-123617559D01*
X161604728Y-123671716D01*
X161604729Y-123671716D01*
X162237037Y-123039407D01*
X162254075Y-123102993D01*
X162319901Y-123217007D01*
X162412993Y-123310099D01*
X162527007Y-123375925D01*
X162590589Y-123392962D01*
X161958282Y-124025269D01*
X161958282Y-124025270D01*
X162012440Y-124064619D01*
X162012446Y-124064623D01*
X162201784Y-124161095D01*
X162403878Y-124226759D01*
X162613750Y-124260000D01*
X162826250Y-124260000D01*
X163036121Y-124226759D01*
X163238215Y-124161095D01*
X163427556Y-124064620D01*
X163481716Y-124025270D01*
X162849408Y-123392962D01*
X162912993Y-123375925D01*
X163027007Y-123310099D01*
X163120099Y-123217007D01*
X163185925Y-123102993D01*
X163202962Y-123039408D01*
X163835270Y-123671716D01*
X163874620Y-123617556D01*
X163971096Y-123428213D01*
X164006345Y-123319728D01*
X164042309Y-123270228D01*
X164100500Y-123251320D01*
X164158690Y-123270227D01*
X164194654Y-123319727D01*
X164199500Y-123350320D01*
X164199500Y-126750500D01*
X164180593Y-126808691D01*
X164131093Y-126844655D01*
X164100500Y-126849500D01*
X158887739Y-126849500D01*
X158829548Y-126830593D01*
X158793584Y-126781093D01*
X158793584Y-126719907D01*
X158828410Y-126671247D01*
X158847184Y-126657192D01*
X158847192Y-126657184D01*
X158933352Y-126542090D01*
X158933353Y-126542088D01*
X158983596Y-126407381D01*
X158983598Y-126407370D01*
X158990000Y-126347824D01*
X158990000Y-125700001D01*
X158989999Y-125700000D01*
X158073012Y-125700000D01*
X158105925Y-125642993D01*
X158140000Y-125515826D01*
X158140000Y-125384174D01*
X158105925Y-125257007D01*
X158073012Y-125200000D01*
X158989999Y-125200000D01*
X158990000Y-125199999D01*
X158990000Y-124552175D01*
X158983598Y-124492629D01*
X158983596Y-124492618D01*
X158933353Y-124357911D01*
X158933352Y-124357909D01*
X158847192Y-124242815D01*
X158847184Y-124242807D01*
X158732090Y-124156647D01*
X158732088Y-124156646D01*
X158597381Y-124106403D01*
X158597370Y-124106401D01*
X158537824Y-124100000D01*
X158502933Y-124100000D01*
X158484436Y-124093990D01*
X158465051Y-124092465D01*
X158456029Y-124084760D01*
X158444742Y-124081093D01*
X158433309Y-124065357D01*
X158418523Y-124052730D01*
X158415752Y-124041193D01*
X158410741Y-124034295D01*
X157769408Y-123392962D01*
X157832993Y-123375925D01*
X157947007Y-123310099D01*
X158040099Y-123217007D01*
X158105925Y-123102993D01*
X158122962Y-123039408D01*
X158755270Y-123671716D01*
X158794620Y-123617556D01*
X158891095Y-123428215D01*
X158956759Y-123226121D01*
X158990000Y-123016250D01*
X158990000Y-122803749D01*
X158956759Y-122593878D01*
X158891095Y-122391784D01*
X158794623Y-122202446D01*
X158794619Y-122202440D01*
X158755270Y-122148282D01*
X158755269Y-122148282D01*
X158122962Y-122780589D01*
X158105925Y-122717007D01*
X158040099Y-122602993D01*
X157947007Y-122509901D01*
X157832993Y-122444075D01*
X157769407Y-122427037D01*
X158401716Y-121794729D01*
X158401716Y-121794728D01*
X158347559Y-121755380D01*
X158347553Y-121755376D01*
X158158215Y-121658904D01*
X157956121Y-121593240D01*
X157746250Y-121560000D01*
X157533750Y-121560000D01*
X157323878Y-121593240D01*
X157121784Y-121658904D01*
X156932446Y-121755376D01*
X156932442Y-121755378D01*
X156878282Y-121794728D01*
X157510591Y-122427037D01*
X157447007Y-122444075D01*
X157332993Y-122509901D01*
X157239901Y-122602993D01*
X157174075Y-122717007D01*
X157157037Y-122780591D01*
X156524728Y-122148282D01*
X156485378Y-122202442D01*
X156485376Y-122202446D01*
X156388904Y-122391784D01*
X156323240Y-122593878D01*
X156290000Y-122803749D01*
X156290000Y-123016250D01*
X156323240Y-123226121D01*
X156388904Y-123428215D01*
X156485376Y-123617553D01*
X156485380Y-123617559D01*
X156524728Y-123671716D01*
X156524729Y-123671716D01*
X157157037Y-123039407D01*
X157174075Y-123102993D01*
X157239901Y-123217007D01*
X157332993Y-123310099D01*
X157447007Y-123375925D01*
X157510589Y-123392962D01*
X156864843Y-124038707D01*
X156861479Y-124052724D01*
X156814955Y-124092463D01*
X156777066Y-124100000D01*
X156742176Y-124100000D01*
X156682629Y-124106401D01*
X156682618Y-124106403D01*
X156547911Y-124156646D01*
X156547909Y-124156647D01*
X156432815Y-124242807D01*
X156432807Y-124242815D01*
X156346647Y-124357909D01*
X156346646Y-124357911D01*
X156296403Y-124492618D01*
X156296401Y-124492629D01*
X156290000Y-124552175D01*
X156290000Y-125199999D01*
X156290001Y-125200000D01*
X157206988Y-125200000D01*
X157174075Y-125257007D01*
X157140000Y-125384174D01*
X157140000Y-125515826D01*
X157174075Y-125642993D01*
X157206988Y-125700000D01*
X156290001Y-125700000D01*
X156290000Y-125700001D01*
X156290000Y-126347824D01*
X156289999Y-126347824D01*
X156296401Y-126407370D01*
X156296403Y-126407381D01*
X156346646Y-126542088D01*
X156346647Y-126542090D01*
X156432807Y-126657184D01*
X156432815Y-126657192D01*
X156451590Y-126671247D01*
X156486843Y-126721255D01*
X156485969Y-126782435D01*
X156449302Y-126831416D01*
X156392261Y-126849500D01*
X135899500Y-126849500D01*
X135841309Y-126830593D01*
X135805345Y-126781093D01*
X135800500Y-126750500D01*
X135800500Y-125376081D01*
X154349500Y-125376081D01*
X154349500Y-125523918D01*
X154378342Y-125668914D01*
X154434915Y-125805493D01*
X154434916Y-125805495D01*
X154517049Y-125928416D01*
X154621584Y-126032951D01*
X154744505Y-126115084D01*
X154881087Y-126171658D01*
X155026082Y-126200500D01*
X155026083Y-126200500D01*
X155173917Y-126200500D01*
X155173918Y-126200500D01*
X155318913Y-126171658D01*
X155455495Y-126115084D01*
X155578416Y-126032951D01*
X155682951Y-125928416D01*
X155765084Y-125805495D01*
X155821658Y-125668913D01*
X155850500Y-125523918D01*
X155850500Y-125376082D01*
X155821658Y-125231087D01*
X155765084Y-125094505D01*
X155682951Y-124971584D01*
X155578416Y-124867049D01*
X155455495Y-124784916D01*
X155455493Y-124784915D01*
X155318914Y-124728342D01*
X155173918Y-124699500D01*
X155026082Y-124699500D01*
X155026081Y-124699500D01*
X154881085Y-124728342D01*
X154744506Y-124784915D01*
X154621585Y-124867048D01*
X154517048Y-124971585D01*
X154434915Y-125094506D01*
X154378342Y-125231085D01*
X154349500Y-125376081D01*
X135800500Y-125376081D01*
X135800500Y-124889273D01*
X152286500Y-124889273D01*
X152286500Y-124994727D01*
X152313793Y-125096587D01*
X152313794Y-125096589D01*
X152313794Y-125096590D01*
X152340585Y-125142993D01*
X152366520Y-125187913D01*
X152441087Y-125262480D01*
X152532413Y-125315207D01*
X152634273Y-125342500D01*
X152634275Y-125342500D01*
X152739725Y-125342500D01*
X152739727Y-125342500D01*
X152841587Y-125315207D01*
X152932913Y-125262480D01*
X153007480Y-125187913D01*
X153060207Y-125096587D01*
X153087500Y-124994727D01*
X153087500Y-124889273D01*
X153060207Y-124787413D01*
X153058765Y-124784916D01*
X153007481Y-124696089D01*
X153007480Y-124696087D01*
X152932913Y-124621520D01*
X152841587Y-124568793D01*
X152739727Y-124541500D01*
X152634273Y-124541500D01*
X152532413Y-124568793D01*
X152532412Y-124568793D01*
X152532410Y-124568794D01*
X152532409Y-124568794D01*
X152441089Y-124621518D01*
X152366518Y-124696089D01*
X152313794Y-124787409D01*
X152313794Y-124787410D01*
X152313793Y-124787412D01*
X152313793Y-124787413D01*
X152286500Y-124889273D01*
X135800500Y-124889273D01*
X135800500Y-123697273D01*
X150299500Y-123697273D01*
X150299500Y-123802727D01*
X150326793Y-123904587D01*
X150326794Y-123904589D01*
X150326794Y-123904590D01*
X150379518Y-123995910D01*
X150379520Y-123995913D01*
X150454087Y-124070480D01*
X150545413Y-124123207D01*
X150647273Y-124150500D01*
X150647275Y-124150500D01*
X150752725Y-124150500D01*
X150752727Y-124150500D01*
X150854587Y-124123207D01*
X150945913Y-124070480D01*
X151020480Y-123995913D01*
X151073207Y-123904587D01*
X151100500Y-123802727D01*
X151100500Y-123697273D01*
X151073207Y-123595413D01*
X151061469Y-123575083D01*
X151020481Y-123504089D01*
X151020480Y-123504087D01*
X150945913Y-123429520D01*
X150943649Y-123428213D01*
X150854589Y-123376794D01*
X150854588Y-123376793D01*
X150854587Y-123376793D01*
X150752727Y-123349500D01*
X150647273Y-123349500D01*
X150545413Y-123376793D01*
X150545412Y-123376793D01*
X150545410Y-123376794D01*
X150545409Y-123376794D01*
X150454089Y-123429518D01*
X150379518Y-123504089D01*
X150326794Y-123595409D01*
X150326794Y-123595410D01*
X150326793Y-123595412D01*
X150326793Y-123595413D01*
X150299500Y-123697273D01*
X135800500Y-123697273D01*
X135800500Y-122836081D01*
X136569500Y-122836081D01*
X136569500Y-122983918D01*
X136598342Y-123128914D01*
X136654915Y-123265493D01*
X136654916Y-123265495D01*
X136737049Y-123388416D01*
X136841584Y-123492951D01*
X136964505Y-123575084D01*
X137101087Y-123631658D01*
X137246082Y-123660500D01*
X137246083Y-123660500D01*
X137393917Y-123660500D01*
X137393918Y-123660500D01*
X137538913Y-123631658D01*
X137675495Y-123575084D01*
X137798416Y-123492951D01*
X137902951Y-123388416D01*
X137985084Y-123265495D01*
X138041658Y-123128913D01*
X138070500Y-122983918D01*
X138070500Y-122836082D01*
X138070500Y-122836081D01*
X141649500Y-122836081D01*
X141649500Y-122983918D01*
X141678342Y-123128914D01*
X141734915Y-123265493D01*
X141734916Y-123265495D01*
X141817049Y-123388416D01*
X141921584Y-123492951D01*
X142044505Y-123575084D01*
X142181087Y-123631658D01*
X142326082Y-123660500D01*
X142326083Y-123660500D01*
X142473917Y-123660500D01*
X142473918Y-123660500D01*
X142618913Y-123631658D01*
X142755495Y-123575084D01*
X142878416Y-123492951D01*
X142982951Y-123388416D01*
X143065084Y-123265495D01*
X143121658Y-123128913D01*
X143150500Y-122983918D01*
X143150500Y-122836082D01*
X143121658Y-122691087D01*
X143065084Y-122554505D01*
X143026843Y-122497273D01*
X150299500Y-122497273D01*
X150299500Y-122602727D01*
X150323176Y-122691087D01*
X150326794Y-122704589D01*
X150326794Y-122704590D01*
X150353222Y-122750364D01*
X150379520Y-122795913D01*
X150454087Y-122870480D01*
X150545413Y-122923207D01*
X150647273Y-122950500D01*
X150647275Y-122950500D01*
X150752725Y-122950500D01*
X150752727Y-122950500D01*
X150854587Y-122923207D01*
X150945913Y-122870480D01*
X151020480Y-122795913D01*
X151073207Y-122704587D01*
X151100500Y-122602727D01*
X151100500Y-122497273D01*
X151073207Y-122395413D01*
X151020480Y-122304087D01*
X150945913Y-122229520D01*
X150899019Y-122202446D01*
X150854589Y-122176794D01*
X150854588Y-122176793D01*
X150854587Y-122176793D01*
X150752727Y-122149500D01*
X150647273Y-122149500D01*
X150545413Y-122176793D01*
X150545412Y-122176793D01*
X150545410Y-122176794D01*
X150545409Y-122176794D01*
X150454089Y-122229518D01*
X150379518Y-122304089D01*
X150326794Y-122395409D01*
X150326794Y-122395410D01*
X150326793Y-122395412D01*
X150326793Y-122395413D01*
X150299500Y-122497273D01*
X143026843Y-122497273D01*
X142982951Y-122431584D01*
X142878416Y-122327049D01*
X142755495Y-122244916D01*
X142718321Y-122229518D01*
X142618914Y-122188342D01*
X142473918Y-122159500D01*
X142326082Y-122159500D01*
X142326081Y-122159500D01*
X142181085Y-122188342D01*
X142044506Y-122244915D01*
X141921585Y-122327048D01*
X141817048Y-122431585D01*
X141734915Y-122554506D01*
X141678342Y-122691085D01*
X141649500Y-122836081D01*
X138070500Y-122836081D01*
X138041658Y-122691087D01*
X137985084Y-122554505D01*
X137902951Y-122431584D01*
X137798416Y-122327049D01*
X137675495Y-122244916D01*
X137638321Y-122229518D01*
X137538914Y-122188342D01*
X137393918Y-122159500D01*
X137246082Y-122159500D01*
X137246081Y-122159500D01*
X137101085Y-122188342D01*
X136964506Y-122244915D01*
X136841585Y-122327048D01*
X136737048Y-122431585D01*
X136654915Y-122554506D01*
X136598342Y-122691085D01*
X136569500Y-122836081D01*
X135800500Y-122836081D01*
X135800500Y-121297273D01*
X150299500Y-121297273D01*
X150299500Y-121402727D01*
X150326793Y-121504587D01*
X150326794Y-121504589D01*
X150326794Y-121504590D01*
X150379518Y-121595910D01*
X150379520Y-121595913D01*
X150454087Y-121670480D01*
X150545413Y-121723207D01*
X150647273Y-121750500D01*
X150647275Y-121750500D01*
X150752725Y-121750500D01*
X150752727Y-121750500D01*
X150854587Y-121723207D01*
X150945913Y-121670480D01*
X151020480Y-121595913D01*
X151073207Y-121504587D01*
X151100500Y-121402727D01*
X151100500Y-121297273D01*
X151073207Y-121195413D01*
X151020480Y-121104087D01*
X150945913Y-121029520D01*
X150854587Y-120976793D01*
X150752727Y-120949500D01*
X150647273Y-120949500D01*
X150545413Y-120976793D01*
X150545412Y-120976793D01*
X150545410Y-120976794D01*
X150545409Y-120976794D01*
X150454089Y-121029518D01*
X150379518Y-121104089D01*
X150326794Y-121195409D01*
X150326794Y-121195410D01*
X150326793Y-121195412D01*
X150326793Y-121195413D01*
X150299500Y-121297273D01*
X135800500Y-121297273D01*
X135800500Y-120296081D01*
X136569500Y-120296081D01*
X136569500Y-120443918D01*
X136585271Y-120523205D01*
X136598342Y-120588913D01*
X136654916Y-120725495D01*
X136737049Y-120848416D01*
X136841584Y-120952951D01*
X136964505Y-121035084D01*
X137101087Y-121091658D01*
X137246082Y-121120500D01*
X137246083Y-121120500D01*
X137393917Y-121120500D01*
X137393918Y-121120500D01*
X137538913Y-121091658D01*
X137675495Y-121035084D01*
X137798416Y-120952951D01*
X137902951Y-120848416D01*
X137985084Y-120725495D01*
X138041658Y-120588913D01*
X138070500Y-120443918D01*
X138070500Y-120296082D01*
X138070500Y-120296081D01*
X141649500Y-120296081D01*
X141649500Y-120443918D01*
X141665271Y-120523205D01*
X141678342Y-120588913D01*
X141734916Y-120725495D01*
X141817049Y-120848416D01*
X141921584Y-120952951D01*
X142044505Y-121035084D01*
X142181087Y-121091658D01*
X142326082Y-121120500D01*
X142326083Y-121120500D01*
X142473917Y-121120500D01*
X142473918Y-121120500D01*
X142618913Y-121091658D01*
X142755495Y-121035084D01*
X142878416Y-120952951D01*
X142982951Y-120848416D01*
X143065084Y-120725495D01*
X143121658Y-120588913D01*
X143150500Y-120443918D01*
X143150500Y-120296082D01*
X143121658Y-120151087D01*
X143099368Y-120097273D01*
X150299500Y-120097273D01*
X150299500Y-120202727D01*
X150326793Y-120304587D01*
X150326794Y-120304589D01*
X150326794Y-120304590D01*
X150379518Y-120395910D01*
X150379520Y-120395913D01*
X150454087Y-120470480D01*
X150545413Y-120523207D01*
X150647273Y-120550500D01*
X150647275Y-120550500D01*
X150752725Y-120550500D01*
X150752727Y-120550500D01*
X150854587Y-120523207D01*
X150945913Y-120470480D01*
X151020480Y-120395913D01*
X151073207Y-120304587D01*
X151075486Y-120296081D01*
X156889500Y-120296081D01*
X156889500Y-120443918D01*
X156905271Y-120523205D01*
X156918342Y-120588913D01*
X156974916Y-120725495D01*
X157057049Y-120848416D01*
X157161584Y-120952951D01*
X157284505Y-121035084D01*
X157421087Y-121091658D01*
X157566082Y-121120500D01*
X157566083Y-121120500D01*
X157713917Y-121120500D01*
X157713918Y-121120500D01*
X157858913Y-121091658D01*
X157995495Y-121035084D01*
X158118416Y-120952951D01*
X158222951Y-120848416D01*
X158305084Y-120725495D01*
X158361658Y-120588913D01*
X158390500Y-120443918D01*
X158390500Y-120296082D01*
X158390500Y-120296081D01*
X161969500Y-120296081D01*
X161969500Y-120443918D01*
X161985271Y-120523205D01*
X161998342Y-120588913D01*
X162054916Y-120725495D01*
X162137049Y-120848416D01*
X162241584Y-120952951D01*
X162364505Y-121035084D01*
X162501087Y-121091658D01*
X162646082Y-121120500D01*
X162646083Y-121120500D01*
X162793917Y-121120500D01*
X162793918Y-121120500D01*
X162938913Y-121091658D01*
X163075495Y-121035084D01*
X163198416Y-120952951D01*
X163302951Y-120848416D01*
X163385084Y-120725495D01*
X163441658Y-120588913D01*
X163470500Y-120443918D01*
X163470500Y-120296082D01*
X163441658Y-120151087D01*
X163385084Y-120014505D01*
X163302951Y-119891584D01*
X163198416Y-119787049D01*
X163075495Y-119704916D01*
X163075493Y-119704915D01*
X162938914Y-119648342D01*
X162793918Y-119619500D01*
X162646082Y-119619500D01*
X162646081Y-119619500D01*
X162501085Y-119648342D01*
X162364506Y-119704915D01*
X162241585Y-119787048D01*
X162137048Y-119891585D01*
X162054915Y-120014506D01*
X161998342Y-120151085D01*
X161969500Y-120296081D01*
X158390500Y-120296081D01*
X158361658Y-120151087D01*
X158305084Y-120014505D01*
X158222951Y-119891584D01*
X158118416Y-119787049D01*
X157995495Y-119704916D01*
X157995493Y-119704915D01*
X157858914Y-119648342D01*
X157713918Y-119619500D01*
X157566082Y-119619500D01*
X157566081Y-119619500D01*
X157421085Y-119648342D01*
X157284506Y-119704915D01*
X157161585Y-119787048D01*
X157057048Y-119891585D01*
X156974915Y-120014506D01*
X156918342Y-120151085D01*
X156889500Y-120296081D01*
X151075486Y-120296081D01*
X151100500Y-120202727D01*
X151100500Y-120097273D01*
X151073207Y-119995413D01*
X151020480Y-119904087D01*
X150945913Y-119829520D01*
X150872349Y-119787048D01*
X150854589Y-119776794D01*
X150854588Y-119776793D01*
X150854587Y-119776793D01*
X150752727Y-119749500D01*
X150647273Y-119749500D01*
X150545413Y-119776793D01*
X150545412Y-119776793D01*
X150545410Y-119776794D01*
X150545409Y-119776794D01*
X150454089Y-119829518D01*
X150379518Y-119904089D01*
X150326794Y-119995409D01*
X150326794Y-119995410D01*
X150326793Y-119995412D01*
X150326793Y-119995413D01*
X150299500Y-120097273D01*
X143099368Y-120097273D01*
X143065084Y-120014505D01*
X142982951Y-119891584D01*
X142878416Y-119787049D01*
X142755495Y-119704916D01*
X142755493Y-119704915D01*
X142618914Y-119648342D01*
X142473918Y-119619500D01*
X142326082Y-119619500D01*
X142326081Y-119619500D01*
X142181085Y-119648342D01*
X142044506Y-119704915D01*
X141921585Y-119787048D01*
X141817048Y-119891585D01*
X141734915Y-120014506D01*
X141678342Y-120151085D01*
X141649500Y-120296081D01*
X138070500Y-120296081D01*
X138041658Y-120151087D01*
X137985084Y-120014505D01*
X137902951Y-119891584D01*
X137798416Y-119787049D01*
X137675495Y-119704916D01*
X137675493Y-119704915D01*
X137538914Y-119648342D01*
X137393918Y-119619500D01*
X137246082Y-119619500D01*
X137246081Y-119619500D01*
X137101085Y-119648342D01*
X136964506Y-119704915D01*
X136841585Y-119787048D01*
X136737048Y-119891585D01*
X136654915Y-120014506D01*
X136598342Y-120151085D01*
X136569500Y-120296081D01*
X135800500Y-120296081D01*
X135800500Y-118597273D01*
X148399500Y-118597273D01*
X148399500Y-118702727D01*
X148426793Y-118804587D01*
X148426794Y-118804589D01*
X148426794Y-118804590D01*
X148479518Y-118895910D01*
X148479520Y-118895913D01*
X148554087Y-118970480D01*
X148645413Y-119023207D01*
X148747273Y-119050500D01*
X148747275Y-119050500D01*
X148852725Y-119050500D01*
X148852727Y-119050500D01*
X148954587Y-119023207D01*
X149045913Y-118970480D01*
X149120480Y-118895913D01*
X149173207Y-118804587D01*
X149200500Y-118702727D01*
X149200500Y-118597273D01*
X149173207Y-118495413D01*
X149173016Y-118495083D01*
X149120481Y-118404089D01*
X149120480Y-118404087D01*
X149045913Y-118329520D01*
X149009356Y-118308414D01*
X148954589Y-118276794D01*
X148954588Y-118276793D01*
X148954587Y-118276793D01*
X148852727Y-118249500D01*
X148747273Y-118249500D01*
X148645413Y-118276793D01*
X148645412Y-118276793D01*
X148645410Y-118276794D01*
X148645409Y-118276794D01*
X148554089Y-118329518D01*
X148479518Y-118404089D01*
X148426794Y-118495409D01*
X148426794Y-118495410D01*
X148426793Y-118495412D01*
X148426793Y-118495413D01*
X148399500Y-118597273D01*
X135800500Y-118597273D01*
X135800500Y-117756081D01*
X136569500Y-117756081D01*
X136569500Y-117756082D01*
X136569500Y-117903918D01*
X136598342Y-118048913D01*
X136654916Y-118185495D01*
X136737049Y-118308416D01*
X136841584Y-118412951D01*
X136964505Y-118495084D01*
X137101087Y-118551658D01*
X137246082Y-118580500D01*
X137246083Y-118580500D01*
X137393917Y-118580500D01*
X137393918Y-118580500D01*
X137538913Y-118551658D01*
X137675495Y-118495084D01*
X137798416Y-118412951D01*
X137902951Y-118308416D01*
X137985084Y-118185495D01*
X138041658Y-118048913D01*
X138070500Y-117903918D01*
X138070500Y-117756082D01*
X138070500Y-117756081D01*
X141649500Y-117756081D01*
X141649500Y-117756082D01*
X141649500Y-117903918D01*
X141678342Y-118048913D01*
X141734916Y-118185495D01*
X141817049Y-118308416D01*
X141921584Y-118412951D01*
X142044505Y-118495084D01*
X142181087Y-118551658D01*
X142326082Y-118580500D01*
X142326083Y-118580500D01*
X142473917Y-118580500D01*
X142473918Y-118580500D01*
X142618913Y-118551658D01*
X142755495Y-118495084D01*
X142878416Y-118412951D01*
X142982951Y-118308416D01*
X143065084Y-118185495D01*
X143121658Y-118048913D01*
X143150500Y-117903918D01*
X143150500Y-117756082D01*
X143121658Y-117611087D01*
X143065084Y-117474505D01*
X143013479Y-117397273D01*
X148399500Y-117397273D01*
X148399500Y-117502727D01*
X148426793Y-117604587D01*
X148426794Y-117604589D01*
X148426794Y-117604590D01*
X148479518Y-117695910D01*
X148479520Y-117695913D01*
X148554087Y-117770480D01*
X148645413Y-117823207D01*
X148747273Y-117850500D01*
X148747275Y-117850500D01*
X148852725Y-117850500D01*
X148852727Y-117850500D01*
X148954587Y-117823207D01*
X149045913Y-117770480D01*
X149060312Y-117756081D01*
X156889500Y-117756081D01*
X156889500Y-117756082D01*
X156889500Y-117903918D01*
X156918342Y-118048913D01*
X156974916Y-118185495D01*
X157057049Y-118308416D01*
X157161584Y-118412951D01*
X157284505Y-118495084D01*
X157421087Y-118551658D01*
X157566082Y-118580500D01*
X157566083Y-118580500D01*
X157713917Y-118580500D01*
X157713918Y-118580500D01*
X157858913Y-118551658D01*
X157995495Y-118495084D01*
X158118416Y-118412951D01*
X158222951Y-118308416D01*
X158305084Y-118185495D01*
X158361658Y-118048913D01*
X158390500Y-117903918D01*
X158390500Y-117756082D01*
X158390500Y-117756081D01*
X161969500Y-117756081D01*
X161969500Y-117756082D01*
X161969500Y-117903918D01*
X161998342Y-118048913D01*
X162054916Y-118185495D01*
X162137049Y-118308416D01*
X162241584Y-118412951D01*
X162364505Y-118495084D01*
X162501087Y-118551658D01*
X162646082Y-118580500D01*
X162646083Y-118580500D01*
X162793917Y-118580500D01*
X162793918Y-118580500D01*
X162938913Y-118551658D01*
X163075495Y-118495084D01*
X163198416Y-118412951D01*
X163302951Y-118308416D01*
X163385084Y-118185495D01*
X163441658Y-118048913D01*
X163470500Y-117903918D01*
X163470500Y-117756082D01*
X163441658Y-117611087D01*
X163385084Y-117474505D01*
X163302951Y-117351584D01*
X163198416Y-117247049D01*
X163075495Y-117164916D01*
X163075493Y-117164915D01*
X162938914Y-117108342D01*
X162793918Y-117079500D01*
X162646082Y-117079500D01*
X162646081Y-117079500D01*
X162501085Y-117108342D01*
X162364506Y-117164915D01*
X162241585Y-117247048D01*
X162137048Y-117351585D01*
X162054915Y-117474506D01*
X161998342Y-117611085D01*
X161969500Y-117756081D01*
X158390500Y-117756081D01*
X158361658Y-117611087D01*
X158305084Y-117474505D01*
X158222951Y-117351584D01*
X158118416Y-117247049D01*
X157995495Y-117164916D01*
X157995493Y-117164915D01*
X157858914Y-117108342D01*
X157713918Y-117079500D01*
X157566082Y-117079500D01*
X157566081Y-117079500D01*
X157421085Y-117108342D01*
X157284506Y-117164915D01*
X157161585Y-117247048D01*
X157057048Y-117351585D01*
X156974915Y-117474506D01*
X156918342Y-117611085D01*
X156889500Y-117756081D01*
X149060312Y-117756081D01*
X149120480Y-117695913D01*
X149173207Y-117604587D01*
X149200500Y-117502727D01*
X149200500Y-117397273D01*
X149173207Y-117295413D01*
X149120480Y-117204087D01*
X149045913Y-117129520D01*
X148954587Y-117076793D01*
X148852727Y-117049500D01*
X148747273Y-117049500D01*
X148645413Y-117076793D01*
X148645412Y-117076793D01*
X148645410Y-117076794D01*
X148645409Y-117076794D01*
X148554089Y-117129518D01*
X148479518Y-117204089D01*
X148426794Y-117295409D01*
X148426794Y-117295410D01*
X148426793Y-117295412D01*
X148426793Y-117295413D01*
X148399500Y-117397273D01*
X143013479Y-117397273D01*
X142982951Y-117351584D01*
X142878416Y-117247049D01*
X142755495Y-117164916D01*
X142755493Y-117164915D01*
X142618914Y-117108342D01*
X142473918Y-117079500D01*
X142326082Y-117079500D01*
X142326081Y-117079500D01*
X142181085Y-117108342D01*
X142044506Y-117164915D01*
X141921585Y-117247048D01*
X141817048Y-117351585D01*
X141734915Y-117474506D01*
X141678342Y-117611085D01*
X141649500Y-117756081D01*
X138070500Y-117756081D01*
X138041658Y-117611087D01*
X137985084Y-117474505D01*
X137902951Y-117351584D01*
X137798416Y-117247049D01*
X137675495Y-117164916D01*
X137675493Y-117164915D01*
X137538914Y-117108342D01*
X137393918Y-117079500D01*
X137246082Y-117079500D01*
X137246081Y-117079500D01*
X137101085Y-117108342D01*
X136964506Y-117164915D01*
X136841585Y-117247048D01*
X136737048Y-117351585D01*
X136654915Y-117474506D01*
X136598342Y-117611085D01*
X136569500Y-117756081D01*
X135800500Y-117756081D01*
X135800500Y-116197273D01*
X148399500Y-116197273D01*
X148399500Y-116302727D01*
X148426793Y-116404587D01*
X148426794Y-116404589D01*
X148426794Y-116404590D01*
X148479518Y-116495910D01*
X148479520Y-116495913D01*
X148554087Y-116570480D01*
X148645413Y-116623207D01*
X148747273Y-116650500D01*
X148747275Y-116650500D01*
X148852725Y-116650500D01*
X148852727Y-116650500D01*
X148954587Y-116623207D01*
X149045913Y-116570480D01*
X149120480Y-116495913D01*
X149173207Y-116404587D01*
X149200500Y-116302727D01*
X149200500Y-116197273D01*
X149173207Y-116095413D01*
X149120480Y-116004087D01*
X149045913Y-115929520D01*
X148954587Y-115876793D01*
X148852727Y-115849500D01*
X148747273Y-115849500D01*
X148645413Y-115876793D01*
X148645412Y-115876793D01*
X148645410Y-115876794D01*
X148645409Y-115876794D01*
X148554089Y-115929518D01*
X148479518Y-116004089D01*
X148426794Y-116095409D01*
X148426794Y-116095410D01*
X148426793Y-116095412D01*
X148426793Y-116095413D01*
X148399500Y-116197273D01*
X135800500Y-116197273D01*
X135800500Y-115216082D01*
X136569500Y-115216082D01*
X136569500Y-115363918D01*
X136598342Y-115508913D01*
X136654916Y-115645495D01*
X136737049Y-115768416D01*
X136841584Y-115872951D01*
X136964505Y-115955084D01*
X137101087Y-116011658D01*
X137246082Y-116040500D01*
X137246083Y-116040500D01*
X137393917Y-116040500D01*
X137393918Y-116040500D01*
X137538913Y-116011658D01*
X137675495Y-115955084D01*
X137798416Y-115872951D01*
X137902951Y-115768416D01*
X137985084Y-115645495D01*
X138041658Y-115508913D01*
X138070500Y-115363918D01*
X138070500Y-115216082D01*
X141649500Y-115216082D01*
X141649500Y-115363918D01*
X141678342Y-115508913D01*
X141734916Y-115645495D01*
X141817049Y-115768416D01*
X141921584Y-115872951D01*
X142044505Y-115955084D01*
X142181087Y-116011658D01*
X142326082Y-116040500D01*
X142326083Y-116040500D01*
X142473917Y-116040500D01*
X142473918Y-116040500D01*
X142618913Y-116011658D01*
X142755495Y-115955084D01*
X142878416Y-115872951D01*
X142982951Y-115768416D01*
X143065084Y-115645495D01*
X143121658Y-115508913D01*
X143150500Y-115363918D01*
X143150500Y-115216082D01*
X143121658Y-115071087D01*
X143106326Y-115034073D01*
X151599500Y-115034073D01*
X151599500Y-115139527D01*
X151620013Y-115216082D01*
X151626794Y-115241389D01*
X151626794Y-115241390D01*
X151679518Y-115332710D01*
X151679520Y-115332713D01*
X151754087Y-115407280D01*
X151845413Y-115460007D01*
X151947273Y-115487300D01*
X151947275Y-115487300D01*
X152052725Y-115487300D01*
X152052727Y-115487300D01*
X152154587Y-115460007D01*
X152245913Y-115407280D01*
X152320480Y-115332713D01*
X152373207Y-115241387D01*
X152379987Y-115216082D01*
X156889500Y-115216082D01*
X156889500Y-115363918D01*
X156918342Y-115508913D01*
X156974916Y-115645495D01*
X157057049Y-115768416D01*
X157161584Y-115872951D01*
X157284505Y-115955084D01*
X157421087Y-116011658D01*
X157566082Y-116040500D01*
X157566083Y-116040500D01*
X157713917Y-116040500D01*
X157713918Y-116040500D01*
X157858913Y-116011658D01*
X157995495Y-115955084D01*
X158118416Y-115872951D01*
X158222951Y-115768416D01*
X158305084Y-115645495D01*
X158361658Y-115508913D01*
X158390500Y-115363918D01*
X158390500Y-115216082D01*
X161969500Y-115216082D01*
X161969500Y-115363918D01*
X161998342Y-115508913D01*
X162054916Y-115645495D01*
X162137049Y-115768416D01*
X162241584Y-115872951D01*
X162364505Y-115955084D01*
X162501087Y-116011658D01*
X162646082Y-116040500D01*
X162646083Y-116040500D01*
X162793917Y-116040500D01*
X162793918Y-116040500D01*
X162938913Y-116011658D01*
X163075495Y-115955084D01*
X163198416Y-115872951D01*
X163302951Y-115768416D01*
X163385084Y-115645495D01*
X163441658Y-115508913D01*
X163470500Y-115363918D01*
X163470500Y-115216082D01*
X163441658Y-115071087D01*
X163385084Y-114934505D01*
X163302951Y-114811584D01*
X163198416Y-114707049D01*
X163075495Y-114624916D01*
X163075493Y-114624915D01*
X162938914Y-114568342D01*
X162793918Y-114539500D01*
X162646082Y-114539500D01*
X162646081Y-114539500D01*
X162501085Y-114568342D01*
X162364506Y-114624915D01*
X162241585Y-114707048D01*
X162137048Y-114811585D01*
X162054915Y-114934506D01*
X161998342Y-115071085D01*
X161975564Y-115185595D01*
X161969500Y-115216082D01*
X158390500Y-115216082D01*
X158361658Y-115071087D01*
X158305084Y-114934505D01*
X158222951Y-114811584D01*
X158118416Y-114707049D01*
X157995495Y-114624916D01*
X157995493Y-114624915D01*
X157858914Y-114568342D01*
X157713918Y-114539500D01*
X157566082Y-114539500D01*
X157566081Y-114539500D01*
X157421085Y-114568342D01*
X157284506Y-114624915D01*
X157161585Y-114707048D01*
X157057048Y-114811585D01*
X156974915Y-114934506D01*
X156918342Y-115071085D01*
X156895564Y-115185595D01*
X156889500Y-115216082D01*
X152379987Y-115216082D01*
X152400500Y-115139527D01*
X152400500Y-115034073D01*
X152373207Y-114932213D01*
X152320480Y-114840887D01*
X152245913Y-114766320D01*
X152154587Y-114713593D01*
X152052727Y-114686300D01*
X151947273Y-114686300D01*
X151845413Y-114713593D01*
X151845412Y-114713593D01*
X151845410Y-114713594D01*
X151845409Y-114713594D01*
X151754089Y-114766318D01*
X151679518Y-114840889D01*
X151626794Y-114932209D01*
X151626794Y-114932210D01*
X151626793Y-114932212D01*
X151626793Y-114932213D01*
X151599500Y-115034073D01*
X143106326Y-115034073D01*
X143065084Y-114934505D01*
X142982951Y-114811584D01*
X142878416Y-114707049D01*
X142755495Y-114624916D01*
X142755493Y-114624915D01*
X142618914Y-114568342D01*
X142473918Y-114539500D01*
X142326082Y-114539500D01*
X142326081Y-114539500D01*
X142181085Y-114568342D01*
X142044506Y-114624915D01*
X141921585Y-114707048D01*
X141817048Y-114811585D01*
X141734915Y-114934506D01*
X141678342Y-115071085D01*
X141655564Y-115185595D01*
X141649500Y-115216082D01*
X138070500Y-115216082D01*
X138041658Y-115071087D01*
X137985084Y-114934505D01*
X137902951Y-114811584D01*
X137798416Y-114707049D01*
X137675495Y-114624916D01*
X137675493Y-114624915D01*
X137538914Y-114568342D01*
X137393918Y-114539500D01*
X137246082Y-114539500D01*
X137246081Y-114539500D01*
X137101085Y-114568342D01*
X136964506Y-114624915D01*
X136841585Y-114707048D01*
X136737048Y-114811585D01*
X136654915Y-114934506D01*
X136598342Y-115071085D01*
X136575564Y-115185595D01*
X136569500Y-115216082D01*
X135800500Y-115216082D01*
X135800500Y-114097273D01*
X148399500Y-114097273D01*
X148399500Y-114202727D01*
X148426793Y-114304587D01*
X148426794Y-114304589D01*
X148426794Y-114304590D01*
X148479518Y-114395910D01*
X148479520Y-114395913D01*
X148554087Y-114470480D01*
X148645413Y-114523207D01*
X148747273Y-114550500D01*
X148747275Y-114550500D01*
X148852725Y-114550500D01*
X148852727Y-114550500D01*
X148954587Y-114523207D01*
X149045913Y-114470480D01*
X149120480Y-114395913D01*
X149173207Y-114304587D01*
X149200500Y-114202727D01*
X149200500Y-114097273D01*
X149173207Y-113995413D01*
X149120480Y-113904087D01*
X149045913Y-113829520D01*
X148954587Y-113776793D01*
X148852727Y-113749500D01*
X148747273Y-113749500D01*
X148645413Y-113776793D01*
X148645412Y-113776793D01*
X148645410Y-113776794D01*
X148645409Y-113776794D01*
X148554089Y-113829518D01*
X148479518Y-113904089D01*
X148426794Y-113995409D01*
X148426794Y-113995410D01*
X148426793Y-113995412D01*
X148426793Y-113995413D01*
X148399500Y-114097273D01*
X135800500Y-114097273D01*
X135800500Y-112676081D01*
X136569500Y-112676081D01*
X136569500Y-112823918D01*
X136598342Y-112968914D01*
X136653769Y-113102727D01*
X136654916Y-113105495D01*
X136737049Y-113228416D01*
X136841584Y-113332951D01*
X136964505Y-113415084D01*
X137101087Y-113471658D01*
X137246082Y-113500500D01*
X137246083Y-113500500D01*
X137393917Y-113500500D01*
X137393918Y-113500500D01*
X137538913Y-113471658D01*
X137675495Y-113415084D01*
X137798416Y-113332951D01*
X137902951Y-113228416D01*
X137985084Y-113105495D01*
X138041658Y-112968913D01*
X138070500Y-112823918D01*
X138070500Y-112676082D01*
X138070500Y-112676081D01*
X141649500Y-112676081D01*
X141649500Y-112823918D01*
X141678342Y-112968914D01*
X141733769Y-113102727D01*
X141734916Y-113105495D01*
X141817049Y-113228416D01*
X141921584Y-113332951D01*
X142044505Y-113415084D01*
X142181087Y-113471658D01*
X142326082Y-113500500D01*
X142326083Y-113500500D01*
X142473917Y-113500500D01*
X142473918Y-113500500D01*
X142618913Y-113471658D01*
X142755495Y-113415084D01*
X142878416Y-113332951D01*
X142982951Y-113228416D01*
X143065084Y-113105495D01*
X143109911Y-112997273D01*
X148399500Y-112997273D01*
X148399500Y-113102727D01*
X148400242Y-113105495D01*
X148426794Y-113204589D01*
X148426794Y-113204590D01*
X148479518Y-113295910D01*
X148479520Y-113295913D01*
X148554087Y-113370480D01*
X148645413Y-113423207D01*
X148747273Y-113450500D01*
X148747275Y-113450500D01*
X148852725Y-113450500D01*
X148852727Y-113450500D01*
X148954587Y-113423207D01*
X149045913Y-113370480D01*
X149120480Y-113295913D01*
X149173207Y-113204587D01*
X149200500Y-113102727D01*
X149200500Y-112997273D01*
X149173207Y-112895413D01*
X149120480Y-112804087D01*
X149045913Y-112729520D01*
X148954587Y-112676793D01*
X148951930Y-112676081D01*
X156889500Y-112676081D01*
X156889500Y-112823918D01*
X156918342Y-112968914D01*
X156973769Y-113102727D01*
X156974916Y-113105495D01*
X157057049Y-113228416D01*
X157161584Y-113332951D01*
X157284505Y-113415084D01*
X157421087Y-113471658D01*
X157566082Y-113500500D01*
X157566083Y-113500500D01*
X157713917Y-113500500D01*
X157713918Y-113500500D01*
X157858913Y-113471658D01*
X157995495Y-113415084D01*
X158118416Y-113332951D01*
X158222951Y-113228416D01*
X158305084Y-113105495D01*
X158361658Y-112968913D01*
X158390500Y-112823918D01*
X158390500Y-112676082D01*
X158390500Y-112676081D01*
X161969500Y-112676081D01*
X161969500Y-112823918D01*
X161998342Y-112968914D01*
X162053769Y-113102727D01*
X162054916Y-113105495D01*
X162137049Y-113228416D01*
X162241584Y-113332951D01*
X162364505Y-113415084D01*
X162501087Y-113471658D01*
X162646082Y-113500500D01*
X162646083Y-113500500D01*
X162793917Y-113500500D01*
X162793918Y-113500500D01*
X162938913Y-113471658D01*
X163075495Y-113415084D01*
X163198416Y-113332951D01*
X163302951Y-113228416D01*
X163385084Y-113105495D01*
X163441658Y-112968913D01*
X163470500Y-112823918D01*
X163470500Y-112676082D01*
X163441658Y-112531087D01*
X163385084Y-112394505D01*
X163302951Y-112271584D01*
X163198416Y-112167049D01*
X163075495Y-112084916D01*
X163075493Y-112084915D01*
X162938914Y-112028342D01*
X162793918Y-111999500D01*
X162646082Y-111999500D01*
X162646081Y-111999500D01*
X162501085Y-112028342D01*
X162364506Y-112084915D01*
X162241585Y-112167048D01*
X162137048Y-112271585D01*
X162054915Y-112394506D01*
X161998342Y-112531085D01*
X161969500Y-112676081D01*
X158390500Y-112676081D01*
X158361658Y-112531087D01*
X158305084Y-112394505D01*
X158222951Y-112271584D01*
X158118416Y-112167049D01*
X157995495Y-112084916D01*
X157995493Y-112084915D01*
X157858914Y-112028342D01*
X157713918Y-111999500D01*
X157566082Y-111999500D01*
X157566081Y-111999500D01*
X157421085Y-112028342D01*
X157284506Y-112084915D01*
X157161585Y-112167048D01*
X157057048Y-112271585D01*
X156974915Y-112394506D01*
X156918342Y-112531085D01*
X156889500Y-112676081D01*
X148951930Y-112676081D01*
X148852727Y-112649500D01*
X148747273Y-112649500D01*
X148645413Y-112676793D01*
X148645412Y-112676793D01*
X148645410Y-112676794D01*
X148645409Y-112676794D01*
X148554089Y-112729518D01*
X148479518Y-112804089D01*
X148426794Y-112895409D01*
X148426794Y-112895410D01*
X148426793Y-112895412D01*
X148426793Y-112895413D01*
X148399500Y-112997273D01*
X143109911Y-112997273D01*
X143121658Y-112968913D01*
X143150500Y-112823918D01*
X143150500Y-112676082D01*
X143121658Y-112531087D01*
X143065084Y-112394505D01*
X142982951Y-112271584D01*
X142878416Y-112167049D01*
X142755495Y-112084916D01*
X142755493Y-112084915D01*
X142618914Y-112028342D01*
X142473918Y-111999500D01*
X142326082Y-111999500D01*
X142326081Y-111999500D01*
X142181085Y-112028342D01*
X142044506Y-112084915D01*
X141921585Y-112167048D01*
X141817048Y-112271585D01*
X141734915Y-112394506D01*
X141678342Y-112531085D01*
X141649500Y-112676081D01*
X138070500Y-112676081D01*
X138041658Y-112531087D01*
X137985084Y-112394505D01*
X137902951Y-112271584D01*
X137798416Y-112167049D01*
X137675495Y-112084916D01*
X137675493Y-112084915D01*
X137538914Y-112028342D01*
X137393918Y-111999500D01*
X137246082Y-111999500D01*
X137246081Y-111999500D01*
X137101085Y-112028342D01*
X136964506Y-112084915D01*
X136841585Y-112167048D01*
X136737048Y-112271585D01*
X136654915Y-112394506D01*
X136598342Y-112531085D01*
X136569500Y-112676081D01*
X135800500Y-112676081D01*
X135800500Y-111897273D01*
X148399500Y-111897273D01*
X148399500Y-112002727D01*
X148426793Y-112104587D01*
X148426794Y-112104589D01*
X148426794Y-112104590D01*
X148462855Y-112167049D01*
X148479520Y-112195913D01*
X148554087Y-112270480D01*
X148645413Y-112323207D01*
X148747273Y-112350500D01*
X148747275Y-112350500D01*
X148852725Y-112350500D01*
X148852727Y-112350500D01*
X148954587Y-112323207D01*
X149045913Y-112270480D01*
X149120480Y-112195913D01*
X149173207Y-112104587D01*
X149200500Y-112002727D01*
X149200500Y-111897273D01*
X149173207Y-111795413D01*
X149120480Y-111704087D01*
X149045913Y-111629520D01*
X148954587Y-111576793D01*
X148852727Y-111549500D01*
X148747273Y-111549500D01*
X148645413Y-111576793D01*
X148645412Y-111576793D01*
X148645410Y-111576794D01*
X148645409Y-111576794D01*
X148554089Y-111629518D01*
X148479518Y-111704089D01*
X148426794Y-111795409D01*
X148426794Y-111795410D01*
X148426793Y-111795412D01*
X148426793Y-111795413D01*
X148399500Y-111897273D01*
X135800500Y-111897273D01*
X135800500Y-110136081D01*
X136569500Y-110136081D01*
X136569500Y-110283918D01*
X136598342Y-110428914D01*
X136623442Y-110489511D01*
X136654916Y-110565495D01*
X136737049Y-110688416D01*
X136841584Y-110792951D01*
X136964505Y-110875084D01*
X137101087Y-110931658D01*
X137246082Y-110960500D01*
X137246083Y-110960500D01*
X137393917Y-110960500D01*
X137393918Y-110960500D01*
X137538913Y-110931658D01*
X137675495Y-110875084D01*
X137798416Y-110792951D01*
X137902951Y-110688416D01*
X137985084Y-110565495D01*
X138041658Y-110428913D01*
X138070500Y-110283918D01*
X138070500Y-110136082D01*
X138070500Y-110136081D01*
X141649500Y-110136081D01*
X141649500Y-110283918D01*
X141678342Y-110428914D01*
X141703442Y-110489511D01*
X141734916Y-110565495D01*
X141817049Y-110688416D01*
X141921584Y-110792951D01*
X142044505Y-110875084D01*
X142181087Y-110931658D01*
X142326082Y-110960500D01*
X142326083Y-110960500D01*
X142473917Y-110960500D01*
X142473918Y-110960500D01*
X142618913Y-110931658D01*
X142755495Y-110875084D01*
X142878416Y-110792951D01*
X142880676Y-110790691D01*
X148349500Y-110790691D01*
X148349500Y-110909309D01*
X148363217Y-110960500D01*
X148380202Y-111023890D01*
X148439507Y-111126608D01*
X148439509Y-111126610D01*
X148439511Y-111126613D01*
X148523387Y-111210489D01*
X148523389Y-111210490D01*
X148523391Y-111210492D01*
X148626110Y-111269797D01*
X148626111Y-111269797D01*
X148626114Y-111269799D01*
X148740691Y-111300500D01*
X148740693Y-111300500D01*
X148859307Y-111300500D01*
X148859309Y-111300500D01*
X148973886Y-111269799D01*
X148973888Y-111269797D01*
X148973890Y-111269797D01*
X149076608Y-111210492D01*
X149076608Y-111210491D01*
X149076613Y-111210489D01*
X149160489Y-111126613D01*
X149219799Y-111023886D01*
X149250500Y-110909309D01*
X149250500Y-110790691D01*
X149219799Y-110676114D01*
X149219797Y-110676111D01*
X149219797Y-110676109D01*
X149160492Y-110573391D01*
X149160490Y-110573389D01*
X149160489Y-110573387D01*
X149076613Y-110489511D01*
X149076610Y-110489509D01*
X149076608Y-110489507D01*
X148973889Y-110430202D01*
X148973890Y-110430202D01*
X148960351Y-110426574D01*
X148859309Y-110399500D01*
X148740691Y-110399500D01*
X148670567Y-110418289D01*
X148626109Y-110430202D01*
X148523391Y-110489507D01*
X148439507Y-110573391D01*
X148380202Y-110676109D01*
X148369996Y-110714198D01*
X148349500Y-110790691D01*
X142880676Y-110790691D01*
X142982951Y-110688416D01*
X143065084Y-110565495D01*
X143121658Y-110428913D01*
X143150500Y-110283918D01*
X143150500Y-110136082D01*
X143121658Y-109991087D01*
X143065084Y-109854505D01*
X142982951Y-109731584D01*
X142948640Y-109697273D01*
X148399500Y-109697273D01*
X148399500Y-109802727D01*
X148413374Y-109854505D01*
X148426794Y-109904589D01*
X148426794Y-109904590D01*
X148479518Y-109995910D01*
X148479520Y-109995913D01*
X148554087Y-110070480D01*
X148645413Y-110123207D01*
X148747273Y-110150500D01*
X148747275Y-110150500D01*
X148852725Y-110150500D01*
X148852727Y-110150500D01*
X148906540Y-110136081D01*
X156889500Y-110136081D01*
X156889500Y-110283918D01*
X156918342Y-110428914D01*
X156943442Y-110489511D01*
X156974916Y-110565495D01*
X157057049Y-110688416D01*
X157161584Y-110792951D01*
X157284505Y-110875084D01*
X157421087Y-110931658D01*
X157566082Y-110960500D01*
X157566083Y-110960500D01*
X157713917Y-110960500D01*
X157713918Y-110960500D01*
X157858913Y-110931658D01*
X157995495Y-110875084D01*
X158118416Y-110792951D01*
X158222951Y-110688416D01*
X158305084Y-110565495D01*
X158361658Y-110428913D01*
X158390500Y-110283918D01*
X158390500Y-110136082D01*
X158390500Y-110136081D01*
X161969500Y-110136081D01*
X161969500Y-110283918D01*
X161998342Y-110428914D01*
X162023442Y-110489511D01*
X162054916Y-110565495D01*
X162137049Y-110688416D01*
X162241584Y-110792951D01*
X162364505Y-110875084D01*
X162501087Y-110931658D01*
X162646082Y-110960500D01*
X162646083Y-110960500D01*
X162793917Y-110960500D01*
X162793918Y-110960500D01*
X162938913Y-110931658D01*
X163075495Y-110875084D01*
X163198416Y-110792951D01*
X163302951Y-110688416D01*
X163385084Y-110565495D01*
X163441658Y-110428913D01*
X163470500Y-110283918D01*
X163470500Y-110136082D01*
X163441658Y-109991087D01*
X163385084Y-109854505D01*
X163302951Y-109731584D01*
X163198416Y-109627049D01*
X163075495Y-109544916D01*
X163075493Y-109544915D01*
X162938914Y-109488342D01*
X162793918Y-109459500D01*
X162646082Y-109459500D01*
X162646081Y-109459500D01*
X162501085Y-109488342D01*
X162364506Y-109544915D01*
X162241585Y-109627048D01*
X162137048Y-109731585D01*
X162054915Y-109854506D01*
X161998342Y-109991085D01*
X161969500Y-110136081D01*
X158390500Y-110136081D01*
X158361658Y-109991087D01*
X158305084Y-109854505D01*
X158222951Y-109731584D01*
X158118416Y-109627049D01*
X157995495Y-109544916D01*
X157995493Y-109544915D01*
X157858914Y-109488342D01*
X157713918Y-109459500D01*
X157566082Y-109459500D01*
X157566081Y-109459500D01*
X157421085Y-109488342D01*
X157284506Y-109544915D01*
X157161585Y-109627048D01*
X157057048Y-109731585D01*
X156974915Y-109854506D01*
X156918342Y-109991085D01*
X156889500Y-110136081D01*
X148906540Y-110136081D01*
X148954587Y-110123207D01*
X149045913Y-110070480D01*
X149120480Y-109995913D01*
X149173207Y-109904587D01*
X149200500Y-109802727D01*
X149200500Y-109697273D01*
X149173207Y-109595413D01*
X149120480Y-109504087D01*
X149045913Y-109429520D01*
X148954587Y-109376793D01*
X148852727Y-109349500D01*
X148747273Y-109349500D01*
X148645413Y-109376793D01*
X148645412Y-109376793D01*
X148645410Y-109376794D01*
X148645409Y-109376794D01*
X148554089Y-109429518D01*
X148479518Y-109504089D01*
X148426794Y-109595409D01*
X148426794Y-109595410D01*
X148426793Y-109595412D01*
X148426793Y-109595413D01*
X148399500Y-109697273D01*
X142948640Y-109697273D01*
X142878416Y-109627049D01*
X142755495Y-109544916D01*
X142755493Y-109544915D01*
X142618914Y-109488342D01*
X142473918Y-109459500D01*
X142326082Y-109459500D01*
X142326081Y-109459500D01*
X142181085Y-109488342D01*
X142044506Y-109544915D01*
X141921585Y-109627048D01*
X141817048Y-109731585D01*
X141734915Y-109854506D01*
X141678342Y-109991085D01*
X141649500Y-110136081D01*
X138070500Y-110136081D01*
X138041658Y-109991087D01*
X137985084Y-109854505D01*
X137902951Y-109731584D01*
X137798416Y-109627049D01*
X137675495Y-109544916D01*
X137675493Y-109544915D01*
X137538914Y-109488342D01*
X137393918Y-109459500D01*
X137246082Y-109459500D01*
X137246081Y-109459500D01*
X137101085Y-109488342D01*
X136964506Y-109544915D01*
X136841585Y-109627048D01*
X136737048Y-109731585D01*
X136654915Y-109854506D01*
X136598342Y-109991085D01*
X136569500Y-110136081D01*
X135800500Y-110136081D01*
X135800500Y-108597273D01*
X148399500Y-108597273D01*
X148399500Y-108702727D01*
X148426793Y-108804587D01*
X148426794Y-108804589D01*
X148426794Y-108804590D01*
X148479518Y-108895910D01*
X148479520Y-108895913D01*
X148554087Y-108970480D01*
X148645413Y-109023207D01*
X148747273Y-109050500D01*
X148747275Y-109050500D01*
X148852725Y-109050500D01*
X148852727Y-109050500D01*
X148954587Y-109023207D01*
X149045913Y-108970480D01*
X149120480Y-108895913D01*
X149173207Y-108804587D01*
X149200500Y-108702727D01*
X149200500Y-108597273D01*
X149173207Y-108495413D01*
X149120480Y-108404087D01*
X149045913Y-108329520D01*
X148954587Y-108276793D01*
X148852727Y-108249500D01*
X148747273Y-108249500D01*
X148645413Y-108276793D01*
X148645412Y-108276793D01*
X148645410Y-108276794D01*
X148645409Y-108276794D01*
X148554089Y-108329518D01*
X148479518Y-108404089D01*
X148426794Y-108495409D01*
X148426794Y-108495410D01*
X148426793Y-108495412D01*
X148426793Y-108495413D01*
X148399500Y-108597273D01*
X135800500Y-108597273D01*
X135800500Y-107596081D01*
X136569500Y-107596081D01*
X136569500Y-107596082D01*
X136569500Y-107743918D01*
X136598342Y-107888913D01*
X136654916Y-108025495D01*
X136737049Y-108148416D01*
X136841584Y-108252951D01*
X136964505Y-108335084D01*
X137101087Y-108391658D01*
X137246082Y-108420500D01*
X137246083Y-108420500D01*
X137393917Y-108420500D01*
X137393918Y-108420500D01*
X137538913Y-108391658D01*
X137675495Y-108335084D01*
X137798416Y-108252951D01*
X137902951Y-108148416D01*
X137985084Y-108025495D01*
X138041658Y-107888913D01*
X138070500Y-107743918D01*
X138070500Y-107596082D01*
X138070500Y-107596081D01*
X141649500Y-107596081D01*
X141649500Y-107596082D01*
X141649500Y-107743918D01*
X141678342Y-107888913D01*
X141734916Y-108025495D01*
X141817049Y-108148416D01*
X141921584Y-108252951D01*
X142044505Y-108335084D01*
X142181087Y-108391658D01*
X142326082Y-108420500D01*
X142326083Y-108420500D01*
X142473917Y-108420500D01*
X142473918Y-108420500D01*
X142618913Y-108391658D01*
X142755495Y-108335084D01*
X142878416Y-108252951D01*
X142982951Y-108148416D01*
X143065084Y-108025495D01*
X143121658Y-107888913D01*
X143150500Y-107743918D01*
X143150500Y-107596082D01*
X143129536Y-107490691D01*
X148349500Y-107490691D01*
X148349500Y-107609309D01*
X148376574Y-107710351D01*
X148380202Y-107723890D01*
X148439507Y-107826608D01*
X148439509Y-107826610D01*
X148439511Y-107826613D01*
X148523387Y-107910489D01*
X148523389Y-107910490D01*
X148523391Y-107910492D01*
X148626110Y-107969797D01*
X148626111Y-107969797D01*
X148626114Y-107969799D01*
X148740691Y-108000500D01*
X148740693Y-108000500D01*
X148859307Y-108000500D01*
X148859309Y-108000500D01*
X148973886Y-107969799D01*
X148973888Y-107969797D01*
X148973890Y-107969797D01*
X149076608Y-107910492D01*
X149076608Y-107910491D01*
X149076613Y-107910489D01*
X149160489Y-107826613D01*
X149160492Y-107826608D01*
X149219797Y-107723890D01*
X149219797Y-107723888D01*
X149219799Y-107723886D01*
X149250500Y-107609309D01*
X149250500Y-107596081D01*
X156889500Y-107596081D01*
X156889500Y-107596082D01*
X156889500Y-107743918D01*
X156918342Y-107888913D01*
X156974916Y-108025495D01*
X157057049Y-108148416D01*
X157161584Y-108252951D01*
X157284505Y-108335084D01*
X157421087Y-108391658D01*
X157566082Y-108420500D01*
X157566083Y-108420500D01*
X157713917Y-108420500D01*
X157713918Y-108420500D01*
X157858913Y-108391658D01*
X157995495Y-108335084D01*
X158118416Y-108252951D01*
X158222951Y-108148416D01*
X158305084Y-108025495D01*
X158361658Y-107888913D01*
X158390500Y-107743918D01*
X158390500Y-107596082D01*
X158390500Y-107596081D01*
X161969500Y-107596081D01*
X161969500Y-107596082D01*
X161969500Y-107743918D01*
X161998342Y-107888913D01*
X162054916Y-108025495D01*
X162137049Y-108148416D01*
X162241584Y-108252951D01*
X162364505Y-108335084D01*
X162501087Y-108391658D01*
X162646082Y-108420500D01*
X162646083Y-108420500D01*
X162793917Y-108420500D01*
X162793918Y-108420500D01*
X162938913Y-108391658D01*
X163075495Y-108335084D01*
X163198416Y-108252951D01*
X163302951Y-108148416D01*
X163385084Y-108025495D01*
X163441658Y-107888913D01*
X163470500Y-107743918D01*
X163470500Y-107596082D01*
X163441658Y-107451087D01*
X163385084Y-107314505D01*
X163302951Y-107191584D01*
X163198416Y-107087049D01*
X163075495Y-107004916D01*
X163075493Y-107004915D01*
X162938914Y-106948342D01*
X162793918Y-106919500D01*
X162646082Y-106919500D01*
X162646081Y-106919500D01*
X162501085Y-106948342D01*
X162364506Y-107004915D01*
X162241585Y-107087048D01*
X162137048Y-107191585D01*
X162054915Y-107314506D01*
X161998342Y-107451085D01*
X161969500Y-107596081D01*
X158390500Y-107596081D01*
X158361658Y-107451087D01*
X158305084Y-107314505D01*
X158222951Y-107191584D01*
X158118416Y-107087049D01*
X157995495Y-107004916D01*
X157995493Y-107004915D01*
X157858914Y-106948342D01*
X157713918Y-106919500D01*
X157566082Y-106919500D01*
X157566081Y-106919500D01*
X157421085Y-106948342D01*
X157284506Y-107004915D01*
X157161585Y-107087048D01*
X157057048Y-107191585D01*
X156974915Y-107314506D01*
X156918342Y-107451085D01*
X156889500Y-107596081D01*
X149250500Y-107596081D01*
X149250500Y-107490691D01*
X149219799Y-107376114D01*
X149219797Y-107376111D01*
X149219797Y-107376109D01*
X149160492Y-107273391D01*
X149160490Y-107273389D01*
X149160489Y-107273387D01*
X149076613Y-107189511D01*
X149076610Y-107189509D01*
X149076608Y-107189507D01*
X148973889Y-107130202D01*
X148973890Y-107130202D01*
X148960351Y-107126574D01*
X148859309Y-107099500D01*
X148740691Y-107099500D01*
X148670567Y-107118289D01*
X148626109Y-107130202D01*
X148523391Y-107189507D01*
X148439507Y-107273391D01*
X148380202Y-107376109D01*
X148380201Y-107376114D01*
X148349500Y-107490691D01*
X143129536Y-107490691D01*
X143121658Y-107451087D01*
X143065084Y-107314505D01*
X142982951Y-107191584D01*
X142878416Y-107087049D01*
X142755495Y-107004916D01*
X142755493Y-107004915D01*
X142618914Y-106948342D01*
X142473918Y-106919500D01*
X142326082Y-106919500D01*
X142326081Y-106919500D01*
X142181085Y-106948342D01*
X142044506Y-107004915D01*
X141921585Y-107087048D01*
X141817048Y-107191585D01*
X141734915Y-107314506D01*
X141678342Y-107451085D01*
X141649500Y-107596081D01*
X138070500Y-107596081D01*
X138041658Y-107451087D01*
X137985084Y-107314505D01*
X137902951Y-107191584D01*
X137798416Y-107087049D01*
X137675495Y-107004916D01*
X137675493Y-107004915D01*
X137538914Y-106948342D01*
X137393918Y-106919500D01*
X137246082Y-106919500D01*
X137246081Y-106919500D01*
X137101085Y-106948342D01*
X136964506Y-107004915D01*
X136841585Y-107087048D01*
X136737048Y-107191585D01*
X136654915Y-107314506D01*
X136598342Y-107451085D01*
X136569500Y-107596081D01*
X135800500Y-107596081D01*
X135800500Y-106397273D01*
X148399500Y-106397273D01*
X148399500Y-106502727D01*
X148426793Y-106604587D01*
X148426794Y-106604589D01*
X148426794Y-106604590D01*
X148479518Y-106695910D01*
X148479520Y-106695913D01*
X148554087Y-106770480D01*
X148645413Y-106823207D01*
X148747273Y-106850500D01*
X148747275Y-106850500D01*
X148852725Y-106850500D01*
X148852727Y-106850500D01*
X148954587Y-106823207D01*
X149045913Y-106770480D01*
X149120480Y-106695913D01*
X149173207Y-106604587D01*
X149200500Y-106502727D01*
X149200500Y-106397273D01*
X149173207Y-106295413D01*
X149120480Y-106204087D01*
X149045913Y-106129520D01*
X148954587Y-106076793D01*
X148852727Y-106049500D01*
X148747273Y-106049500D01*
X148645413Y-106076793D01*
X148645412Y-106076793D01*
X148645410Y-106076794D01*
X148645409Y-106076794D01*
X148554089Y-106129518D01*
X148479518Y-106204089D01*
X148426794Y-106295409D01*
X148426794Y-106295410D01*
X148426793Y-106295412D01*
X148426793Y-106295413D01*
X148399500Y-106397273D01*
X135800500Y-106397273D01*
X135800500Y-105056082D01*
X136569500Y-105056082D01*
X136569500Y-105203918D01*
X136598342Y-105348913D01*
X136654916Y-105485495D01*
X136737049Y-105608416D01*
X136841584Y-105712951D01*
X136964505Y-105795084D01*
X137101087Y-105851658D01*
X137246082Y-105880500D01*
X137246083Y-105880500D01*
X137393917Y-105880500D01*
X137393918Y-105880500D01*
X137538913Y-105851658D01*
X137675495Y-105795084D01*
X137798416Y-105712951D01*
X137902951Y-105608416D01*
X137985084Y-105485495D01*
X138041658Y-105348913D01*
X138070500Y-105203918D01*
X138070500Y-105056082D01*
X141649500Y-105056082D01*
X141649500Y-105203918D01*
X141678342Y-105348913D01*
X141734916Y-105485495D01*
X141817049Y-105608416D01*
X141921584Y-105712951D01*
X142044505Y-105795084D01*
X142181087Y-105851658D01*
X142326082Y-105880500D01*
X142326083Y-105880500D01*
X142473917Y-105880500D01*
X142473918Y-105880500D01*
X142618913Y-105851658D01*
X142755495Y-105795084D01*
X142878416Y-105712951D01*
X142982951Y-105608416D01*
X143065084Y-105485495D01*
X143121658Y-105348913D01*
X143150500Y-105203918D01*
X143150500Y-105056082D01*
X156889500Y-105056082D01*
X156889500Y-105203918D01*
X156918342Y-105348913D01*
X156974916Y-105485495D01*
X157057049Y-105608416D01*
X157161584Y-105712951D01*
X157284505Y-105795084D01*
X157421087Y-105851658D01*
X157566082Y-105880500D01*
X157566083Y-105880500D01*
X157713917Y-105880500D01*
X157713918Y-105880500D01*
X157858913Y-105851658D01*
X157995495Y-105795084D01*
X158118416Y-105712951D01*
X158222951Y-105608416D01*
X158305084Y-105485495D01*
X158361658Y-105348913D01*
X158390500Y-105203918D01*
X158390500Y-105056082D01*
X161969500Y-105056082D01*
X161969500Y-105203918D01*
X161998342Y-105348913D01*
X162054916Y-105485495D01*
X162137049Y-105608416D01*
X162241584Y-105712951D01*
X162364505Y-105795084D01*
X162501087Y-105851658D01*
X162646082Y-105880500D01*
X162646083Y-105880500D01*
X162793917Y-105880500D01*
X162793918Y-105880500D01*
X162938913Y-105851658D01*
X163075495Y-105795084D01*
X163198416Y-105712951D01*
X163302951Y-105608416D01*
X163385084Y-105485495D01*
X163441658Y-105348913D01*
X163470500Y-105203918D01*
X163470500Y-105056082D01*
X163441658Y-104911087D01*
X163385084Y-104774505D01*
X163302951Y-104651584D01*
X163198416Y-104547049D01*
X163075495Y-104464916D01*
X163075493Y-104464915D01*
X162938914Y-104408342D01*
X162793918Y-104379500D01*
X162646082Y-104379500D01*
X162646081Y-104379500D01*
X162501085Y-104408342D01*
X162364506Y-104464915D01*
X162241585Y-104547048D01*
X162137048Y-104651585D01*
X162054915Y-104774506D01*
X161998342Y-104911085D01*
X161998342Y-104911087D01*
X161969500Y-105056082D01*
X158390500Y-105056082D01*
X158361658Y-104911087D01*
X158305084Y-104774505D01*
X158222951Y-104651584D01*
X158118416Y-104547049D01*
X157995495Y-104464916D01*
X157995493Y-104464915D01*
X157858914Y-104408342D01*
X157713918Y-104379500D01*
X157566082Y-104379500D01*
X157566081Y-104379500D01*
X157421085Y-104408342D01*
X157284506Y-104464915D01*
X157161585Y-104547048D01*
X157057048Y-104651585D01*
X156974915Y-104774506D01*
X156918342Y-104911085D01*
X156918342Y-104911087D01*
X156889500Y-105056082D01*
X143150500Y-105056082D01*
X143121658Y-104911087D01*
X143065084Y-104774505D01*
X142982951Y-104651584D01*
X142878416Y-104547049D01*
X142755495Y-104464916D01*
X142755493Y-104464915D01*
X142618914Y-104408342D01*
X142570736Y-104398758D01*
X142473918Y-104379500D01*
X142326082Y-104379500D01*
X142326081Y-104379500D01*
X142181085Y-104408342D01*
X142044506Y-104464915D01*
X141921585Y-104547048D01*
X141817048Y-104651585D01*
X141734915Y-104774506D01*
X141678342Y-104911085D01*
X141678342Y-104911087D01*
X141649500Y-105056082D01*
X138070500Y-105056082D01*
X138041658Y-104911087D01*
X137985084Y-104774505D01*
X137902951Y-104651584D01*
X137798416Y-104547049D01*
X137675495Y-104464916D01*
X137675493Y-104464915D01*
X137538914Y-104408342D01*
X137393918Y-104379500D01*
X137246082Y-104379500D01*
X137246081Y-104379500D01*
X137101085Y-104408342D01*
X136964506Y-104464915D01*
X136841585Y-104547048D01*
X136737048Y-104651585D01*
X136654915Y-104774506D01*
X136598342Y-104911085D01*
X136598342Y-104911087D01*
X136569500Y-105056082D01*
X135800500Y-105056082D01*
X135800500Y-104297273D01*
X151799500Y-104297273D01*
X151799500Y-104402727D01*
X151826793Y-104504587D01*
X151826794Y-104504589D01*
X151826794Y-104504590D01*
X151851308Y-104547049D01*
X151879520Y-104595913D01*
X151954087Y-104670480D01*
X152045413Y-104723207D01*
X152147273Y-104750500D01*
X152147275Y-104750500D01*
X152252725Y-104750500D01*
X152252727Y-104750500D01*
X152354587Y-104723207D01*
X152445913Y-104670480D01*
X152520480Y-104595913D01*
X152573207Y-104504587D01*
X152600500Y-104402727D01*
X152600500Y-104297273D01*
X152573207Y-104195413D01*
X152520480Y-104104087D01*
X152445913Y-104029520D01*
X152354587Y-103976793D01*
X152252727Y-103949500D01*
X152147273Y-103949500D01*
X152045413Y-103976793D01*
X152045412Y-103976793D01*
X152045410Y-103976794D01*
X152045409Y-103976794D01*
X151954089Y-104029518D01*
X151879518Y-104104089D01*
X151826794Y-104195409D01*
X151826794Y-104195410D01*
X151826793Y-104195412D01*
X151826793Y-104195413D01*
X151799500Y-104297273D01*
X135800500Y-104297273D01*
X135800500Y-103490691D01*
X150349500Y-103490691D01*
X150349500Y-103609309D01*
X150376574Y-103710351D01*
X150380202Y-103723890D01*
X150439507Y-103826608D01*
X150439509Y-103826610D01*
X150439511Y-103826613D01*
X150523387Y-103910489D01*
X150523389Y-103910490D01*
X150523391Y-103910492D01*
X150626110Y-103969797D01*
X150626111Y-103969797D01*
X150626114Y-103969799D01*
X150740691Y-104000500D01*
X150740693Y-104000500D01*
X150859307Y-104000500D01*
X150859309Y-104000500D01*
X150973886Y-103969799D01*
X150973888Y-103969797D01*
X150973890Y-103969797D01*
X151076608Y-103910492D01*
X151076608Y-103910491D01*
X151076613Y-103910489D01*
X151160489Y-103826613D01*
X151219799Y-103723886D01*
X151250500Y-103609309D01*
X151250500Y-103490691D01*
X151219799Y-103376114D01*
X151219797Y-103376111D01*
X151219797Y-103376109D01*
X151160492Y-103273391D01*
X151160490Y-103273389D01*
X151160489Y-103273387D01*
X151076613Y-103189511D01*
X151076610Y-103189509D01*
X151076608Y-103189507D01*
X150973889Y-103130202D01*
X150973890Y-103130202D01*
X150960351Y-103126574D01*
X150859309Y-103099500D01*
X150740691Y-103099500D01*
X150670567Y-103118289D01*
X150626109Y-103130202D01*
X150523391Y-103189507D01*
X150439507Y-103273391D01*
X150380202Y-103376109D01*
X150380201Y-103376114D01*
X150349500Y-103490691D01*
X135800500Y-103490691D01*
X135800500Y-102516082D01*
X136569500Y-102516082D01*
X136569500Y-102663918D01*
X136598342Y-102808913D01*
X136654916Y-102945495D01*
X136737049Y-103068416D01*
X136841584Y-103172951D01*
X136964505Y-103255084D01*
X137101087Y-103311658D01*
X137246082Y-103340500D01*
X137246083Y-103340500D01*
X137393917Y-103340500D01*
X137393918Y-103340500D01*
X137538913Y-103311658D01*
X137675495Y-103255084D01*
X137798416Y-103172951D01*
X137902951Y-103068416D01*
X137985084Y-102945495D01*
X138041658Y-102808913D01*
X138070500Y-102663918D01*
X138070500Y-102516082D01*
X141649500Y-102516082D01*
X141649500Y-102663918D01*
X141678342Y-102808913D01*
X141734916Y-102945495D01*
X141817049Y-103068416D01*
X141921584Y-103172951D01*
X142044505Y-103255084D01*
X142181087Y-103311658D01*
X142326082Y-103340500D01*
X142326083Y-103340500D01*
X142473917Y-103340500D01*
X142473918Y-103340500D01*
X142618913Y-103311658D01*
X142755495Y-103255084D01*
X142878416Y-103172951D01*
X142982951Y-103068416D01*
X143065084Y-102945495D01*
X143121658Y-102808913D01*
X143150500Y-102663918D01*
X143150500Y-102516082D01*
X143121658Y-102371087D01*
X143091083Y-102297273D01*
X150399500Y-102297273D01*
X150399500Y-102402727D01*
X150426793Y-102504587D01*
X150426794Y-102504589D01*
X150426794Y-102504590D01*
X150433430Y-102516083D01*
X150479520Y-102595913D01*
X150554087Y-102670480D01*
X150645413Y-102723207D01*
X150747273Y-102750500D01*
X150747275Y-102750500D01*
X150852725Y-102750500D01*
X150852727Y-102750500D01*
X150954587Y-102723207D01*
X151045913Y-102670480D01*
X151120480Y-102595913D01*
X151166570Y-102516082D01*
X156889500Y-102516082D01*
X156889500Y-102663918D01*
X156918342Y-102808913D01*
X156974916Y-102945495D01*
X157057049Y-103068416D01*
X157161584Y-103172951D01*
X157284505Y-103255084D01*
X157421087Y-103311658D01*
X157566082Y-103340500D01*
X157566083Y-103340500D01*
X157713917Y-103340500D01*
X157713918Y-103340500D01*
X157858913Y-103311658D01*
X157995495Y-103255084D01*
X158118416Y-103172951D01*
X158222951Y-103068416D01*
X158305084Y-102945495D01*
X158361658Y-102808913D01*
X158390500Y-102663918D01*
X158390500Y-102516082D01*
X161969500Y-102516082D01*
X161969500Y-102663918D01*
X161998342Y-102808913D01*
X162054916Y-102945495D01*
X162137049Y-103068416D01*
X162241584Y-103172951D01*
X162364505Y-103255084D01*
X162501087Y-103311658D01*
X162646082Y-103340500D01*
X162646083Y-103340500D01*
X162793917Y-103340500D01*
X162793918Y-103340500D01*
X162938913Y-103311658D01*
X163075495Y-103255084D01*
X163198416Y-103172951D01*
X163302951Y-103068416D01*
X163385084Y-102945495D01*
X163441658Y-102808913D01*
X163470500Y-102663918D01*
X163470500Y-102516082D01*
X163441658Y-102371087D01*
X163385084Y-102234505D01*
X163302951Y-102111584D01*
X163198416Y-102007049D01*
X163075495Y-101924916D01*
X163075493Y-101924915D01*
X162938914Y-101868342D01*
X162793918Y-101839500D01*
X162646082Y-101839500D01*
X162646081Y-101839500D01*
X162501085Y-101868342D01*
X162364506Y-101924915D01*
X162241585Y-102007048D01*
X162137048Y-102111585D01*
X162054915Y-102234506D01*
X161998342Y-102371085D01*
X161971786Y-102504589D01*
X161969500Y-102516082D01*
X158390500Y-102516082D01*
X158361658Y-102371087D01*
X158305084Y-102234505D01*
X158222951Y-102111584D01*
X158118416Y-102007049D01*
X157995495Y-101924916D01*
X157995493Y-101924915D01*
X157858914Y-101868342D01*
X157713918Y-101839500D01*
X157566082Y-101839500D01*
X157566081Y-101839500D01*
X157421085Y-101868342D01*
X157284506Y-101924915D01*
X157161585Y-102007048D01*
X157057048Y-102111585D01*
X156974915Y-102234506D01*
X156918342Y-102371085D01*
X156891786Y-102504589D01*
X156889500Y-102516082D01*
X151166570Y-102516082D01*
X151173207Y-102504587D01*
X151200500Y-102402727D01*
X151200500Y-102297273D01*
X151173207Y-102195413D01*
X151120480Y-102104087D01*
X151045913Y-102029520D01*
X151006990Y-102007048D01*
X150954589Y-101976794D01*
X150954588Y-101976793D01*
X150954587Y-101976793D01*
X150852727Y-101949500D01*
X150747273Y-101949500D01*
X150645413Y-101976793D01*
X150645412Y-101976793D01*
X150645410Y-101976794D01*
X150645409Y-101976794D01*
X150554089Y-102029518D01*
X150479518Y-102104089D01*
X150426794Y-102195409D01*
X150426794Y-102195410D01*
X150426793Y-102195412D01*
X150426793Y-102195413D01*
X150399500Y-102297273D01*
X143091083Y-102297273D01*
X143065084Y-102234505D01*
X142982951Y-102111584D01*
X142878416Y-102007049D01*
X142755495Y-101924916D01*
X142755493Y-101924915D01*
X142618914Y-101868342D01*
X142473918Y-101839500D01*
X142326082Y-101839500D01*
X142326081Y-101839500D01*
X142181085Y-101868342D01*
X142044506Y-101924915D01*
X141921585Y-102007048D01*
X141817048Y-102111585D01*
X141734915Y-102234506D01*
X141678342Y-102371085D01*
X141651786Y-102504589D01*
X141649500Y-102516082D01*
X138070500Y-102516082D01*
X138041658Y-102371087D01*
X137985084Y-102234505D01*
X137902951Y-102111584D01*
X137798416Y-102007049D01*
X137675495Y-101924916D01*
X137675493Y-101924915D01*
X137538914Y-101868342D01*
X137393918Y-101839500D01*
X137246082Y-101839500D01*
X137246081Y-101839500D01*
X137101085Y-101868342D01*
X136964506Y-101924915D01*
X136841585Y-102007048D01*
X136737048Y-102111585D01*
X136654915Y-102234506D01*
X136598342Y-102371085D01*
X136571786Y-102504589D01*
X136569500Y-102516082D01*
X135800500Y-102516082D01*
X135800500Y-101097273D01*
X150399500Y-101097273D01*
X150399500Y-101202727D01*
X150426793Y-101304587D01*
X150426794Y-101304589D01*
X150426794Y-101304590D01*
X150479518Y-101395910D01*
X150479520Y-101395913D01*
X150554087Y-101470480D01*
X150645413Y-101523207D01*
X150747273Y-101550500D01*
X150747275Y-101550500D01*
X150852725Y-101550500D01*
X150852727Y-101550500D01*
X150954587Y-101523207D01*
X151045913Y-101470480D01*
X151120480Y-101395913D01*
X151173207Y-101304587D01*
X151200500Y-101202727D01*
X151200500Y-101097273D01*
X151173207Y-100995413D01*
X151120480Y-100904087D01*
X151045913Y-100829520D01*
X150954587Y-100776793D01*
X150852727Y-100749500D01*
X150747273Y-100749500D01*
X150645413Y-100776793D01*
X150645412Y-100776793D01*
X150645410Y-100776794D01*
X150645409Y-100776794D01*
X150554089Y-100829518D01*
X150479518Y-100904089D01*
X150426794Y-100995409D01*
X150426794Y-100995410D01*
X150426793Y-100995412D01*
X150426793Y-100995413D01*
X150399500Y-101097273D01*
X135800500Y-101097273D01*
X135800500Y-99976081D01*
X136569500Y-99976081D01*
X136569500Y-99976082D01*
X136569500Y-100123918D01*
X136598342Y-100268913D01*
X136654916Y-100405495D01*
X136737049Y-100528416D01*
X136841584Y-100632951D01*
X136964505Y-100715084D01*
X137101087Y-100771658D01*
X137246082Y-100800500D01*
X137246083Y-100800500D01*
X137393917Y-100800500D01*
X137393918Y-100800500D01*
X137538913Y-100771658D01*
X137675495Y-100715084D01*
X137798416Y-100632951D01*
X137902951Y-100528416D01*
X137985084Y-100405495D01*
X138041658Y-100268913D01*
X138070500Y-100123918D01*
X138070500Y-99976082D01*
X138070500Y-99976081D01*
X141649500Y-99976081D01*
X141649500Y-99976082D01*
X141649500Y-100123918D01*
X141678342Y-100268913D01*
X141734916Y-100405495D01*
X141817049Y-100528416D01*
X141921584Y-100632951D01*
X142044505Y-100715084D01*
X142181087Y-100771658D01*
X142326082Y-100800500D01*
X142326083Y-100800500D01*
X142473917Y-100800500D01*
X142473918Y-100800500D01*
X142618913Y-100771658D01*
X142755495Y-100715084D01*
X142878416Y-100632951D01*
X142982951Y-100528416D01*
X143065084Y-100405495D01*
X143121658Y-100268913D01*
X143150500Y-100123918D01*
X143150500Y-99976082D01*
X143134824Y-99897273D01*
X150399500Y-99897273D01*
X150399500Y-100002727D01*
X150426793Y-100104587D01*
X150426794Y-100104589D01*
X150426794Y-100104590D01*
X150479518Y-100195910D01*
X150479520Y-100195913D01*
X150554087Y-100270480D01*
X150645413Y-100323207D01*
X150747273Y-100350500D01*
X150747275Y-100350500D01*
X150852725Y-100350500D01*
X150852727Y-100350500D01*
X150954587Y-100323207D01*
X151045913Y-100270480D01*
X151120480Y-100195913D01*
X151173207Y-100104587D01*
X151200500Y-100002727D01*
X151200500Y-99976081D01*
X156889500Y-99976081D01*
X156889500Y-99976082D01*
X156889500Y-100123918D01*
X156918342Y-100268913D01*
X156974916Y-100405495D01*
X157057049Y-100528416D01*
X157161584Y-100632951D01*
X157284505Y-100715084D01*
X157421087Y-100771658D01*
X157566082Y-100800500D01*
X157566083Y-100800500D01*
X157713917Y-100800500D01*
X157713918Y-100800500D01*
X157858913Y-100771658D01*
X157995495Y-100715084D01*
X158118416Y-100632951D01*
X158222951Y-100528416D01*
X158305084Y-100405495D01*
X158361658Y-100268913D01*
X158390500Y-100123918D01*
X158390500Y-99976082D01*
X158390500Y-99976081D01*
X161969500Y-99976081D01*
X161969500Y-99976082D01*
X161969500Y-100123918D01*
X161998342Y-100268913D01*
X162054916Y-100405495D01*
X162137049Y-100528416D01*
X162241584Y-100632951D01*
X162364505Y-100715084D01*
X162501087Y-100771658D01*
X162646082Y-100800500D01*
X162646083Y-100800500D01*
X162793917Y-100800500D01*
X162793918Y-100800500D01*
X162938913Y-100771658D01*
X163075495Y-100715084D01*
X163198416Y-100632951D01*
X163302951Y-100528416D01*
X163385084Y-100405495D01*
X163441658Y-100268913D01*
X163470500Y-100123918D01*
X163470500Y-99976082D01*
X163441658Y-99831087D01*
X163385084Y-99694505D01*
X163302951Y-99571584D01*
X163198416Y-99467049D01*
X163075495Y-99384916D01*
X163075493Y-99384915D01*
X162938914Y-99328342D01*
X162793918Y-99299500D01*
X162646082Y-99299500D01*
X162646081Y-99299500D01*
X162501085Y-99328342D01*
X162364506Y-99384915D01*
X162241585Y-99467048D01*
X162137048Y-99571585D01*
X162054915Y-99694506D01*
X161998342Y-99831085D01*
X161969500Y-99976081D01*
X158390500Y-99976081D01*
X158361658Y-99831087D01*
X158305084Y-99694505D01*
X158222951Y-99571584D01*
X158118416Y-99467049D01*
X157995495Y-99384916D01*
X157995493Y-99384915D01*
X157858914Y-99328342D01*
X157713918Y-99299500D01*
X157566082Y-99299500D01*
X157566081Y-99299500D01*
X157421085Y-99328342D01*
X157284506Y-99384915D01*
X157161585Y-99467048D01*
X157057048Y-99571585D01*
X156974915Y-99694506D01*
X156918342Y-99831085D01*
X156889500Y-99976081D01*
X151200500Y-99976081D01*
X151200500Y-99897273D01*
X151173207Y-99795413D01*
X151120480Y-99704087D01*
X151045913Y-99629520D01*
X150954587Y-99576793D01*
X150852727Y-99549500D01*
X150747273Y-99549500D01*
X150645413Y-99576793D01*
X150645412Y-99576793D01*
X150645410Y-99576794D01*
X150645409Y-99576794D01*
X150554089Y-99629518D01*
X150479518Y-99704089D01*
X150426794Y-99795409D01*
X150426794Y-99795410D01*
X150426793Y-99795412D01*
X150426793Y-99795413D01*
X150399500Y-99897273D01*
X143134824Y-99897273D01*
X143121658Y-99831087D01*
X143065084Y-99694505D01*
X142982951Y-99571584D01*
X142878416Y-99467049D01*
X142755495Y-99384916D01*
X142755493Y-99384915D01*
X142618914Y-99328342D01*
X142473918Y-99299500D01*
X142326082Y-99299500D01*
X142326081Y-99299500D01*
X142181085Y-99328342D01*
X142044506Y-99384915D01*
X141921585Y-99467048D01*
X141817048Y-99571585D01*
X141734915Y-99694506D01*
X141678342Y-99831085D01*
X141649500Y-99976081D01*
X138070500Y-99976081D01*
X138041658Y-99831087D01*
X137985084Y-99694505D01*
X137902951Y-99571584D01*
X137798416Y-99467049D01*
X137675495Y-99384916D01*
X137675493Y-99384915D01*
X137538914Y-99328342D01*
X137393918Y-99299500D01*
X137246082Y-99299500D01*
X137246081Y-99299500D01*
X137101085Y-99328342D01*
X136964506Y-99384915D01*
X136841585Y-99467048D01*
X136737048Y-99571585D01*
X136654915Y-99694506D01*
X136598342Y-99831085D01*
X136569500Y-99976081D01*
X135800500Y-99976081D01*
X135800500Y-98697273D01*
X150399500Y-98697273D01*
X150399500Y-98802727D01*
X150426793Y-98904587D01*
X150426794Y-98904589D01*
X150426794Y-98904590D01*
X150479518Y-98995910D01*
X150479520Y-98995913D01*
X150554087Y-99070480D01*
X150645413Y-99123207D01*
X150747273Y-99150500D01*
X150747275Y-99150500D01*
X150852725Y-99150500D01*
X150852727Y-99150500D01*
X150954587Y-99123207D01*
X151045913Y-99070480D01*
X151120480Y-98995913D01*
X151173207Y-98904587D01*
X151200500Y-98802727D01*
X151200500Y-98697273D01*
X151173207Y-98595413D01*
X151120480Y-98504087D01*
X151045913Y-98429520D01*
X150954587Y-98376793D01*
X150852727Y-98349500D01*
X150747273Y-98349500D01*
X150645413Y-98376793D01*
X150645412Y-98376793D01*
X150645410Y-98376794D01*
X150645409Y-98376794D01*
X150554089Y-98429518D01*
X150479518Y-98504089D01*
X150426794Y-98595409D01*
X150426794Y-98595410D01*
X150426793Y-98595412D01*
X150426793Y-98595413D01*
X150399500Y-98697273D01*
X135800500Y-98697273D01*
X135800500Y-97436081D01*
X136569500Y-97436081D01*
X136569500Y-97583918D01*
X136593503Y-97704589D01*
X136598342Y-97728913D01*
X136654916Y-97865495D01*
X136737049Y-97988416D01*
X136841584Y-98092951D01*
X136964505Y-98175084D01*
X137101087Y-98231658D01*
X137246082Y-98260500D01*
X137246083Y-98260500D01*
X137393917Y-98260500D01*
X137393918Y-98260500D01*
X137538913Y-98231658D01*
X137675495Y-98175084D01*
X137798416Y-98092951D01*
X137902951Y-97988416D01*
X137985084Y-97865495D01*
X138041658Y-97728913D01*
X138070500Y-97583918D01*
X138070500Y-97436082D01*
X138070500Y-97436081D01*
X141649500Y-97436081D01*
X141649500Y-97583918D01*
X141673503Y-97704589D01*
X141678342Y-97728913D01*
X141734916Y-97865495D01*
X141817049Y-97988416D01*
X141921584Y-98092951D01*
X142044505Y-98175084D01*
X142181087Y-98231658D01*
X142326082Y-98260500D01*
X142326083Y-98260500D01*
X142473917Y-98260500D01*
X142473918Y-98260500D01*
X142618913Y-98231658D01*
X142755495Y-98175084D01*
X142878416Y-98092951D01*
X142982951Y-97988416D01*
X143065084Y-97865495D01*
X143121658Y-97728913D01*
X143150500Y-97583918D01*
X143150500Y-97497273D01*
X150399500Y-97497273D01*
X150399500Y-97602727D01*
X150426793Y-97704587D01*
X150426794Y-97704589D01*
X150426794Y-97704590D01*
X150440838Y-97728914D01*
X150479520Y-97795913D01*
X150554087Y-97870480D01*
X150645413Y-97923207D01*
X150747273Y-97950500D01*
X150747275Y-97950500D01*
X150852725Y-97950500D01*
X150852727Y-97950500D01*
X150954587Y-97923207D01*
X151045913Y-97870480D01*
X151120480Y-97795913D01*
X151173207Y-97704587D01*
X151200500Y-97602727D01*
X151200500Y-97497273D01*
X151184104Y-97436081D01*
X156889500Y-97436081D01*
X156889500Y-97583918D01*
X156913503Y-97704589D01*
X156918342Y-97728913D01*
X156974916Y-97865495D01*
X157057049Y-97988416D01*
X157161584Y-98092951D01*
X157284505Y-98175084D01*
X157421087Y-98231658D01*
X157566082Y-98260500D01*
X157566083Y-98260500D01*
X157713917Y-98260500D01*
X157713918Y-98260500D01*
X157858913Y-98231658D01*
X157995495Y-98175084D01*
X158118416Y-98092951D01*
X158222951Y-97988416D01*
X158305084Y-97865495D01*
X158361658Y-97728913D01*
X158390500Y-97583918D01*
X158390500Y-97436082D01*
X158390500Y-97436081D01*
X161969500Y-97436081D01*
X161969500Y-97583918D01*
X161993503Y-97704589D01*
X161998342Y-97728913D01*
X162054916Y-97865495D01*
X162137049Y-97988416D01*
X162241584Y-98092951D01*
X162364505Y-98175084D01*
X162501087Y-98231658D01*
X162646082Y-98260500D01*
X162646083Y-98260500D01*
X162793917Y-98260500D01*
X162793918Y-98260500D01*
X162938913Y-98231658D01*
X163075495Y-98175084D01*
X163198416Y-98092951D01*
X163302951Y-97988416D01*
X163385084Y-97865495D01*
X163441658Y-97728913D01*
X163470500Y-97583918D01*
X163470500Y-97436082D01*
X163441658Y-97291087D01*
X163385084Y-97154505D01*
X163302951Y-97031584D01*
X163198416Y-96927049D01*
X163075495Y-96844916D01*
X163075493Y-96844915D01*
X162938914Y-96788342D01*
X162793918Y-96759500D01*
X162646082Y-96759500D01*
X162646081Y-96759500D01*
X162501085Y-96788342D01*
X162364506Y-96844915D01*
X162241585Y-96927048D01*
X162137048Y-97031585D01*
X162054915Y-97154506D01*
X161998342Y-97291085D01*
X161969500Y-97436081D01*
X158390500Y-97436081D01*
X158361658Y-97291087D01*
X158305084Y-97154505D01*
X158222951Y-97031584D01*
X158118416Y-96927049D01*
X157995495Y-96844916D01*
X157995493Y-96844915D01*
X157858914Y-96788342D01*
X157713918Y-96759500D01*
X157566082Y-96759500D01*
X157566081Y-96759500D01*
X157421085Y-96788342D01*
X157284506Y-96844915D01*
X157161585Y-96927048D01*
X157057048Y-97031585D01*
X156974915Y-97154506D01*
X156918342Y-97291085D01*
X156889500Y-97436081D01*
X151184104Y-97436081D01*
X151173207Y-97395413D01*
X151120480Y-97304087D01*
X151045913Y-97229520D01*
X150954587Y-97176793D01*
X150852727Y-97149500D01*
X150747273Y-97149500D01*
X150645413Y-97176793D01*
X150645412Y-97176793D01*
X150645410Y-97176794D01*
X150645409Y-97176794D01*
X150554089Y-97229518D01*
X150479518Y-97304089D01*
X150426794Y-97395409D01*
X150426794Y-97395410D01*
X150426793Y-97395412D01*
X150426793Y-97395413D01*
X150399500Y-97497273D01*
X143150500Y-97497273D01*
X143150500Y-97436082D01*
X143121658Y-97291087D01*
X143065084Y-97154505D01*
X142982951Y-97031584D01*
X142878416Y-96927049D01*
X142755495Y-96844916D01*
X142755493Y-96844915D01*
X142618914Y-96788342D01*
X142473918Y-96759500D01*
X142326082Y-96759500D01*
X142326081Y-96759500D01*
X142181085Y-96788342D01*
X142044506Y-96844915D01*
X141921585Y-96927048D01*
X141817048Y-97031585D01*
X141734915Y-97154506D01*
X141678342Y-97291085D01*
X141649500Y-97436081D01*
X138070500Y-97436081D01*
X138041658Y-97291087D01*
X137985084Y-97154505D01*
X137902951Y-97031584D01*
X137798416Y-96927049D01*
X137675495Y-96844916D01*
X137675493Y-96844915D01*
X137538914Y-96788342D01*
X137393918Y-96759500D01*
X137246082Y-96759500D01*
X137246081Y-96759500D01*
X137101085Y-96788342D01*
X136964506Y-96844915D01*
X136841585Y-96927048D01*
X136737048Y-97031585D01*
X136654915Y-97154506D01*
X136598342Y-97291085D01*
X136569500Y-97436081D01*
X135800500Y-97436081D01*
X135800500Y-96297273D01*
X150399500Y-96297273D01*
X150399500Y-96402727D01*
X150426793Y-96504587D01*
X150426794Y-96504589D01*
X150426794Y-96504590D01*
X150479518Y-96595910D01*
X150479520Y-96595913D01*
X150554087Y-96670480D01*
X150645413Y-96723207D01*
X150747273Y-96750500D01*
X150747275Y-96750500D01*
X150852725Y-96750500D01*
X150852727Y-96750500D01*
X150954587Y-96723207D01*
X151045913Y-96670480D01*
X151120480Y-96595913D01*
X151173207Y-96504587D01*
X151200500Y-96402727D01*
X151200500Y-96297273D01*
X151173207Y-96195413D01*
X151120480Y-96104087D01*
X151045913Y-96029520D01*
X150954587Y-95976793D01*
X150852727Y-95949500D01*
X150747273Y-95949500D01*
X150645413Y-95976793D01*
X150645412Y-95976793D01*
X150645410Y-95976794D01*
X150645409Y-95976794D01*
X150554089Y-96029518D01*
X150479518Y-96104089D01*
X150426794Y-96195409D01*
X150426794Y-96195410D01*
X150426793Y-96195412D01*
X150426793Y-96195413D01*
X150399500Y-96297273D01*
X135800500Y-96297273D01*
X135800500Y-94896081D01*
X136569500Y-94896081D01*
X136569500Y-95043918D01*
X136598342Y-95188914D01*
X136646256Y-95304589D01*
X136654916Y-95325495D01*
X136737049Y-95448416D01*
X136841584Y-95552951D01*
X136964505Y-95635084D01*
X137101087Y-95691658D01*
X137246082Y-95720500D01*
X137246083Y-95720500D01*
X137393917Y-95720500D01*
X137393918Y-95720500D01*
X137538913Y-95691658D01*
X137675495Y-95635084D01*
X137798416Y-95552951D01*
X137902951Y-95448416D01*
X137985084Y-95325495D01*
X138041658Y-95188913D01*
X138070500Y-95043918D01*
X138070500Y-94896082D01*
X138070500Y-94896081D01*
X141649500Y-94896081D01*
X141649500Y-95043918D01*
X141678342Y-95188914D01*
X141726256Y-95304589D01*
X141734916Y-95325495D01*
X141817049Y-95448416D01*
X141921584Y-95552951D01*
X142044505Y-95635084D01*
X142181087Y-95691658D01*
X142326082Y-95720500D01*
X142326083Y-95720500D01*
X142473917Y-95720500D01*
X142473918Y-95720500D01*
X142618913Y-95691658D01*
X142755495Y-95635084D01*
X142878416Y-95552951D01*
X142982951Y-95448416D01*
X143065084Y-95325495D01*
X143121658Y-95188913D01*
X143139887Y-95097273D01*
X150399500Y-95097273D01*
X150399500Y-95202727D01*
X150426793Y-95304587D01*
X150426794Y-95304589D01*
X150426794Y-95304590D01*
X150438864Y-95325495D01*
X150479520Y-95395913D01*
X150554087Y-95470480D01*
X150645413Y-95523207D01*
X150747273Y-95550500D01*
X150747275Y-95550500D01*
X150852725Y-95550500D01*
X150852727Y-95550500D01*
X150954587Y-95523207D01*
X151045913Y-95470480D01*
X151120480Y-95395913D01*
X151173207Y-95304587D01*
X151200500Y-95202727D01*
X151200500Y-95097273D01*
X151173207Y-94995413D01*
X151120480Y-94904087D01*
X151112474Y-94896081D01*
X156889500Y-94896081D01*
X156889500Y-95043918D01*
X156918342Y-95188914D01*
X156966256Y-95304589D01*
X156974916Y-95325495D01*
X157057049Y-95448416D01*
X157161584Y-95552951D01*
X157284505Y-95635084D01*
X157421087Y-95691658D01*
X157566082Y-95720500D01*
X157566083Y-95720500D01*
X157713917Y-95720500D01*
X157713918Y-95720500D01*
X157858913Y-95691658D01*
X157995495Y-95635084D01*
X158118416Y-95552951D01*
X158222951Y-95448416D01*
X158305084Y-95325495D01*
X158361658Y-95188913D01*
X158390500Y-95043918D01*
X158390500Y-94896082D01*
X158390500Y-94896081D01*
X161969500Y-94896081D01*
X161969500Y-95043918D01*
X161998342Y-95188914D01*
X162046256Y-95304589D01*
X162054916Y-95325495D01*
X162137049Y-95448416D01*
X162241584Y-95552951D01*
X162364505Y-95635084D01*
X162501087Y-95691658D01*
X162646082Y-95720500D01*
X162646083Y-95720500D01*
X162793917Y-95720500D01*
X162793918Y-95720500D01*
X162938913Y-95691658D01*
X163075495Y-95635084D01*
X163198416Y-95552951D01*
X163302951Y-95448416D01*
X163385084Y-95325495D01*
X163441658Y-95188913D01*
X163470500Y-95043918D01*
X163470500Y-94896082D01*
X163441658Y-94751087D01*
X163385084Y-94614505D01*
X163302951Y-94491584D01*
X163198416Y-94387049D01*
X163075495Y-94304916D01*
X163075493Y-94304915D01*
X162938914Y-94248342D01*
X162793918Y-94219500D01*
X162646082Y-94219500D01*
X162646081Y-94219500D01*
X162501085Y-94248342D01*
X162364506Y-94304915D01*
X162241585Y-94387048D01*
X162137048Y-94491585D01*
X162054915Y-94614506D01*
X161998342Y-94751085D01*
X161969500Y-94896081D01*
X158390500Y-94896081D01*
X158361658Y-94751087D01*
X158305084Y-94614505D01*
X158222951Y-94491584D01*
X158118416Y-94387049D01*
X157995495Y-94304916D01*
X157995493Y-94304915D01*
X157858914Y-94248342D01*
X157713918Y-94219500D01*
X157566082Y-94219500D01*
X157566081Y-94219500D01*
X157421085Y-94248342D01*
X157284506Y-94304915D01*
X157161585Y-94387048D01*
X157057048Y-94491585D01*
X156974915Y-94614506D01*
X156918342Y-94751085D01*
X156889500Y-94896081D01*
X151112474Y-94896081D01*
X151045913Y-94829520D01*
X150954587Y-94776793D01*
X150852727Y-94749500D01*
X150747273Y-94749500D01*
X150645413Y-94776793D01*
X150645412Y-94776793D01*
X150645410Y-94776794D01*
X150645409Y-94776794D01*
X150554089Y-94829518D01*
X150479518Y-94904089D01*
X150426794Y-94995409D01*
X150426794Y-94995410D01*
X150426793Y-94995412D01*
X150426793Y-94995413D01*
X150399500Y-95097273D01*
X143139887Y-95097273D01*
X143150500Y-95043918D01*
X143150500Y-94896082D01*
X143121658Y-94751087D01*
X143065084Y-94614505D01*
X142982951Y-94491584D01*
X142878416Y-94387049D01*
X142755495Y-94304916D01*
X142755493Y-94304915D01*
X142618914Y-94248342D01*
X142473918Y-94219500D01*
X142326082Y-94219500D01*
X142326081Y-94219500D01*
X142181085Y-94248342D01*
X142044506Y-94304915D01*
X141921585Y-94387048D01*
X141817048Y-94491585D01*
X141734915Y-94614506D01*
X141678342Y-94751085D01*
X141649500Y-94896081D01*
X138070500Y-94896081D01*
X138041658Y-94751087D01*
X137985084Y-94614505D01*
X137902951Y-94491584D01*
X137798416Y-94387049D01*
X137675495Y-94304916D01*
X137675493Y-94304915D01*
X137538914Y-94248342D01*
X137393918Y-94219500D01*
X137246082Y-94219500D01*
X137246081Y-94219500D01*
X137101085Y-94248342D01*
X136964506Y-94304915D01*
X136841585Y-94387048D01*
X136737048Y-94491585D01*
X136654915Y-94614506D01*
X136598342Y-94751085D01*
X136569500Y-94896081D01*
X135800500Y-94896081D01*
X135800500Y-93497273D01*
X151699500Y-93497273D01*
X151699500Y-93602727D01*
X151726793Y-93704587D01*
X151726794Y-93704589D01*
X151726794Y-93704590D01*
X151779518Y-93795910D01*
X151779520Y-93795913D01*
X151854087Y-93870480D01*
X151945413Y-93923207D01*
X152047273Y-93950500D01*
X152047275Y-93950500D01*
X152152725Y-93950500D01*
X152152727Y-93950500D01*
X152254587Y-93923207D01*
X152345913Y-93870480D01*
X152420480Y-93795913D01*
X152473207Y-93704587D01*
X152500500Y-93602727D01*
X152500500Y-93497273D01*
X152473207Y-93395413D01*
X152420480Y-93304087D01*
X152345913Y-93229520D01*
X152254587Y-93176793D01*
X152152727Y-93149500D01*
X152047273Y-93149500D01*
X151945413Y-93176793D01*
X151945412Y-93176793D01*
X151945410Y-93176794D01*
X151945409Y-93176794D01*
X151854089Y-93229518D01*
X151779518Y-93304089D01*
X151726794Y-93395409D01*
X151726794Y-93395410D01*
X151726793Y-93395412D01*
X151726793Y-93395413D01*
X151699500Y-93497273D01*
X135800500Y-93497273D01*
X135800500Y-92356081D01*
X136569500Y-92356081D01*
X136569500Y-92503918D01*
X136598342Y-92648914D01*
X136648697Y-92770481D01*
X136654916Y-92785495D01*
X136737049Y-92908416D01*
X136841584Y-93012951D01*
X136964505Y-93095084D01*
X137101087Y-93151658D01*
X137246082Y-93180500D01*
X137246083Y-93180500D01*
X137393917Y-93180500D01*
X137393918Y-93180500D01*
X137538913Y-93151658D01*
X137675495Y-93095084D01*
X137798416Y-93012951D01*
X137902951Y-92908416D01*
X137985084Y-92785495D01*
X138041658Y-92648913D01*
X138070500Y-92503918D01*
X138070500Y-92356082D01*
X138070500Y-92356081D01*
X141649500Y-92356081D01*
X141649500Y-92503918D01*
X141678342Y-92648914D01*
X141728697Y-92770481D01*
X141734916Y-92785495D01*
X141817049Y-92908416D01*
X141921584Y-93012951D01*
X142044505Y-93095084D01*
X142181087Y-93151658D01*
X142326082Y-93180500D01*
X142326083Y-93180500D01*
X142473917Y-93180500D01*
X142473918Y-93180500D01*
X142618913Y-93151658D01*
X142755495Y-93095084D01*
X142878416Y-93012951D01*
X142982951Y-92908416D01*
X143065084Y-92785495D01*
X143121658Y-92648913D01*
X143150500Y-92503918D01*
X143150500Y-92397273D01*
X148399500Y-92397273D01*
X148399500Y-92502727D01*
X148426793Y-92604587D01*
X148426794Y-92604589D01*
X148426794Y-92604590D01*
X148452385Y-92648914D01*
X148479520Y-92695913D01*
X148554087Y-92770480D01*
X148645413Y-92823207D01*
X148747273Y-92850500D01*
X148747275Y-92850500D01*
X148852725Y-92850500D01*
X148852727Y-92850500D01*
X148954587Y-92823207D01*
X149045913Y-92770480D01*
X149120480Y-92695913D01*
X149173207Y-92604587D01*
X149200500Y-92502727D01*
X149200500Y-92397273D01*
X149189463Y-92356081D01*
X156889500Y-92356081D01*
X156889500Y-92503918D01*
X156918342Y-92648914D01*
X156968697Y-92770481D01*
X156974916Y-92785495D01*
X157057049Y-92908416D01*
X157161584Y-93012951D01*
X157284505Y-93095084D01*
X157421087Y-93151658D01*
X157566082Y-93180500D01*
X157566083Y-93180500D01*
X157713917Y-93180500D01*
X157713918Y-93180500D01*
X157858913Y-93151658D01*
X157995495Y-93095084D01*
X158118416Y-93012951D01*
X158222951Y-92908416D01*
X158305084Y-92785495D01*
X158361658Y-92648913D01*
X158390500Y-92503918D01*
X158390500Y-92356082D01*
X158390500Y-92356081D01*
X161969500Y-92356081D01*
X161969500Y-92503918D01*
X161998342Y-92648914D01*
X162048697Y-92770481D01*
X162054916Y-92785495D01*
X162137049Y-92908416D01*
X162241584Y-93012951D01*
X162364505Y-93095084D01*
X162501087Y-93151658D01*
X162646082Y-93180500D01*
X162646083Y-93180500D01*
X162793917Y-93180500D01*
X162793918Y-93180500D01*
X162938913Y-93151658D01*
X163075495Y-93095084D01*
X163198416Y-93012951D01*
X163302951Y-92908416D01*
X163385084Y-92785495D01*
X163441658Y-92648913D01*
X163470500Y-92503918D01*
X163470500Y-92356082D01*
X163441658Y-92211087D01*
X163385084Y-92074505D01*
X163302951Y-91951584D01*
X163198416Y-91847049D01*
X163075495Y-91764916D01*
X163075493Y-91764915D01*
X162938914Y-91708342D01*
X162793918Y-91679500D01*
X162646082Y-91679500D01*
X162646081Y-91679500D01*
X162501085Y-91708342D01*
X162364506Y-91764915D01*
X162241585Y-91847048D01*
X162137048Y-91951585D01*
X162054915Y-92074506D01*
X161998342Y-92211085D01*
X161969500Y-92356081D01*
X158390500Y-92356081D01*
X158361658Y-92211087D01*
X158305084Y-92074505D01*
X158222951Y-91951584D01*
X158118416Y-91847049D01*
X157995495Y-91764916D01*
X157995493Y-91764915D01*
X157858914Y-91708342D01*
X157713918Y-91679500D01*
X157566082Y-91679500D01*
X157566081Y-91679500D01*
X157421085Y-91708342D01*
X157284506Y-91764915D01*
X157161585Y-91847048D01*
X157057048Y-91951585D01*
X156974915Y-92074506D01*
X156918342Y-92211085D01*
X156889500Y-92356081D01*
X149189463Y-92356081D01*
X149173207Y-92295413D01*
X149120480Y-92204087D01*
X149045913Y-92129520D01*
X148954587Y-92076793D01*
X148852727Y-92049500D01*
X148747273Y-92049500D01*
X148645413Y-92076793D01*
X148645412Y-92076793D01*
X148645410Y-92076794D01*
X148645409Y-92076794D01*
X148554089Y-92129518D01*
X148479518Y-92204089D01*
X148426794Y-92295409D01*
X148426794Y-92295410D01*
X148426794Y-92295411D01*
X148426793Y-92295413D01*
X148399500Y-92397273D01*
X143150500Y-92397273D01*
X143150500Y-92356082D01*
X143121658Y-92211087D01*
X143065084Y-92074505D01*
X142982951Y-91951584D01*
X142878416Y-91847049D01*
X142755495Y-91764916D01*
X142755493Y-91764915D01*
X142618914Y-91708342D01*
X142473918Y-91679500D01*
X142326082Y-91679500D01*
X142326081Y-91679500D01*
X142181085Y-91708342D01*
X142044506Y-91764915D01*
X141921585Y-91847048D01*
X141817048Y-91951585D01*
X141734915Y-92074506D01*
X141678342Y-92211085D01*
X141649500Y-92356081D01*
X138070500Y-92356081D01*
X138041658Y-92211087D01*
X137985084Y-92074505D01*
X137902951Y-91951584D01*
X137798416Y-91847049D01*
X137675495Y-91764916D01*
X137675493Y-91764915D01*
X137538914Y-91708342D01*
X137393918Y-91679500D01*
X137246082Y-91679500D01*
X137246081Y-91679500D01*
X137101085Y-91708342D01*
X136964506Y-91764915D01*
X136841585Y-91847048D01*
X136737048Y-91951585D01*
X136654915Y-92074506D01*
X136598342Y-92211085D01*
X136569500Y-92356081D01*
X135800500Y-92356081D01*
X135800500Y-91197273D01*
X148399500Y-91197273D01*
X148399500Y-91302727D01*
X148426793Y-91404587D01*
X148426794Y-91404589D01*
X148426794Y-91404590D01*
X148479518Y-91495910D01*
X148479520Y-91495913D01*
X148554087Y-91570480D01*
X148645413Y-91623207D01*
X148747273Y-91650500D01*
X148747275Y-91650500D01*
X148852725Y-91650500D01*
X148852727Y-91650500D01*
X148954587Y-91623207D01*
X149045913Y-91570480D01*
X149120480Y-91495913D01*
X149173207Y-91404587D01*
X149200500Y-91302727D01*
X149200500Y-91197273D01*
X149173207Y-91095413D01*
X149120480Y-91004087D01*
X149045913Y-90929520D01*
X148954587Y-90876793D01*
X148852727Y-90849500D01*
X148747273Y-90849500D01*
X148645413Y-90876793D01*
X148645412Y-90876793D01*
X148645410Y-90876794D01*
X148645409Y-90876794D01*
X148554089Y-90929518D01*
X148479518Y-91004089D01*
X148426794Y-91095409D01*
X148426794Y-91095410D01*
X148426793Y-91095412D01*
X148426793Y-91095413D01*
X148399500Y-91197273D01*
X135800500Y-91197273D01*
X135800500Y-89816081D01*
X136569500Y-89816081D01*
X136569500Y-89963918D01*
X136598342Y-90108914D01*
X136654915Y-90245493D01*
X136654916Y-90245495D01*
X136737049Y-90368416D01*
X136841584Y-90472951D01*
X136964505Y-90555084D01*
X137101087Y-90611658D01*
X137246082Y-90640500D01*
X137246083Y-90640500D01*
X137393917Y-90640500D01*
X137393918Y-90640500D01*
X137538913Y-90611658D01*
X137675495Y-90555084D01*
X137798416Y-90472951D01*
X137902951Y-90368416D01*
X137985084Y-90245495D01*
X138041658Y-90108913D01*
X138070500Y-89963918D01*
X138070500Y-89816082D01*
X138070500Y-89816081D01*
X141649500Y-89816081D01*
X141649500Y-89963918D01*
X141678342Y-90108914D01*
X141734915Y-90245493D01*
X141734916Y-90245495D01*
X141817049Y-90368416D01*
X141921584Y-90472951D01*
X142044505Y-90555084D01*
X142181087Y-90611658D01*
X142326082Y-90640500D01*
X142326083Y-90640500D01*
X142473917Y-90640500D01*
X142473918Y-90640500D01*
X142618913Y-90611658D01*
X142755495Y-90555084D01*
X142878416Y-90472951D01*
X142982951Y-90368416D01*
X143065084Y-90245495D01*
X143121658Y-90108913D01*
X143143865Y-89997273D01*
X148399500Y-89997273D01*
X148399500Y-90102727D01*
X148401158Y-90108913D01*
X148426794Y-90204589D01*
X148426794Y-90204590D01*
X148450410Y-90245493D01*
X148479520Y-90295913D01*
X148554087Y-90370480D01*
X148645413Y-90423207D01*
X148747273Y-90450500D01*
X148747275Y-90450500D01*
X148852725Y-90450500D01*
X148852727Y-90450500D01*
X148954587Y-90423207D01*
X149045913Y-90370480D01*
X149120480Y-90295913D01*
X149173207Y-90204587D01*
X149200500Y-90102727D01*
X149200500Y-89997273D01*
X149173207Y-89895413D01*
X149127405Y-89816081D01*
X156889500Y-89816081D01*
X156889500Y-89963918D01*
X156918342Y-90108914D01*
X156974915Y-90245493D01*
X156974916Y-90245495D01*
X157057049Y-90368416D01*
X157161584Y-90472951D01*
X157284505Y-90555084D01*
X157421087Y-90611658D01*
X157566082Y-90640500D01*
X157566083Y-90640500D01*
X157713917Y-90640500D01*
X157713918Y-90640500D01*
X157858913Y-90611658D01*
X157995495Y-90555084D01*
X158118416Y-90472951D01*
X158222951Y-90368416D01*
X158305084Y-90245495D01*
X158361658Y-90108913D01*
X158390500Y-89963918D01*
X158390500Y-89816082D01*
X158390500Y-89816081D01*
X161969500Y-89816081D01*
X161969500Y-89963918D01*
X161998342Y-90108914D01*
X162054915Y-90245493D01*
X162054916Y-90245495D01*
X162137049Y-90368416D01*
X162241584Y-90472951D01*
X162364505Y-90555084D01*
X162501087Y-90611658D01*
X162646082Y-90640500D01*
X162646083Y-90640500D01*
X162793917Y-90640500D01*
X162793918Y-90640500D01*
X162938913Y-90611658D01*
X163075495Y-90555084D01*
X163198416Y-90472951D01*
X163302951Y-90368416D01*
X163385084Y-90245495D01*
X163441658Y-90108913D01*
X163470500Y-89963918D01*
X163470500Y-89816082D01*
X163441658Y-89671087D01*
X163385084Y-89534505D01*
X163302951Y-89411584D01*
X163198416Y-89307049D01*
X163075495Y-89224916D01*
X163075493Y-89224915D01*
X162938914Y-89168342D01*
X162793918Y-89139500D01*
X162646082Y-89139500D01*
X162646081Y-89139500D01*
X162501085Y-89168342D01*
X162364506Y-89224915D01*
X162241585Y-89307048D01*
X162137048Y-89411585D01*
X162054915Y-89534506D01*
X161998342Y-89671085D01*
X161969500Y-89816081D01*
X158390500Y-89816081D01*
X158361658Y-89671087D01*
X158305084Y-89534505D01*
X158222951Y-89411584D01*
X158118416Y-89307049D01*
X157995495Y-89224916D01*
X157995493Y-89224915D01*
X157858914Y-89168342D01*
X157713918Y-89139500D01*
X157566082Y-89139500D01*
X157566081Y-89139500D01*
X157421085Y-89168342D01*
X157284506Y-89224915D01*
X157161585Y-89307048D01*
X157057048Y-89411585D01*
X156974915Y-89534506D01*
X156918342Y-89671085D01*
X156889500Y-89816081D01*
X149127405Y-89816081D01*
X149120480Y-89804087D01*
X149045913Y-89729520D01*
X148954587Y-89676793D01*
X148852727Y-89649500D01*
X148747273Y-89649500D01*
X148645413Y-89676793D01*
X148645412Y-89676793D01*
X148645410Y-89676794D01*
X148645409Y-89676794D01*
X148554089Y-89729518D01*
X148479518Y-89804089D01*
X148426794Y-89895409D01*
X148426794Y-89895410D01*
X148426793Y-89895412D01*
X148426793Y-89895413D01*
X148399500Y-89997273D01*
X143143865Y-89997273D01*
X143150500Y-89963918D01*
X143150500Y-89816082D01*
X143121658Y-89671087D01*
X143065084Y-89534505D01*
X142982951Y-89411584D01*
X142878416Y-89307049D01*
X142755495Y-89224916D01*
X142755493Y-89224915D01*
X142618914Y-89168342D01*
X142473918Y-89139500D01*
X142326082Y-89139500D01*
X142326081Y-89139500D01*
X142181085Y-89168342D01*
X142044506Y-89224915D01*
X141921585Y-89307048D01*
X141817048Y-89411585D01*
X141734915Y-89534506D01*
X141678342Y-89671085D01*
X141649500Y-89816081D01*
X138070500Y-89816081D01*
X138041658Y-89671087D01*
X137985084Y-89534505D01*
X137902951Y-89411584D01*
X137798416Y-89307049D01*
X137675495Y-89224916D01*
X137675493Y-89224915D01*
X137538914Y-89168342D01*
X137393918Y-89139500D01*
X137246082Y-89139500D01*
X137246081Y-89139500D01*
X137101085Y-89168342D01*
X136964506Y-89224915D01*
X136841585Y-89307048D01*
X136737048Y-89411585D01*
X136654915Y-89534506D01*
X136598342Y-89671085D01*
X136569500Y-89816081D01*
X135800500Y-89816081D01*
X135800500Y-88797273D01*
X148399500Y-88797273D01*
X148399500Y-88902727D01*
X148426793Y-89004587D01*
X148426794Y-89004589D01*
X148426794Y-89004590D01*
X148479518Y-89095910D01*
X148479520Y-89095913D01*
X148554087Y-89170480D01*
X148645413Y-89223207D01*
X148747273Y-89250500D01*
X148747275Y-89250500D01*
X148852725Y-89250500D01*
X148852727Y-89250500D01*
X148954587Y-89223207D01*
X149045913Y-89170480D01*
X149120480Y-89095913D01*
X149173207Y-89004587D01*
X149200500Y-88902727D01*
X149200500Y-88797273D01*
X149173207Y-88695413D01*
X149120480Y-88604087D01*
X149045913Y-88529520D01*
X148954587Y-88476793D01*
X148852727Y-88449500D01*
X148747273Y-88449500D01*
X148645413Y-88476793D01*
X148645412Y-88476793D01*
X148645410Y-88476794D01*
X148645409Y-88476794D01*
X148554089Y-88529518D01*
X148479518Y-88604089D01*
X148426794Y-88695409D01*
X148426794Y-88695410D01*
X148426793Y-88695412D01*
X148426793Y-88695413D01*
X148399500Y-88797273D01*
X135800500Y-88797273D01*
X135800500Y-87276081D01*
X136569500Y-87276081D01*
X136569500Y-87423918D01*
X136598342Y-87568914D01*
X136653769Y-87702727D01*
X136654916Y-87705495D01*
X136737049Y-87828416D01*
X136841584Y-87932951D01*
X136964505Y-88015084D01*
X137101087Y-88071658D01*
X137246082Y-88100500D01*
X137246083Y-88100500D01*
X137393917Y-88100500D01*
X137393918Y-88100500D01*
X137538913Y-88071658D01*
X137675495Y-88015084D01*
X137798416Y-87932951D01*
X137902951Y-87828416D01*
X137985084Y-87705495D01*
X138041658Y-87568913D01*
X138070500Y-87423918D01*
X138070500Y-87276082D01*
X138070500Y-87276081D01*
X141649500Y-87276081D01*
X141649500Y-87423918D01*
X141678342Y-87568914D01*
X141733769Y-87702727D01*
X141734916Y-87705495D01*
X141817049Y-87828416D01*
X141921584Y-87932951D01*
X142044505Y-88015084D01*
X142181087Y-88071658D01*
X142326082Y-88100500D01*
X142326083Y-88100500D01*
X142473917Y-88100500D01*
X142473918Y-88100500D01*
X142618913Y-88071658D01*
X142755495Y-88015084D01*
X142878416Y-87932951D01*
X142982951Y-87828416D01*
X143065084Y-87705495D01*
X143109911Y-87597273D01*
X148399500Y-87597273D01*
X148399500Y-87702727D01*
X148400242Y-87705495D01*
X148426794Y-87804589D01*
X148426794Y-87804590D01*
X148479518Y-87895910D01*
X148479520Y-87895913D01*
X148554087Y-87970480D01*
X148645413Y-88023207D01*
X148747273Y-88050500D01*
X148747275Y-88050500D01*
X148852725Y-88050500D01*
X148852727Y-88050500D01*
X148954587Y-88023207D01*
X149045913Y-87970480D01*
X149120480Y-87895913D01*
X149173207Y-87804587D01*
X149200500Y-87702727D01*
X149200500Y-87597273D01*
X149173207Y-87495413D01*
X149120480Y-87404087D01*
X149045913Y-87329520D01*
X148954587Y-87276793D01*
X148951930Y-87276081D01*
X156889500Y-87276081D01*
X156889500Y-87423918D01*
X156918342Y-87568914D01*
X156973769Y-87702727D01*
X156974916Y-87705495D01*
X157057049Y-87828416D01*
X157161584Y-87932951D01*
X157284505Y-88015084D01*
X157421087Y-88071658D01*
X157566082Y-88100500D01*
X157566083Y-88100500D01*
X157713917Y-88100500D01*
X157713918Y-88100500D01*
X157858913Y-88071658D01*
X157995495Y-88015084D01*
X158118416Y-87932951D01*
X158222951Y-87828416D01*
X158305084Y-87705495D01*
X158361658Y-87568913D01*
X158390500Y-87423918D01*
X158390500Y-87276082D01*
X158390500Y-87276081D01*
X161969500Y-87276081D01*
X161969500Y-87423918D01*
X161998342Y-87568914D01*
X162053769Y-87702727D01*
X162054916Y-87705495D01*
X162137049Y-87828416D01*
X162241584Y-87932951D01*
X162364505Y-88015084D01*
X162501087Y-88071658D01*
X162646082Y-88100500D01*
X162646083Y-88100500D01*
X162793917Y-88100500D01*
X162793918Y-88100500D01*
X162938913Y-88071658D01*
X163075495Y-88015084D01*
X163198416Y-87932951D01*
X163302951Y-87828416D01*
X163385084Y-87705495D01*
X163441658Y-87568913D01*
X163470500Y-87423918D01*
X163470500Y-87276082D01*
X163441658Y-87131087D01*
X163385084Y-86994505D01*
X163302951Y-86871584D01*
X163198416Y-86767049D01*
X163075495Y-86684916D01*
X163075493Y-86684915D01*
X162938914Y-86628342D01*
X162793918Y-86599500D01*
X162646082Y-86599500D01*
X162646081Y-86599500D01*
X162501085Y-86628342D01*
X162364506Y-86684915D01*
X162241585Y-86767048D01*
X162137048Y-86871585D01*
X162054915Y-86994506D01*
X161998342Y-87131085D01*
X161969500Y-87276081D01*
X158390500Y-87276081D01*
X158361658Y-87131087D01*
X158305084Y-86994505D01*
X158222951Y-86871584D01*
X158118416Y-86767049D01*
X157995495Y-86684916D01*
X157995493Y-86684915D01*
X157858914Y-86628342D01*
X157713918Y-86599500D01*
X157566082Y-86599500D01*
X157566081Y-86599500D01*
X157421085Y-86628342D01*
X157284506Y-86684915D01*
X157161585Y-86767048D01*
X157057048Y-86871585D01*
X156974915Y-86994506D01*
X156918342Y-87131085D01*
X156889500Y-87276081D01*
X148951930Y-87276081D01*
X148852727Y-87249500D01*
X148747273Y-87249500D01*
X148645413Y-87276793D01*
X148645412Y-87276793D01*
X148645410Y-87276794D01*
X148645409Y-87276794D01*
X148554089Y-87329518D01*
X148479518Y-87404089D01*
X148426794Y-87495409D01*
X148426794Y-87495410D01*
X148426793Y-87495412D01*
X148426793Y-87495413D01*
X148399500Y-87597273D01*
X143109911Y-87597273D01*
X143121658Y-87568913D01*
X143150500Y-87423918D01*
X143150500Y-87276082D01*
X143121658Y-87131087D01*
X143065084Y-86994505D01*
X142982951Y-86871584D01*
X142878416Y-86767049D01*
X142755495Y-86684916D01*
X142755493Y-86684915D01*
X142618914Y-86628342D01*
X142473918Y-86599500D01*
X142326082Y-86599500D01*
X142326081Y-86599500D01*
X142181085Y-86628342D01*
X142044506Y-86684915D01*
X141921585Y-86767048D01*
X141817048Y-86871585D01*
X141734915Y-86994506D01*
X141678342Y-87131085D01*
X141649500Y-87276081D01*
X138070500Y-87276081D01*
X138041658Y-87131087D01*
X137985084Y-86994505D01*
X137902951Y-86871584D01*
X137798416Y-86767049D01*
X137675495Y-86684916D01*
X137675493Y-86684915D01*
X137538914Y-86628342D01*
X137393918Y-86599500D01*
X137246082Y-86599500D01*
X137246081Y-86599500D01*
X137101085Y-86628342D01*
X136964506Y-86684915D01*
X136841585Y-86767048D01*
X136737048Y-86871585D01*
X136654915Y-86994506D01*
X136598342Y-87131085D01*
X136569500Y-87276081D01*
X135800500Y-87276081D01*
X135800500Y-86397273D01*
X148399500Y-86397273D01*
X148399500Y-86502727D01*
X148425430Y-86599500D01*
X148426794Y-86604589D01*
X148426794Y-86604590D01*
X148473170Y-86684915D01*
X148479520Y-86695913D01*
X148554087Y-86770480D01*
X148645413Y-86823207D01*
X148747273Y-86850500D01*
X148747275Y-86850500D01*
X148852725Y-86850500D01*
X148852727Y-86850500D01*
X148954587Y-86823207D01*
X149045913Y-86770480D01*
X149120480Y-86695913D01*
X149173207Y-86604587D01*
X149200500Y-86502727D01*
X149200500Y-86397273D01*
X149173207Y-86295413D01*
X149120480Y-86204087D01*
X149045913Y-86129520D01*
X148954587Y-86076793D01*
X148852727Y-86049500D01*
X148747273Y-86049500D01*
X148645413Y-86076793D01*
X148645412Y-86076793D01*
X148645410Y-86076794D01*
X148645409Y-86076794D01*
X148554089Y-86129518D01*
X148479518Y-86204089D01*
X148426794Y-86295409D01*
X148426794Y-86295410D01*
X148426793Y-86295412D01*
X148426793Y-86295413D01*
X148399500Y-86397273D01*
X135800500Y-86397273D01*
X135800500Y-84736082D01*
X136569500Y-84736082D01*
X136569500Y-84883918D01*
X136598342Y-85028913D01*
X136654916Y-85165495D01*
X136737049Y-85288416D01*
X136841584Y-85392951D01*
X136964505Y-85475084D01*
X137101087Y-85531658D01*
X137246082Y-85560500D01*
X137246083Y-85560500D01*
X137393917Y-85560500D01*
X137393918Y-85560500D01*
X137538913Y-85531658D01*
X137675495Y-85475084D01*
X137798416Y-85392951D01*
X137902951Y-85288416D01*
X137985084Y-85165495D01*
X138041658Y-85028913D01*
X138070500Y-84883918D01*
X138070500Y-84736082D01*
X141649500Y-84736082D01*
X141649500Y-84883918D01*
X141678342Y-85028913D01*
X141734916Y-85165495D01*
X141817049Y-85288416D01*
X141921584Y-85392951D01*
X142044505Y-85475084D01*
X142181087Y-85531658D01*
X142326082Y-85560500D01*
X142326083Y-85560500D01*
X142473917Y-85560500D01*
X142473918Y-85560500D01*
X142618913Y-85531658D01*
X142755495Y-85475084D01*
X142878416Y-85392951D01*
X142982951Y-85288416D01*
X143043851Y-85197273D01*
X148399500Y-85197273D01*
X148399500Y-85302727D01*
X148426793Y-85404587D01*
X148426794Y-85404589D01*
X148426794Y-85404590D01*
X148467494Y-85475084D01*
X148479520Y-85495913D01*
X148554087Y-85570480D01*
X148645413Y-85623207D01*
X148747273Y-85650500D01*
X148747275Y-85650500D01*
X148852725Y-85650500D01*
X148852727Y-85650500D01*
X148954587Y-85623207D01*
X149045913Y-85570480D01*
X149120480Y-85495913D01*
X149173207Y-85404587D01*
X149200500Y-85302727D01*
X149200500Y-85197273D01*
X149173207Y-85095413D01*
X149120480Y-85004087D01*
X149045913Y-84929520D01*
X148966924Y-84883916D01*
X148954589Y-84876794D01*
X148954588Y-84876793D01*
X148954587Y-84876793D01*
X148852727Y-84849500D01*
X148747273Y-84849500D01*
X148645413Y-84876793D01*
X148645412Y-84876793D01*
X148645410Y-84876794D01*
X148645409Y-84876794D01*
X148554089Y-84929518D01*
X148479518Y-85004089D01*
X148426794Y-85095409D01*
X148426794Y-85095410D01*
X148426793Y-85095412D01*
X148426793Y-85095413D01*
X148399500Y-85197273D01*
X143043851Y-85197273D01*
X143065084Y-85165495D01*
X143121658Y-85028913D01*
X143150500Y-84883918D01*
X143150500Y-84736082D01*
X156889500Y-84736082D01*
X156889500Y-84883918D01*
X156918342Y-85028913D01*
X156974916Y-85165495D01*
X157057049Y-85288416D01*
X157161584Y-85392951D01*
X157284505Y-85475084D01*
X157421087Y-85531658D01*
X157566082Y-85560500D01*
X157566083Y-85560500D01*
X157713917Y-85560500D01*
X157713918Y-85560500D01*
X157858913Y-85531658D01*
X157995495Y-85475084D01*
X158118416Y-85392951D01*
X158222951Y-85288416D01*
X158305084Y-85165495D01*
X158361658Y-85028913D01*
X158390500Y-84883918D01*
X158390500Y-84736082D01*
X161969500Y-84736082D01*
X161969500Y-84883918D01*
X161998342Y-85028913D01*
X162054916Y-85165495D01*
X162137049Y-85288416D01*
X162241584Y-85392951D01*
X162364505Y-85475084D01*
X162501087Y-85531658D01*
X162646082Y-85560500D01*
X162646083Y-85560500D01*
X162793917Y-85560500D01*
X162793918Y-85560500D01*
X162938913Y-85531658D01*
X163075495Y-85475084D01*
X163198416Y-85392951D01*
X163302951Y-85288416D01*
X163385084Y-85165495D01*
X163441658Y-85028913D01*
X163470500Y-84883918D01*
X163470500Y-84736082D01*
X163441658Y-84591087D01*
X163385084Y-84454505D01*
X163302951Y-84331584D01*
X163198416Y-84227049D01*
X163075495Y-84144916D01*
X162973642Y-84102727D01*
X162938914Y-84088342D01*
X162793918Y-84059500D01*
X162646082Y-84059500D01*
X162646081Y-84059500D01*
X162501085Y-84088342D01*
X162364506Y-84144915D01*
X162241585Y-84227048D01*
X162137048Y-84331585D01*
X162054915Y-84454506D01*
X161998342Y-84591085D01*
X161998342Y-84591087D01*
X161969500Y-84736082D01*
X158390500Y-84736082D01*
X158361658Y-84591087D01*
X158305084Y-84454505D01*
X158222951Y-84331584D01*
X158118416Y-84227049D01*
X157995495Y-84144916D01*
X157893642Y-84102727D01*
X157858914Y-84088342D01*
X157713918Y-84059500D01*
X157566082Y-84059500D01*
X157566081Y-84059500D01*
X157421085Y-84088342D01*
X157284506Y-84144915D01*
X157161585Y-84227048D01*
X157057048Y-84331585D01*
X156974915Y-84454506D01*
X156918342Y-84591085D01*
X156918342Y-84591087D01*
X156889500Y-84736082D01*
X143150500Y-84736082D01*
X143121658Y-84591087D01*
X143065084Y-84454505D01*
X142982951Y-84331584D01*
X142878416Y-84227049D01*
X142755495Y-84144916D01*
X142653642Y-84102727D01*
X142618914Y-84088342D01*
X142618904Y-84088339D01*
X142616608Y-84087882D01*
X142616600Y-84087882D01*
X142473918Y-84059500D01*
X142326082Y-84059500D01*
X142326081Y-84059500D01*
X142181085Y-84088342D01*
X142044506Y-84144915D01*
X141921585Y-84227048D01*
X141817048Y-84331585D01*
X141734915Y-84454506D01*
X141678342Y-84591085D01*
X141678342Y-84591087D01*
X141649500Y-84736082D01*
X138070500Y-84736082D01*
X138041658Y-84591087D01*
X137985084Y-84454505D01*
X137902951Y-84331584D01*
X137798416Y-84227049D01*
X137675495Y-84144916D01*
X137573642Y-84102727D01*
X137538914Y-84088342D01*
X137393918Y-84059500D01*
X137246082Y-84059500D01*
X137246081Y-84059500D01*
X137101085Y-84088342D01*
X136964506Y-84144915D01*
X136841585Y-84227048D01*
X136737048Y-84331585D01*
X136654915Y-84454506D01*
X136598342Y-84591085D01*
X136598342Y-84591087D01*
X136569500Y-84736082D01*
X135800500Y-84736082D01*
X135800500Y-83997273D01*
X148399500Y-83997273D01*
X148399500Y-84102727D01*
X148426793Y-84204587D01*
X148426794Y-84204589D01*
X148426794Y-84204590D01*
X148439761Y-84227049D01*
X148479520Y-84295913D01*
X148554087Y-84370480D01*
X148645413Y-84423207D01*
X148747273Y-84450500D01*
X148747275Y-84450500D01*
X148852725Y-84450500D01*
X148852727Y-84450500D01*
X148954587Y-84423207D01*
X149045913Y-84370480D01*
X149120480Y-84295913D01*
X149173207Y-84204587D01*
X149200500Y-84102727D01*
X149200500Y-83997273D01*
X149173207Y-83895413D01*
X149120480Y-83804087D01*
X149045913Y-83729520D01*
X148954587Y-83676793D01*
X148852727Y-83649500D01*
X148747273Y-83649500D01*
X148645413Y-83676793D01*
X148645412Y-83676793D01*
X148645410Y-83676794D01*
X148645409Y-83676794D01*
X148554089Y-83729518D01*
X148479518Y-83804089D01*
X148426794Y-83895409D01*
X148426794Y-83895410D01*
X148426793Y-83895412D01*
X148426793Y-83895413D01*
X148399500Y-83997273D01*
X135800500Y-83997273D01*
X135800500Y-82196081D01*
X136569500Y-82196081D01*
X136569500Y-82343918D01*
X136589688Y-82445410D01*
X136598342Y-82488913D01*
X136654916Y-82625495D01*
X136737049Y-82748416D01*
X136841584Y-82852951D01*
X136964505Y-82935084D01*
X137101087Y-82991658D01*
X137246082Y-83020500D01*
X137246083Y-83020500D01*
X137393917Y-83020500D01*
X137393918Y-83020500D01*
X137538913Y-82991658D01*
X137675495Y-82935084D01*
X137798416Y-82852951D01*
X137902951Y-82748416D01*
X137985084Y-82625495D01*
X138041658Y-82488913D01*
X138070500Y-82343918D01*
X138070500Y-82196082D01*
X138070500Y-82196081D01*
X141649500Y-82196081D01*
X141649500Y-82343918D01*
X141669688Y-82445410D01*
X141678342Y-82488913D01*
X141734916Y-82625495D01*
X141817049Y-82748416D01*
X141921584Y-82852951D01*
X142044505Y-82935084D01*
X142181087Y-82991658D01*
X142326082Y-83020500D01*
X142326083Y-83020500D01*
X142473917Y-83020500D01*
X142473918Y-83020500D01*
X142618913Y-82991658D01*
X142755495Y-82935084D01*
X142878416Y-82852951D01*
X142982951Y-82748416D01*
X143065084Y-82625495D01*
X143097485Y-82547273D01*
X151849500Y-82547273D01*
X151849500Y-82652727D01*
X151875139Y-82748414D01*
X151876794Y-82754589D01*
X151876794Y-82754590D01*
X151929518Y-82845910D01*
X151929520Y-82845913D01*
X152004087Y-82920480D01*
X152095413Y-82973207D01*
X152197273Y-83000500D01*
X152197275Y-83000500D01*
X152302725Y-83000500D01*
X152302727Y-83000500D01*
X152404587Y-82973207D01*
X152495913Y-82920480D01*
X152570480Y-82845913D01*
X152623207Y-82754587D01*
X152650500Y-82652727D01*
X152650500Y-82547273D01*
X152623207Y-82445413D01*
X152570480Y-82354087D01*
X152495913Y-82279520D01*
X152404587Y-82226793D01*
X152302727Y-82199500D01*
X152197273Y-82199500D01*
X152095413Y-82226793D01*
X152095412Y-82226793D01*
X152095410Y-82226794D01*
X152095409Y-82226794D01*
X152004089Y-82279518D01*
X151929518Y-82354089D01*
X151876794Y-82445409D01*
X151876794Y-82445410D01*
X151876793Y-82445412D01*
X151876793Y-82445413D01*
X151849500Y-82547273D01*
X143097485Y-82547273D01*
X143121658Y-82488913D01*
X143150500Y-82343918D01*
X143150500Y-82196082D01*
X143150500Y-82196081D01*
X156889500Y-82196081D01*
X156889500Y-82343918D01*
X156909688Y-82445410D01*
X156918342Y-82488913D01*
X156974916Y-82625495D01*
X157057049Y-82748416D01*
X157161584Y-82852951D01*
X157284505Y-82935084D01*
X157421087Y-82991658D01*
X157566082Y-83020500D01*
X157566083Y-83020500D01*
X157713917Y-83020500D01*
X157713918Y-83020500D01*
X157858913Y-82991658D01*
X157995495Y-82935084D01*
X158118416Y-82852951D01*
X158222951Y-82748416D01*
X158305084Y-82625495D01*
X158361658Y-82488913D01*
X158390500Y-82343918D01*
X158390500Y-82196082D01*
X158390500Y-82196081D01*
X161969500Y-82196081D01*
X161969500Y-82343918D01*
X161989688Y-82445410D01*
X161998342Y-82488913D01*
X162054916Y-82625495D01*
X162137049Y-82748416D01*
X162241584Y-82852951D01*
X162364505Y-82935084D01*
X162501087Y-82991658D01*
X162646082Y-83020500D01*
X162646083Y-83020500D01*
X162793917Y-83020500D01*
X162793918Y-83020500D01*
X162938913Y-82991658D01*
X163075495Y-82935084D01*
X163198416Y-82852951D01*
X163302951Y-82748416D01*
X163385084Y-82625495D01*
X163441658Y-82488913D01*
X163470500Y-82343918D01*
X163470500Y-82196082D01*
X163441658Y-82051087D01*
X163385084Y-81914505D01*
X163302951Y-81791584D01*
X163198416Y-81687049D01*
X163075495Y-81604916D01*
X163075493Y-81604915D01*
X162938914Y-81548342D01*
X162793918Y-81519500D01*
X162646082Y-81519500D01*
X162646081Y-81519500D01*
X162501085Y-81548342D01*
X162364506Y-81604915D01*
X162241585Y-81687048D01*
X162137048Y-81791585D01*
X162054915Y-81914506D01*
X161998342Y-82051085D01*
X161969500Y-82196081D01*
X158390500Y-82196081D01*
X158361658Y-82051087D01*
X158305084Y-81914505D01*
X158222951Y-81791584D01*
X158118416Y-81687049D01*
X157995495Y-81604916D01*
X157995493Y-81604915D01*
X157858914Y-81548342D01*
X157713918Y-81519500D01*
X157566082Y-81519500D01*
X157566081Y-81519500D01*
X157421085Y-81548342D01*
X157284506Y-81604915D01*
X157161585Y-81687048D01*
X157057048Y-81791585D01*
X156974915Y-81914506D01*
X156918342Y-82051085D01*
X156889500Y-82196081D01*
X143150500Y-82196081D01*
X143121658Y-82051087D01*
X143065084Y-81914505D01*
X142982951Y-81791584D01*
X142878416Y-81687049D01*
X142755495Y-81604916D01*
X142755493Y-81604915D01*
X142618914Y-81548342D01*
X142473918Y-81519500D01*
X142326082Y-81519500D01*
X142326081Y-81519500D01*
X142181085Y-81548342D01*
X142044506Y-81604915D01*
X141921585Y-81687048D01*
X141817048Y-81791585D01*
X141734915Y-81914506D01*
X141678342Y-82051085D01*
X141649500Y-82196081D01*
X138070500Y-82196081D01*
X138041658Y-82051087D01*
X137985084Y-81914505D01*
X137902951Y-81791584D01*
X137798416Y-81687049D01*
X137675495Y-81604916D01*
X137675493Y-81604915D01*
X137538914Y-81548342D01*
X137393918Y-81519500D01*
X137246082Y-81519500D01*
X137246081Y-81519500D01*
X137101085Y-81548342D01*
X136964506Y-81604915D01*
X136841585Y-81687048D01*
X136737048Y-81791585D01*
X136654915Y-81914506D01*
X136598342Y-82051085D01*
X136569500Y-82196081D01*
X135800500Y-82196081D01*
X135800500Y-81097273D01*
X150399500Y-81097273D01*
X150399500Y-81202727D01*
X150426793Y-81304587D01*
X150426794Y-81304589D01*
X150426794Y-81304590D01*
X150479518Y-81395910D01*
X150479520Y-81395913D01*
X150554087Y-81470480D01*
X150645413Y-81523207D01*
X150747273Y-81550500D01*
X150747275Y-81550500D01*
X150852725Y-81550500D01*
X150852727Y-81550500D01*
X150954587Y-81523207D01*
X151045913Y-81470480D01*
X151120480Y-81395913D01*
X151173207Y-81304587D01*
X151200500Y-81202727D01*
X151200500Y-81097273D01*
X151173207Y-80995413D01*
X151120480Y-80904087D01*
X151045913Y-80829520D01*
X150954587Y-80776793D01*
X150852727Y-80749500D01*
X150747273Y-80749500D01*
X150645413Y-80776793D01*
X150645412Y-80776793D01*
X150645410Y-80776794D01*
X150645409Y-80776794D01*
X150554089Y-80829518D01*
X150479518Y-80904089D01*
X150426794Y-80995409D01*
X150426794Y-80995410D01*
X150426793Y-80995412D01*
X150426793Y-80995413D01*
X150399500Y-81097273D01*
X135800500Y-81097273D01*
X135800500Y-79656081D01*
X136569500Y-79656081D01*
X136569500Y-79803918D01*
X136598342Y-79948914D01*
X136620632Y-80002727D01*
X136654916Y-80085495D01*
X136737049Y-80208416D01*
X136841584Y-80312951D01*
X136964505Y-80395084D01*
X137101087Y-80451658D01*
X137246082Y-80480500D01*
X137246083Y-80480500D01*
X137393917Y-80480500D01*
X137393918Y-80480500D01*
X137538913Y-80451658D01*
X137675495Y-80395084D01*
X137798416Y-80312951D01*
X137902951Y-80208416D01*
X137985084Y-80085495D01*
X138041658Y-79948913D01*
X138070500Y-79803918D01*
X138070500Y-79656082D01*
X138070500Y-79656081D01*
X141649500Y-79656081D01*
X141649500Y-79803918D01*
X141678342Y-79948914D01*
X141700632Y-80002727D01*
X141734916Y-80085495D01*
X141817049Y-80208416D01*
X141921584Y-80312951D01*
X142044505Y-80395084D01*
X142181087Y-80451658D01*
X142326082Y-80480500D01*
X142326083Y-80480500D01*
X142473917Y-80480500D01*
X142473918Y-80480500D01*
X142618913Y-80451658D01*
X142755495Y-80395084D01*
X142878416Y-80312951D01*
X142982951Y-80208416D01*
X143065084Y-80085495D01*
X143121658Y-79948913D01*
X143131930Y-79897273D01*
X150388797Y-79897273D01*
X150388797Y-80002727D01*
X150416090Y-80104587D01*
X150416091Y-80104589D01*
X150416091Y-80104590D01*
X150468815Y-80195910D01*
X150468817Y-80195913D01*
X150543384Y-80270480D01*
X150634710Y-80323207D01*
X150736570Y-80350500D01*
X150736572Y-80350500D01*
X150842022Y-80350500D01*
X150842024Y-80350500D01*
X150943884Y-80323207D01*
X151035210Y-80270480D01*
X151109777Y-80195913D01*
X151162504Y-80104587D01*
X151189797Y-80002727D01*
X151189797Y-79897273D01*
X151162504Y-79795413D01*
X151109777Y-79704087D01*
X151061771Y-79656081D01*
X156889500Y-79656081D01*
X156889500Y-79803918D01*
X156918342Y-79948914D01*
X156940632Y-80002727D01*
X156974916Y-80085495D01*
X157057049Y-80208416D01*
X157161584Y-80312951D01*
X157284505Y-80395084D01*
X157421087Y-80451658D01*
X157566082Y-80480500D01*
X157566083Y-80480500D01*
X157713917Y-80480500D01*
X157713918Y-80480500D01*
X157858913Y-80451658D01*
X157995495Y-80395084D01*
X158118416Y-80312951D01*
X158222951Y-80208416D01*
X158305084Y-80085495D01*
X158361658Y-79948913D01*
X158390500Y-79803918D01*
X158390500Y-79656082D01*
X158390500Y-79656081D01*
X161969500Y-79656081D01*
X161969500Y-79803918D01*
X161998342Y-79948914D01*
X162020632Y-80002727D01*
X162054916Y-80085495D01*
X162137049Y-80208416D01*
X162241584Y-80312951D01*
X162364505Y-80395084D01*
X162501087Y-80451658D01*
X162646082Y-80480500D01*
X162646083Y-80480500D01*
X162793917Y-80480500D01*
X162793918Y-80480500D01*
X162938913Y-80451658D01*
X163075495Y-80395084D01*
X163198416Y-80312951D01*
X163302951Y-80208416D01*
X163385084Y-80085495D01*
X163441658Y-79948913D01*
X163470500Y-79803918D01*
X163470500Y-79656082D01*
X163441658Y-79511087D01*
X163385084Y-79374505D01*
X163302951Y-79251584D01*
X163198416Y-79147049D01*
X163075495Y-79064916D01*
X163075493Y-79064915D01*
X162938914Y-79008342D01*
X162793918Y-78979500D01*
X162646082Y-78979500D01*
X162646081Y-78979500D01*
X162501085Y-79008342D01*
X162364506Y-79064915D01*
X162241585Y-79147048D01*
X162137048Y-79251585D01*
X162054915Y-79374506D01*
X161998342Y-79511085D01*
X161969500Y-79656081D01*
X158390500Y-79656081D01*
X158361658Y-79511087D01*
X158305084Y-79374505D01*
X158222951Y-79251584D01*
X158118416Y-79147049D01*
X157995495Y-79064916D01*
X157995493Y-79064915D01*
X157858914Y-79008342D01*
X157713918Y-78979500D01*
X157566082Y-78979500D01*
X157566081Y-78979500D01*
X157421085Y-79008342D01*
X157284506Y-79064915D01*
X157161585Y-79147048D01*
X157057048Y-79251585D01*
X156974915Y-79374506D01*
X156918342Y-79511085D01*
X156889500Y-79656081D01*
X151061771Y-79656081D01*
X151035210Y-79629520D01*
X150943884Y-79576793D01*
X150842024Y-79549500D01*
X150736570Y-79549500D01*
X150634710Y-79576793D01*
X150634709Y-79576793D01*
X150634707Y-79576794D01*
X150634706Y-79576794D01*
X150543386Y-79629518D01*
X150468815Y-79704089D01*
X150416091Y-79795409D01*
X150416091Y-79795410D01*
X150416090Y-79795412D01*
X150416090Y-79795413D01*
X150388797Y-79897273D01*
X143131930Y-79897273D01*
X143150500Y-79803918D01*
X143150500Y-79656082D01*
X143121658Y-79511087D01*
X143065084Y-79374505D01*
X142982951Y-79251584D01*
X142878416Y-79147049D01*
X142755495Y-79064916D01*
X142755493Y-79064915D01*
X142618914Y-79008342D01*
X142473918Y-78979500D01*
X142326082Y-78979500D01*
X142326081Y-78979500D01*
X142181085Y-79008342D01*
X142044506Y-79064915D01*
X141921585Y-79147048D01*
X141817048Y-79251585D01*
X141734915Y-79374506D01*
X141678342Y-79511085D01*
X141649500Y-79656081D01*
X138070500Y-79656081D01*
X138041658Y-79511087D01*
X137985084Y-79374505D01*
X137902951Y-79251584D01*
X137798416Y-79147049D01*
X137675495Y-79064916D01*
X137675493Y-79064915D01*
X137538914Y-79008342D01*
X137393918Y-78979500D01*
X137246082Y-78979500D01*
X137246081Y-78979500D01*
X137101085Y-79008342D01*
X136964506Y-79064915D01*
X136841585Y-79147048D01*
X136737048Y-79251585D01*
X136654915Y-79374506D01*
X136598342Y-79511085D01*
X136569500Y-79656081D01*
X135800500Y-79656081D01*
X135800500Y-78697273D01*
X150399500Y-78697273D01*
X150399500Y-78802727D01*
X150426793Y-78904587D01*
X150426794Y-78904589D01*
X150426794Y-78904590D01*
X150470044Y-78979500D01*
X150479520Y-78995913D01*
X150554087Y-79070480D01*
X150645413Y-79123207D01*
X150747273Y-79150500D01*
X150747275Y-79150500D01*
X150852725Y-79150500D01*
X150852727Y-79150500D01*
X150954587Y-79123207D01*
X151045913Y-79070480D01*
X151120480Y-78995913D01*
X151173207Y-78904587D01*
X151200500Y-78802727D01*
X151200500Y-78697273D01*
X151173207Y-78595413D01*
X151120480Y-78504087D01*
X151045913Y-78429520D01*
X150954587Y-78376793D01*
X150852727Y-78349500D01*
X150747273Y-78349500D01*
X150645413Y-78376793D01*
X150645412Y-78376793D01*
X150645410Y-78376794D01*
X150645409Y-78376794D01*
X150554089Y-78429518D01*
X150479518Y-78504089D01*
X150426794Y-78595409D01*
X150426794Y-78595410D01*
X150426793Y-78595412D01*
X150426793Y-78595413D01*
X150399500Y-78697273D01*
X135800500Y-78697273D01*
X135800500Y-77116081D01*
X136569500Y-77116081D01*
X136569500Y-77263918D01*
X136598342Y-77408914D01*
X136634942Y-77497273D01*
X136654916Y-77545495D01*
X136737049Y-77668416D01*
X136841584Y-77772951D01*
X136964505Y-77855084D01*
X137101087Y-77911658D01*
X137246082Y-77940500D01*
X137246083Y-77940500D01*
X137393917Y-77940500D01*
X137393918Y-77940500D01*
X137538913Y-77911658D01*
X137675495Y-77855084D01*
X137798416Y-77772951D01*
X137902951Y-77668416D01*
X137985084Y-77545495D01*
X138041658Y-77408913D01*
X138070500Y-77263918D01*
X138070500Y-77116082D01*
X138070500Y-77116081D01*
X141649500Y-77116081D01*
X141649500Y-77263918D01*
X141678342Y-77408914D01*
X141714942Y-77497273D01*
X141734916Y-77545495D01*
X141817049Y-77668416D01*
X141921584Y-77772951D01*
X142044505Y-77855084D01*
X142181087Y-77911658D01*
X142326082Y-77940500D01*
X142326083Y-77940500D01*
X142473917Y-77940500D01*
X142473918Y-77940500D01*
X142618913Y-77911658D01*
X142755495Y-77855084D01*
X142878416Y-77772951D01*
X142982951Y-77668416D01*
X143065084Y-77545495D01*
X143085058Y-77497273D01*
X150399500Y-77497273D01*
X150399500Y-77602727D01*
X150426793Y-77704587D01*
X150426794Y-77704589D01*
X150426794Y-77704590D01*
X150466263Y-77772951D01*
X150479520Y-77795913D01*
X150554087Y-77870480D01*
X150645413Y-77923207D01*
X150747273Y-77950500D01*
X150747275Y-77950500D01*
X150852725Y-77950500D01*
X150852727Y-77950500D01*
X150954587Y-77923207D01*
X151045913Y-77870480D01*
X151120480Y-77795913D01*
X151173207Y-77704587D01*
X151200500Y-77602727D01*
X151200500Y-77497273D01*
X151173207Y-77395413D01*
X151120480Y-77304087D01*
X151045913Y-77229520D01*
X150989505Y-77196953D01*
X150989505Y-77196952D01*
X150954589Y-77176794D01*
X150954588Y-77176793D01*
X150954587Y-77176793D01*
X150852727Y-77149500D01*
X150747273Y-77149500D01*
X150645413Y-77176793D01*
X150645412Y-77176793D01*
X150645410Y-77176794D01*
X150645409Y-77176794D01*
X150554089Y-77229518D01*
X150479518Y-77304089D01*
X150426794Y-77395409D01*
X150426794Y-77395410D01*
X150426793Y-77395412D01*
X150426793Y-77395413D01*
X150399500Y-77497273D01*
X143085058Y-77497273D01*
X143121658Y-77408913D01*
X143150500Y-77263918D01*
X143150500Y-77116082D01*
X143150500Y-77116081D01*
X156889500Y-77116081D01*
X156889500Y-77263918D01*
X156918342Y-77408914D01*
X156954942Y-77497273D01*
X156974916Y-77545495D01*
X157057049Y-77668416D01*
X157161584Y-77772951D01*
X157284505Y-77855084D01*
X157421087Y-77911658D01*
X157566082Y-77940500D01*
X157566083Y-77940500D01*
X157713917Y-77940500D01*
X157713918Y-77940500D01*
X157858913Y-77911658D01*
X157995495Y-77855084D01*
X158118416Y-77772951D01*
X158222951Y-77668416D01*
X158305084Y-77545495D01*
X158361658Y-77408913D01*
X158390500Y-77263918D01*
X158390500Y-77116082D01*
X158390500Y-77116081D01*
X161969500Y-77116081D01*
X161969500Y-77263918D01*
X161998342Y-77408914D01*
X162034942Y-77497273D01*
X162054916Y-77545495D01*
X162137049Y-77668416D01*
X162241584Y-77772951D01*
X162364505Y-77855084D01*
X162501087Y-77911658D01*
X162646082Y-77940500D01*
X162646083Y-77940500D01*
X162793917Y-77940500D01*
X162793918Y-77940500D01*
X162938913Y-77911658D01*
X163075495Y-77855084D01*
X163198416Y-77772951D01*
X163302951Y-77668416D01*
X163385084Y-77545495D01*
X163441658Y-77408913D01*
X163470500Y-77263918D01*
X163470500Y-77116082D01*
X163441658Y-76971087D01*
X163385084Y-76834505D01*
X163302951Y-76711584D01*
X163198416Y-76607049D01*
X163075495Y-76524916D01*
X163026424Y-76504590D01*
X162938914Y-76468342D01*
X162793918Y-76439500D01*
X162646082Y-76439500D01*
X162646081Y-76439500D01*
X162501085Y-76468342D01*
X162364506Y-76524915D01*
X162241585Y-76607048D01*
X162137048Y-76711585D01*
X162054915Y-76834506D01*
X161998342Y-76971085D01*
X161969500Y-77116081D01*
X158390500Y-77116081D01*
X158361658Y-76971087D01*
X158305084Y-76834505D01*
X158222951Y-76711584D01*
X158118416Y-76607049D01*
X157995495Y-76524916D01*
X157946424Y-76504590D01*
X157858914Y-76468342D01*
X157713918Y-76439500D01*
X157566082Y-76439500D01*
X157566081Y-76439500D01*
X157421085Y-76468342D01*
X157284506Y-76524915D01*
X157161585Y-76607048D01*
X157057048Y-76711585D01*
X156974915Y-76834506D01*
X156918342Y-76971085D01*
X156889500Y-77116081D01*
X143150500Y-77116081D01*
X143121658Y-76971087D01*
X143065084Y-76834505D01*
X142982951Y-76711584D01*
X142878416Y-76607049D01*
X142755495Y-76524916D01*
X142706424Y-76504590D01*
X142618914Y-76468342D01*
X142473918Y-76439500D01*
X142326082Y-76439500D01*
X142326081Y-76439500D01*
X142181085Y-76468342D01*
X142044506Y-76524915D01*
X141921585Y-76607048D01*
X141817048Y-76711585D01*
X141734915Y-76834506D01*
X141678342Y-76971085D01*
X141649500Y-77116081D01*
X138070500Y-77116081D01*
X138041658Y-76971087D01*
X137985084Y-76834505D01*
X137902951Y-76711584D01*
X137798416Y-76607049D01*
X137675495Y-76524916D01*
X137626424Y-76504590D01*
X137538914Y-76468342D01*
X137393918Y-76439500D01*
X137246082Y-76439500D01*
X137246081Y-76439500D01*
X137101085Y-76468342D01*
X136964506Y-76524915D01*
X136841585Y-76607048D01*
X136737048Y-76711585D01*
X136654915Y-76834506D01*
X136598342Y-76971085D01*
X136569500Y-77116081D01*
X135800500Y-77116081D01*
X135800500Y-76297273D01*
X150399500Y-76297273D01*
X150399500Y-76402727D01*
X150426793Y-76504587D01*
X150426794Y-76504589D01*
X150426794Y-76504590D01*
X150479518Y-76595910D01*
X150479520Y-76595913D01*
X150554087Y-76670480D01*
X150645413Y-76723207D01*
X150747273Y-76750500D01*
X150747275Y-76750500D01*
X150852725Y-76750500D01*
X150852727Y-76750500D01*
X150954587Y-76723207D01*
X151045913Y-76670480D01*
X151120480Y-76595913D01*
X151173207Y-76504587D01*
X151200500Y-76402727D01*
X151200500Y-76297273D01*
X151173207Y-76195413D01*
X151120480Y-76104087D01*
X151045913Y-76029520D01*
X150954587Y-75976793D01*
X150852727Y-75949500D01*
X150747273Y-75949500D01*
X150645413Y-75976793D01*
X150645412Y-75976793D01*
X150645410Y-75976794D01*
X150645409Y-75976794D01*
X150554089Y-76029518D01*
X150479518Y-76104089D01*
X150426794Y-76195409D01*
X150426794Y-76195410D01*
X150426793Y-76195412D01*
X150426793Y-76195413D01*
X150399500Y-76297273D01*
X135800500Y-76297273D01*
X135800500Y-74576081D01*
X136569500Y-74576081D01*
X136569500Y-74723918D01*
X136598342Y-74868914D01*
X136650740Y-74995413D01*
X136654916Y-75005495D01*
X136737049Y-75128416D01*
X136841584Y-75232951D01*
X136964505Y-75315084D01*
X137101087Y-75371658D01*
X137246082Y-75400500D01*
X137246083Y-75400500D01*
X137393917Y-75400500D01*
X137393918Y-75400500D01*
X137538913Y-75371658D01*
X137675495Y-75315084D01*
X137798416Y-75232951D01*
X137902951Y-75128416D01*
X137985084Y-75005495D01*
X138041658Y-74868913D01*
X138070500Y-74723918D01*
X138070500Y-74576082D01*
X138070500Y-74576081D01*
X141649500Y-74576081D01*
X141649500Y-74723918D01*
X141678342Y-74868914D01*
X141730740Y-74995413D01*
X141734916Y-75005495D01*
X141817049Y-75128416D01*
X141921584Y-75232951D01*
X142044505Y-75315084D01*
X142181087Y-75371658D01*
X142326082Y-75400500D01*
X142326083Y-75400500D01*
X142473917Y-75400500D01*
X142473918Y-75400500D01*
X142618913Y-75371658D01*
X142755495Y-75315084D01*
X142878416Y-75232951D01*
X142982951Y-75128416D01*
X143003760Y-75097273D01*
X150399500Y-75097273D01*
X150399500Y-75202727D01*
X150426793Y-75304587D01*
X150426794Y-75304589D01*
X150426794Y-75304590D01*
X150465516Y-75371658D01*
X150479520Y-75395913D01*
X150554087Y-75470480D01*
X150645413Y-75523207D01*
X150747273Y-75550500D01*
X150747275Y-75550500D01*
X150852725Y-75550500D01*
X150852727Y-75550500D01*
X150954587Y-75523207D01*
X151045913Y-75470480D01*
X151120480Y-75395913D01*
X151173207Y-75304587D01*
X151200500Y-75202727D01*
X151200500Y-75097273D01*
X151173207Y-74995413D01*
X151120480Y-74904087D01*
X151045913Y-74829520D01*
X150954587Y-74776793D01*
X150852727Y-74749500D01*
X150747273Y-74749500D01*
X150645413Y-74776793D01*
X150645412Y-74776793D01*
X150645410Y-74776794D01*
X150645409Y-74776794D01*
X150554089Y-74829518D01*
X150479518Y-74904089D01*
X150426794Y-74995409D01*
X150426794Y-74995410D01*
X150426793Y-74995412D01*
X150426793Y-74995413D01*
X150399500Y-75097273D01*
X143003760Y-75097273D01*
X143065084Y-75005495D01*
X143121658Y-74868913D01*
X143150500Y-74723918D01*
X143150500Y-74576082D01*
X143150500Y-74576081D01*
X156889500Y-74576081D01*
X156889500Y-74723918D01*
X156918342Y-74868914D01*
X156970740Y-74995413D01*
X156974916Y-75005495D01*
X157057049Y-75128416D01*
X157161584Y-75232951D01*
X157284505Y-75315084D01*
X157421087Y-75371658D01*
X157566082Y-75400500D01*
X157566083Y-75400500D01*
X157713917Y-75400500D01*
X157713918Y-75400500D01*
X157858913Y-75371658D01*
X157995495Y-75315084D01*
X158118416Y-75232951D01*
X158222951Y-75128416D01*
X158305084Y-75005495D01*
X158361658Y-74868913D01*
X158390500Y-74723918D01*
X158390500Y-74576082D01*
X158390500Y-74576081D01*
X161969500Y-74576081D01*
X161969500Y-74723918D01*
X161998342Y-74868914D01*
X162050740Y-74995413D01*
X162054916Y-75005495D01*
X162137049Y-75128416D01*
X162241584Y-75232951D01*
X162364505Y-75315084D01*
X162501087Y-75371658D01*
X162646082Y-75400500D01*
X162646083Y-75400500D01*
X162793917Y-75400500D01*
X162793918Y-75400500D01*
X162938913Y-75371658D01*
X163075495Y-75315084D01*
X163198416Y-75232951D01*
X163302951Y-75128416D01*
X163385084Y-75005495D01*
X163441658Y-74868913D01*
X163470500Y-74723918D01*
X163470500Y-74576082D01*
X163441658Y-74431087D01*
X163385084Y-74294505D01*
X163302951Y-74171584D01*
X163198416Y-74067049D01*
X163075495Y-73984916D01*
X163069054Y-73982248D01*
X162938914Y-73928342D01*
X162793918Y-73899500D01*
X162646082Y-73899500D01*
X162646081Y-73899500D01*
X162501085Y-73928342D01*
X162364506Y-73984915D01*
X162241585Y-74067048D01*
X162137048Y-74171585D01*
X162054915Y-74294506D01*
X161998342Y-74431085D01*
X161969500Y-74576081D01*
X158390500Y-74576081D01*
X158361658Y-74431087D01*
X158305084Y-74294505D01*
X158222951Y-74171584D01*
X158118416Y-74067049D01*
X157995495Y-73984916D01*
X157989054Y-73982248D01*
X157858914Y-73928342D01*
X157713918Y-73899500D01*
X157566082Y-73899500D01*
X157566081Y-73899500D01*
X157421085Y-73928342D01*
X157284506Y-73984915D01*
X157161585Y-74067048D01*
X157057048Y-74171585D01*
X156974915Y-74294506D01*
X156918342Y-74431085D01*
X156889500Y-74576081D01*
X143150500Y-74576081D01*
X143121658Y-74431087D01*
X143065084Y-74294505D01*
X142982951Y-74171584D01*
X142878416Y-74067049D01*
X142755495Y-73984916D01*
X142749054Y-73982248D01*
X142749053Y-73982247D01*
X142618914Y-73928342D01*
X142473918Y-73899500D01*
X142326082Y-73899500D01*
X142326081Y-73899500D01*
X142181085Y-73928342D01*
X142044506Y-73984915D01*
X141921585Y-74067048D01*
X141817048Y-74171585D01*
X141734915Y-74294506D01*
X141678342Y-74431085D01*
X141649500Y-74576081D01*
X138070500Y-74576081D01*
X138041658Y-74431087D01*
X137985084Y-74294505D01*
X137902951Y-74171584D01*
X137798416Y-74067049D01*
X137675495Y-73984916D01*
X137669054Y-73982248D01*
X137538914Y-73928342D01*
X137393918Y-73899500D01*
X137246082Y-73899500D01*
X137246081Y-73899500D01*
X137101085Y-73928342D01*
X136964506Y-73984915D01*
X136841585Y-74067048D01*
X136737048Y-74171585D01*
X136654915Y-74294506D01*
X136598342Y-74431085D01*
X136569500Y-74576081D01*
X135800500Y-74576081D01*
X135800500Y-73897273D01*
X150399500Y-73897273D01*
X150399500Y-74002727D01*
X150416735Y-74067048D01*
X150426794Y-74104589D01*
X150426794Y-74104590D01*
X150465474Y-74171585D01*
X150479520Y-74195913D01*
X150554087Y-74270480D01*
X150645413Y-74323207D01*
X150747273Y-74350500D01*
X150747275Y-74350500D01*
X150852725Y-74350500D01*
X150852727Y-74350500D01*
X150954587Y-74323207D01*
X151045913Y-74270480D01*
X151120480Y-74195913D01*
X151173207Y-74104587D01*
X151200500Y-74002727D01*
X151200500Y-73897273D01*
X151173207Y-73795413D01*
X151120480Y-73704087D01*
X151045913Y-73629520D01*
X150954587Y-73576793D01*
X150852727Y-73549500D01*
X150747273Y-73549500D01*
X150645413Y-73576793D01*
X150645412Y-73576793D01*
X150645410Y-73576794D01*
X150645409Y-73576794D01*
X150554089Y-73629518D01*
X150479518Y-73704089D01*
X150426794Y-73795409D01*
X150426794Y-73795410D01*
X150426793Y-73795412D01*
X150426793Y-73795413D01*
X150399500Y-73897273D01*
X135800500Y-73897273D01*
X135800500Y-73249500D01*
X135819407Y-73191309D01*
X135868907Y-73155345D01*
X135899500Y-73150500D01*
X164100500Y-73150500D01*
X164158691Y-73169407D01*
G37*
%TD.AperFunction*%
%TD*%
M02*
