%TF.GenerationSoftware,KiCad,Pcbnew,9.0.3*%
%TF.CreationDate,2025-07-14T16:06:07+02:00*%
%TF.ProjectId,IF-Board,49462d42-6f61-4726-942e-6b696361645f,rev?*%
%TF.SameCoordinates,Original*%
%TF.FileFunction,Copper,L1,Top*%
%TF.FilePolarity,Positive*%
%FSLAX46Y46*%
G04 Gerber Fmt 4.6, Leading zero omitted, Abs format (unit mm)*
G04 Created by KiCad (PCBNEW 9.0.3) date 2025-07-14 16:06:07*
%MOMM*%
%LPD*%
G01*
G04 APERTURE LIST*
G04 Aperture macros list*
%AMRoundRect*
0 Rectangle with rounded corners*
0 $1 Rounding radius*
0 $2 $3 $4 $5 $6 $7 $8 $9 X,Y pos of 4 corners*
0 Add a 4 corners polygon primitive as box body*
4,1,4,$2,$3,$4,$5,$6,$7,$8,$9,$2,$3,0*
0 Add four circle primitives for the rounded corners*
1,1,$1+$1,$2,$3*
1,1,$1+$1,$4,$5*
1,1,$1+$1,$6,$7*
1,1,$1+$1,$8,$9*
0 Add four rect primitives between the rounded corners*
20,1,$1+$1,$2,$3,$4,$5,0*
20,1,$1+$1,$4,$5,$6,$7,0*
20,1,$1+$1,$6,$7,$8,$9,0*
20,1,$1+$1,$8,$9,$2,$3,0*%
G04 Aperture macros list end*
%TA.AperFunction,SMDPad,CuDef*%
%ADD10RoundRect,0.140000X0.140000X0.170000X-0.140000X0.170000X-0.140000X-0.170000X0.140000X-0.170000X0*%
%TD*%
%TA.AperFunction,SMDPad,CuDef*%
%ADD11RoundRect,0.140000X-0.170000X0.140000X-0.170000X-0.140000X0.170000X-0.140000X0.170000X0.140000X0*%
%TD*%
%TA.AperFunction,FiducialPad,Global*%
%ADD12C,1.000000*%
%TD*%
%TA.AperFunction,ComponentPad*%
%ADD13R,1.700000X1.700000*%
%TD*%
%TA.AperFunction,ComponentPad*%
%ADD14C,1.700000*%
%TD*%
%TA.AperFunction,SMDPad,CuDef*%
%ADD15RoundRect,0.140000X-0.140000X-0.170000X0.140000X-0.170000X0.140000X0.170000X-0.140000X0.170000X0*%
%TD*%
%TA.AperFunction,SMDPad,CuDef*%
%ADD16RoundRect,0.100000X0.637500X0.100000X-0.637500X0.100000X-0.637500X-0.100000X0.637500X-0.100000X0*%
%TD*%
%TA.AperFunction,SMDPad,CuDef*%
%ADD17RoundRect,0.225000X0.250000X-0.225000X0.250000X0.225000X-0.250000X0.225000X-0.250000X-0.225000X0*%
%TD*%
%TA.AperFunction,SMDPad,CuDef*%
%ADD18RoundRect,0.135000X-0.185000X0.135000X-0.185000X-0.135000X0.185000X-0.135000X0.185000X0.135000X0*%
%TD*%
%TA.AperFunction,ViaPad*%
%ADD19C,0.500000*%
%TD*%
%TA.AperFunction,Conductor*%
%ADD20C,0.200000*%
%TD*%
%TA.AperFunction,Conductor*%
%ADD21C,0.150000*%
%TD*%
%TA.AperFunction,Conductor*%
%ADD22C,0.300000*%
%TD*%
%TA.AperFunction,Conductor*%
%ADD23C,0.500000*%
%TD*%
%TA.AperFunction,Conductor*%
%ADD24C,0.400000*%
%TD*%
%TA.AperFunction,Conductor*%
%ADD25C,0.750000*%
%TD*%
%TA.AperFunction,Conductor*%
%ADD26C,1.000000*%
%TD*%
G04 APERTURE END LIST*
D10*
%TO.P,C5,1*%
%TO.N,/Level Shifters & CPU Interface/+5V_I*%
X147706000Y-81914400D03*
%TO.P,C5,2*%
%TO.N,/Level Shifters & CPU Interface/GND_I*%
X146746000Y-81914400D03*
%TD*%
D11*
%TO.P,C7,1*%
%TO.N,/Level Shifters & CPU Interface/+5V_I*%
X145041600Y-90652500D03*
%TO.P,C7,2*%
%TO.N,/Level Shifters & CPU Interface/GND_I*%
X145041600Y-91612500D03*
%TD*%
D12*
%TO.P,FID3,*%
%TO.N,*%
X162720000Y-125450000D03*
%TD*%
D13*
%TO.P,J8,1,Pin_1*%
%TO.N,/Level Shifters & CPU Interface/GND_I*%
X157640000Y-125450000D03*
D14*
%TO.P,J8,2,Pin_2*%
%TO.N,/Level Shifters & CPU Interface/+3V3_I*%
X155100000Y-125450000D03*
%TD*%
D13*
%TO.P,J4,1,Pin_1*%
%TO.N,/Level Shifters & CPU Interface/CPU_40*%
X162720000Y-74650000D03*
D14*
%TO.P,J4,2,Pin_2*%
%TO.N,/Level Shifters & CPU Interface/CPU_39*%
X162720000Y-77190000D03*
%TO.P,J4,3,Pin_3*%
%TO.N,/Level Shifters & CPU Interface/CPU_38*%
X162720000Y-79730000D03*
%TO.P,J4,4,Pin_4*%
%TO.N,/Level Shifters & CPU Interface/CPU_37*%
X162720000Y-82270000D03*
%TO.P,J4,5,Pin_5*%
%TO.N,/Level Shifters & CPU Interface/CPU_36*%
X162720000Y-84810000D03*
%TO.P,J4,6,Pin_6*%
%TO.N,/Level Shifters & CPU Interface/CPU_35*%
X162720000Y-87350000D03*
%TO.P,J4,7,Pin_7*%
%TO.N,/Level Shifters & CPU Interface/CPU_34*%
X162720000Y-89890000D03*
%TO.P,J4,8,Pin_8*%
%TO.N,/Level Shifters & CPU Interface/CPU_33*%
X162720000Y-92430000D03*
%TO.P,J4,9,Pin_9*%
%TO.N,/Level Shifters & CPU Interface/CPU_32*%
X162720000Y-94970000D03*
%TO.P,J4,10,Pin_10*%
%TO.N,/Level Shifters & CPU Interface/CPU_31*%
X162720000Y-97510000D03*
%TO.P,J4,11,Pin_11*%
%TO.N,/Level Shifters & CPU Interface/CPU_30*%
X162720000Y-100050000D03*
%TO.P,J4,12,Pin_12*%
%TO.N,/Level Shifters & CPU Interface/CPU_29*%
X162720000Y-102590000D03*
%TO.P,J4,13,Pin_13*%
%TO.N,/Level Shifters & CPU Interface/CPU_28*%
X162720000Y-105130000D03*
%TO.P,J4,14,Pin_14*%
%TO.N,/Level Shifters & CPU Interface/CPU_27*%
X162720000Y-107670000D03*
%TO.P,J4,15,Pin_15*%
%TO.N,/Level Shifters & CPU Interface/CPU_26*%
X162720000Y-110210000D03*
%TO.P,J4,16,Pin_16*%
%TO.N,/Level Shifters & CPU Interface/CPU_25*%
X162720000Y-112750000D03*
%TO.P,J4,17,Pin_17*%
%TO.N,/Level Shifters & CPU Interface/CPU_24*%
X162720000Y-115290000D03*
%TO.P,J4,18,Pin_18*%
%TO.N,/Level Shifters & CPU Interface/CPU_23*%
X162720000Y-117830000D03*
%TO.P,J4,19,Pin_19*%
%TO.N,/Level Shifters & CPU Interface/CPU_22*%
X162720000Y-120370000D03*
%TO.P,J4,20,Pin_20*%
%TO.N,/Level Shifters & CPU Interface/GND_I*%
X162720000Y-122910000D03*
%TD*%
D15*
%TO.P,C6,1*%
%TO.N,/Level Shifters & CPU Interface/+3V3_I*%
X152070000Y-92684000D03*
%TO.P,C6,2*%
%TO.N,/Level Shifters & CPU Interface/GND_I*%
X153030000Y-92684000D03*
%TD*%
D13*
%TO.P,J2,1,Pin_1*%
%TO.N,/Level Shifters & CPU Interface/CPU_1*%
X137320000Y-74650000D03*
D14*
%TO.P,J2,2,Pin_2*%
%TO.N,/Level Shifters & CPU Interface/CPU_2*%
X137320000Y-77190000D03*
%TO.P,J2,3,Pin_3*%
%TO.N,/Level Shifters & CPU Interface/CPU_3*%
X137320000Y-79730000D03*
%TO.P,J2,4,Pin_4*%
%TO.N,/Level Shifters & CPU Interface/CPU_4*%
X137320000Y-82270000D03*
%TO.P,J2,5,Pin_5*%
%TO.N,/Level Shifters & CPU Interface/CPU_5*%
X137320000Y-84810000D03*
%TO.P,J2,6,Pin_6*%
%TO.N,/Level Shifters & CPU Interface/CPU_6*%
X137320000Y-87350000D03*
%TO.P,J2,7,Pin_7*%
%TO.N,/Level Shifters & CPU Interface/CPU_7*%
X137320000Y-89890000D03*
%TO.P,J2,8,Pin_8*%
%TO.N,/Level Shifters & CPU Interface/+5V_I*%
X137320000Y-92430000D03*
%TO.P,J2,9,Pin_9*%
%TO.N,/Level Shifters & CPU Interface/CPU_9*%
X137320000Y-94970000D03*
%TO.P,J2,10,Pin_10*%
%TO.N,/Level Shifters & CPU Interface/CPU_10*%
X137320000Y-97510000D03*
%TO.P,J2,11,Pin_11*%
%TO.N,/Level Shifters & CPU Interface/CPU_11*%
X137320000Y-100050000D03*
%TO.P,J2,12,Pin_12*%
%TO.N,/Level Shifters & CPU Interface/CPU_12*%
X137320000Y-102590000D03*
%TO.P,J2,13,Pin_13*%
%TO.N,/Level Shifters & CPU Interface/CPU_13*%
X137320000Y-105130000D03*
%TO.P,J2,14,Pin_14*%
%TO.N,/Level Shifters & CPU Interface/CPU_14*%
X137320000Y-107670000D03*
%TO.P,J2,15,Pin_15*%
%TO.N,/Level Shifters & CPU Interface/CPU_15*%
X137320000Y-110210000D03*
%TO.P,J2,16,Pin_16*%
%TO.N,/Level Shifters & CPU Interface/CPU_16*%
X137320000Y-112750000D03*
%TO.P,J2,17,Pin_17*%
%TO.N,/Level Shifters & CPU Interface/CPU_17*%
X137320000Y-115290000D03*
%TO.P,J2,18,Pin_18*%
%TO.N,/Level Shifters & CPU Interface/CPU_18*%
X137320000Y-117830000D03*
%TO.P,J2,19,Pin_19*%
%TO.N,/Level Shifters & CPU Interface/CPU_19*%
X137320000Y-120370000D03*
%TO.P,J2,20,Pin_20*%
%TO.N,/Level Shifters & CPU Interface/CPU_20*%
X137320000Y-122910000D03*
%TD*%
D16*
%TO.P,U4,1,A1*%
%TO.N,unconnected-(U4-A1-Pad1)*%
X152882500Y-80475000D03*
%TO.P,U4,2,VCCA*%
%TO.N,/Level Shifters & CPU Interface/+3V3_I*%
X152882500Y-79825000D03*
%TO.P,U4,3,A2*%
%TO.N,/Level Shifters & CPU Interface/CPU_7*%
X152882500Y-79175000D03*
%TO.P,U4,4,A3*%
%TO.N,/Level Shifters & CPU Interface/CPU_6*%
X152882500Y-78525000D03*
%TO.P,U4,5,A4*%
%TO.N,/Level Shifters & CPU Interface/CPU_5*%
X152882500Y-77875000D03*
%TO.P,U4,6,A5*%
%TO.N,/Level Shifters & CPU Interface/CPU_4*%
X152882500Y-77225000D03*
%TO.P,U4,7,A6*%
%TO.N,/Level Shifters & CPU Interface/CPU_3*%
X152882500Y-76575000D03*
%TO.P,U4,8,A7*%
%TO.N,/Level Shifters & CPU Interface/CPU_2*%
X152882500Y-75925000D03*
%TO.P,U4,9,A8*%
%TO.N,/Level Shifters & CPU Interface/CPU_1*%
X152882500Y-75275000D03*
%TO.P,U4,10,OE*%
%TO.N,/Level Shifters & CPU Interface/+5V_I*%
X152882500Y-74625000D03*
%TO.P,U4,11,GND*%
%TO.N,/Level Shifters & CPU Interface/GND_I*%
X147157500Y-74625000D03*
%TO.P,U4,12,B8*%
%TO.N,/Level Shifters & CPU Interface/PIN_1*%
X147157500Y-75275000D03*
%TO.P,U4,13,B7*%
%TO.N,/Level Shifters & CPU Interface/PIN_2*%
X147157500Y-75925000D03*
%TO.P,U4,14,B6*%
%TO.N,/Level Shifters & CPU Interface/PIN_3*%
X147157500Y-76575000D03*
%TO.P,U4,15,B5*%
%TO.N,/Level Shifters & CPU Interface/PIN_4*%
X147157500Y-77225000D03*
%TO.P,U4,16,B4*%
%TO.N,/Level Shifters & CPU Interface/PIN_5*%
X147157500Y-77875000D03*
%TO.P,U4,17,B3*%
%TO.N,/Level Shifters & CPU Interface/PIN_6*%
X147157500Y-78525000D03*
%TO.P,U4,18,B2*%
%TO.N,/Level Shifters & CPU Interface/PIN_7*%
X147157500Y-79175000D03*
%TO.P,U4,19,VCCB*%
%TO.N,/Level Shifters & CPU Interface/+5V_I*%
X147157500Y-79825000D03*
%TO.P,U4,20,B1*%
%TO.N,unconnected-(U4-B1-Pad20)*%
X147157500Y-80475000D03*
%TD*%
%TO.P,U5,1,A1*%
%TO.N,/Level Shifters & CPU Interface/CPU_33*%
X152645000Y-91225000D03*
%TO.P,U5,2,VCCA*%
%TO.N,/Level Shifters & CPU Interface/+3V3_I*%
X152645000Y-90575000D03*
%TO.P,U5,3,A2*%
%TO.N,/Level Shifters & CPU Interface/CPU_34*%
X152645000Y-89925000D03*
%TO.P,U5,4,A3*%
%TO.N,/Level Shifters & CPU Interface/CPU_35*%
X152645000Y-89275000D03*
%TO.P,U5,5,A4*%
%TO.N,/Level Shifters & CPU Interface/CPU_36*%
X152645000Y-88625000D03*
%TO.P,U5,6,A5*%
%TO.N,/Level Shifters & CPU Interface/CPU_37*%
X152645000Y-87975000D03*
%TO.P,U5,7,A6*%
%TO.N,/Level Shifters & CPU Interface/CPU_38*%
X152645000Y-87325000D03*
%TO.P,U5,8,A7*%
%TO.N,/Level Shifters & CPU Interface/CPU_39*%
X152645000Y-86675000D03*
%TO.P,U5,9,A8*%
%TO.N,/Level Shifters & CPU Interface/CPU_40*%
X152645000Y-86025000D03*
%TO.P,U5,10,OE*%
%TO.N,/Level Shifters & CPU Interface/+5V_I*%
X152645000Y-85375000D03*
%TO.P,U5,11,GND*%
%TO.N,/Level Shifters & CPU Interface/GND_I*%
X146920000Y-85375000D03*
%TO.P,U5,12,B8*%
%TO.N,/Level Shifters & CPU Interface/PIN_40*%
X146920000Y-86025000D03*
%TO.P,U5,13,B7*%
%TO.N,/Level Shifters & CPU Interface/PIN_39*%
X146920000Y-86675000D03*
%TO.P,U5,14,B6*%
%TO.N,/Level Shifters & CPU Interface/PIN_38*%
X146920000Y-87325000D03*
%TO.P,U5,15,B5*%
%TO.N,/Level Shifters & CPU Interface/PIN_37*%
X146920000Y-87975000D03*
%TO.P,U5,16,B4*%
%TO.N,/Level Shifters & CPU Interface/PIN_36*%
X146920000Y-88625000D03*
%TO.P,U5,17,B3*%
%TO.N,/Level Shifters & CPU Interface/PIN_35*%
X146920000Y-89275000D03*
%TO.P,U5,18,B2*%
%TO.N,/Level Shifters & CPU Interface/PIN_34*%
X146920000Y-89925000D03*
%TO.P,U5,19,VCCB*%
%TO.N,/Level Shifters & CPU Interface/+5V_I*%
X146920000Y-90575000D03*
%TO.P,U5,20,B1*%
%TO.N,/Level Shifters & CPU Interface/PIN_33*%
X146920000Y-91225000D03*
%TD*%
D17*
%TO.P,C14,1*%
%TO.N,/Level Shifters & CPU Interface/+3V3_I*%
X155100000Y-122769500D03*
%TO.P,C14,2*%
%TO.N,/Level Shifters & CPU Interface/GND_I*%
X155100000Y-121219500D03*
%TD*%
D12*
%TO.P,FID1,*%
%TO.N,*%
X160180000Y-74650000D03*
%TD*%
D18*
%TO.P,R15,1*%
%TO.N,/Level Shifters & CPU Interface/+5V_I*%
X139860000Y-94204000D03*
%TO.P,R15,2*%
%TO.N,/Level Shifters & CPU Interface/GND_I*%
X139860000Y-95224000D03*
%TD*%
D16*
%TO.P,U7,1,A1*%
%TO.N,/Level Shifters & CPU Interface/CPU_25*%
X152645000Y-112725000D03*
%TO.P,U7,2,VCCA*%
%TO.N,/Level Shifters & CPU Interface/+3V3_I*%
X152645000Y-112075000D03*
%TO.P,U7,3,A2*%
%TO.N,/Level Shifters & CPU Interface/CPU_26*%
X152645000Y-111425000D03*
%TO.P,U7,4,A3*%
%TO.N,/Level Shifters & CPU Interface/CPU_27*%
X152645000Y-110775000D03*
%TO.P,U7,5,A4*%
%TO.N,/Level Shifters & CPU Interface/CPU_28*%
X152645000Y-110125000D03*
%TO.P,U7,6,A5*%
%TO.N,/Level Shifters & CPU Interface/CPU_29*%
X152645000Y-109475000D03*
%TO.P,U7,7,A6*%
%TO.N,/Level Shifters & CPU Interface/CPU_30*%
X152645000Y-108825000D03*
%TO.P,U7,8,A7*%
%TO.N,/Level Shifters & CPU Interface/CPU_31*%
X152645000Y-108175000D03*
%TO.P,U7,9,A8*%
%TO.N,/Level Shifters & CPU Interface/CPU_32*%
X152645000Y-107525000D03*
%TO.P,U7,10,OE*%
%TO.N,/Level Shifters & CPU Interface/+5V_I*%
X152645000Y-106875000D03*
%TO.P,U7,11,GND*%
%TO.N,/Level Shifters & CPU Interface/GND_I*%
X146920000Y-106875000D03*
%TO.P,U7,12,B8*%
%TO.N,/Level Shifters & CPU Interface/PIN_32*%
X146920000Y-107525000D03*
%TO.P,U7,13,B7*%
%TO.N,/Level Shifters & CPU Interface/PIN_31*%
X146920000Y-108175000D03*
%TO.P,U7,14,B6*%
%TO.N,/Level Shifters & CPU Interface/PIN_30*%
X146920000Y-108825000D03*
%TO.P,U7,15,B5*%
%TO.N,/Level Shifters & CPU Interface/PIN_29*%
X146920000Y-109475000D03*
%TO.P,U7,16,B4*%
%TO.N,/Level Shifters & CPU Interface/PIN_28*%
X146920000Y-110125000D03*
%TO.P,U7,17,B3*%
%TO.N,/Level Shifters & CPU Interface/PIN_27*%
X146920000Y-110775000D03*
%TO.P,U7,18,B2*%
%TO.N,/Level Shifters & CPU Interface/PIN_26*%
X146920000Y-111425000D03*
%TO.P,U7,19,VCCB*%
%TO.N,/Level Shifters & CPU Interface/+5V_I*%
X146920000Y-112075000D03*
%TO.P,U7,20,B1*%
%TO.N,/Level Shifters & CPU Interface/PIN_25*%
X146920000Y-112725000D03*
%TD*%
D10*
%TO.P,C8,1*%
%TO.N,/Level Shifters & CPU Interface/+3V3_I*%
X152880000Y-103450000D03*
%TO.P,C8,2*%
%TO.N,/Level Shifters & CPU Interface/GND_I*%
X151920000Y-103450000D03*
%TD*%
D15*
%TO.P,C10,1*%
%TO.N,/Level Shifters & CPU Interface/+3V3_I*%
X152070000Y-114172400D03*
%TO.P,C10,2*%
%TO.N,/Level Shifters & CPU Interface/GND_I*%
X153030000Y-114172400D03*
%TD*%
D11*
%TO.P,C13,1*%
%TO.N,/Level Shifters & CPU Interface/+5V_I*%
X145000000Y-122870000D03*
%TO.P,C13,2*%
%TO.N,/Level Shifters & CPU Interface/GND_I*%
X145000000Y-123830000D03*
%TD*%
D16*
%TO.P,U6,1,A1*%
%TO.N,/Level Shifters & CPU Interface/CPU_16*%
X152645000Y-101975000D03*
%TO.P,U6,2,VCCA*%
%TO.N,/Level Shifters & CPU Interface/+3V3_I*%
X152645000Y-101325000D03*
%TO.P,U6,3,A2*%
%TO.N,/Level Shifters & CPU Interface/CPU_15*%
X152645000Y-100675000D03*
%TO.P,U6,4,A3*%
%TO.N,/Level Shifters & CPU Interface/CPU_14*%
X152645000Y-100025000D03*
%TO.P,U6,5,A4*%
%TO.N,/Level Shifters & CPU Interface/CPU_13*%
X152645000Y-99375000D03*
%TO.P,U6,6,A5*%
%TO.N,/Level Shifters & CPU Interface/CPU_12*%
X152645000Y-98725000D03*
%TO.P,U6,7,A6*%
%TO.N,/Level Shifters & CPU Interface/CPU_11*%
X152645000Y-98075000D03*
%TO.P,U6,8,A7*%
%TO.N,/Level Shifters & CPU Interface/CPU_10*%
X152645000Y-97425000D03*
%TO.P,U6,9,A8*%
%TO.N,/Level Shifters & CPU Interface/CPU_9*%
X152645000Y-96775000D03*
%TO.P,U6,10,OE*%
%TO.N,/Level Shifters & CPU Interface/+5V_I*%
X152645000Y-96125000D03*
%TO.P,U6,11,GND*%
%TO.N,/Level Shifters & CPU Interface/GND_I*%
X146920000Y-96125000D03*
%TO.P,U6,12,B8*%
%TO.N,/Level Shifters & CPU Interface/PIN_9*%
X146920000Y-96775000D03*
%TO.P,U6,13,B7*%
%TO.N,/Level Shifters & CPU Interface/PIN_10*%
X146920000Y-97425000D03*
%TO.P,U6,14,B6*%
%TO.N,/Level Shifters & CPU Interface/PIN_11*%
X146920000Y-98075000D03*
%TO.P,U6,15,B5*%
%TO.N,/Level Shifters & CPU Interface/PIN_12*%
X146920000Y-98725000D03*
%TO.P,U6,16,B4*%
%TO.N,/Level Shifters & CPU Interface/PIN_13*%
X146920000Y-99375000D03*
%TO.P,U6,17,B3*%
%TO.N,/Level Shifters & CPU Interface/PIN_14*%
X146920000Y-100025000D03*
%TO.P,U6,18,B2*%
%TO.N,/Level Shifters & CPU Interface/PIN_15*%
X146920000Y-100675000D03*
%TO.P,U6,19,VCCB*%
%TO.N,/Level Shifters & CPU Interface/+5V_I*%
X146920000Y-101325000D03*
%TO.P,U6,20,B1*%
%TO.N,/Level Shifters & CPU Interface/PIN_16*%
X146920000Y-101975000D03*
%TD*%
D17*
%TO.P,C15,1*%
%TO.N,/Level Shifters & CPU Interface/+5V_I*%
X139860000Y-92443000D03*
%TO.P,C15,2*%
%TO.N,/Level Shifters & CPU Interface/GND_I*%
X139860000Y-90893000D03*
%TD*%
D12*
%TO.P,FID2,*%
%TO.N,*%
X137320000Y-125450000D03*
%TD*%
D10*
%TO.P,C9,1*%
%TO.N,/Level Shifters & CPU Interface/+5V_I*%
X147480000Y-103402800D03*
%TO.P,C9,2*%
%TO.N,/Level Shifters & CPU Interface/GND_I*%
X146520000Y-103402800D03*
%TD*%
D16*
%TO.P,U8,1,A1*%
%TO.N,unconnected-(U8-A1-Pad1)*%
X152645000Y-123475000D03*
%TO.P,U8,2,VCCA*%
%TO.N,/Level Shifters & CPU Interface/+3V3_I*%
X152645000Y-122825000D03*
%TO.P,U8,3,A2*%
%TO.N,/Level Shifters & CPU Interface/CPU_20*%
X152645000Y-122175000D03*
%TO.P,U8,4,A3*%
%TO.N,/Level Shifters & CPU Interface/CPU_19*%
X152645000Y-121525000D03*
%TO.P,U8,5,A4*%
%TO.N,/Level Shifters & CPU Interface/CPU_18*%
X152645000Y-120875000D03*
%TO.P,U8,6,A5*%
%TO.N,/Level Shifters & CPU Interface/CPU_17*%
X152645000Y-120225000D03*
%TO.P,U8,7,A6*%
%TO.N,/Level Shifters & CPU Interface/CPU_22*%
X152645000Y-119575000D03*
%TO.P,U8,8,A7*%
%TO.N,/Level Shifters & CPU Interface/CPU_23*%
X152645000Y-118925000D03*
%TO.P,U8,9,A8*%
%TO.N,/Level Shifters & CPU Interface/CPU_24*%
X152645000Y-118275000D03*
%TO.P,U8,10,OE*%
%TO.N,/Level Shifters & CPU Interface/+5V_I*%
X152645000Y-117625000D03*
%TO.P,U8,11,GND*%
%TO.N,/Level Shifters & CPU Interface/GND_I*%
X146920000Y-117625000D03*
%TO.P,U8,12,B8*%
%TO.N,/Level Shifters & CPU Interface/PIN_24*%
X146920000Y-118275000D03*
%TO.P,U8,13,B7*%
%TO.N,/Level Shifters & CPU Interface/PIN_23*%
X146920000Y-118925000D03*
%TO.P,U8,14,B6*%
%TO.N,/Level Shifters & CPU Interface/PIN_22*%
X146920000Y-119575000D03*
%TO.P,U8,15,B5*%
%TO.N,/Level Shifters & CPU Interface/PIN_17*%
X146920000Y-120225000D03*
%TO.P,U8,16,B4*%
%TO.N,/Level Shifters & CPU Interface/PIN_18*%
X146920000Y-120875000D03*
%TO.P,U8,17,B3*%
%TO.N,/Level Shifters & CPU Interface/PIN_19*%
X146920000Y-121525000D03*
%TO.P,U8,18,B2*%
%TO.N,/Level Shifters & CPU Interface/PIN_20*%
X146920000Y-122175000D03*
%TO.P,U8,19,VCCB*%
%TO.N,/Level Shifters & CPU Interface/+5V_I*%
X146920000Y-122825000D03*
%TO.P,U8,20,B1*%
%TO.N,unconnected-(U8-B1-Pad20)*%
X146920000Y-123475000D03*
%TD*%
D10*
%TO.P,C12,1*%
%TO.N,/Level Shifters & CPU Interface/+3V3_I*%
X151770000Y-124942000D03*
%TO.P,C12,2*%
%TO.N,/Level Shifters & CPU Interface/GND_I*%
X150810000Y-124942000D03*
%TD*%
D11*
%TO.P,C11,1*%
%TO.N,/Level Shifters & CPU Interface/+5V_I*%
X145041600Y-112066800D03*
%TO.P,C11,2*%
%TO.N,/Level Shifters & CPU Interface/GND_I*%
X145041600Y-113026800D03*
%TD*%
D15*
%TO.P,C4,1*%
%TO.N,/Level Shifters & CPU Interface/+3V3_I*%
X152283200Y-81914400D03*
%TO.P,C4,2*%
%TO.N,/Level Shifters & CPU Interface/GND_I*%
X153243200Y-81914400D03*
%TD*%
D13*
%TO.P,J11,1,Pin_1*%
%TO.N,/Level Shifters & CPU Interface/PIN_1*%
X142400000Y-74650000D03*
D14*
%TO.P,J11,2,Pin_2*%
%TO.N,/Level Shifters & CPU Interface/PIN_2*%
X142400000Y-77190000D03*
%TO.P,J11,3,Pin_3*%
%TO.N,/Level Shifters & CPU Interface/PIN_3*%
X142400000Y-79730000D03*
%TO.P,J11,4,Pin_4*%
%TO.N,/Level Shifters & CPU Interface/PIN_4*%
X142400000Y-82270000D03*
%TO.P,J11,5,Pin_5*%
%TO.N,/Level Shifters & CPU Interface/PIN_5*%
X142400000Y-84810000D03*
%TO.P,J11,6,Pin_6*%
%TO.N,/Level Shifters & CPU Interface/PIN_6*%
X142400000Y-87350000D03*
%TO.P,J11,7,Pin_7*%
%TO.N,/Level Shifters & CPU Interface/PIN_7*%
X142400000Y-89890000D03*
%TO.P,J11,8,Pin_8*%
%TO.N,/Level Shifters & CPU Interface/+5V_I*%
X142400000Y-92430000D03*
%TO.P,J11,9,Pin_9*%
%TO.N,/Level Shifters & CPU Interface/PIN_9*%
X142400000Y-94970000D03*
%TO.P,J11,10,Pin_10*%
%TO.N,/Level Shifters & CPU Interface/PIN_10*%
X142400000Y-97510000D03*
%TO.P,J11,11,Pin_11*%
%TO.N,/Level Shifters & CPU Interface/PIN_11*%
X142400000Y-100050000D03*
%TO.P,J11,12,Pin_12*%
%TO.N,/Level Shifters & CPU Interface/PIN_12*%
X142400000Y-102590000D03*
%TO.P,J11,13,Pin_13*%
%TO.N,/Level Shifters & CPU Interface/PIN_13*%
X142400000Y-105130000D03*
%TO.P,J11,14,Pin_14*%
%TO.N,/Level Shifters & CPU Interface/PIN_14*%
X142400000Y-107670000D03*
%TO.P,J11,15,Pin_15*%
%TO.N,/Level Shifters & CPU Interface/PIN_15*%
X142400000Y-110210000D03*
%TO.P,J11,16,Pin_16*%
%TO.N,/Level Shifters & CPU Interface/PIN_16*%
X142400000Y-112750000D03*
%TO.P,J11,17,Pin_17*%
%TO.N,/Level Shifters & CPU Interface/PIN_17*%
X142400000Y-115290000D03*
%TO.P,J11,18,Pin_18*%
%TO.N,/Level Shifters & CPU Interface/PIN_18*%
X142400000Y-117830000D03*
%TO.P,J11,19,Pin_19*%
%TO.N,/Level Shifters & CPU Interface/PIN_19*%
X142400000Y-120370000D03*
%TO.P,J11,20,Pin_20*%
%TO.N,/Level Shifters & CPU Interface/PIN_20*%
X142400000Y-122910000D03*
%TD*%
D13*
%TO.P,J10,1,Pin_1*%
%TO.N,/Level Shifters & CPU Interface/PIN_40*%
X157640000Y-74650000D03*
D14*
%TO.P,J10,2,Pin_2*%
%TO.N,/Level Shifters & CPU Interface/PIN_39*%
X157640000Y-77190000D03*
%TO.P,J10,3,Pin_3*%
%TO.N,/Level Shifters & CPU Interface/PIN_38*%
X157640000Y-79730000D03*
%TO.P,J10,4,Pin_4*%
%TO.N,/Level Shifters & CPU Interface/PIN_37*%
X157640000Y-82270000D03*
%TO.P,J10,5,Pin_5*%
%TO.N,/Level Shifters & CPU Interface/PIN_36*%
X157640000Y-84810000D03*
%TO.P,J10,6,Pin_6*%
%TO.N,/Level Shifters & CPU Interface/PIN_35*%
X157640000Y-87350000D03*
%TO.P,J10,7,Pin_7*%
%TO.N,/Level Shifters & CPU Interface/PIN_34*%
X157640000Y-89890000D03*
%TO.P,J10,8,Pin_8*%
%TO.N,/Level Shifters & CPU Interface/PIN_33*%
X157640000Y-92430000D03*
%TO.P,J10,9,Pin_9*%
%TO.N,/Level Shifters & CPU Interface/PIN_32*%
X157640000Y-94970000D03*
%TO.P,J10,10,Pin_10*%
%TO.N,/Level Shifters & CPU Interface/PIN_31*%
X157640000Y-97510000D03*
%TO.P,J10,11,Pin_11*%
%TO.N,/Level Shifters & CPU Interface/PIN_30*%
X157640000Y-100050000D03*
%TO.P,J10,12,Pin_12*%
%TO.N,/Level Shifters & CPU Interface/PIN_29*%
X157640000Y-102590000D03*
%TO.P,J10,13,Pin_13*%
%TO.N,/Level Shifters & CPU Interface/PIN_28*%
X157640000Y-105130000D03*
%TO.P,J10,14,Pin_14*%
%TO.N,/Level Shifters & CPU Interface/PIN_27*%
X157640000Y-107670000D03*
%TO.P,J10,15,Pin_15*%
%TO.N,/Level Shifters & CPU Interface/PIN_26*%
X157640000Y-110210000D03*
%TO.P,J10,16,Pin_16*%
%TO.N,/Level Shifters & CPU Interface/PIN_25*%
X157640000Y-112750000D03*
%TO.P,J10,17,Pin_17*%
%TO.N,/Level Shifters & CPU Interface/PIN_24*%
X157640000Y-115290000D03*
%TO.P,J10,18,Pin_18*%
%TO.N,/Level Shifters & CPU Interface/PIN_23*%
X157640000Y-117830000D03*
%TO.P,J10,19,Pin_19*%
%TO.N,/Level Shifters & CPU Interface/PIN_22*%
X157640000Y-120370000D03*
%TO.P,J10,20,Pin_20*%
%TO.N,/Level Shifters & CPU Interface/GND_I*%
X157640000Y-122910000D03*
%TD*%
D19*
%TO.N,/Level Shifters & CPU Interface/PIN_37*%
X148800000Y-87650000D03*
%TO.N,/Level Shifters & CPU Interface/PIN_28*%
X148800000Y-110850000D03*
%TO.N,/Level Shifters & CPU Interface/PIN_26*%
X148800000Y-113050000D03*
%TO.N,/Level Shifters & CPU Interface/PIN_22*%
X148800000Y-118650000D03*
%TO.N,/Level Shifters & CPU Interface/PIN_34*%
X148800000Y-91250000D03*
%TO.N,/Level Shifters & CPU Interface/PIN_38*%
X148800000Y-86450000D03*
%TO.N,/Level Shifters & CPU Interface/PIN_25*%
X148800000Y-114150000D03*
%TO.N,/Level Shifters & CPU Interface/PIN_31*%
X148800000Y-107550000D03*
%TO.N,/Level Shifters & CPU Interface/PIN_27*%
X148800000Y-111950000D03*
%TO.N,/Level Shifters & CPU Interface/PIN_24*%
X148800000Y-116250000D03*
%TO.N,/Level Shifters & CPU Interface/PIN_39*%
X148800000Y-85250000D03*
%TO.N,/Level Shifters & CPU Interface/PIN_32*%
X148800000Y-106450000D03*
%TO.N,/Level Shifters & CPU Interface/PIN_35*%
X148800000Y-90050000D03*
%TO.N,/Level Shifters & CPU Interface/PIN_40*%
X148800000Y-84050000D03*
%TO.N,/Level Shifters & CPU Interface/PIN_33*%
X148800000Y-92450000D03*
%TO.N,/Level Shifters & CPU Interface/PIN_29*%
X148800000Y-109750000D03*
%TO.N,/Level Shifters & CPU Interface/PIN_30*%
X148800000Y-108650000D03*
%TO.N,/Level Shifters & CPU Interface/PIN_23*%
X148800000Y-117450000D03*
%TO.N,/Level Shifters & CPU Interface/PIN_36*%
X148800000Y-88850000D03*
%TO.N,/Level Shifters & CPU Interface/CPU_4*%
X150800000Y-77550000D03*
%TO.N,/Level Shifters & CPU Interface/CPU_14*%
X150800000Y-101150000D03*
%TO.N,/Level Shifters & CPU Interface/CPU_17*%
X150700000Y-120150000D03*
%TO.N,/Level Shifters & CPU Interface/CPU_19*%
X150700000Y-122550000D03*
%TO.N,/Level Shifters & CPU Interface/CPU_5*%
X150800000Y-78750000D03*
%TO.N,/Level Shifters & CPU Interface/CPU_12*%
X150800000Y-98750000D03*
%TO.N,/Level Shifters & CPU Interface/CPU_6*%
X150789297Y-79950000D03*
%TO.N,/Level Shifters & CPU Interface/CPU_18*%
X150700000Y-121350000D03*
%TO.N,/Level Shifters & CPU Interface/CPU_10*%
X150800000Y-96350000D03*
%TO.N,/Level Shifters & CPU Interface/CPU_13*%
X150800000Y-99950000D03*
%TO.N,/Level Shifters & CPU Interface/CPU_20*%
X150700000Y-123750000D03*
%TO.N,/Level Shifters & CPU Interface/CPU_1*%
X150800000Y-73950000D03*
%TO.N,/Level Shifters & CPU Interface/CPU_7*%
X150800000Y-81150000D03*
%TO.N,/Level Shifters & CPU Interface/CPU_9*%
X150800000Y-95150000D03*
%TO.N,/Level Shifters & CPU Interface/CPU_16*%
X150800000Y-103550000D03*
%TO.N,/Level Shifters & CPU Interface/CPU_3*%
X150800000Y-76350000D03*
%TO.N,/Level Shifters & CPU Interface/CPU_2*%
X150800000Y-75150000D03*
%TO.N,/Level Shifters & CPU Interface/CPU_11*%
X150800000Y-97550000D03*
%TO.N,/Level Shifters & CPU Interface/CPU_15*%
X150800000Y-102350000D03*
%TO.N,/Level Shifters & CPU Interface/GND_I*%
X136685000Y-121640000D03*
X136685000Y-83540000D03*
X136685000Y-88620000D03*
X149600000Y-112450000D03*
X149300000Y-87050000D03*
X159545000Y-82270000D03*
X150400000Y-102900000D03*
X136685000Y-103860000D03*
X149300000Y-84650000D03*
X149600000Y-110250000D03*
X149300000Y-89450000D03*
X146900000Y-116650000D03*
X159545000Y-105130000D03*
X159545000Y-110210000D03*
X150400000Y-95750000D03*
X149600000Y-109150000D03*
X149600000Y-111350000D03*
X159545000Y-94970000D03*
X136685000Y-114020000D03*
X153372800Y-93496800D03*
X136685000Y-78460000D03*
X136685000Y-119100000D03*
X159545000Y-97510000D03*
X159545000Y-77190000D03*
X159545000Y-125450000D03*
X136685000Y-116560000D03*
X150300000Y-75750000D03*
X159545000Y-87350000D03*
X145600000Y-74550000D03*
X150400000Y-96950000D03*
X136685000Y-91160000D03*
X149200000Y-116850000D03*
X139225000Y-74650000D03*
X159545000Y-112750000D03*
X136685000Y-106400000D03*
X136685000Y-98780000D03*
X147988000Y-106250000D03*
X159545000Y-84810000D03*
X150300000Y-121950000D03*
X159545000Y-102590000D03*
X136685000Y-101320000D03*
X150300000Y-78150000D03*
X159545000Y-120370000D03*
X159545000Y-115290000D03*
X159545000Y-89890000D03*
X136685000Y-93700000D03*
X149766000Y-124942000D03*
X149300000Y-85850000D03*
X159545000Y-122910000D03*
X149200000Y-118050000D03*
X150400000Y-98150000D03*
X146900000Y-84650000D03*
X150400000Y-100500000D03*
X149300000Y-88250000D03*
X139860000Y-89509000D03*
X151900000Y-102650000D03*
X150300000Y-80550000D03*
X149300000Y-90650000D03*
X150300000Y-123150000D03*
X153350000Y-82600000D03*
X159545000Y-107670000D03*
X159545000Y-92430000D03*
X146560850Y-82710851D03*
X153118800Y-115086800D03*
X159545000Y-79730000D03*
X149600000Y-108050000D03*
X146514800Y-104317200D03*
X139850000Y-97129000D03*
X159545000Y-100050000D03*
X149300000Y-91850000D03*
X150400000Y-99300000D03*
X146900000Y-95450000D03*
X136685000Y-81000000D03*
X136685000Y-96240000D03*
X145041600Y-113766000D03*
X136685000Y-86080000D03*
X145250000Y-92650000D03*
X149600000Y-106950000D03*
X150300000Y-79350000D03*
X149600000Y-113550000D03*
X150300000Y-74550000D03*
X136685000Y-111480000D03*
X136685000Y-108940000D03*
X150300000Y-120750000D03*
X150400000Y-101750000D03*
X150300000Y-76950000D03*
X159545000Y-117830000D03*
X145600400Y-124942000D03*
%TO.N,/Level Shifters & CPU Interface/+3V3_I*%
X152687000Y-124942000D03*
X152250000Y-82600000D03*
X152000000Y-115086800D03*
X152200000Y-104350000D03*
X152100000Y-93550000D03*
%TD*%
D20*
%TO.N,/Level Shifters & CPU Interface/PIN_5*%
X147157500Y-77875000D02*
X145875000Y-77875000D01*
X144400000Y-79350000D02*
X144400000Y-83068766D01*
X144400000Y-83068766D02*
X142658766Y-84810000D01*
X145875000Y-77875000D02*
X144400000Y-79350000D01*
%TO.N,/Level Shifters & CPU Interface/PIN_17*%
X146920000Y-120225000D02*
X145975000Y-120225000D01*
X145975000Y-120225000D02*
X145200000Y-119450000D01*
X145200000Y-119450000D02*
X145200000Y-118090000D01*
X145200000Y-118090000D02*
X142400000Y-115290000D01*
%TO.N,/Level Shifters & CPU Interface/PIN_10*%
X146920000Y-97425000D02*
X142485000Y-97425000D01*
D21*
%TO.N,/Level Shifters & CPU Interface/PIN_37*%
X148475000Y-87975000D02*
X148800000Y-87650000D01*
X146920000Y-87975000D02*
X148475000Y-87975000D01*
%TO.N,/Level Shifters & CPU Interface/PIN_28*%
X148750000Y-110800000D02*
X148075000Y-110125000D01*
X148800000Y-110800000D02*
X148750000Y-110800000D01*
X148075000Y-110125000D02*
X146920000Y-110125000D01*
D20*
%TO.N,/Level Shifters & CPU Interface/PIN_16*%
X145448000Y-102371000D02*
X145448000Y-109702000D01*
X145844000Y-101975000D02*
X145448000Y-102371000D01*
X145448000Y-109702000D02*
X142400000Y-112750000D01*
X146920000Y-101975000D02*
X145844000Y-101975000D01*
%TO.N,/Level Shifters & CPU Interface/PIN_7*%
X147157500Y-79175000D02*
X146257000Y-79175000D01*
X146257000Y-79175000D02*
X145800000Y-79632000D01*
X145800000Y-86490000D02*
X142400000Y-89890000D01*
X145800000Y-79632000D02*
X145800000Y-86490000D01*
D21*
%TO.N,/Level Shifters & CPU Interface/PIN_26*%
X147559407Y-111425000D02*
X148800000Y-112665593D01*
X148800000Y-112665593D02*
X148800000Y-113050000D01*
%TO.N,/Level Shifters & CPU Interface/PIN_22*%
X147875000Y-119575000D02*
X146920000Y-119575000D01*
X148800000Y-118650000D02*
X147875000Y-119575000D01*
D20*
%TO.N,/Level Shifters & CPU Interface/PIN_18*%
X145445000Y-120875000D02*
X142400000Y-117830000D01*
X146920000Y-120875000D02*
X145445000Y-120875000D01*
D21*
%TO.N,/Level Shifters & CPU Interface/PIN_34*%
X148800000Y-90950000D02*
X148800000Y-91250000D01*
X147775000Y-89925000D02*
X148800000Y-90950000D01*
X146920000Y-89925000D02*
X147775000Y-89925000D01*
%TO.N,/Level Shifters & CPU Interface/PIN_38*%
X147925000Y-87325000D02*
X148800000Y-86450000D01*
X146920000Y-87325000D02*
X147925000Y-87325000D01*
%TO.N,/Level Shifters & CPU Interface/PIN_25*%
X146920000Y-113370000D02*
X147700000Y-114150000D01*
X147700000Y-114150000D02*
X148800000Y-114150000D01*
X146920000Y-112725000D02*
X146920000Y-113370000D01*
D20*
%TO.N,/Level Shifters & CPU Interface/PIN_15*%
X144940000Y-107928765D02*
X142658765Y-110210000D01*
X144940000Y-101828000D02*
X144940000Y-107928765D01*
X146093000Y-100675000D02*
X144940000Y-101828000D01*
X146920000Y-100675000D02*
X146093000Y-100675000D01*
%TO.N,/Level Shifters & CPU Interface/PIN_20*%
X144175000Y-122175000D02*
X143440000Y-122910000D01*
X146920000Y-122175000D02*
X144175000Y-122175000D01*
X143440000Y-122910000D02*
X142400000Y-122910000D01*
D21*
%TO.N,/Level Shifters & CPU Interface/PIN_31*%
X148175000Y-108175000D02*
X148800000Y-107550000D01*
X146920000Y-108175000D02*
X148175000Y-108175000D01*
D20*
%TO.N,/Level Shifters & CPU Interface/PIN_11*%
X144633765Y-98075000D02*
X142658765Y-100050000D01*
X146920000Y-98075000D02*
X144633765Y-98075000D01*
D21*
%TO.N,/Level Shifters & CPU Interface/PIN_27*%
X148009407Y-110775000D02*
X148800000Y-111565593D01*
X146920000Y-110775000D02*
X148009407Y-110775000D01*
X148800000Y-111565593D02*
X148800000Y-111950000D01*
D20*
%TO.N,/Level Shifters & CPU Interface/PIN_1*%
X147157500Y-75275000D02*
X143045000Y-75275000D01*
%TO.N,/Level Shifters & CPU Interface/PIN_3*%
X147157500Y-76575000D02*
X145400000Y-76575000D01*
X145400000Y-76575000D02*
X142400000Y-79575000D01*
D21*
%TO.N,/Level Shifters & CPU Interface/PIN_24*%
X147775000Y-118275000D02*
X147549086Y-118275000D01*
X148150000Y-116850000D02*
X148150000Y-117900000D01*
X148150000Y-117900000D02*
X147775000Y-118275000D01*
X148800000Y-116200000D02*
X148150000Y-116850000D01*
D20*
%TO.N,/Level Shifters & CPU Interface/PIN_12*%
X144995000Y-98725000D02*
X143542001Y-100177999D01*
X146920000Y-98725000D02*
X144995000Y-98725000D01*
X143542001Y-100177999D02*
X143542001Y-101906982D01*
X143542001Y-101906982D02*
X142858982Y-102590000D01*
%TO.N,/Level Shifters & CPU Interface/PIN_4*%
X145625000Y-77225000D02*
X143670000Y-79180000D01*
X143670000Y-79180000D02*
X143670000Y-81258765D01*
X147157500Y-77225000D02*
X145625000Y-77225000D01*
X143670000Y-81258765D02*
X142658765Y-82270000D01*
D21*
%TO.N,/Level Shifters & CPU Interface/PIN_39*%
X147859407Y-86675000D02*
X148800000Y-85734407D01*
X146920000Y-86675000D02*
X147859407Y-86675000D01*
X148800000Y-85734407D02*
X148800000Y-85250000D01*
D20*
%TO.N,/Level Shifters & CPU Interface/PIN_6*%
X146125000Y-78525000D02*
X145100000Y-79550000D01*
X145100000Y-79550000D02*
X145100000Y-84908765D01*
X145100000Y-84908765D02*
X142658765Y-87350000D01*
X147157500Y-78525000D02*
X146125000Y-78525000D01*
D21*
%TO.N,/Level Shifters & CPU Interface/PIN_32*%
X146920000Y-107525000D02*
X147725000Y-107525000D01*
X147725000Y-107525000D02*
X148800000Y-106450000D01*
%TO.N,/Level Shifters & CPU Interface/PIN_35*%
X146920000Y-89275000D02*
X148025000Y-89275000D01*
X148025000Y-89275000D02*
X148800000Y-90050000D01*
%TO.N,/Level Shifters & CPU Interface/PIN_40*%
X147825000Y-86025000D02*
X148200000Y-85650000D01*
X148200000Y-84650000D02*
X148800000Y-84050000D01*
X148200000Y-85650000D02*
X148200000Y-84650000D01*
X146920000Y-86025000D02*
X147825000Y-86025000D01*
D20*
%TO.N,/Level Shifters & CPU Interface/PIN_19*%
X146920000Y-121525000D02*
X143575000Y-121525000D01*
X143575000Y-121525000D02*
X142420000Y-120370000D01*
%TO.N,/Level Shifters & CPU Interface/PIN_2*%
X147157500Y-75925000D02*
X143665000Y-75925000D01*
X143665000Y-75925000D02*
X142400000Y-77190000D01*
%TO.N,/Level Shifters & CPU Interface/PIN_13*%
X143923001Y-103865764D02*
X142658765Y-105130000D01*
X146920000Y-99375000D02*
X145361000Y-99375000D01*
X143923001Y-100812999D02*
X143923001Y-103865764D01*
X145361000Y-99375000D02*
X143923001Y-100812999D01*
D21*
%TO.N,/Level Shifters & CPU Interface/PIN_33*%
X146920000Y-91720000D02*
X147650000Y-92450000D01*
X147650000Y-92450000D02*
X148800000Y-92450000D01*
X146920000Y-91225000D02*
X146920000Y-91720000D01*
D20*
%TO.N,/Level Shifters & CPU Interface/PIN_9*%
X144205000Y-96775000D02*
X142400000Y-94970000D01*
X146920000Y-96775000D02*
X144205000Y-96775000D01*
D21*
%TO.N,/Level Shifters & CPU Interface/PIN_29*%
X146920000Y-109475000D02*
X148525000Y-109475000D01*
X148525000Y-109475000D02*
X148800000Y-109750000D01*
%TO.N,/Level Shifters & CPU Interface/PIN_30*%
X148287500Y-108650000D02*
X148800000Y-108650000D01*
X146920000Y-108825000D02*
X148112500Y-108825000D01*
X148112500Y-108825000D02*
X148287500Y-108650000D01*
D20*
%TO.N,/Level Shifters & CPU Interface/PIN_14*%
X144432000Y-105896765D02*
X142658765Y-107670000D01*
X145727000Y-100025000D02*
X144432000Y-101320000D01*
X144432000Y-101320000D02*
X144432000Y-105896765D01*
X146920000Y-100025000D02*
X145727000Y-100025000D01*
D21*
%TO.N,/Level Shifters & CPU Interface/PIN_23*%
X148800000Y-117450000D02*
X148550000Y-117700000D01*
X148550000Y-117700000D02*
X148550000Y-118184407D01*
X148550000Y-118184407D02*
X147809407Y-118925000D01*
X147809407Y-118925000D02*
X146920000Y-118925000D01*
%TO.N,/Level Shifters & CPU Interface/PIN_36*%
X146920000Y-88625000D02*
X148575000Y-88625000D01*
X148575000Y-88625000D02*
X148800000Y-88850000D01*
%TO.N,/Level Shifters & CPU Interface/CPU_4*%
X152882500Y-77225000D02*
X151125000Y-77225000D01*
X151125000Y-77225000D02*
X150800000Y-77550000D01*
%TO.N,/Level Shifters & CPU Interface/CPU_14*%
X151590593Y-100025000D02*
X150800000Y-100815593D01*
X150800000Y-100815593D02*
X150800000Y-101150000D01*
X152645000Y-100025000D02*
X151590593Y-100025000D01*
%TO.N,/Level Shifters & CPU Interface/CPU_17*%
X150775000Y-120225000D02*
X150700000Y-120150000D01*
X152645000Y-120225000D02*
X150775000Y-120225000D01*
%TO.N,/Level Shifters & CPU Interface/CPU_19*%
X151725000Y-121525000D02*
X150700000Y-122550000D01*
X152645000Y-121525000D02*
X151725000Y-121525000D01*
%TO.N,/Level Shifters & CPU Interface/CPU_5*%
X151675000Y-77875000D02*
X150800000Y-78750000D01*
X152882500Y-77875000D02*
X151675000Y-77875000D01*
%TO.N,/Level Shifters & CPU Interface/CPU_12*%
X150825000Y-98725000D02*
X150800000Y-98750000D01*
X152645000Y-98725000D02*
X150825000Y-98725000D01*
%TO.N,/Level Shifters & CPU Interface/CPU_6*%
X152882500Y-78525000D02*
X151925000Y-78525000D01*
X150789297Y-79660703D02*
X150789297Y-79950000D01*
X151925000Y-78525000D02*
X150789297Y-79660703D01*
%TO.N,/Level Shifters & CPU Interface/CPU_18*%
X151175000Y-120875000D02*
X150700000Y-121350000D01*
X152645000Y-120875000D02*
X151175000Y-120875000D01*
%TO.N,/Level Shifters & CPU Interface/CPU_10*%
X151757796Y-97425000D02*
X150800000Y-96467204D01*
X152645000Y-97425000D02*
X151757796Y-97425000D01*
X150800000Y-96467204D02*
X150800000Y-96350000D01*
%TO.N,/Level Shifters & CPU Interface/CPU_13*%
X152645000Y-99375000D02*
X151375000Y-99375000D01*
X151375000Y-99375000D02*
X150800000Y-99950000D01*
%TO.N,/Level Shifters & CPU Interface/CPU_20*%
X150806000Y-123344000D02*
X150806000Y-123644000D01*
X151675000Y-122175000D02*
X151206000Y-122644000D01*
X152645000Y-122175000D02*
X151675000Y-122175000D01*
X150806000Y-123644000D02*
X150700000Y-123750000D01*
X151206000Y-122944000D02*
X150806000Y-123344000D01*
X151206000Y-122644000D02*
X151206000Y-122944000D01*
%TO.N,/Level Shifters & CPU Interface/CPU_1*%
X152882500Y-75275000D02*
X151825000Y-75275000D01*
X151825000Y-75275000D02*
X150800000Y-74250000D01*
X150800000Y-74250000D02*
X150800000Y-73950000D01*
%TO.N,/Level Shifters & CPU Interface/CPU_7*%
X151300000Y-80650000D02*
X150800000Y-81150000D01*
X152882500Y-79175000D02*
X151975000Y-79175000D01*
X151300000Y-79850000D02*
X151300000Y-80650000D01*
X151975000Y-79175000D02*
X151300000Y-79850000D01*
%TO.N,/Level Shifters & CPU Interface/CPU_9*%
X151907501Y-96775000D02*
X151250000Y-96117499D01*
X151250000Y-96117499D02*
X151250000Y-95600000D01*
X152645000Y-96775000D02*
X151907501Y-96775000D01*
X151250000Y-95600000D02*
X150800000Y-95150000D01*
%TO.N,/Level Shifters & CPU Interface/CPU_16*%
X151306000Y-102444000D02*
X151306000Y-103044000D01*
X151775000Y-101975000D02*
X151306000Y-102444000D01*
X151306000Y-103044000D02*
X150800000Y-103550000D01*
X152645000Y-101975000D02*
X151775000Y-101975000D01*
%TO.N,/Level Shifters & CPU Interface/CPU_3*%
X151025000Y-76575000D02*
X150800000Y-76350000D01*
X152882500Y-76575000D02*
X151025000Y-76575000D01*
%TO.N,/Level Shifters & CPU Interface/CPU_2*%
X152882500Y-75925000D02*
X151575000Y-75925000D01*
X151575000Y-75925000D02*
X150800000Y-75150000D01*
%TO.N,/Level Shifters & CPU Interface/CPU_11*%
X152645000Y-98075000D02*
X151325000Y-98075000D01*
X151325000Y-98075000D02*
X150800000Y-97550000D01*
%TO.N,/Level Shifters & CPU Interface/CPU_15*%
X151306000Y-101844000D02*
X150800000Y-102350000D01*
X152645000Y-100675000D02*
X151775000Y-100675000D01*
X151775000Y-100675000D02*
X151306000Y-101144000D01*
X151306000Y-101144000D02*
X151306000Y-101844000D01*
D20*
%TO.N,/Level Shifters & CPU Interface/CPU_35*%
X156400000Y-88650000D02*
X161420000Y-88650000D01*
X155775000Y-89275000D02*
X156400000Y-88650000D01*
X152645000Y-89275000D02*
X155775000Y-89275000D01*
X161420000Y-88650000D02*
X162720000Y-87350000D01*
%TO.N,/Level Shifters & CPU Interface/CPU_36*%
X154625000Y-88625000D02*
X157170000Y-86080000D01*
X153275000Y-88625000D02*
X154625000Y-88625000D01*
X157170000Y-86080000D02*
X161450000Y-86080000D01*
X161450000Y-86080000D02*
X162720000Y-84810000D01*
%TO.N,/Level Shifters & CPU Interface/CPU_34*%
X155775000Y-89925000D02*
X157000000Y-91150000D01*
X161460000Y-91150000D02*
X162685000Y-89925000D01*
X157000000Y-91150000D02*
X161460000Y-91150000D01*
X152645000Y-89925000D02*
X155775000Y-89925000D01*
%TO.N,/Level Shifters & CPU Interface/CPU_22*%
X153725000Y-119575000D02*
X154300000Y-120150000D01*
X152645000Y-119575000D02*
X153725000Y-119575000D01*
X161062000Y-121650000D02*
X162531000Y-120181000D01*
X154300000Y-120150000D02*
X155642000Y-120150000D01*
X157142000Y-121650000D02*
X161062000Y-121650000D01*
X155642000Y-120150000D02*
X157142000Y-121650000D01*
%TO.N,/Level Shifters & CPU Interface/CPU_25*%
X155675000Y-112725000D02*
X156970000Y-114020000D01*
X152645000Y-112725000D02*
X155675000Y-112725000D01*
X161400000Y-114020000D02*
X162695000Y-112725000D01*
X156970000Y-114020000D02*
X161400000Y-114020000D01*
%TO.N,/Level Shifters & CPU Interface/CPU_32*%
X154400000Y-106450000D02*
X154400000Y-97750000D01*
X155910000Y-96240000D02*
X161450000Y-96240000D01*
X154400000Y-97750000D02*
X155910000Y-96240000D01*
X152645000Y-107525000D02*
X153325000Y-107525000D01*
X153325000Y-107525000D02*
X154400000Y-106450000D01*
X161450000Y-96240000D02*
X162720000Y-94970000D01*
%TO.N,/Level Shifters & CPU Interface/CPU_27*%
X155075000Y-110775000D02*
X156900000Y-108950000D01*
X161440000Y-108950000D02*
X162720000Y-107670000D01*
X156900000Y-108950000D02*
X161440000Y-108950000D01*
X152645000Y-110775000D02*
X155075000Y-110775000D01*
%TO.N,/Level Shifters & CPU Interface/CPU_31*%
X161450000Y-98780000D02*
X162720000Y-97510000D01*
X152645000Y-108175000D02*
X153478750Y-108175000D01*
X155000000Y-106653750D02*
X155000000Y-100150000D01*
X155000000Y-100150000D02*
X156370000Y-98780000D01*
X153478750Y-108175000D02*
X155000000Y-106653750D01*
X156370000Y-98780000D02*
X161450000Y-98780000D01*
%TO.N,/Level Shifters & CPU Interface/CPU_37*%
X156500000Y-83550000D02*
X161440000Y-83550000D01*
X154275000Y-87975000D02*
X156000000Y-86250000D01*
X156000000Y-84050000D02*
X156500000Y-83550000D01*
X161440000Y-83550000D02*
X162720000Y-82270000D01*
X152645000Y-87975000D02*
X154275000Y-87975000D01*
X156000000Y-86250000D02*
X156000000Y-84050000D01*
%TO.N,/Level Shifters & CPU Interface/CPU_38*%
X155400000Y-85850000D02*
X155400000Y-81950000D01*
X153925000Y-87325000D02*
X155400000Y-85850000D01*
X155400000Y-81950000D02*
X156350000Y-81000000D01*
X156350000Y-81000000D02*
X161450000Y-81000000D01*
X161450000Y-81000000D02*
X162720000Y-79730000D01*
X152645000Y-87325000D02*
X153925000Y-87325000D01*
%TO.N,/Level Shifters & CPU Interface/CPU_33*%
X156075000Y-91225000D02*
X156370000Y-91520000D01*
X152645000Y-91225000D02*
X156075000Y-91225000D01*
X161450000Y-93700000D02*
X162720000Y-92430000D01*
X156370000Y-92938000D02*
X157132000Y-93700000D01*
X157132000Y-93700000D02*
X161450000Y-93700000D01*
X156370000Y-91520000D02*
X156370000Y-92938000D01*
%TO.N,/Level Shifters & CPU Interface/CPU_39*%
X153762598Y-86675000D02*
X154800000Y-85637598D01*
X154800000Y-79850000D02*
X156200000Y-78450000D01*
X161460000Y-78450000D02*
X162720000Y-77190000D01*
X152645000Y-86675000D02*
X153762598Y-86675000D01*
X154800000Y-85637598D02*
X154800000Y-79850000D01*
X156200000Y-78450000D02*
X161460000Y-78450000D01*
%TO.N,/Level Shifters & CPU Interface/CPU_40*%
X154200000Y-85450000D02*
X154200000Y-77850000D01*
X153625000Y-86025000D02*
X154200000Y-85450000D01*
X161577000Y-76174000D02*
X162720000Y-75031000D01*
X158529000Y-75920000D02*
X158783000Y-76174000D01*
X154200000Y-77850000D02*
X156130000Y-75920000D01*
X158783000Y-76174000D02*
X161577000Y-76174000D01*
X152645000Y-86025000D02*
X153625000Y-86025000D01*
X156130000Y-75920000D02*
X158529000Y-75920000D01*
%TO.N,/Level Shifters & CPU Interface/CPU_24*%
X161450000Y-116560000D02*
X162720000Y-115290000D01*
X155490000Y-116560000D02*
X161450000Y-116560000D01*
X152645000Y-118275000D02*
X153775000Y-118275000D01*
X153775000Y-118275000D02*
X155490000Y-116560000D01*
%TO.N,/Level Shifters & CPU Interface/CPU_30*%
X155600000Y-106950000D02*
X155600000Y-102850000D01*
X157100000Y-101350000D02*
X161400000Y-101350000D01*
X152645000Y-108825000D02*
X153725000Y-108825000D01*
X153725000Y-108825000D02*
X155600000Y-106950000D01*
X155600000Y-102850000D02*
X157100000Y-101350000D01*
X161400000Y-101350000D02*
X162700000Y-100050000D01*
%TO.N,/Level Shifters & CPU Interface/CPU_29*%
X157100000Y-103850000D02*
X161460000Y-103850000D01*
X154075000Y-109475000D02*
X156129000Y-107421000D01*
X152645000Y-109475000D02*
X154075000Y-109475000D01*
X161460000Y-103850000D02*
X162720000Y-102590000D01*
X156129000Y-107421000D02*
X156129000Y-104821000D01*
X156129000Y-104821000D02*
X157100000Y-103850000D01*
%TO.N,/Level Shifters & CPU Interface/CPU_23*%
X152645000Y-118925000D02*
X156286235Y-118925000D01*
X161450000Y-119100000D02*
X162720000Y-117830000D01*
X156461235Y-119100000D02*
X161450000Y-119100000D01*
X156286235Y-118925000D02*
X156461235Y-119100000D01*
%TO.N,/Level Shifters & CPU Interface/CPU_28*%
X161450000Y-106400000D02*
X162720000Y-105130000D01*
X156509000Y-108141000D02*
X156509000Y-107201524D01*
X154525000Y-110125000D02*
X156509000Y-108141000D01*
X157310524Y-106400000D02*
X161450000Y-106400000D01*
X152645000Y-110125000D02*
X154525000Y-110125000D01*
X156509000Y-107201524D02*
X157310524Y-106400000D01*
%TO.N,/Level Shifters & CPU Interface/CPU_26*%
X152700000Y-111480000D02*
X161430000Y-111480000D01*
X161430000Y-111480000D02*
X162710000Y-110200000D01*
D22*
%TO.N,/Level Shifters & CPU Interface/GND_I*%
X146560850Y-82710851D02*
X146746000Y-82525701D01*
X146514800Y-104317200D02*
X146514800Y-103408000D01*
D23*
X139860000Y-89509000D02*
X139860000Y-90805500D01*
X145000000Y-124341600D02*
X145600400Y-124942000D01*
D24*
X146900000Y-84650000D02*
X146900000Y-85355000D01*
D20*
X139860000Y-96240000D02*
X139860000Y-95224000D01*
D23*
X145000000Y-123830000D02*
X145000000Y-124341600D01*
D22*
X153243200Y-82493200D02*
X153350000Y-82600000D01*
D23*
X155100000Y-121132000D02*
X155481000Y-121132000D01*
D24*
X146900000Y-116650000D02*
X146900000Y-117605000D01*
D22*
X145041600Y-91612500D02*
X145041600Y-92441600D01*
X153372800Y-93026800D02*
X153030000Y-92684000D01*
X145041600Y-113766000D02*
X145041600Y-113026800D01*
D23*
X155481000Y-121132000D02*
X157259000Y-122910000D01*
D22*
X146900000Y-95450000D02*
X146900000Y-96105000D01*
X150722500Y-124942000D02*
X149766000Y-124942000D01*
X145041600Y-92441600D02*
X145250000Y-92650000D01*
X153118800Y-115086800D02*
X153118800Y-114261200D01*
X146746000Y-82525701D02*
X146746000Y-81914400D01*
D24*
X145600000Y-74550000D02*
X145617500Y-74567500D01*
D22*
X153372800Y-93496800D02*
X153372800Y-93026800D01*
D24*
X147988000Y-106250000D02*
X147383000Y-106855000D01*
D20*
X139850000Y-97129000D02*
X139850000Y-96250000D01*
X139850000Y-96250000D02*
X139860000Y-96240000D01*
D22*
X147100000Y-74567500D02*
X147157500Y-74625000D01*
D23*
X151920000Y-102670000D02*
X151900000Y-102650000D01*
D24*
X145617500Y-74567500D02*
X147100000Y-74567500D01*
D23*
X151920000Y-103450000D02*
X151920000Y-102670000D01*
D22*
X153243200Y-81914400D02*
X153243200Y-82493200D01*
%TO.N,/Level Shifters & CPU Interface/+3V3_I*%
X151544000Y-124628500D02*
X151857500Y-124942000D01*
X151814000Y-81286300D02*
X151814000Y-80156001D01*
X151945202Y-90575000D02*
X152645000Y-90575000D01*
X152283200Y-82566800D02*
X152283200Y-81914400D01*
X151544000Y-123188501D02*
X151544000Y-124628500D01*
X151825000Y-112075000D02*
X151576500Y-112323500D01*
D23*
X155100000Y-122857000D02*
X155100000Y-125450000D01*
D22*
X152645000Y-101325000D02*
X153675000Y-101325000D01*
X152880000Y-103450000D02*
X152880000Y-103670000D01*
X152102800Y-93496800D02*
X152102800Y-92716800D01*
X152000000Y-115086800D02*
X152070000Y-115016800D01*
X151576500Y-112323500D02*
X151576500Y-113678900D01*
X153675000Y-101325000D02*
X153900000Y-101550000D01*
X152070000Y-115016800D02*
X152070000Y-114172400D01*
X153900000Y-102430000D02*
X152880000Y-103450000D01*
X152283200Y-81755500D02*
X151814000Y-81286300D01*
X151576500Y-113678900D02*
X152070000Y-114172400D01*
X152645000Y-122825000D02*
X151907501Y-122825000D01*
X153900000Y-101550000D02*
X153900000Y-102430000D01*
X152880000Y-103670000D02*
X152200000Y-104350000D01*
X151907501Y-122825000D02*
X151544000Y-123188501D01*
X152645000Y-112075000D02*
X151825000Y-112075000D01*
X151576500Y-90943702D02*
X151945202Y-90575000D01*
X151814000Y-80156001D02*
X152145001Y-79825000D01*
X151576500Y-92044000D02*
X151576500Y-90943702D01*
X152250000Y-82600000D02*
X152283200Y-82566800D01*
X151857500Y-124942000D02*
X152687000Y-124942000D01*
X152070000Y-92537500D02*
X151576500Y-92044000D01*
D20*
X152882500Y-79825000D02*
X152145001Y-79825000D01*
%TO.N,/Level Shifters & CPU Interface/+5V_I*%
X148752800Y-103402800D02*
X149000000Y-103650000D01*
D23*
X148500000Y-124850000D02*
X148500000Y-120750000D01*
D20*
X148600000Y-74850000D02*
X148600000Y-79119999D01*
D22*
X147480000Y-102870000D02*
X147988500Y-102361500D01*
D23*
X145000000Y-122870000D02*
X144580000Y-122870000D01*
D22*
X147480000Y-103402800D02*
X147480000Y-102870000D01*
D20*
X150525000Y-85375000D02*
X150500000Y-85350000D01*
X139860000Y-94204000D02*
X139860000Y-92530500D01*
D23*
X144300600Y-112646404D02*
X144880204Y-112066800D01*
X147700000Y-125650000D02*
X148500000Y-124850000D01*
D20*
X150606000Y-117625000D02*
X150531000Y-117550000D01*
X152645000Y-96125000D02*
X152645000Y-95195000D01*
D22*
X147988500Y-101693702D02*
X147619798Y-101325000D01*
D25*
X150531000Y-114850000D02*
X150531000Y-106950000D01*
D23*
X144300600Y-113988080D02*
X144300600Y-112646404D01*
D22*
X146920000Y-90575000D02*
X145119100Y-90575000D01*
X147619798Y-101325000D02*
X146920000Y-101325000D01*
X137320000Y-92430000D02*
X139847000Y-92430000D01*
D20*
X151300000Y-93850000D02*
X150500000Y-93850000D01*
D22*
X147857298Y-79825000D02*
X148226000Y-80193702D01*
D23*
X150050000Y-94300000D02*
X148950000Y-94300000D01*
D20*
X152000000Y-73350000D02*
X150100000Y-73350000D01*
D26*
X148950000Y-94300000D02*
X148400000Y-93750000D01*
D23*
X147706000Y-81914400D02*
X148164400Y-81914400D01*
X144009565Y-123440435D02*
X144009565Y-124569051D01*
X144580000Y-122870000D02*
X144009565Y-123440435D01*
D25*
X150531000Y-105181000D02*
X149000000Y-103650000D01*
D23*
X150531000Y-114850000D02*
X145162520Y-114850000D01*
X144009565Y-124569051D02*
X145090514Y-125650000D01*
D22*
X147988500Y-102361500D02*
X147988500Y-101693702D01*
D23*
X145041600Y-90652500D02*
X144177500Y-90652500D01*
X145090514Y-125650000D02*
X147700000Y-125650000D01*
X150531000Y-117550000D02*
X150531000Y-114850000D01*
D20*
X147894999Y-79825000D02*
X147157500Y-79825000D01*
D22*
X148226000Y-81291500D02*
X147706000Y-81811500D01*
D26*
X139860000Y-92443000D02*
X142387000Y-92443000D01*
X148400000Y-93750000D02*
X143720000Y-93750000D01*
D23*
X150531000Y-118719000D02*
X150531000Y-117550000D01*
D22*
X148226000Y-80193702D02*
X148226000Y-81291500D01*
D20*
X150100000Y-73350000D02*
X148600000Y-74850000D01*
X148600000Y-79119999D02*
X147894999Y-79825000D01*
D23*
X148500000Y-120750000D02*
X150531000Y-118719000D01*
X147480000Y-103402800D02*
X148752800Y-103402800D01*
X150500000Y-85350000D02*
X150500000Y-93850000D01*
D20*
X152882500Y-74625000D02*
X152882500Y-74232500D01*
X150606000Y-106875000D02*
X150531000Y-106950000D01*
D26*
X143720000Y-93750000D02*
X142400000Y-92430000D01*
D23*
X145162520Y-114850000D02*
X144300600Y-113988080D01*
D26*
X148950000Y-94300000D02*
X148950000Y-103600000D01*
D23*
X144880204Y-112066800D02*
X145041600Y-112066800D01*
X148164400Y-81914400D02*
X150500000Y-84250000D01*
D22*
X146920000Y-122825000D02*
X145045000Y-122825000D01*
D26*
X148950000Y-103600000D02*
X149000000Y-103650000D01*
D22*
X147157500Y-79825000D02*
X147857298Y-79825000D01*
D26*
X139847000Y-92430000D02*
X139860000Y-92443000D01*
D20*
X152645000Y-106875000D02*
X150606000Y-106875000D01*
D22*
X146920000Y-112075000D02*
X145049800Y-112075000D01*
D25*
X150531000Y-106950000D02*
X150531000Y-105181000D01*
D23*
X144177500Y-90652500D02*
X142400000Y-92430000D01*
D20*
X152645000Y-85375000D02*
X150525000Y-85375000D01*
D23*
X150500000Y-93850000D02*
X150050000Y-94300000D01*
D20*
X152645000Y-95195000D02*
X151300000Y-93850000D01*
X152882500Y-74232500D02*
X152000000Y-73350000D01*
X152645000Y-117625000D02*
X150606000Y-117625000D01*
D23*
X150500000Y-84250000D02*
X150500000Y-85350000D01*
%TD*%
%TA.AperFunction,Conductor*%
%TO.N,/Level Shifters & CPU Interface/+5V_I*%
G36*
X150539751Y-73153072D02*
G01*
X150549606Y-73151775D01*
X150576516Y-73162923D01*
X150604652Y-73170462D01*
X150611680Y-73177490D01*
X150620862Y-73181294D01*
X150638592Y-73204402D01*
X150659190Y-73225000D01*
X150661762Y-73234600D01*
X150667812Y-73242485D01*
X150671613Y-73271364D01*
X150679152Y-73299500D01*
X150676579Y-73309099D01*
X150677877Y-73318954D01*
X150666728Y-73345864D01*
X150659190Y-73374000D01*
X150652161Y-73381028D01*
X150648358Y-73390210D01*
X150625249Y-73407940D01*
X150604652Y-73428538D01*
X150587838Y-73436828D01*
X150461988Y-73509488D01*
X150359488Y-73611988D01*
X150287016Y-73737512D01*
X150249500Y-73877523D01*
X150249500Y-73879280D01*
X150249046Y-73880974D01*
X150248226Y-73887204D01*
X150247405Y-73887096D01*
X150229538Y-73953780D01*
X150175000Y-74008318D01*
X150139065Y-74023203D01*
X150087512Y-74037016D01*
X149961988Y-74109488D01*
X149859488Y-74211988D01*
X149787016Y-74337512D01*
X149749500Y-74477523D01*
X149749500Y-74622476D01*
X149787016Y-74762487D01*
X149859488Y-74888011D01*
X149859489Y-74888012D01*
X149859491Y-74888015D01*
X149961985Y-74990509D01*
X149961987Y-74990510D01*
X149961991Y-74990513D01*
X150014731Y-75020963D01*
X150069268Y-75075501D01*
X150089230Y-75150001D01*
X150069267Y-75224501D01*
X150014731Y-75279037D01*
X149961991Y-75309486D01*
X149961987Y-75309489D01*
X149859488Y-75411988D01*
X149787016Y-75537512D01*
X149749500Y-75677523D01*
X149749500Y-75822476D01*
X149787016Y-75962487D01*
X149859488Y-76088011D01*
X149859489Y-76088012D01*
X149859491Y-76088015D01*
X149961985Y-76190509D01*
X149961987Y-76190510D01*
X149961991Y-76190513D01*
X150014731Y-76220963D01*
X150069268Y-76275501D01*
X150089230Y-76350001D01*
X150069267Y-76424501D01*
X150014731Y-76479037D01*
X149961991Y-76509486D01*
X149961987Y-76509489D01*
X149859488Y-76611988D01*
X149787016Y-76737512D01*
X149749500Y-76877523D01*
X149749500Y-77022476D01*
X149787016Y-77162487D01*
X149859488Y-77288011D01*
X149859489Y-77288012D01*
X149859491Y-77288015D01*
X149961985Y-77390509D01*
X149961987Y-77390510D01*
X149961991Y-77390513D01*
X150014731Y-77420963D01*
X150069268Y-77475501D01*
X150089230Y-77550001D01*
X150069267Y-77624501D01*
X150014731Y-77679037D01*
X149961991Y-77709486D01*
X149961987Y-77709489D01*
X149859488Y-77811988D01*
X149787016Y-77937512D01*
X149749500Y-78077523D01*
X149749500Y-78222476D01*
X149787016Y-78362487D01*
X149859488Y-78488011D01*
X149859489Y-78488012D01*
X149859491Y-78488015D01*
X149961985Y-78590509D01*
X149961987Y-78590510D01*
X149961991Y-78590513D01*
X150014731Y-78620963D01*
X150069268Y-78675501D01*
X150089230Y-78750001D01*
X150069267Y-78824501D01*
X150014731Y-78879037D01*
X149961991Y-78909486D01*
X149961987Y-78909489D01*
X149859488Y-79011988D01*
X149787016Y-79137512D01*
X149749500Y-79277523D01*
X149749500Y-79422476D01*
X149787016Y-79562487D01*
X149859488Y-79688011D01*
X149859489Y-79688012D01*
X149859491Y-79688015D01*
X149961985Y-79790509D01*
X149961987Y-79790510D01*
X149961991Y-79790513D01*
X150014731Y-79820963D01*
X150069268Y-79875501D01*
X150089230Y-79950001D01*
X150069267Y-80024501D01*
X150014731Y-80079037D01*
X149961991Y-80109486D01*
X149961987Y-80109489D01*
X149859488Y-80211988D01*
X149787016Y-80337512D01*
X149749500Y-80477523D01*
X149749500Y-80622476D01*
X149787016Y-80762487D01*
X149859488Y-80888011D01*
X149859489Y-80888012D01*
X149859491Y-80888015D01*
X149961985Y-80990509D01*
X150087515Y-81062984D01*
X150139064Y-81076796D01*
X150205858Y-81115360D01*
X150244423Y-81182154D01*
X150249500Y-81220719D01*
X150249500Y-81222476D01*
X150287016Y-81362487D01*
X150359488Y-81488011D01*
X150359489Y-81488012D01*
X150359491Y-81488015D01*
X150461985Y-81590509D01*
X150461987Y-81590510D01*
X150461988Y-81590511D01*
X150587512Y-81662983D01*
X150587514Y-81662983D01*
X150587515Y-81662984D01*
X150727525Y-81700500D01*
X150872475Y-81700500D01*
X151012485Y-81662984D01*
X151138015Y-81590509D01*
X151210827Y-81517696D01*
X151277618Y-81479134D01*
X151354746Y-81479134D01*
X151421541Y-81517697D01*
X151445219Y-81548554D01*
X151453506Y-81562907D01*
X151453509Y-81562911D01*
X151453511Y-81562914D01*
X151659060Y-81768463D01*
X151697623Y-81835256D01*
X151702700Y-81873820D01*
X151702700Y-82137474D01*
X151705489Y-82167216D01*
X151742927Y-82274209D01*
X151748690Y-82351122D01*
X151739949Y-82380432D01*
X151737018Y-82387507D01*
X151699500Y-82527524D01*
X151699500Y-82672476D01*
X151737016Y-82812487D01*
X151809488Y-82938011D01*
X151809489Y-82938012D01*
X151809491Y-82938015D01*
X151911985Y-83040509D01*
X151911987Y-83040510D01*
X151911988Y-83040511D01*
X152037512Y-83112983D01*
X152037514Y-83112983D01*
X152037515Y-83112984D01*
X152177525Y-83150500D01*
X152322475Y-83150500D01*
X152462485Y-83112984D01*
X152475999Y-83105182D01*
X152573547Y-83048862D01*
X152588015Y-83040509D01*
X152690509Y-82938015D01*
X152690510Y-82938012D01*
X152694641Y-82933882D01*
X152761436Y-82895318D01*
X152838564Y-82895318D01*
X152905359Y-82933882D01*
X152909489Y-82938012D01*
X152909491Y-82938015D01*
X153011985Y-83040509D01*
X153011987Y-83040510D01*
X153011988Y-83040511D01*
X153137512Y-83112983D01*
X153137514Y-83112983D01*
X153137515Y-83112984D01*
X153277525Y-83150500D01*
X153422475Y-83150500D01*
X153562485Y-83112984D01*
X153575998Y-83105181D01*
X153650498Y-83085219D01*
X153724998Y-83105180D01*
X153779537Y-83159717D01*
X153799500Y-83234217D01*
X153799500Y-84616718D01*
X153779538Y-84691218D01*
X153725000Y-84745756D01*
X153650500Y-84765718D01*
X153593482Y-84754377D01*
X153439126Y-84690442D01*
X153321828Y-84675000D01*
X152845000Y-84675000D01*
X152845000Y-85226000D01*
X152825038Y-85300500D01*
X152770500Y-85355038D01*
X152696000Y-85375000D01*
X152645000Y-85375000D01*
X152645000Y-85375500D01*
X152625038Y-85450000D01*
X152570500Y-85504538D01*
X152496000Y-85524500D01*
X151975981Y-85524500D01*
X151882195Y-85539354D01*
X151882193Y-85539355D01*
X151844110Y-85558760D01*
X151776465Y-85575000D01*
X151415488Y-85575000D01*
X151422942Y-85631626D01*
X151422945Y-85631635D01*
X151483400Y-85777589D01*
X151576209Y-85898538D01*
X151605725Y-85969795D01*
X151607000Y-85989243D01*
X151607000Y-86156514D01*
X151621853Y-86250302D01*
X151638185Y-86282356D01*
X151654220Y-86357799D01*
X151638186Y-86417640D01*
X151621854Y-86449693D01*
X151618250Y-86472448D01*
X151607000Y-86543481D01*
X151607000Y-86543484D01*
X151607000Y-86543485D01*
X151607000Y-86806514D01*
X151621853Y-86900302D01*
X151638185Y-86932356D01*
X151654220Y-87007799D01*
X151638186Y-87067640D01*
X151621854Y-87099693D01*
X151621854Y-87099696D01*
X151607000Y-87193481D01*
X151607000Y-87193484D01*
X151607000Y-87193485D01*
X151607000Y-87456514D01*
X151621853Y-87550302D01*
X151638185Y-87582356D01*
X151654220Y-87657799D01*
X151638186Y-87717640D01*
X151621854Y-87749693D01*
X151621854Y-87749696D01*
X151607000Y-87843481D01*
X151607000Y-87843484D01*
X151607000Y-87843485D01*
X151607000Y-88106514D01*
X151621853Y-88200302D01*
X151638185Y-88232356D01*
X151654220Y-88307799D01*
X151638186Y-88367640D01*
X151621854Y-88399693D01*
X151621854Y-88399696D01*
X151607000Y-88493481D01*
X151607000Y-88493484D01*
X151607000Y-88493485D01*
X151607000Y-88756514D01*
X151621853Y-88850302D01*
X151638185Y-88882356D01*
X151654220Y-88957799D01*
X151638186Y-89017640D01*
X151621854Y-89049693D01*
X151618877Y-89068491D01*
X151607000Y-89143481D01*
X151607000Y-89143484D01*
X151607000Y-89143485D01*
X151607000Y-89406514D01*
X151621853Y-89500302D01*
X151638185Y-89532356D01*
X151654220Y-89607799D01*
X151638186Y-89667640D01*
X151621854Y-89699693D01*
X151615488Y-89739889D01*
X151607000Y-89793481D01*
X151607000Y-89793484D01*
X151607000Y-89793485D01*
X151607000Y-90056513D01*
X151607001Y-90056518D01*
X151617767Y-90124500D01*
X151623689Y-90161887D01*
X151621633Y-90162212D01*
X151624878Y-90224236D01*
X151589855Y-90292954D01*
X151584496Y-90298600D01*
X151216013Y-90667085D01*
X151216008Y-90667091D01*
X151174287Y-90739355D01*
X151156701Y-90769815D01*
X151150213Y-90794028D01*
X151147397Y-90804538D01*
X151126000Y-90884389D01*
X151126000Y-92103311D01*
X151147643Y-92184083D01*
X151147644Y-92184087D01*
X151147645Y-92184088D01*
X151156601Y-92217512D01*
X151156701Y-92217887D01*
X151216008Y-92320610D01*
X151216009Y-92320611D01*
X151216011Y-92320614D01*
X151445860Y-92550463D01*
X151484423Y-92617256D01*
X151489500Y-92655820D01*
X151489500Y-92907074D01*
X151492289Y-92936814D01*
X151492289Y-92936816D01*
X151492290Y-92936819D01*
X151536148Y-93062157D01*
X151595958Y-93143196D01*
X151624135Y-93214991D01*
X151612640Y-93291257D01*
X151605110Y-93306173D01*
X151587017Y-93337510D01*
X151549500Y-93477523D01*
X151549500Y-93622476D01*
X151587016Y-93762487D01*
X151659488Y-93888011D01*
X151659489Y-93888012D01*
X151659491Y-93888015D01*
X151761985Y-93990509D01*
X151761987Y-93990510D01*
X151761988Y-93990511D01*
X151887512Y-94062983D01*
X151887514Y-94062983D01*
X151887515Y-94062984D01*
X152027525Y-94100500D01*
X152172475Y-94100500D01*
X152312485Y-94062984D01*
X152438015Y-93990509D01*
X152540509Y-93888015D01*
X152612984Y-93762485D01*
X152612985Y-93762479D01*
X152613299Y-93761724D01*
X152613802Y-93761067D01*
X152617867Y-93754028D01*
X152618793Y-93754562D01*
X152660250Y-93700533D01*
X152731506Y-93671015D01*
X152807975Y-93681080D01*
X152869166Y-93728031D01*
X152879997Y-93744240D01*
X152932288Y-93834811D01*
X152932289Y-93834812D01*
X152932291Y-93834815D01*
X153034785Y-93937309D01*
X153034787Y-93937310D01*
X153034788Y-93937311D01*
X153160312Y-94009783D01*
X153160314Y-94009783D01*
X153160315Y-94009784D01*
X153300325Y-94047300D01*
X153445275Y-94047300D01*
X153585285Y-94009784D01*
X153710815Y-93937309D01*
X153813309Y-93834815D01*
X153877687Y-93723310D01*
X153885783Y-93709287D01*
X153888129Y-93700533D01*
X153923300Y-93569275D01*
X153923300Y-93424325D01*
X153885784Y-93284315D01*
X153869355Y-93255859D01*
X153843262Y-93210663D01*
X153823300Y-93136164D01*
X153823300Y-92967491D01*
X153823299Y-92967489D01*
X153804124Y-92895925D01*
X153792599Y-92852914D01*
X153743582Y-92768015D01*
X153733289Y-92750186D01*
X153650934Y-92667831D01*
X153647914Y-92664418D01*
X153632667Y-92633843D01*
X153615577Y-92604243D01*
X153614741Y-92597899D01*
X153613494Y-92595397D01*
X153613785Y-92590631D01*
X153610500Y-92565679D01*
X153610500Y-92460942D01*
X153610499Y-92460925D01*
X153608304Y-92437515D01*
X153607710Y-92431181D01*
X153563852Y-92305843D01*
X153484999Y-92199001D01*
X153378157Y-92120148D01*
X153252819Y-92076290D01*
X153252816Y-92076289D01*
X153252814Y-92076289D01*
X153223074Y-92073500D01*
X153223066Y-92073500D01*
X152836934Y-92073500D01*
X152836925Y-92073500D01*
X152807185Y-92076289D01*
X152807182Y-92076289D01*
X152807181Y-92076290D01*
X152762328Y-92091985D01*
X152681841Y-92120148D01*
X152638478Y-92152152D01*
X152566682Y-92180329D01*
X152491003Y-92169089D01*
X152475288Y-92162313D01*
X152418157Y-92120148D01*
X152292819Y-92076290D01*
X152271053Y-92074249D01*
X152249423Y-92064922D01*
X152237019Y-92055117D01*
X152222198Y-92049618D01*
X152203061Y-92033458D01*
X152149461Y-91979858D01*
X152110897Y-91913063D01*
X152110897Y-91835935D01*
X152149461Y-91769140D01*
X152216256Y-91730576D01*
X152254820Y-91725499D01*
X153314019Y-91725499D01*
X153333308Y-91722444D01*
X153407804Y-91710646D01*
X153520842Y-91653050D01*
X153520843Y-91653048D01*
X153531290Y-91647726D01*
X153532032Y-91649182D01*
X153591599Y-91626316D01*
X153607174Y-91625500D01*
X155820500Y-91625500D01*
X155895000Y-91645462D01*
X155949538Y-91700000D01*
X155969500Y-91774500D01*
X155969500Y-92990729D01*
X155980825Y-93032994D01*
X155996236Y-93090511D01*
X155996794Y-93092591D01*
X156049515Y-93183906D01*
X156049518Y-93183910D01*
X156049520Y-93183913D01*
X156811518Y-93945910D01*
X156811520Y-93945913D01*
X156818355Y-93952748D01*
X156818924Y-93953317D01*
X156857484Y-94020115D01*
X156857478Y-94097243D01*
X156818918Y-94164027D01*
X156762449Y-94220496D01*
X156762446Y-94220500D01*
X156656005Y-94367003D01*
X156656005Y-94367004D01*
X156573789Y-94528360D01*
X156533129Y-94653501D01*
X156517829Y-94700591D01*
X156489500Y-94879454D01*
X156489500Y-95060546D01*
X156517829Y-95239409D01*
X156573789Y-95411639D01*
X156656004Y-95572994D01*
X156656006Y-95572996D01*
X156656009Y-95573002D01*
X156677746Y-95602921D01*
X156705386Y-95674926D01*
X156693320Y-95751105D01*
X156644781Y-95811044D01*
X156572776Y-95838684D01*
X156557202Y-95839500D01*
X155857273Y-95839500D01*
X155755413Y-95866793D01*
X155755411Y-95866793D01*
X155755411Y-95866794D01*
X155697076Y-95900474D01*
X155664086Y-95919520D01*
X154079518Y-97504089D01*
X154079515Y-97504093D01*
X154026793Y-97595409D01*
X154017433Y-97630341D01*
X154014314Y-97641984D01*
X154011351Y-97653041D01*
X153999500Y-97697269D01*
X153999500Y-100751377D01*
X153994422Y-100770326D01*
X153994422Y-100789946D01*
X153984614Y-100806931D01*
X153979538Y-100825877D01*
X153965664Y-100839750D01*
X153955855Y-100856739D01*
X153938870Y-100866544D01*
X153925000Y-100880415D01*
X153906047Y-100885493D01*
X153889059Y-100895301D01*
X153869445Y-100895300D01*
X153850500Y-100900377D01*
X153811931Y-100895299D01*
X153793430Y-100890341D01*
X153726637Y-100851774D01*
X153688075Y-100784978D01*
X153682999Y-100746424D01*
X153682999Y-100543482D01*
X153668146Y-100449696D01*
X153651814Y-100417644D01*
X153635779Y-100342202D01*
X153651815Y-100282355D01*
X153661939Y-100262485D01*
X153668146Y-100250304D01*
X153683000Y-100156519D01*
X153682999Y-99893482D01*
X153668146Y-99799696D01*
X153651814Y-99767644D01*
X153635779Y-99692202D01*
X153651815Y-99632355D01*
X153663466Y-99609488D01*
X153668146Y-99600304D01*
X153683000Y-99506519D01*
X153682999Y-99243482D01*
X153668146Y-99149696D01*
X153651814Y-99117644D01*
X153635779Y-99042202D01*
X153651815Y-98982355D01*
X153668146Y-98950304D01*
X153683000Y-98856519D01*
X153682999Y-98593482D01*
X153668146Y-98499696D01*
X153651814Y-98467644D01*
X153635779Y-98392202D01*
X153651815Y-98332355D01*
X153668145Y-98300305D01*
X153668146Y-98300304D01*
X153683000Y-98206519D01*
X153682999Y-97943482D01*
X153668146Y-97849696D01*
X153651814Y-97817644D01*
X153635779Y-97742202D01*
X153651815Y-97682355D01*
X153653506Y-97679037D01*
X153668146Y-97650304D01*
X153683000Y-97556519D01*
X153682999Y-97293482D01*
X153668146Y-97199696D01*
X153651814Y-97167644D01*
X153635779Y-97092202D01*
X153651815Y-97032355D01*
X153657645Y-97020913D01*
X153668146Y-97000304D01*
X153683000Y-96906519D01*
X153682999Y-96739244D01*
X153702961Y-96664746D01*
X153713790Y-96648539D01*
X153806599Y-96527589D01*
X153867055Y-96381632D01*
X153867055Y-96381631D01*
X153874512Y-96325000D01*
X153513535Y-96325000D01*
X153445890Y-96308760D01*
X153407805Y-96289354D01*
X153390637Y-96286635D01*
X153314019Y-96274500D01*
X153314014Y-96274500D01*
X152794000Y-96274500D01*
X152719500Y-96254538D01*
X152664962Y-96200000D01*
X152645000Y-96125500D01*
X152645000Y-96125000D01*
X152594000Y-96125000D01*
X152519500Y-96105038D01*
X152464962Y-96050500D01*
X152445000Y-95976000D01*
X152445000Y-95925000D01*
X152845000Y-95925000D01*
X153874511Y-95925000D01*
X153874511Y-95924999D01*
X153867057Y-95868373D01*
X153867054Y-95868364D01*
X153806599Y-95722410D01*
X153710426Y-95597077D01*
X153710422Y-95597073D01*
X153585089Y-95500900D01*
X153439128Y-95440442D01*
X153321828Y-95425000D01*
X152845000Y-95425000D01*
X152845000Y-95925000D01*
X152445000Y-95925000D01*
X152445000Y-95425000D01*
X151968178Y-95425000D01*
X151968170Y-95425001D01*
X151850872Y-95440442D01*
X151762254Y-95477149D01*
X151685785Y-95487215D01*
X151614529Y-95457699D01*
X151576197Y-95413989D01*
X151550478Y-95369442D01*
X151550474Y-95369437D01*
X151394141Y-95213104D01*
X151355577Y-95146309D01*
X151350500Y-95107745D01*
X151350500Y-95077525D01*
X151350499Y-95077523D01*
X151341108Y-95042476D01*
X151312984Y-94937515D01*
X151312983Y-94937514D01*
X151312983Y-94937512D01*
X151240511Y-94811988D01*
X151240510Y-94811987D01*
X151240509Y-94811985D01*
X151138015Y-94709491D01*
X151138012Y-94709489D01*
X151138011Y-94709488D01*
X151012487Y-94637016D01*
X150872475Y-94599500D01*
X150727525Y-94599500D01*
X150587512Y-94637016D01*
X150461988Y-94709488D01*
X150359488Y-94811988D01*
X150287016Y-94937512D01*
X150249500Y-95077523D01*
X150249500Y-95115204D01*
X150229538Y-95189704D01*
X150175001Y-95244240D01*
X150145916Y-95261032D01*
X150061988Y-95309488D01*
X149959488Y-95411988D01*
X149887016Y-95537512D01*
X149849500Y-95677523D01*
X149849500Y-95822476D01*
X149887016Y-95962487D01*
X149959488Y-96088011D01*
X149959489Y-96088012D01*
X149959491Y-96088015D01*
X150061985Y-96190509D01*
X150061987Y-96190510D01*
X150061991Y-96190513D01*
X150114731Y-96220963D01*
X150169268Y-96275501D01*
X150189230Y-96350001D01*
X150169267Y-96424501D01*
X150114731Y-96479037D01*
X150061991Y-96509486D01*
X150061987Y-96509489D01*
X149959488Y-96611988D01*
X149887016Y-96737512D01*
X149849500Y-96877523D01*
X149849500Y-97022476D01*
X149887016Y-97162487D01*
X149959488Y-97288011D01*
X149959489Y-97288012D01*
X149959491Y-97288015D01*
X150061985Y-97390509D01*
X150061987Y-97390510D01*
X150061991Y-97390513D01*
X150114731Y-97420963D01*
X150169268Y-97475501D01*
X150189230Y-97550001D01*
X150169267Y-97624501D01*
X150114731Y-97679037D01*
X150061991Y-97709486D01*
X150061987Y-97709489D01*
X149959488Y-97811988D01*
X149887016Y-97937512D01*
X149849500Y-98077523D01*
X149849500Y-98222476D01*
X149887016Y-98362487D01*
X149959488Y-98488011D01*
X149959489Y-98488012D01*
X149959491Y-98488015D01*
X150061985Y-98590509D01*
X150061987Y-98590510D01*
X150061991Y-98590513D01*
X150071430Y-98595963D01*
X150125968Y-98650501D01*
X150145929Y-98725002D01*
X150125966Y-98799501D01*
X150071430Y-98854037D01*
X150061991Y-98859486D01*
X150061987Y-98859489D01*
X149959488Y-98961988D01*
X149887016Y-99087512D01*
X149849500Y-99227523D01*
X149849500Y-99372476D01*
X149887016Y-99512487D01*
X149959488Y-99638011D01*
X149959489Y-99638012D01*
X149959491Y-99638015D01*
X150061985Y-99740509D01*
X150061987Y-99740510D01*
X150061988Y-99740511D01*
X150114731Y-99770962D01*
X150169269Y-99825500D01*
X150189231Y-99900000D01*
X150169269Y-99974500D01*
X150114731Y-100029038D01*
X150061988Y-100059488D01*
X149959488Y-100161988D01*
X149887016Y-100287512D01*
X149849500Y-100427523D01*
X149849500Y-100572476D01*
X149887016Y-100712487D01*
X149959488Y-100838011D01*
X149959489Y-100838012D01*
X149959491Y-100838015D01*
X150061985Y-100940509D01*
X150061987Y-100940510D01*
X150061988Y-100940511D01*
X150158032Y-100995962D01*
X150212570Y-101050500D01*
X150232532Y-101125000D01*
X150212570Y-101199500D01*
X150158032Y-101254038D01*
X150061988Y-101309488D01*
X149959488Y-101411988D01*
X149887016Y-101537512D01*
X149849500Y-101677523D01*
X149849500Y-101822476D01*
X149887016Y-101962487D01*
X149959488Y-102088011D01*
X149959489Y-102088012D01*
X149959491Y-102088015D01*
X150061985Y-102190509D01*
X150061987Y-102190510D01*
X150061991Y-102190513D01*
X150071430Y-102195963D01*
X150125968Y-102250501D01*
X150145929Y-102325002D01*
X150125966Y-102399501D01*
X150071430Y-102454037D01*
X150061991Y-102459486D01*
X150061987Y-102459489D01*
X149959488Y-102561988D01*
X149887016Y-102687512D01*
X149849500Y-102827523D01*
X149849500Y-102972476D01*
X149887016Y-103112487D01*
X149959488Y-103238011D01*
X149959489Y-103238012D01*
X149959491Y-103238015D01*
X150061985Y-103340509D01*
X150061987Y-103340510D01*
X150061988Y-103340511D01*
X150104798Y-103365227D01*
X150175001Y-103405759D01*
X150229538Y-103460296D01*
X150249500Y-103534796D01*
X150249500Y-103622476D01*
X150287016Y-103762487D01*
X150359488Y-103888011D01*
X150359489Y-103888012D01*
X150359491Y-103888015D01*
X150461985Y-103990509D01*
X150461987Y-103990510D01*
X150461988Y-103990511D01*
X150587512Y-104062983D01*
X150587514Y-104062983D01*
X150587515Y-104062984D01*
X150727525Y-104100500D01*
X150872475Y-104100500D01*
X151012485Y-104062984D01*
X151016788Y-104060500D01*
X151108016Y-104007829D01*
X151138015Y-103990509D01*
X151227294Y-103901229D01*
X151294086Y-103862666D01*
X151371214Y-103862666D01*
X151423355Y-103888378D01*
X151440044Y-103901183D01*
X151465001Y-103934999D01*
X151571843Y-104013852D01*
X151599488Y-104023525D01*
X151618436Y-104038064D01*
X151627866Y-104050354D01*
X151640666Y-104059080D01*
X151650953Y-104080441D01*
X151665389Y-104099253D01*
X151667411Y-104114612D01*
X151674133Y-104128569D01*
X151673052Y-104157455D01*
X151675458Y-104175721D01*
X151672063Y-104183916D01*
X151671655Y-104194839D01*
X151649500Y-104277521D01*
X151649500Y-104422476D01*
X151687016Y-104562487D01*
X151759488Y-104688011D01*
X151759489Y-104688012D01*
X151759491Y-104688015D01*
X151861985Y-104790509D01*
X151861987Y-104790510D01*
X151861988Y-104790511D01*
X151987512Y-104862983D01*
X151987514Y-104862983D01*
X151987515Y-104862984D01*
X152127525Y-104900500D01*
X152272475Y-104900500D01*
X152412485Y-104862984D01*
X152538015Y-104790509D01*
X152640509Y-104688015D01*
X152712984Y-104562485D01*
X152734995Y-104480336D01*
X152773555Y-104413546D01*
X153119650Y-104067451D01*
X153175795Y-104032174D01*
X153228157Y-104013852D01*
X153334999Y-103934999D01*
X153413852Y-103828157D01*
X153457710Y-103702819D01*
X153460500Y-103673066D01*
X153460500Y-103568321D01*
X153480462Y-103493821D01*
X153504141Y-103462962D01*
X153745141Y-103221962D01*
X153811936Y-103183398D01*
X153889064Y-103183398D01*
X153955859Y-103221962D01*
X153994423Y-103288757D01*
X153999500Y-103327321D01*
X153999500Y-106222388D01*
X153994422Y-106241337D01*
X153994422Y-106260955D01*
X153984614Y-106277940D01*
X153979538Y-106296888D01*
X153955857Y-106327749D01*
X153928730Y-106354875D01*
X153861934Y-106393438D01*
X153784806Y-106393436D01*
X153718012Y-106354871D01*
X153716533Y-106353184D01*
X153710422Y-106347073D01*
X153585089Y-106250900D01*
X153439128Y-106190442D01*
X153321828Y-106175000D01*
X152845000Y-106175000D01*
X152845000Y-106726000D01*
X152825038Y-106800500D01*
X152770500Y-106855038D01*
X152696000Y-106875000D01*
X152645000Y-106875000D01*
X152645000Y-106875500D01*
X152625038Y-106950000D01*
X152570500Y-107004538D01*
X152496000Y-107024500D01*
X151975981Y-107024500D01*
X151882195Y-107039354D01*
X151882193Y-107039355D01*
X151844110Y-107058760D01*
X151776465Y-107075000D01*
X151415488Y-107075000D01*
X151422942Y-107131626D01*
X151422945Y-107131635D01*
X151483400Y-107277589D01*
X151576209Y-107398538D01*
X151605725Y-107469795D01*
X151607000Y-107489243D01*
X151607000Y-107656514D01*
X151621853Y-107750302D01*
X151638185Y-107782356D01*
X151654220Y-107857799D01*
X151638186Y-107917640D01*
X151621854Y-107949693D01*
X151621854Y-107949696D01*
X151607000Y-108043481D01*
X151607000Y-108043484D01*
X151607000Y-108043485D01*
X151607000Y-108306514D01*
X151621853Y-108400302D01*
X151638185Y-108432356D01*
X151654220Y-108507799D01*
X151638186Y-108567640D01*
X151621854Y-108599693D01*
X151621259Y-108603452D01*
X151607000Y-108693481D01*
X151607000Y-108693484D01*
X151607000Y-108693485D01*
X151607000Y-108956514D01*
X151621853Y-109050302D01*
X151638185Y-109082356D01*
X151654220Y-109157799D01*
X151638186Y-109217640D01*
X151621854Y-109249693D01*
X151618562Y-109270480D01*
X151607000Y-109343481D01*
X151607000Y-109343484D01*
X151607000Y-109343485D01*
X151607000Y-109606514D01*
X151621853Y-109700302D01*
X151638185Y-109732356D01*
X151654220Y-109807799D01*
X151638186Y-109867640D01*
X151621854Y-109899693D01*
X151619907Y-109911988D01*
X151607000Y-109993481D01*
X151607000Y-109993484D01*
X151607000Y-109993485D01*
X151607000Y-110256514D01*
X151621853Y-110350302D01*
X151638185Y-110382356D01*
X151654220Y-110457799D01*
X151638186Y-110517640D01*
X151621854Y-110549693D01*
X151621854Y-110549696D01*
X151607000Y-110643481D01*
X151607000Y-110643484D01*
X151607000Y-110643485D01*
X151607000Y-110906514D01*
X151621853Y-111000302D01*
X151638185Y-111032356D01*
X151654220Y-111107799D01*
X151638186Y-111167640D01*
X151621854Y-111199693D01*
X151621854Y-111199696D01*
X151607000Y-111293481D01*
X151607000Y-111293484D01*
X151607000Y-111293485D01*
X151607000Y-111556514D01*
X151609095Y-111569740D01*
X151601029Y-111646445D01*
X151555691Y-111708841D01*
X151552641Y-111711245D01*
X151548388Y-111714508D01*
X151216009Y-112046888D01*
X151216008Y-112046889D01*
X151156701Y-112149611D01*
X151156702Y-112149611D01*
X151156701Y-112149615D01*
X151126000Y-112264189D01*
X151126000Y-113738211D01*
X151146899Y-113816206D01*
X151146900Y-113816210D01*
X151146901Y-113816211D01*
X151152866Y-113838474D01*
X151156701Y-113852787D01*
X151216008Y-113955510D01*
X151216009Y-113955511D01*
X151216011Y-113955514D01*
X151445860Y-114185363D01*
X151484423Y-114252156D01*
X151489500Y-114290720D01*
X151489500Y-114395474D01*
X151492289Y-114425214D01*
X151492289Y-114425216D01*
X151492290Y-114425219D01*
X151517562Y-114497441D01*
X151536148Y-114550558D01*
X151555577Y-114576883D01*
X151583755Y-114648679D01*
X151572260Y-114724946D01*
X151563496Y-114739820D01*
X151564374Y-114740327D01*
X151487016Y-114874312D01*
X151449500Y-115014323D01*
X151449500Y-115159276D01*
X151487016Y-115299287D01*
X151559488Y-115424811D01*
X151559489Y-115424812D01*
X151559491Y-115424815D01*
X151661985Y-115527309D01*
X151661987Y-115527310D01*
X151661988Y-115527311D01*
X151787512Y-115599783D01*
X151787514Y-115599783D01*
X151787515Y-115599784D01*
X151927525Y-115637300D01*
X152072475Y-115637300D01*
X152212485Y-115599784D01*
X152338015Y-115527309D01*
X152440509Y-115424815D01*
X152440512Y-115424808D01*
X152441193Y-115423923D01*
X152442082Y-115423240D01*
X152447414Y-115417909D01*
X152448116Y-115418611D01*
X152502384Y-115376972D01*
X152578852Y-115366907D01*
X152650109Y-115396425D01*
X152677607Y-115423923D01*
X152678289Y-115424812D01*
X152678291Y-115424815D01*
X152780785Y-115527309D01*
X152780787Y-115527310D01*
X152780788Y-115527311D01*
X152906312Y-115599783D01*
X152906314Y-115599783D01*
X152906315Y-115599784D01*
X153046325Y-115637300D01*
X153191275Y-115637300D01*
X153331285Y-115599784D01*
X153456815Y-115527309D01*
X153559309Y-115424815D01*
X153631784Y-115299285D01*
X153669300Y-115159275D01*
X153669300Y-115014325D01*
X153631784Y-114874315D01*
X153617452Y-114849491D01*
X153589263Y-114800665D01*
X153589262Y-114800664D01*
X153569300Y-114726164D01*
X153569300Y-114560302D01*
X153577662Y-114511089D01*
X153578430Y-114508895D01*
X153607710Y-114425219D01*
X153610500Y-114395466D01*
X153610500Y-113949334D01*
X153607710Y-113919581D01*
X153563852Y-113794243D01*
X153484999Y-113687401D01*
X153378157Y-113608548D01*
X153252819Y-113564690D01*
X153252816Y-113564689D01*
X153252814Y-113564689D01*
X153223074Y-113561900D01*
X153223066Y-113561900D01*
X152836934Y-113561900D01*
X152836925Y-113561900D01*
X152807185Y-113564689D01*
X152807182Y-113564689D01*
X152807181Y-113564690D01*
X152775262Y-113575859D01*
X152681841Y-113608548D01*
X152638478Y-113640552D01*
X152566682Y-113668729D01*
X152490415Y-113657233D01*
X152461522Y-113640552D01*
X152418158Y-113608548D01*
X152378267Y-113594589D01*
X152292819Y-113564690D01*
X152292816Y-113564689D01*
X152292814Y-113564689D01*
X152263074Y-113561900D01*
X152263066Y-113561900D01*
X152176000Y-113561900D01*
X152101500Y-113541938D01*
X152046962Y-113487400D01*
X152027000Y-113412900D01*
X152027000Y-113374499D01*
X152046962Y-113299999D01*
X152101500Y-113245461D01*
X152176000Y-113225499D01*
X153314019Y-113225499D01*
X153326841Y-113223468D01*
X153407804Y-113210646D01*
X153520842Y-113153050D01*
X153520843Y-113153048D01*
X153531290Y-113147726D01*
X153532032Y-113149182D01*
X153591599Y-113126316D01*
X153607174Y-113125500D01*
X155447389Y-113125500D01*
X155521889Y-113145462D01*
X155552748Y-113169141D01*
X156104884Y-113721276D01*
X156649518Y-114265910D01*
X156649520Y-114265913D01*
X156724087Y-114340480D01*
X156729147Y-114343401D01*
X156740089Y-114354052D01*
X156755490Y-114379914D01*
X156773817Y-114403797D01*
X156774982Y-114412648D01*
X156779551Y-114420320D01*
X156779956Y-114450421D01*
X156783887Y-114480265D01*
X156780474Y-114488818D01*
X156780591Y-114497441D01*
X156768200Y-114519586D01*
X156756705Y-114548402D01*
X156656005Y-114687003D01*
X156656005Y-114687004D01*
X156573789Y-114848360D01*
X156540120Y-114951985D01*
X156517829Y-115020591D01*
X156489500Y-115199454D01*
X156489500Y-115380546D01*
X156517829Y-115559409D01*
X156573789Y-115731639D01*
X156656004Y-115892994D01*
X156656006Y-115892996D01*
X156656009Y-115893002D01*
X156677746Y-115922921D01*
X156705386Y-115994926D01*
X156693320Y-116071105D01*
X156644781Y-116131044D01*
X156572776Y-116158684D01*
X156557202Y-116159500D01*
X155437270Y-116159500D01*
X155335408Y-116186794D01*
X155244093Y-116239515D01*
X155244089Y-116239518D01*
X154097427Y-117386178D01*
X154030632Y-117424742D01*
X153953504Y-117424742D01*
X153886709Y-117386178D01*
X153854410Y-117337838D01*
X153806599Y-117222410D01*
X153710426Y-117097077D01*
X153710422Y-117097073D01*
X153585089Y-117000900D01*
X153439128Y-116940442D01*
X153321828Y-116925000D01*
X152845000Y-116925000D01*
X152845000Y-117476000D01*
X152825038Y-117550500D01*
X152770500Y-117605038D01*
X152696000Y-117625000D01*
X152645000Y-117625000D01*
X152645000Y-117625500D01*
X152625038Y-117700000D01*
X152570500Y-117754538D01*
X152496000Y-117774500D01*
X151975981Y-117774500D01*
X151882195Y-117789354D01*
X151882193Y-117789355D01*
X151844110Y-117808760D01*
X151776465Y-117825000D01*
X151415488Y-117825000D01*
X151422942Y-117881626D01*
X151422945Y-117881635D01*
X151483400Y-118027589D01*
X151576209Y-118148538D01*
X151605725Y-118219795D01*
X151607000Y-118239243D01*
X151607000Y-118406514D01*
X151621853Y-118500302D01*
X151638185Y-118532356D01*
X151654220Y-118607799D01*
X151638186Y-118667640D01*
X151621854Y-118699693D01*
X151618246Y-118722474D01*
X151607000Y-118793481D01*
X151607000Y-118793484D01*
X151607000Y-118793485D01*
X151607000Y-119056514D01*
X151621853Y-119150302D01*
X151638185Y-119182356D01*
X151654220Y-119257799D01*
X151638186Y-119317640D01*
X151621854Y-119349693D01*
X151617596Y-119376582D01*
X151607000Y-119443481D01*
X151607000Y-119443484D01*
X151607000Y-119443485D01*
X151607001Y-119700499D01*
X151607001Y-119700500D01*
X151603000Y-119715432D01*
X151587039Y-119775000D01*
X151532501Y-119829538D01*
X151458002Y-119849500D01*
X151239742Y-119849500D01*
X151165242Y-119829538D01*
X151134384Y-119805859D01*
X151038017Y-119709493D01*
X151038011Y-119709488D01*
X150912487Y-119637016D01*
X150772475Y-119599500D01*
X150627525Y-119599500D01*
X150487512Y-119637016D01*
X150361988Y-119709488D01*
X150259488Y-119811988D01*
X150187016Y-119937512D01*
X150149500Y-120077523D01*
X150149500Y-120115204D01*
X150129538Y-120189704D01*
X150075001Y-120244240D01*
X150045916Y-120261032D01*
X149961988Y-120309488D01*
X149859488Y-120411988D01*
X149787016Y-120537512D01*
X149749500Y-120677523D01*
X149749500Y-120822476D01*
X149787016Y-120962487D01*
X149859488Y-121088011D01*
X149859489Y-121088012D01*
X149859491Y-121088015D01*
X149961985Y-121190509D01*
X149961987Y-121190510D01*
X149961991Y-121190513D01*
X150014731Y-121220963D01*
X150069268Y-121275501D01*
X150089230Y-121350001D01*
X150069267Y-121424501D01*
X150014731Y-121479037D01*
X149961991Y-121509486D01*
X149961987Y-121509489D01*
X149859488Y-121611988D01*
X149787016Y-121737512D01*
X149749500Y-121877523D01*
X149749500Y-122022476D01*
X149787016Y-122162487D01*
X149859488Y-122288011D01*
X149859489Y-122288012D01*
X149859491Y-122288015D01*
X149961985Y-122390509D01*
X149961987Y-122390510D01*
X149961991Y-122390513D01*
X150014731Y-122420963D01*
X150069268Y-122475501D01*
X150089230Y-122550001D01*
X150069267Y-122624501D01*
X150014731Y-122679037D01*
X149961991Y-122709486D01*
X149961987Y-122709489D01*
X149859488Y-122811988D01*
X149787016Y-122937512D01*
X149749500Y-123077523D01*
X149749500Y-123222476D01*
X149787016Y-123362487D01*
X149859488Y-123488011D01*
X149859489Y-123488012D01*
X149859491Y-123488015D01*
X149961985Y-123590509D01*
X149961987Y-123590510D01*
X149961988Y-123590511D01*
X150004798Y-123615227D01*
X150075001Y-123655759D01*
X150129538Y-123710296D01*
X150149500Y-123784796D01*
X150149500Y-123822476D01*
X150187016Y-123962487D01*
X150259488Y-124088011D01*
X150259489Y-124088012D01*
X150259491Y-124088015D01*
X150361985Y-124190509D01*
X150363574Y-124191426D01*
X150364872Y-124192724D01*
X150369739Y-124196459D01*
X150369247Y-124197099D01*
X150385131Y-124212982D01*
X150408962Y-124231985D01*
X150412079Y-124239928D01*
X150418114Y-124245962D01*
X150426004Y-124275403D01*
X150437142Y-124303780D01*
X150435870Y-124312218D01*
X150438079Y-124320461D01*
X150430190Y-124349907D01*
X150425648Y-124380047D01*
X150420328Y-124386717D01*
X150418120Y-124394962D01*
X150377561Y-124440350D01*
X150347709Y-124462383D01*
X150275914Y-124490563D01*
X150259227Y-124491500D01*
X150126635Y-124491500D01*
X150052135Y-124471538D01*
X150052134Y-124471537D01*
X149978488Y-124429017D01*
X149978485Y-124429016D01*
X149838475Y-124391500D01*
X149693525Y-124391500D01*
X149553512Y-124429016D01*
X149427988Y-124501488D01*
X149325488Y-124603988D01*
X149253016Y-124729512D01*
X149215500Y-124869523D01*
X149215500Y-125014476D01*
X149253016Y-125154487D01*
X149325488Y-125280011D01*
X149325489Y-125280012D01*
X149325491Y-125280015D01*
X149427985Y-125382509D01*
X149427987Y-125382510D01*
X149427988Y-125382511D01*
X149553512Y-125454983D01*
X149553514Y-125454983D01*
X149553515Y-125454984D01*
X149693525Y-125492500D01*
X149838475Y-125492500D01*
X149978485Y-125454984D01*
X150005906Y-125439152D01*
X150052134Y-125412463D01*
X150052135Y-125412462D01*
X150106672Y-125397849D01*
X150126634Y-125392500D01*
X150259227Y-125392500D01*
X150333727Y-125412462D01*
X150347707Y-125421615D01*
X150354999Y-125426997D01*
X150355001Y-125426999D01*
X150461843Y-125505852D01*
X150587181Y-125549710D01*
X150616934Y-125552500D01*
X150616942Y-125552500D01*
X151003058Y-125552500D01*
X151003066Y-125552500D01*
X151032819Y-125549710D01*
X151158157Y-125505852D01*
X151201521Y-125473847D01*
X151273317Y-125445670D01*
X151349583Y-125457165D01*
X151378475Y-125473845D01*
X151421843Y-125505852D01*
X151547181Y-125549710D01*
X151576934Y-125552500D01*
X151576942Y-125552500D01*
X151963058Y-125552500D01*
X151963066Y-125552500D01*
X151992819Y-125549710D01*
X152118157Y-125505852D01*
X152224999Y-125426999D01*
X152225000Y-125426997D01*
X152232293Y-125421615D01*
X152240238Y-125418496D01*
X152246273Y-125412462D01*
X152275716Y-125404572D01*
X152304090Y-125393437D01*
X152320773Y-125392500D01*
X152326365Y-125392500D01*
X152400865Y-125412462D01*
X152400866Y-125412463D01*
X152474511Y-125454982D01*
X152474512Y-125454982D01*
X152474515Y-125454984D01*
X152614525Y-125492500D01*
X152759475Y-125492500D01*
X152899485Y-125454984D01*
X152899489Y-125454982D01*
X153007710Y-125392500D01*
X153025015Y-125382509D01*
X153127509Y-125280015D01*
X153199984Y-125154485D01*
X153237500Y-125014475D01*
X153237500Y-124869525D01*
X153199984Y-124729515D01*
X153199983Y-124729514D01*
X153199983Y-124729512D01*
X153127511Y-124603988D01*
X153127510Y-124603987D01*
X153127509Y-124603985D01*
X153025015Y-124501491D01*
X153025012Y-124501489D01*
X153025011Y-124501488D01*
X152899487Y-124429016D01*
X152759475Y-124391500D01*
X152614525Y-124391500D01*
X152474511Y-124429017D01*
X152400866Y-124471537D01*
X152400865Y-124471538D01*
X152346328Y-124486150D01*
X152326366Y-124491500D01*
X152320773Y-124491500D01*
X152246273Y-124471538D01*
X152232293Y-124462385D01*
X152225000Y-124457002D01*
X152224999Y-124457001D01*
X152118157Y-124378148D01*
X152118156Y-124378147D01*
X152118154Y-124378146D01*
X152094288Y-124369795D01*
X152082631Y-124361847D01*
X152069000Y-124358195D01*
X152051271Y-124340466D01*
X152030562Y-124326347D01*
X152024440Y-124313635D01*
X152014462Y-124303657D01*
X152007973Y-124279439D01*
X151997098Y-124256857D01*
X151994500Y-124229157D01*
X151994500Y-124124499D01*
X152014462Y-124049999D01*
X152069000Y-123995461D01*
X152143500Y-123975499D01*
X153314019Y-123975499D01*
X153326841Y-123973468D01*
X153407804Y-123960646D01*
X153520842Y-123903050D01*
X153610550Y-123813342D01*
X153668146Y-123700304D01*
X153683000Y-123606519D01*
X153682999Y-123343482D01*
X153668146Y-123249696D01*
X153651814Y-123217644D01*
X153635779Y-123142202D01*
X153651815Y-123082355D01*
X153658110Y-123070000D01*
X153668146Y-123050304D01*
X153683000Y-122956519D01*
X153682999Y-122693482D01*
X153668146Y-122599696D01*
X153651814Y-122567644D01*
X153635779Y-122492202D01*
X153651815Y-122432355D01*
X153656882Y-122422410D01*
X153668146Y-122400304D01*
X153683000Y-122306519D01*
X153682999Y-122043482D01*
X153668146Y-121949696D01*
X153651814Y-121917644D01*
X153635779Y-121842202D01*
X153651815Y-121782355D01*
X153652624Y-121780767D01*
X153668146Y-121750304D01*
X153683000Y-121656519D01*
X153682999Y-121393482D01*
X153668146Y-121299696D01*
X153651814Y-121267644D01*
X153635779Y-121192202D01*
X153651815Y-121132355D01*
X153658364Y-121119502D01*
X153668146Y-121100304D01*
X153683000Y-121006519D01*
X153682999Y-120743482D01*
X153668146Y-120649696D01*
X153651814Y-120617644D01*
X153635779Y-120542202D01*
X153643454Y-120502191D01*
X153646918Y-120491965D01*
X153668146Y-120450304D01*
X153674391Y-120410871D01*
X153678455Y-120398877D01*
X153693070Y-120376975D01*
X153703781Y-120352918D01*
X153714150Y-120345383D01*
X153721266Y-120334721D01*
X153744874Y-120323061D01*
X153766178Y-120307583D01*
X153778927Y-120306242D01*
X153790420Y-120300567D01*
X153816692Y-120302273D01*
X153842884Y-120299520D01*
X153854595Y-120304734D01*
X153867385Y-120305565D01*
X153889286Y-120320180D01*
X153913344Y-120330891D01*
X153924924Y-120341317D01*
X154054087Y-120470480D01*
X154054089Y-120470481D01*
X154054093Y-120470484D01*
X154145408Y-120523205D01*
X154145409Y-120523205D01*
X154145412Y-120523207D01*
X154247273Y-120550500D01*
X154247278Y-120550500D01*
X154256953Y-120551774D01*
X154256581Y-120554599D01*
X154315781Y-120570462D01*
X154370319Y-120625000D01*
X154390281Y-120699500D01*
X154379892Y-120754162D01*
X154334640Y-120868909D01*
X154324500Y-120953352D01*
X154324500Y-121485647D01*
X154334640Y-121570090D01*
X154387635Y-121704473D01*
X154387638Y-121704479D01*
X154444229Y-121779104D01*
X154474922Y-121819578D01*
X154523227Y-121856209D01*
X154549031Y-121875777D01*
X154596330Y-121936699D01*
X154606831Y-122013109D01*
X154577721Y-122084533D01*
X154549031Y-122113222D01*
X154486688Y-122160500D01*
X154474921Y-122169423D01*
X154474920Y-122169424D01*
X154387638Y-122284520D01*
X154387635Y-122284526D01*
X154334640Y-122418909D01*
X154324500Y-122503352D01*
X154324500Y-123035647D01*
X154334640Y-123120090D01*
X154378174Y-123230482D01*
X154387636Y-123254475D01*
X154469543Y-123362485D01*
X154474923Y-123369579D01*
X154490528Y-123381412D01*
X154537830Y-123442332D01*
X154549500Y-123500138D01*
X154549500Y-124351945D01*
X154529538Y-124426445D01*
X154488080Y-124472489D01*
X154350500Y-124572446D01*
X154350497Y-124572448D01*
X154222448Y-124700497D01*
X154222446Y-124700500D01*
X154116005Y-124847003D01*
X154116005Y-124847004D01*
X154033789Y-125008360D01*
X154031802Y-125014475D01*
X153977829Y-125180591D01*
X153949500Y-125359454D01*
X153949500Y-125540546D01*
X153977829Y-125719409D01*
X154033789Y-125891639D01*
X154116004Y-126052994D01*
X154222447Y-126199501D01*
X154350499Y-126327553D01*
X154497006Y-126433996D01*
X154658361Y-126516211D01*
X154769141Y-126552205D01*
X154789414Y-126558792D01*
X154854099Y-126600799D01*
X154889115Y-126669520D01*
X154885079Y-126746543D01*
X154843072Y-126811228D01*
X154774351Y-126846244D01*
X154743371Y-126849500D01*
X138739000Y-126849500D01*
X138664500Y-126829538D01*
X138609962Y-126775000D01*
X138590000Y-126700500D01*
X138590000Y-124180000D01*
X137982309Y-124180000D01*
X137907809Y-124160038D01*
X137853271Y-124105500D01*
X137833309Y-124031000D01*
X137853271Y-123956500D01*
X137907809Y-123901962D01*
X137914665Y-123898240D01*
X137915626Y-123897749D01*
X137922994Y-123893996D01*
X138069501Y-123787553D01*
X138197553Y-123659501D01*
X138303996Y-123512994D01*
X138386211Y-123351639D01*
X138442171Y-123179409D01*
X138470500Y-123000546D01*
X138470500Y-122819454D01*
X138442171Y-122640591D01*
X138386211Y-122468361D01*
X138303996Y-122307006D01*
X138197553Y-122160499D01*
X138069501Y-122032447D01*
X137922994Y-121926004D01*
X137761639Y-121843789D01*
X137756755Y-121842202D01*
X137589408Y-121787828D01*
X137585223Y-121787166D01*
X137514762Y-121755796D01*
X137469427Y-121693398D01*
X137461364Y-121616693D01*
X137492734Y-121546232D01*
X137555132Y-121500897D01*
X137585223Y-121492834D01*
X137585362Y-121492811D01*
X137589409Y-121492171D01*
X137761639Y-121436211D01*
X137922994Y-121353996D01*
X138069501Y-121247553D01*
X138197553Y-121119501D01*
X138303996Y-120972994D01*
X138386211Y-120811639D01*
X138442171Y-120639409D01*
X138470500Y-120460546D01*
X138470500Y-120279454D01*
X138442171Y-120100591D01*
X138386211Y-119928361D01*
X138303996Y-119767006D01*
X138303989Y-119766997D01*
X138266525Y-119715432D01*
X138197553Y-119620499D01*
X138069501Y-119492447D01*
X137922994Y-119386004D01*
X137761639Y-119303789D01*
X137760408Y-119303389D01*
X137589408Y-119247828D01*
X137585223Y-119247166D01*
X137514762Y-119215796D01*
X137469427Y-119153398D01*
X137461364Y-119076693D01*
X137492734Y-119006232D01*
X137555132Y-118960897D01*
X137585223Y-118952834D01*
X137585362Y-118952811D01*
X137589409Y-118952171D01*
X137761639Y-118896211D01*
X137922994Y-118813996D01*
X138069501Y-118707553D01*
X138197553Y-118579501D01*
X138303996Y-118432994D01*
X138386211Y-118271639D01*
X138442171Y-118099409D01*
X138470500Y-117920546D01*
X138470500Y-117739454D01*
X138442171Y-117560591D01*
X138386211Y-117388361D01*
X138303996Y-117227006D01*
X138303989Y-117226997D01*
X138282159Y-117196950D01*
X138197553Y-117080499D01*
X138069501Y-116952447D01*
X137922994Y-116846004D01*
X137761639Y-116763789D01*
X137589408Y-116707828D01*
X137585223Y-116707166D01*
X137514762Y-116675796D01*
X137469427Y-116613398D01*
X137461364Y-116536693D01*
X137492734Y-116466232D01*
X137555132Y-116420897D01*
X137585223Y-116412834D01*
X137585362Y-116412811D01*
X137589409Y-116412171D01*
X137761639Y-116356211D01*
X137922994Y-116273996D01*
X138069501Y-116167553D01*
X138197553Y-116039501D01*
X138303996Y-115892994D01*
X138386211Y-115731639D01*
X138442171Y-115559409D01*
X138470500Y-115380546D01*
X138470500Y-115199454D01*
X138442171Y-115020591D01*
X138386211Y-114848361D01*
X138303996Y-114687006D01*
X138303989Y-114686997D01*
X138257873Y-114623523D01*
X138197553Y-114540499D01*
X138069501Y-114412447D01*
X137922994Y-114306004D01*
X137761639Y-114223789D01*
X137728560Y-114213041D01*
X137589408Y-114167828D01*
X137585223Y-114167166D01*
X137514762Y-114135796D01*
X137469427Y-114073398D01*
X137461364Y-113996693D01*
X137492734Y-113926232D01*
X137555132Y-113880897D01*
X137585223Y-113872834D01*
X137585362Y-113872811D01*
X137589409Y-113872171D01*
X137761639Y-113816211D01*
X137922994Y-113733996D01*
X138069501Y-113627553D01*
X138197553Y-113499501D01*
X138303996Y-113352994D01*
X138386211Y-113191639D01*
X138442171Y-113019409D01*
X138470500Y-112840546D01*
X138470500Y-112659454D01*
X138442171Y-112480591D01*
X138386211Y-112308361D01*
X138303996Y-112147006D01*
X138303989Y-112146997D01*
X138229938Y-112045074D01*
X138197553Y-112000499D01*
X138069501Y-111872447D01*
X137922994Y-111766004D01*
X137761639Y-111683789D01*
X137589408Y-111627828D01*
X137585223Y-111627166D01*
X137514762Y-111595796D01*
X137469427Y-111533398D01*
X137461364Y-111456693D01*
X137492734Y-111386232D01*
X137555132Y-111340897D01*
X137585223Y-111332834D01*
X137585362Y-111332811D01*
X137589409Y-111332171D01*
X137761639Y-111276211D01*
X137922994Y-111193996D01*
X138069501Y-111087553D01*
X138197553Y-110959501D01*
X138303996Y-110812994D01*
X138386211Y-110651639D01*
X138442171Y-110479409D01*
X138470500Y-110300546D01*
X138470500Y-110119454D01*
X138442171Y-109940591D01*
X138386211Y-109768361D01*
X138303996Y-109607006D01*
X138303641Y-109606518D01*
X138248745Y-109530959D01*
X138197553Y-109460499D01*
X138069501Y-109332447D01*
X137922994Y-109226004D01*
X137761639Y-109143789D01*
X137754942Y-109141613D01*
X137589408Y-109087828D01*
X137585223Y-109087166D01*
X137514762Y-109055796D01*
X137469427Y-108993398D01*
X137461364Y-108916693D01*
X137492734Y-108846232D01*
X137555132Y-108800897D01*
X137585223Y-108792834D01*
X137585362Y-108792811D01*
X137589409Y-108792171D01*
X137761639Y-108736211D01*
X137922994Y-108653996D01*
X138069501Y-108547553D01*
X138197553Y-108419501D01*
X138303996Y-108272994D01*
X138386211Y-108111639D01*
X138442171Y-107939409D01*
X138470500Y-107760546D01*
X138470500Y-107579454D01*
X138442171Y-107400591D01*
X138386211Y-107228361D01*
X138303996Y-107067006D01*
X138303989Y-107066997D01*
X138271643Y-107022476D01*
X138197553Y-106920499D01*
X138069501Y-106792447D01*
X137922994Y-106686004D01*
X137761639Y-106603789D01*
X137589408Y-106547828D01*
X137585223Y-106547166D01*
X137514762Y-106515796D01*
X137469427Y-106453398D01*
X137461364Y-106376693D01*
X137492734Y-106306232D01*
X137555132Y-106260897D01*
X137585223Y-106252834D01*
X137585362Y-106252811D01*
X137589409Y-106252171D01*
X137761639Y-106196211D01*
X137922994Y-106113996D01*
X138069501Y-106007553D01*
X138197553Y-105879501D01*
X138303996Y-105732994D01*
X138386211Y-105571639D01*
X138442171Y-105399409D01*
X138470500Y-105220546D01*
X138470500Y-105039454D01*
X138442171Y-104860591D01*
X138386211Y-104688361D01*
X138303996Y-104527006D01*
X138303989Y-104526997D01*
X138246517Y-104447893D01*
X138197553Y-104380499D01*
X138069501Y-104252447D01*
X137922994Y-104146004D01*
X137761639Y-104063789D01*
X137747146Y-104059080D01*
X137589408Y-104007828D01*
X137585223Y-104007166D01*
X137514762Y-103975796D01*
X137469427Y-103913398D01*
X137461364Y-103836693D01*
X137492734Y-103766232D01*
X137555132Y-103720897D01*
X137585223Y-103712834D01*
X137586366Y-103712653D01*
X137589409Y-103712171D01*
X137761639Y-103656211D01*
X137922994Y-103573996D01*
X138069501Y-103467553D01*
X138197553Y-103339501D01*
X138303996Y-103192994D01*
X138386211Y-103031639D01*
X138442171Y-102859409D01*
X138470500Y-102680546D01*
X138470500Y-102499454D01*
X138442171Y-102320591D01*
X138386211Y-102148361D01*
X138303996Y-101987006D01*
X138303989Y-101986997D01*
X138282895Y-101957963D01*
X138197553Y-101840499D01*
X138069501Y-101712447D01*
X137922994Y-101606004D01*
X137761639Y-101523789D01*
X137715384Y-101508760D01*
X137589408Y-101467828D01*
X137585223Y-101467166D01*
X137514762Y-101435796D01*
X137469427Y-101373398D01*
X137461364Y-101296693D01*
X137492734Y-101226232D01*
X137555132Y-101180897D01*
X137585223Y-101172834D01*
X137585362Y-101172811D01*
X137589409Y-101172171D01*
X137761639Y-101116211D01*
X137922994Y-101033996D01*
X138069501Y-100927553D01*
X138197553Y-100799501D01*
X138303996Y-100652994D01*
X138386211Y-100491639D01*
X138442171Y-100319409D01*
X138470500Y-100140546D01*
X138470500Y-99959454D01*
X138442171Y-99780591D01*
X138386211Y-99608361D01*
X138303996Y-99447006D01*
X138303989Y-99446997D01*
X138282253Y-99417079D01*
X138197553Y-99300499D01*
X138069501Y-99172447D01*
X137922994Y-99066004D01*
X137761639Y-98983789D01*
X137757226Y-98982355D01*
X137589408Y-98927828D01*
X137585223Y-98927166D01*
X137514762Y-98895796D01*
X137469427Y-98833398D01*
X137461364Y-98756693D01*
X137492734Y-98686232D01*
X137555132Y-98640897D01*
X137585223Y-98632834D01*
X137585362Y-98632811D01*
X137589409Y-98632171D01*
X137761639Y-98576211D01*
X137922994Y-98493996D01*
X138069501Y-98387553D01*
X138197553Y-98259501D01*
X138303996Y-98112994D01*
X138386211Y-97951639D01*
X138442171Y-97779409D01*
X138470500Y-97600546D01*
X138470500Y-97419454D01*
X138442171Y-97240591D01*
X138386211Y-97068361D01*
X138303996Y-96907006D01*
X138303989Y-96906997D01*
X138272750Y-96864000D01*
X138197553Y-96760499D01*
X138069501Y-96632447D01*
X137922994Y-96526004D01*
X137761639Y-96443789D01*
X137739692Y-96436658D01*
X137589408Y-96387828D01*
X137585223Y-96387166D01*
X137514762Y-96355796D01*
X137469427Y-96293398D01*
X137461364Y-96216693D01*
X137492734Y-96146232D01*
X137555132Y-96100897D01*
X137585223Y-96092834D01*
X137585362Y-96092811D01*
X137589409Y-96092171D01*
X137761639Y-96036211D01*
X137922994Y-95953996D01*
X138069501Y-95847553D01*
X138197553Y-95719501D01*
X138303996Y-95572994D01*
X138386211Y-95411639D01*
X138442171Y-95239409D01*
X138470500Y-95060546D01*
X138470500Y-94879454D01*
X138442171Y-94700591D01*
X138386211Y-94528361D01*
X138322846Y-94404000D01*
X139040069Y-94404000D01*
X139042832Y-94439122D01*
X139087594Y-94593191D01*
X139087594Y-94593192D01*
X139169262Y-94731285D01*
X139169263Y-94731287D01*
X139228636Y-94790661D01*
X139267199Y-94857456D01*
X139267199Y-94934584D01*
X139263915Y-94945229D01*
X139242258Y-95007121D01*
X139242258Y-95007122D01*
X139239500Y-95036534D01*
X139239500Y-95411452D01*
X139239502Y-95411475D01*
X139242258Y-95440878D01*
X139242260Y-95440885D01*
X139285617Y-95564791D01*
X139285618Y-95564793D01*
X139285619Y-95564794D01*
X139363577Y-95670423D01*
X139398979Y-95696551D01*
X139447067Y-95756848D01*
X139459500Y-95816435D01*
X139459500Y-96140335D01*
X139454424Y-96178893D01*
X139451312Y-96190510D01*
X139449500Y-96197274D01*
X139449500Y-96689258D01*
X139429538Y-96763758D01*
X139414900Y-96782836D01*
X139415432Y-96783244D01*
X139409488Y-96790988D01*
X139337016Y-96916512D01*
X139299500Y-97056523D01*
X139299500Y-97201476D01*
X139337016Y-97341487D01*
X139409488Y-97467011D01*
X139409489Y-97467012D01*
X139409491Y-97467015D01*
X139511985Y-97569509D01*
X139511987Y-97569510D01*
X139511988Y-97569511D01*
X139637512Y-97641983D01*
X139637514Y-97641983D01*
X139637515Y-97641984D01*
X139777525Y-97679500D01*
X139922475Y-97679500D01*
X140062485Y-97641984D01*
X140188015Y-97569509D01*
X140290509Y-97467015D01*
X140362984Y-97341485D01*
X140400500Y-97201475D01*
X140400500Y-97056525D01*
X140362984Y-96916515D01*
X140362983Y-96916514D01*
X140362983Y-96916512D01*
X140290511Y-96790988D01*
X140284568Y-96783244D01*
X140286648Y-96781647D01*
X140255571Y-96727800D01*
X140250500Y-96689258D01*
X140250500Y-96349664D01*
X140255577Y-96311099D01*
X140258551Y-96299999D01*
X140260500Y-96292727D01*
X140260500Y-96187273D01*
X140260500Y-95816435D01*
X140280462Y-95741935D01*
X140321019Y-95696551D01*
X140356423Y-95670423D01*
X140434381Y-95564794D01*
X140477741Y-95440879D01*
X140480500Y-95411457D01*
X140480499Y-95036544D01*
X140477741Y-95007121D01*
X140477739Y-95007114D01*
X140456085Y-94945230D01*
X140455657Y-94939532D01*
X140452800Y-94934582D01*
X140452800Y-94901404D01*
X140450320Y-94868318D01*
X140452800Y-94863168D01*
X140452800Y-94857454D01*
X140469389Y-94828719D01*
X140483785Y-94798828D01*
X140491364Y-94790659D01*
X140513782Y-94768241D01*
X140513782Y-94768240D01*
X140513783Y-94768240D01*
X140550737Y-94731286D01*
X140550737Y-94731285D01*
X140632405Y-94593192D01*
X140632405Y-94593191D01*
X140677167Y-94439122D01*
X140679931Y-94404000D01*
X139040069Y-94404000D01*
X138322846Y-94404000D01*
X138303996Y-94367006D01*
X138303989Y-94366997D01*
X138282253Y-94337079D01*
X138197553Y-94220499D01*
X138069501Y-94092447D01*
X137996247Y-94039225D01*
X137922996Y-93986005D01*
X137922990Y-93986002D01*
X137841952Y-93944710D01*
X137784635Y-93893101D01*
X137760802Y-93819748D01*
X137776839Y-93744305D01*
X137828448Y-93686988D01*
X137841953Y-93679191D01*
X138027555Y-93584621D01*
X138122671Y-93515515D01*
X138122672Y-93515515D01*
X137505176Y-92898019D01*
X137512993Y-92895925D01*
X137627007Y-92830099D01*
X137720099Y-92737007D01*
X137785925Y-92622993D01*
X137788019Y-92615176D01*
X138405515Y-93232672D01*
X138405515Y-93232671D01*
X138474621Y-93137555D01*
X138474622Y-93137555D01*
X138571091Y-92948224D01*
X138612965Y-92819349D01*
X138654972Y-92754663D01*
X138723693Y-92719647D01*
X138800715Y-92723683D01*
X138865401Y-92765690D01*
X138896110Y-92818523D01*
X138948454Y-92976486D01*
X139037427Y-93120732D01*
X139157267Y-93240572D01*
X139275963Y-93313786D01*
X139328891Y-93369887D01*
X139346678Y-93444937D01*
X139324557Y-93518824D01*
X139289073Y-93558328D01*
X139282717Y-93563258D01*
X139169263Y-93676712D01*
X139169262Y-93676714D01*
X139087594Y-93814807D01*
X139087594Y-93814808D01*
X139042832Y-93968877D01*
X139040068Y-94003999D01*
X139040069Y-94004000D01*
X139660000Y-94004000D01*
X139660000Y-92592000D01*
X139679962Y-92517500D01*
X139734500Y-92462962D01*
X139809000Y-92443000D01*
X139911000Y-92443000D01*
X139985500Y-92462962D01*
X140040038Y-92517500D01*
X140060000Y-92592000D01*
X140060000Y-94004000D01*
X140679931Y-94004000D01*
X140679931Y-94003999D01*
X140677167Y-93968877D01*
X140632405Y-93814808D01*
X140632405Y-93814807D01*
X140550737Y-93676714D01*
X140550736Y-93676712D01*
X140437284Y-93563260D01*
X140430930Y-93558331D01*
X140384301Y-93496895D01*
X140374637Y-93420375D01*
X140404529Y-93349274D01*
X140444036Y-93313786D01*
X140562732Y-93240572D01*
X140682572Y-93120732D01*
X140771546Y-92976485D01*
X140823889Y-92818524D01*
X140866271Y-92754084D01*
X140935196Y-92719469D01*
X141012193Y-92723954D01*
X141076633Y-92766336D01*
X141107033Y-92819348D01*
X141148906Y-92948220D01*
X141245378Y-93137555D01*
X141245383Y-93137564D01*
X141314482Y-93232671D01*
X141314484Y-93232671D01*
X141931980Y-92615174D01*
X141934075Y-92622993D01*
X141999901Y-92737007D01*
X142092993Y-92830099D01*
X142207007Y-92895925D01*
X142214822Y-92898019D01*
X141597327Y-93515514D01*
X141597327Y-93515516D01*
X141692435Y-93584616D01*
X141692444Y-93584621D01*
X141878046Y-93679191D01*
X141935363Y-93730800D01*
X141959197Y-93804153D01*
X141943161Y-93879596D01*
X141891552Y-93936913D01*
X141878047Y-93944710D01*
X141797009Y-93986001D01*
X141797003Y-93986005D01*
X141650500Y-94092446D01*
X141650497Y-94092448D01*
X141522448Y-94220497D01*
X141522446Y-94220500D01*
X141416005Y-94367003D01*
X141416005Y-94367004D01*
X141333789Y-94528360D01*
X141293129Y-94653501D01*
X141277829Y-94700591D01*
X141249500Y-94879454D01*
X141249500Y-95060546D01*
X141277829Y-95239409D01*
X141333789Y-95411639D01*
X141411825Y-95564793D01*
X141416005Y-95572995D01*
X141416005Y-95572996D01*
X141452212Y-95622830D01*
X141522447Y-95719501D01*
X141650499Y-95847553D01*
X141797006Y-95953996D01*
X141958361Y-96036211D01*
X142130591Y-96092171D01*
X142130592Y-96092171D01*
X142130595Y-96092172D01*
X142134779Y-96092835D01*
X142205238Y-96124206D01*
X142250573Y-96186604D01*
X142258634Y-96263310D01*
X142227263Y-96333769D01*
X142164865Y-96379104D01*
X142134779Y-96387165D01*
X142130595Y-96387827D01*
X141958360Y-96443789D01*
X141797004Y-96526005D01*
X141797003Y-96526005D01*
X141650500Y-96632446D01*
X141650497Y-96632448D01*
X141522448Y-96760497D01*
X141522446Y-96760500D01*
X141416005Y-96907003D01*
X141416005Y-96907004D01*
X141333789Y-97068360D01*
X141323509Y-97100000D01*
X141277829Y-97240591D01*
X141249500Y-97419454D01*
X141249500Y-97600546D01*
X141277829Y-97779409D01*
X141333789Y-97951639D01*
X141389256Y-98060499D01*
X141416005Y-98112995D01*
X141416005Y-98112996D01*
X141469020Y-98185965D01*
X141522447Y-98259501D01*
X141650499Y-98387553D01*
X141797006Y-98493996D01*
X141958361Y-98576211D01*
X142130591Y-98632171D01*
X142130592Y-98632171D01*
X142130595Y-98632172D01*
X142134779Y-98632835D01*
X142205238Y-98664206D01*
X142250573Y-98726604D01*
X142258634Y-98803310D01*
X142227263Y-98873769D01*
X142164865Y-98919104D01*
X142134779Y-98927165D01*
X142130595Y-98927827D01*
X141958360Y-98983789D01*
X141797004Y-99066005D01*
X141797003Y-99066005D01*
X141650500Y-99172446D01*
X141650497Y-99172448D01*
X141522448Y-99300497D01*
X141522446Y-99300500D01*
X141416005Y-99447003D01*
X141416005Y-99447004D01*
X141333789Y-99608360D01*
X141282035Y-99767645D01*
X141277829Y-99780591D01*
X141249500Y-99959454D01*
X141249500Y-100140546D01*
X141277829Y-100319409D01*
X141333789Y-100491639D01*
X141389256Y-100600499D01*
X141416005Y-100652995D01*
X141416005Y-100652996D01*
X141469046Y-100726000D01*
X141522447Y-100799501D01*
X141650499Y-100927553D01*
X141797006Y-101033996D01*
X141958361Y-101116211D01*
X142130591Y-101172171D01*
X142130592Y-101172171D01*
X142130595Y-101172172D01*
X142134779Y-101172835D01*
X142205238Y-101204206D01*
X142250573Y-101266604D01*
X142258634Y-101343310D01*
X142227263Y-101413769D01*
X142164865Y-101459104D01*
X142134779Y-101467165D01*
X142130595Y-101467827D01*
X141958360Y-101523789D01*
X141797004Y-101606005D01*
X141797003Y-101606005D01*
X141650500Y-101712446D01*
X141650497Y-101712448D01*
X141522448Y-101840497D01*
X141522446Y-101840500D01*
X141416005Y-101987003D01*
X141416005Y-101987004D01*
X141333789Y-102148360D01*
X141307670Y-102228748D01*
X141277829Y-102320591D01*
X141249500Y-102499454D01*
X141249500Y-102680546D01*
X141277829Y-102859409D01*
X141333789Y-103031639D01*
X141389256Y-103140499D01*
X141416005Y-103192995D01*
X141416005Y-103192996D01*
X141448713Y-103238015D01*
X141522447Y-103339501D01*
X141650499Y-103467553D01*
X141797006Y-103573996D01*
X141958361Y-103656211D01*
X142130591Y-103712171D01*
X142130592Y-103712171D01*
X142130595Y-103712172D01*
X142134779Y-103712835D01*
X142205238Y-103744206D01*
X142250573Y-103806604D01*
X142258634Y-103883310D01*
X142227263Y-103953769D01*
X142164865Y-103999104D01*
X142134779Y-104007165D01*
X142130595Y-104007827D01*
X141958360Y-104063789D01*
X141797004Y-104146005D01*
X141797003Y-104146005D01*
X141650500Y-104252446D01*
X141650497Y-104252448D01*
X141522448Y-104380497D01*
X141522446Y-104380500D01*
X141416005Y-104527003D01*
X141416005Y-104527004D01*
X141333789Y-104688360D01*
X141333422Y-104689491D01*
X141277829Y-104860591D01*
X141249500Y-105039454D01*
X141249500Y-105220546D01*
X141277829Y-105399409D01*
X141333789Y-105571639D01*
X141389256Y-105680499D01*
X141416005Y-105732995D01*
X141416005Y-105732996D01*
X141469225Y-105806247D01*
X141522447Y-105879501D01*
X141650499Y-106007553D01*
X141797006Y-106113996D01*
X141958361Y-106196211D01*
X142130591Y-106252171D01*
X142130592Y-106252171D01*
X142130595Y-106252172D01*
X142134779Y-106252835D01*
X142205238Y-106284206D01*
X142250573Y-106346604D01*
X142258634Y-106423310D01*
X142227263Y-106493769D01*
X142164865Y-106539104D01*
X142134779Y-106547165D01*
X142130595Y-106547827D01*
X141958360Y-106603789D01*
X141797004Y-106686005D01*
X141797003Y-106686005D01*
X141650500Y-106792446D01*
X141650497Y-106792448D01*
X141522448Y-106920497D01*
X141522446Y-106920500D01*
X141416005Y-107067003D01*
X141416005Y-107067004D01*
X141333789Y-107228360D01*
X141310611Y-107299696D01*
X141277829Y-107400591D01*
X141249500Y-107579454D01*
X141249500Y-107760546D01*
X141277829Y-107939409D01*
X141333789Y-108111639D01*
X141410650Y-108262487D01*
X141416005Y-108272995D01*
X141416005Y-108272996D01*
X141440360Y-108306518D01*
X141522447Y-108419501D01*
X141650499Y-108547553D01*
X141797006Y-108653996D01*
X141958361Y-108736211D01*
X142130591Y-108792171D01*
X142130592Y-108792171D01*
X142130595Y-108792172D01*
X142134779Y-108792835D01*
X142205238Y-108824206D01*
X142250573Y-108886604D01*
X142258634Y-108963310D01*
X142227263Y-109033769D01*
X142164865Y-109079104D01*
X142134779Y-109087165D01*
X142130595Y-109087827D01*
X141958360Y-109143789D01*
X141797004Y-109226005D01*
X141797003Y-109226005D01*
X141650500Y-109332446D01*
X141650497Y-109332448D01*
X141522448Y-109460497D01*
X141522446Y-109460500D01*
X141416005Y-109607003D01*
X141416005Y-109607004D01*
X141333789Y-109768360D01*
X141286131Y-109915039D01*
X141277829Y-109940591D01*
X141249500Y-110119454D01*
X141249500Y-110300546D01*
X141277829Y-110479409D01*
X141333789Y-110651639D01*
X141409383Y-110800000D01*
X141416005Y-110812995D01*
X141416005Y-110812996D01*
X141448983Y-110858386D01*
X141522447Y-110959501D01*
X141650499Y-111087553D01*
X141797006Y-111193996D01*
X141958361Y-111276211D01*
X142130591Y-111332171D01*
X142130592Y-111332171D01*
X142130595Y-111332172D01*
X142134779Y-111332835D01*
X142205238Y-111364206D01*
X142250573Y-111426604D01*
X142258634Y-111503310D01*
X142227263Y-111573769D01*
X142164865Y-111619104D01*
X142134779Y-111627165D01*
X142130595Y-111627827D01*
X141958360Y-111683789D01*
X141797004Y-111766005D01*
X141797003Y-111766005D01*
X141650500Y-111872446D01*
X141650497Y-111872448D01*
X141522448Y-112000497D01*
X141522446Y-112000500D01*
X141416005Y-112147003D01*
X141416005Y-112147004D01*
X141333789Y-112308360D01*
X141277829Y-112480591D01*
X141249500Y-112659454D01*
X141249500Y-112840546D01*
X141277829Y-113019409D01*
X141333789Y-113191639D01*
X141408115Y-113337512D01*
X141416005Y-113352995D01*
X141416005Y-113352996D01*
X141453139Y-113404106D01*
X141522447Y-113499501D01*
X141650499Y-113627553D01*
X141797006Y-113733996D01*
X141958361Y-113816211D01*
X142130591Y-113872171D01*
X142130592Y-113872171D01*
X142130595Y-113872172D01*
X142134779Y-113872835D01*
X142205238Y-113904206D01*
X142250573Y-113966604D01*
X142258634Y-114043310D01*
X142227263Y-114113769D01*
X142164865Y-114159104D01*
X142134779Y-114167165D01*
X142130595Y-114167827D01*
X141958360Y-114223789D01*
X141797004Y-114306005D01*
X141797003Y-114306005D01*
X141650500Y-114412446D01*
X141650497Y-114412448D01*
X141522448Y-114540497D01*
X141522446Y-114540500D01*
X141416005Y-114687003D01*
X141416005Y-114687004D01*
X141333789Y-114848360D01*
X141300120Y-114951985D01*
X141277829Y-115020591D01*
X141249500Y-115199454D01*
X141249500Y-115380546D01*
X141277829Y-115559409D01*
X141333789Y-115731639D01*
X141389256Y-115840499D01*
X141416005Y-115892995D01*
X141416005Y-115892996D01*
X141469225Y-115966247D01*
X141522447Y-116039501D01*
X141650499Y-116167553D01*
X141797006Y-116273996D01*
X141958361Y-116356211D01*
X142130591Y-116412171D01*
X142130592Y-116412171D01*
X142130595Y-116412172D01*
X142134779Y-116412835D01*
X142205238Y-116444206D01*
X142250573Y-116506604D01*
X142258634Y-116583310D01*
X142227263Y-116653769D01*
X142164865Y-116699104D01*
X142134779Y-116707165D01*
X142130595Y-116707827D01*
X141958360Y-116763789D01*
X141797004Y-116846005D01*
X141797003Y-116846005D01*
X141650500Y-116952446D01*
X141650497Y-116952448D01*
X141522448Y-117080497D01*
X141522446Y-117080500D01*
X141416005Y-117227003D01*
X141416005Y-117227004D01*
X141333789Y-117388360D01*
X141305314Y-117476000D01*
X141277829Y-117560591D01*
X141249500Y-117739454D01*
X141249500Y-117920546D01*
X141277829Y-118099409D01*
X141333789Y-118271639D01*
X141389256Y-118380499D01*
X141416005Y-118432995D01*
X141416005Y-118432996D01*
X141455940Y-118487961D01*
X141522447Y-118579501D01*
X141650499Y-118707553D01*
X141797006Y-118813996D01*
X141958361Y-118896211D01*
X142130591Y-118952171D01*
X142130592Y-118952171D01*
X142130595Y-118952172D01*
X142134779Y-118952835D01*
X142205238Y-118984206D01*
X142250573Y-119046604D01*
X142258634Y-119123310D01*
X142227263Y-119193769D01*
X142164865Y-119239104D01*
X142134779Y-119247165D01*
X142130595Y-119247827D01*
X141958360Y-119303789D01*
X141797004Y-119386005D01*
X141797003Y-119386005D01*
X141650500Y-119492446D01*
X141650497Y-119492448D01*
X141522448Y-119620497D01*
X141522446Y-119620500D01*
X141416005Y-119767003D01*
X141416005Y-119767004D01*
X141333789Y-119928360D01*
X141311736Y-119996235D01*
X141277829Y-120100591D01*
X141249500Y-120279454D01*
X141249500Y-120460546D01*
X141277829Y-120639409D01*
X141333789Y-120811639D01*
X141410650Y-120962487D01*
X141416005Y-120972995D01*
X141416005Y-120972996D01*
X141440361Y-121006519D01*
X141522447Y-121119501D01*
X141650499Y-121247553D01*
X141797006Y-121353996D01*
X141958361Y-121436211D01*
X142130591Y-121492171D01*
X142130592Y-121492171D01*
X142130595Y-121492172D01*
X142134779Y-121492835D01*
X142205238Y-121524206D01*
X142250573Y-121586604D01*
X142258634Y-121663310D01*
X142227263Y-121733769D01*
X142164865Y-121779104D01*
X142134779Y-121787165D01*
X142130595Y-121787827D01*
X141958360Y-121843789D01*
X141797004Y-121926005D01*
X141797003Y-121926005D01*
X141650500Y-122032446D01*
X141650497Y-122032448D01*
X141522448Y-122160497D01*
X141522446Y-122160500D01*
X141416005Y-122307003D01*
X141416005Y-122307004D01*
X141333789Y-122468360D01*
X141301294Y-122568373D01*
X141277829Y-122640591D01*
X141249500Y-122819454D01*
X141249500Y-123000546D01*
X141277829Y-123179409D01*
X141333789Y-123351639D01*
X141416004Y-123512994D01*
X141522447Y-123659501D01*
X141650499Y-123787553D01*
X141797006Y-123893996D01*
X141958361Y-123976211D01*
X142130591Y-124032171D01*
X142309454Y-124060500D01*
X142309458Y-124060500D01*
X142490542Y-124060500D01*
X142490546Y-124060500D01*
X142669409Y-124032171D01*
X142841639Y-123976211D01*
X143002994Y-123893996D01*
X143149501Y-123787553D01*
X143277553Y-123659501D01*
X143383996Y-123512994D01*
X143456177Y-123371330D01*
X143507786Y-123314014D01*
X143550366Y-123295055D01*
X143594588Y-123283207D01*
X143685913Y-123230480D01*
X143936054Y-122980338D01*
X144002847Y-122941776D01*
X144079975Y-122941776D01*
X144146770Y-122980340D01*
X144185334Y-123047135D01*
X144189952Y-123074014D01*
X144192854Y-123110911D01*
X144237967Y-123266191D01*
X144237968Y-123266194D01*
X144320279Y-123405374D01*
X144320280Y-123405376D01*
X144359733Y-123444829D01*
X144398297Y-123511624D01*
X144398297Y-123588752D01*
X144395014Y-123599395D01*
X144392290Y-123607180D01*
X144392289Y-123607185D01*
X144389500Y-123636925D01*
X144389500Y-124023074D01*
X144392289Y-124052816D01*
X144439836Y-124188698D01*
X144436934Y-124189713D01*
X144449500Y-124240374D01*
X144449500Y-124414076D01*
X144453026Y-124427235D01*
X144470246Y-124491500D01*
X144487016Y-124554085D01*
X144559490Y-124679615D01*
X145262385Y-125382510D01*
X145387915Y-125454984D01*
X145527925Y-125492500D01*
X145672875Y-125492500D01*
X145812885Y-125454984D01*
X145938415Y-125382510D01*
X146040910Y-125280015D01*
X146113384Y-125154485D01*
X146150900Y-125014474D01*
X146150900Y-124869526D01*
X146146896Y-124854584D01*
X146113384Y-124729515D01*
X146089305Y-124687809D01*
X146040910Y-124603985D01*
X145643333Y-124206408D01*
X145604769Y-124139613D01*
X145604769Y-124062485D01*
X145607609Y-124053277D01*
X145607706Y-124052828D01*
X145607710Y-124052819D01*
X145610500Y-124023066D01*
X145610500Y-123758932D01*
X145630462Y-123684432D01*
X145685000Y-123629894D01*
X145759500Y-123609932D01*
X145834000Y-123629894D01*
X145888538Y-123684432D01*
X145892260Y-123691287D01*
X145896853Y-123700302D01*
X145896854Y-123700304D01*
X145954450Y-123813342D01*
X146044158Y-123903050D01*
X146157196Y-123960646D01*
X146250981Y-123975500D01*
X147589018Y-123975499D01*
X147682804Y-123960646D01*
X147795842Y-123903050D01*
X147885550Y-123813342D01*
X147943146Y-123700304D01*
X147958000Y-123606519D01*
X147957999Y-123439244D01*
X147977961Y-123364746D01*
X147988790Y-123348539D01*
X148081599Y-123227589D01*
X148142055Y-123081632D01*
X148142055Y-123081631D01*
X148149512Y-123025000D01*
X147788535Y-123025000D01*
X147720890Y-123008760D01*
X147682805Y-122989354D01*
X147667173Y-122986878D01*
X147589019Y-122974500D01*
X147589014Y-122974500D01*
X146250981Y-122974500D01*
X146157195Y-122989354D01*
X146157193Y-122989355D01*
X146119110Y-123008760D01*
X146085073Y-123015994D01*
X146051465Y-123025000D01*
X145965000Y-123025000D01*
X145963641Y-123026359D01*
X145896846Y-123064923D01*
X145858282Y-123070000D01*
X145149000Y-123070000D01*
X145074500Y-123050038D01*
X145019962Y-122995500D01*
X145000000Y-122921000D01*
X145000000Y-122819000D01*
X145019962Y-122744500D01*
X145074500Y-122689962D01*
X145149000Y-122670000D01*
X145527500Y-122670000D01*
X145528859Y-122668641D01*
X145595654Y-122630077D01*
X145634218Y-122625000D01*
X146051465Y-122625000D01*
X146119109Y-122641239D01*
X146157196Y-122660646D01*
X146250981Y-122675500D01*
X147589018Y-122675499D01*
X147589019Y-122675499D01*
X147601841Y-122673468D01*
X147682804Y-122660646D01*
X147720890Y-122641239D01*
X147788535Y-122625000D01*
X148149511Y-122625000D01*
X148149511Y-122624999D01*
X148142057Y-122568373D01*
X148142054Y-122568364D01*
X148081599Y-122422410D01*
X147988789Y-122301458D01*
X147959274Y-122230201D01*
X147957999Y-122210762D01*
X147957999Y-122043482D01*
X147943146Y-121949696D01*
X147926814Y-121917644D01*
X147910779Y-121842202D01*
X147926815Y-121782355D01*
X147927624Y-121780767D01*
X147943146Y-121750304D01*
X147958000Y-121656519D01*
X147957999Y-121393482D01*
X147943146Y-121299696D01*
X147926814Y-121267644D01*
X147910779Y-121192202D01*
X147926815Y-121132355D01*
X147933364Y-121119502D01*
X147943146Y-121100304D01*
X147958000Y-121006519D01*
X147957999Y-120743482D01*
X147943146Y-120649696D01*
X147926814Y-120617644D01*
X147910779Y-120542202D01*
X147926815Y-120482355D01*
X147932645Y-120470913D01*
X147943146Y-120450304D01*
X147958000Y-120356519D01*
X147957999Y-120093482D01*
X147954745Y-120072937D01*
X147962808Y-119996235D01*
X148008144Y-119933837D01*
X148027412Y-119920595D01*
X148105557Y-119875478D01*
X148105557Y-119875477D01*
X148105562Y-119875475D01*
X148175475Y-119805562D01*
X148736896Y-119244141D01*
X148803691Y-119205577D01*
X148842255Y-119200500D01*
X148872475Y-119200500D01*
X149012485Y-119162984D01*
X149029089Y-119153398D01*
X149081202Y-119123310D01*
X149138015Y-119090509D01*
X149240509Y-118988015D01*
X149312984Y-118862485D01*
X149350500Y-118722475D01*
X149350500Y-118684796D01*
X149370462Y-118610296D01*
X149424998Y-118555759D01*
X149538015Y-118490509D01*
X149640509Y-118388015D01*
X149712984Y-118262485D01*
X149750500Y-118122475D01*
X149750500Y-117977525D01*
X149712984Y-117837515D01*
X149712983Y-117837514D01*
X149712983Y-117837512D01*
X149640511Y-117711988D01*
X149640510Y-117711987D01*
X149640509Y-117711985D01*
X149538015Y-117609491D01*
X149538012Y-117609489D01*
X149538011Y-117609488D01*
X149485269Y-117579038D01*
X149430731Y-117524500D01*
X149410769Y-117450000D01*
X149417468Y-117425000D01*
X151415488Y-117425000D01*
X152445000Y-117425000D01*
X152445000Y-116925000D01*
X151968178Y-116925000D01*
X151968170Y-116925001D01*
X151850870Y-116940443D01*
X151850868Y-116940443D01*
X151704910Y-117000900D01*
X151579577Y-117097073D01*
X151579573Y-117097077D01*
X151483400Y-117222410D01*
X151422944Y-117368367D01*
X151422944Y-117368368D01*
X151415488Y-117425000D01*
X149417468Y-117425000D01*
X149430731Y-117375500D01*
X149485269Y-117320962D01*
X149492104Y-117317016D01*
X149538015Y-117290509D01*
X149640509Y-117188015D01*
X149712984Y-117062485D01*
X149750500Y-116922475D01*
X149750500Y-116777525D01*
X149712984Y-116637515D01*
X149712983Y-116637514D01*
X149712983Y-116637512D01*
X149640511Y-116511988D01*
X149640510Y-116511987D01*
X149640509Y-116511985D01*
X149538015Y-116409491D01*
X149538012Y-116409489D01*
X149538011Y-116409488D01*
X149462896Y-116366121D01*
X149424998Y-116344240D01*
X149370462Y-116289704D01*
X149350500Y-116215204D01*
X149350500Y-116177525D01*
X149350499Y-116177523D01*
X149345451Y-116158684D01*
X149312984Y-116037515D01*
X149312983Y-116037514D01*
X149312983Y-116037512D01*
X149240511Y-115911988D01*
X149240510Y-115911987D01*
X149240509Y-115911985D01*
X149138015Y-115809491D01*
X149138012Y-115809489D01*
X149138011Y-115809488D01*
X149012487Y-115737016D01*
X148872475Y-115699500D01*
X148727525Y-115699500D01*
X148587512Y-115737016D01*
X148461988Y-115809488D01*
X148359488Y-115911988D01*
X148287016Y-116037512D01*
X148246972Y-116186959D01*
X148245259Y-116186500D01*
X148220229Y-116246930D01*
X148207377Y-116261585D01*
X147928301Y-116540661D01*
X147928298Y-116540664D01*
X147919438Y-116549525D01*
X147849525Y-116619438D01*
X147800090Y-116705062D01*
X147800090Y-116705063D01*
X147793156Y-116730939D01*
X147793156Y-116730940D01*
X147780675Y-116777521D01*
X147780674Y-116777525D01*
X147774500Y-116800563D01*
X147774500Y-116979421D01*
X147773477Y-116983235D01*
X147774302Y-116987098D01*
X147763559Y-117020253D01*
X147754538Y-117053921D01*
X147751745Y-117056713D01*
X147750528Y-117060471D01*
X147724642Y-117083816D01*
X147700000Y-117108459D01*
X147696185Y-117109481D01*
X147693253Y-117112126D01*
X147676218Y-117114831D01*
X147625500Y-117128421D01*
X147617823Y-117128223D01*
X147609965Y-117127817D01*
X147589019Y-117124500D01*
X147545661Y-117124500D01*
X147541823Y-117124302D01*
X147508667Y-117113559D01*
X147475000Y-117104538D01*
X147472207Y-117101745D01*
X147468450Y-117100528D01*
X147445104Y-117074642D01*
X147420462Y-117050000D01*
X147419439Y-117046185D01*
X147416795Y-117043253D01*
X147409520Y-117009166D01*
X147400500Y-116975500D01*
X147400500Y-116922261D01*
X147410511Y-116871932D01*
X147410456Y-116871918D01*
X147410684Y-116871064D01*
X147411844Y-116865237D01*
X147412979Y-116862492D01*
X147412984Y-116862485D01*
X147450500Y-116722475D01*
X147450500Y-116577525D01*
X147412984Y-116437515D01*
X147412983Y-116437514D01*
X147412983Y-116437512D01*
X147340511Y-116311988D01*
X147340510Y-116311987D01*
X147340509Y-116311985D01*
X147238015Y-116209491D01*
X147238012Y-116209489D01*
X147238011Y-116209488D01*
X147112487Y-116137016D01*
X146972475Y-116099500D01*
X146827525Y-116099500D01*
X146687512Y-116137016D01*
X146561988Y-116209488D01*
X146459488Y-116311988D01*
X146387016Y-116437512D01*
X146349500Y-116577523D01*
X146349500Y-116577525D01*
X146349500Y-116722475D01*
X146382600Y-116846005D01*
X146387017Y-116862487D01*
X146388156Y-116865237D01*
X146389315Y-116871064D01*
X146389544Y-116871918D01*
X146389488Y-116871932D01*
X146399500Y-116922261D01*
X146399500Y-116975500D01*
X146379538Y-117050000D01*
X146325000Y-117104538D01*
X146256729Y-117122837D01*
X146256824Y-117124041D01*
X146250990Y-117124500D01*
X146250983Y-117124500D01*
X146250982Y-117124501D01*
X146192118Y-117133823D01*
X146157195Y-117139354D01*
X146157193Y-117139355D01*
X146044157Y-117196950D01*
X145954450Y-117286657D01*
X145896854Y-117399694D01*
X145896854Y-117399696D01*
X145882000Y-117493481D01*
X145882000Y-117493484D01*
X145882000Y-117493485D01*
X145882000Y-117756514D01*
X145896853Y-117850302D01*
X145913185Y-117882356D01*
X145916432Y-117897633D01*
X145924269Y-117911144D01*
X145924316Y-117934729D01*
X145929220Y-117957799D01*
X145924393Y-117972652D01*
X145924425Y-117988272D01*
X145913186Y-118017640D01*
X145896854Y-118049693D01*
X145896666Y-118050886D01*
X145895931Y-118052536D01*
X145893231Y-118060847D01*
X145892357Y-118060563D01*
X145865295Y-118121346D01*
X145802897Y-118166681D01*
X145726192Y-118174744D01*
X145655732Y-118143373D01*
X145610397Y-118080975D01*
X145604035Y-118046655D01*
X145601774Y-118046953D01*
X145600500Y-118037277D01*
X145600500Y-118037273D01*
X145583687Y-117974525D01*
X145573207Y-117935412D01*
X145559196Y-117911144D01*
X145520484Y-117844093D01*
X145520481Y-117844089D01*
X145520480Y-117844087D01*
X143516506Y-115840113D01*
X143477942Y-115773318D01*
X143477942Y-115696190D01*
X143480141Y-115688763D01*
X143522171Y-115559409D01*
X143550500Y-115380546D01*
X143550500Y-115199454D01*
X143522171Y-115020591D01*
X143466211Y-114848361D01*
X143383996Y-114687006D01*
X143383989Y-114686997D01*
X143337873Y-114623523D01*
X143277553Y-114540499D01*
X143149501Y-114412447D01*
X143002994Y-114306004D01*
X142841639Y-114223789D01*
X142808560Y-114213041D01*
X142669408Y-114167828D01*
X142665223Y-114167166D01*
X142594762Y-114135796D01*
X142549427Y-114073398D01*
X142541364Y-113996693D01*
X142572734Y-113926232D01*
X142635132Y-113880897D01*
X142665223Y-113872834D01*
X142665362Y-113872811D01*
X142669409Y-113872171D01*
X142841639Y-113816211D01*
X143002994Y-113733996D01*
X143149501Y-113627553D01*
X143277553Y-113499501D01*
X143383996Y-113352994D01*
X143466211Y-113191639D01*
X143522171Y-113019409D01*
X143550500Y-112840546D01*
X143550500Y-112659454D01*
X143522171Y-112480591D01*
X143480158Y-112351286D01*
X143476122Y-112274263D01*
X143511138Y-112205542D01*
X143516487Y-112199904D01*
X143978251Y-111738140D01*
X144045044Y-111699578D01*
X144122172Y-111699578D01*
X144188967Y-111738142D01*
X144227531Y-111804937D01*
X144232149Y-111855187D01*
X144231600Y-111862159D01*
X144231600Y-111866800D01*
X144841600Y-111866800D01*
X144841600Y-111286799D01*
X144841599Y-111286799D01*
X144806977Y-111286800D01*
X144806950Y-111286801D01*
X144799982Y-111287350D01*
X144724146Y-111273290D01*
X144665500Y-111223196D01*
X144639759Y-111150491D01*
X144653819Y-111074655D01*
X144682937Y-111033455D01*
X145627645Y-110088747D01*
X145694436Y-110050186D01*
X145771564Y-110050186D01*
X145838359Y-110088750D01*
X145876923Y-110155545D01*
X145879505Y-110166957D01*
X145882000Y-110180423D01*
X145882001Y-110256518D01*
X145896854Y-110350304D01*
X145922991Y-110401603D01*
X145926929Y-110422847D01*
X145925540Y-110440487D01*
X145929220Y-110457799D01*
X145922080Y-110484443D01*
X145920877Y-110499737D01*
X145916133Y-110506638D01*
X145913186Y-110517640D01*
X145896854Y-110549693D01*
X145896854Y-110549696D01*
X145882000Y-110643481D01*
X145882000Y-110643484D01*
X145882000Y-110643485D01*
X145882000Y-110906514D01*
X145896853Y-111000302D01*
X145913185Y-111032356D01*
X145929220Y-111107799D01*
X145926415Y-111129792D01*
X145922368Y-111149620D01*
X145896854Y-111199696D01*
X145882000Y-111293481D01*
X145882000Y-111347432D01*
X145878991Y-111362178D01*
X145868257Y-111383674D01*
X145862038Y-111406885D01*
X145851310Y-111417612D01*
X145844535Y-111431182D01*
X145824492Y-111444430D01*
X145807500Y-111461423D01*
X145792846Y-111465349D01*
X145780194Y-111473713D01*
X145756211Y-111475165D01*
X145733000Y-111481385D01*
X145718347Y-111477458D01*
X145703207Y-111478376D01*
X145681710Y-111467642D01*
X145658500Y-111461423D01*
X145638458Y-111446044D01*
X145634203Y-111443920D01*
X145632673Y-111441605D01*
X145627643Y-111437746D01*
X145606977Y-111417081D01*
X145606974Y-111417079D01*
X145467793Y-111334768D01*
X145312516Y-111289655D01*
X145312517Y-111289655D01*
X145276229Y-111286800D01*
X145241600Y-111286800D01*
X145241600Y-111866800D01*
X145936682Y-111866800D01*
X145947299Y-111867179D01*
X146062082Y-111875379D01*
X146082566Y-111882466D01*
X146119109Y-111891239D01*
X146157196Y-111910646D01*
X146250981Y-111925500D01*
X146771002Y-111925499D01*
X146845500Y-111945461D01*
X146900038Y-111999999D01*
X146920000Y-112074499D01*
X146920000Y-112075500D01*
X146900038Y-112150000D01*
X146845500Y-112204538D01*
X146771000Y-112224500D01*
X146250981Y-112224500D01*
X146157195Y-112239354D01*
X146157193Y-112239355D01*
X146119110Y-112258760D01*
X146051465Y-112275000D01*
X145597418Y-112275000D01*
X145566815Y-112266800D01*
X144231601Y-112266800D01*
X144231601Y-112271442D01*
X144234454Y-112307711D01*
X144279567Y-112462991D01*
X144279568Y-112462994D01*
X144361879Y-112602174D01*
X144361880Y-112602176D01*
X144401333Y-112641629D01*
X144439897Y-112708424D01*
X144439897Y-112785552D01*
X144436614Y-112796195D01*
X144433890Y-112803980D01*
X144433889Y-112803985D01*
X144431100Y-112833725D01*
X144431100Y-113219874D01*
X144433889Y-113249614D01*
X144433889Y-113249616D01*
X144433890Y-113249619D01*
X144438567Y-113262984D01*
X144477748Y-113374958D01*
X144507717Y-113415565D01*
X144535894Y-113487362D01*
X144528020Y-113543246D01*
X144531144Y-113544083D01*
X144528617Y-113553513D01*
X144528616Y-113553515D01*
X144513870Y-113608548D01*
X144491100Y-113693524D01*
X144491100Y-113838476D01*
X144528616Y-113978487D01*
X144601088Y-114104011D01*
X144601089Y-114104012D01*
X144601091Y-114104015D01*
X144703585Y-114206509D01*
X144703587Y-114206510D01*
X144703588Y-114206511D01*
X144829112Y-114278983D01*
X144829114Y-114278983D01*
X144829115Y-114278984D01*
X144969125Y-114316500D01*
X145114075Y-114316500D01*
X145254085Y-114278984D01*
X145379615Y-114206509D01*
X145482109Y-114104015D01*
X145554584Y-113978485D01*
X145592100Y-113838475D01*
X145592100Y-113693525D01*
X145554584Y-113553515D01*
X145554583Y-113553513D01*
X145552056Y-113544082D01*
X145555358Y-113543197D01*
X145547642Y-113484597D01*
X145575482Y-113415563D01*
X145605452Y-113374957D01*
X145649310Y-113249619D01*
X145652100Y-113219866D01*
X145652100Y-113090576D01*
X145672062Y-113016076D01*
X145726600Y-112961538D01*
X145801100Y-112941576D01*
X145875600Y-112961538D01*
X145930138Y-113016076D01*
X145933851Y-113022915D01*
X145954450Y-113063342D01*
X146044158Y-113153050D01*
X146157196Y-113210646D01*
X146250981Y-113225500D01*
X146395500Y-113225499D01*
X146469999Y-113245461D01*
X146524537Y-113299998D01*
X146544500Y-113374498D01*
X146544500Y-113419435D01*
X146570090Y-113514938D01*
X146570091Y-113514939D01*
X146619523Y-113600560D01*
X146619525Y-113600562D01*
X146619526Y-113600563D01*
X147469438Y-114450475D01*
X147555063Y-114499911D01*
X147650564Y-114525500D01*
X147650565Y-114525500D01*
X148335259Y-114525500D01*
X148409759Y-114545462D01*
X148440613Y-114569137D01*
X148461985Y-114590509D01*
X148461987Y-114590510D01*
X148461988Y-114590511D01*
X148587512Y-114662983D01*
X148587514Y-114662983D01*
X148587515Y-114662984D01*
X148727525Y-114700500D01*
X148872475Y-114700500D01*
X149012485Y-114662984D01*
X149022159Y-114657399D01*
X149080833Y-114623523D01*
X149138015Y-114590509D01*
X149240509Y-114488015D01*
X149312984Y-114362485D01*
X149350500Y-114222475D01*
X149353028Y-114213041D01*
X149355494Y-114213701D01*
X149379380Y-114156034D01*
X149440568Y-114109080D01*
X149517036Y-114099010D01*
X149518658Y-114099332D01*
X149527525Y-114100500D01*
X149672475Y-114100500D01*
X149812485Y-114062984D01*
X149938015Y-113990509D01*
X150040509Y-113888015D01*
X150106047Y-113774500D01*
X150112983Y-113762487D01*
X150119488Y-113738211D01*
X150150500Y-113622475D01*
X150150500Y-113477525D01*
X150112984Y-113337515D01*
X150112983Y-113337514D01*
X150112983Y-113337512D01*
X150040511Y-113211988D01*
X150040510Y-113211987D01*
X150040509Y-113211985D01*
X149938015Y-113109491D01*
X149938012Y-113109489D01*
X149933882Y-113105359D01*
X149895318Y-113038564D01*
X149895318Y-112961436D01*
X149933882Y-112894641D01*
X149938012Y-112890510D01*
X149938015Y-112890509D01*
X150040509Y-112788015D01*
X150112984Y-112662485D01*
X150150500Y-112522475D01*
X150150500Y-112377525D01*
X150112984Y-112237515D01*
X150112983Y-112237514D01*
X150112983Y-112237512D01*
X150040511Y-112111988D01*
X150040510Y-112111987D01*
X150040509Y-112111985D01*
X149938015Y-112009491D01*
X149938012Y-112009489D01*
X149933882Y-112005359D01*
X149895318Y-111938564D01*
X149895318Y-111861436D01*
X149933882Y-111794641D01*
X149938012Y-111790510D01*
X149938015Y-111790509D01*
X150040509Y-111688015D01*
X150112984Y-111562485D01*
X150150500Y-111422475D01*
X150150500Y-111277525D01*
X150112984Y-111137515D01*
X150112983Y-111137514D01*
X150112983Y-111137512D01*
X150040511Y-111011988D01*
X150040510Y-111011987D01*
X150040509Y-111011985D01*
X149938015Y-110909491D01*
X149938012Y-110909489D01*
X149933882Y-110905359D01*
X149895318Y-110838564D01*
X149895318Y-110761436D01*
X149933882Y-110694641D01*
X149938012Y-110690510D01*
X149938015Y-110690509D01*
X150040509Y-110588015D01*
X150103213Y-110479409D01*
X150112983Y-110462487D01*
X150112984Y-110462485D01*
X150150500Y-110322475D01*
X150150500Y-110177525D01*
X150112984Y-110037515D01*
X150112983Y-110037514D01*
X150112983Y-110037512D01*
X150040511Y-109911988D01*
X150040510Y-109911987D01*
X150040509Y-109911985D01*
X149938015Y-109809491D01*
X149938012Y-109809489D01*
X149933882Y-109805359D01*
X149895318Y-109738564D01*
X149895318Y-109661436D01*
X149933882Y-109594641D01*
X149938012Y-109590510D01*
X149938015Y-109590509D01*
X150040509Y-109488015D01*
X150101740Y-109381960D01*
X150112983Y-109362487D01*
X150112984Y-109362485D01*
X150150500Y-109222475D01*
X150150500Y-109077525D01*
X150112984Y-108937515D01*
X150112983Y-108937514D01*
X150112983Y-108937512D01*
X150040511Y-108811988D01*
X150040510Y-108811987D01*
X150040509Y-108811985D01*
X149938015Y-108709491D01*
X149938012Y-108709489D01*
X149933882Y-108705359D01*
X149895318Y-108638564D01*
X149895318Y-108561436D01*
X149933882Y-108494641D01*
X149938012Y-108490510D01*
X149938015Y-108490509D01*
X150040509Y-108388015D01*
X150106911Y-108273004D01*
X150112983Y-108262487D01*
X150112984Y-108262485D01*
X150150500Y-108122475D01*
X150150500Y-107977525D01*
X150112984Y-107837515D01*
X150112983Y-107837514D01*
X150112983Y-107837512D01*
X150040511Y-107711988D01*
X150040510Y-107711987D01*
X150040509Y-107711985D01*
X149938015Y-107609491D01*
X149938012Y-107609489D01*
X149933882Y-107605359D01*
X149895318Y-107538564D01*
X149895318Y-107461436D01*
X149933882Y-107394641D01*
X149938012Y-107390510D01*
X149938015Y-107390509D01*
X150040509Y-107288015D01*
X150112984Y-107162485D01*
X150150500Y-107022475D01*
X150150500Y-106877525D01*
X150112984Y-106737515D01*
X150112983Y-106737514D01*
X150112983Y-106737512D01*
X150076891Y-106675000D01*
X151415488Y-106675000D01*
X152445000Y-106675000D01*
X152445000Y-106175000D01*
X151968178Y-106175000D01*
X151968170Y-106175001D01*
X151850870Y-106190443D01*
X151850868Y-106190443D01*
X151704910Y-106250900D01*
X151579577Y-106347073D01*
X151579573Y-106347077D01*
X151483400Y-106472410D01*
X151422944Y-106618367D01*
X151422944Y-106618368D01*
X151415488Y-106675000D01*
X150076891Y-106675000D01*
X150040511Y-106611988D01*
X150040510Y-106611987D01*
X150040509Y-106611985D01*
X149938015Y-106509491D01*
X149938012Y-106509489D01*
X149938011Y-106509488D01*
X149812487Y-106437016D01*
X149672475Y-106399500D01*
X149527525Y-106399500D01*
X149527516Y-106399501D01*
X149511769Y-106403720D01*
X149434640Y-106403717D01*
X149367847Y-106365151D01*
X149329288Y-106298361D01*
X149312984Y-106237515D01*
X149312983Y-106237513D01*
X149240511Y-106111988D01*
X149240510Y-106111987D01*
X149240509Y-106111985D01*
X149138015Y-106009491D01*
X149138012Y-106009489D01*
X149138011Y-106009488D01*
X149012487Y-105937016D01*
X148872475Y-105899500D01*
X148727525Y-105899500D01*
X148587514Y-105937016D01*
X148584754Y-105938160D01*
X148581794Y-105938549D01*
X148578083Y-105939544D01*
X148577952Y-105939055D01*
X148508285Y-105948223D01*
X148437029Y-105918705D01*
X148422389Y-105905865D01*
X148326015Y-105809491D01*
X148326012Y-105809489D01*
X148326011Y-105809488D01*
X148200487Y-105737016D01*
X148060475Y-105699500D01*
X147915525Y-105699500D01*
X147775512Y-105737016D01*
X147649988Y-105809488D01*
X147547488Y-105911988D01*
X147475014Y-106037519D01*
X147473870Y-106040281D01*
X147470559Y-106045235D01*
X147470134Y-106045972D01*
X147470085Y-106045944D01*
X147441575Y-106088610D01*
X147199326Y-106330859D01*
X147132531Y-106369423D01*
X147093967Y-106374500D01*
X146250981Y-106374500D01*
X146157195Y-106389354D01*
X146157190Y-106389356D01*
X146065144Y-106436256D01*
X145989702Y-106452292D01*
X145916348Y-106428458D01*
X145864740Y-106371140D01*
X145848500Y-106303496D01*
X145848500Y-104789141D01*
X145868462Y-104714641D01*
X145923000Y-104660103D01*
X145997500Y-104640141D01*
X146072000Y-104660103D01*
X146102854Y-104683778D01*
X146176785Y-104757709D01*
X146176787Y-104757710D01*
X146176788Y-104757711D01*
X146302312Y-104830183D01*
X146302314Y-104830183D01*
X146302315Y-104830184D01*
X146442325Y-104867700D01*
X146587275Y-104867700D01*
X146727285Y-104830184D01*
X146852815Y-104757709D01*
X146955309Y-104655215D01*
X147027784Y-104529685D01*
X147065300Y-104389675D01*
X147065300Y-104356882D01*
X147085262Y-104282382D01*
X147139800Y-104227844D01*
X147214300Y-104207882D01*
X147231490Y-104209439D01*
X147231498Y-104209347D01*
X147275372Y-104212800D01*
X147279999Y-104212799D01*
X147680000Y-104212799D01*
X147684624Y-104212799D01*
X147684642Y-104212798D01*
X147720911Y-104209945D01*
X147876191Y-104164832D01*
X147876194Y-104164831D01*
X148015374Y-104082520D01*
X148015376Y-104082519D01*
X148129719Y-103968176D01*
X148129720Y-103968174D01*
X148212031Y-103828994D01*
X148212031Y-103828993D01*
X148257144Y-103673716D01*
X148259999Y-103637429D01*
X148260000Y-103637429D01*
X148260000Y-103602800D01*
X147680000Y-103602800D01*
X147680000Y-104212799D01*
X147279999Y-104212799D01*
X147280000Y-104212798D01*
X147280000Y-103551800D01*
X147299962Y-103477300D01*
X147354500Y-103422762D01*
X147429000Y-103402800D01*
X147480000Y-103402800D01*
X147480000Y-103351800D01*
X147499962Y-103277300D01*
X147554500Y-103222762D01*
X147629000Y-103202800D01*
X148259999Y-103202800D01*
X148259999Y-103168175D01*
X148259998Y-103168157D01*
X148257145Y-103131888D01*
X148212032Y-102976608D01*
X148212031Y-102976605D01*
X148129720Y-102837425D01*
X148129719Y-102837423D01*
X148015376Y-102723080D01*
X148015374Y-102723079D01*
X147876194Y-102640768D01*
X147876188Y-102640766D01*
X147871672Y-102639454D01*
X147867954Y-102637202D01*
X147867590Y-102637045D01*
X147867611Y-102636995D01*
X147805698Y-102599501D01*
X147768541Y-102531914D01*
X147770155Y-102454803D01*
X147807879Y-102391012D01*
X147885550Y-102313342D01*
X147943146Y-102200304D01*
X147958000Y-102106519D01*
X147957999Y-101939244D01*
X147977961Y-101864746D01*
X147988790Y-101848539D01*
X148081599Y-101727589D01*
X148142055Y-101581632D01*
X148142055Y-101581631D01*
X148149512Y-101525000D01*
X147788535Y-101525000D01*
X147720890Y-101508760D01*
X147682805Y-101489354D01*
X147667173Y-101486878D01*
X147589019Y-101474500D01*
X147589014Y-101474500D01*
X147069000Y-101474500D01*
X146994500Y-101454538D01*
X146939962Y-101400000D01*
X146920000Y-101325500D01*
X146920000Y-101324499D01*
X146939962Y-101249999D01*
X146994500Y-101195461D01*
X147068998Y-101175499D01*
X147589018Y-101175499D01*
X147589019Y-101175499D01*
X147605839Y-101172835D01*
X147682804Y-101160646D01*
X147720890Y-101141239D01*
X147788535Y-101125000D01*
X148149511Y-101125000D01*
X148149511Y-101124999D01*
X148142057Y-101068373D01*
X148142054Y-101068364D01*
X148081599Y-100922410D01*
X147988789Y-100801458D01*
X147959274Y-100730201D01*
X147957999Y-100710762D01*
X147957999Y-100543482D01*
X147943146Y-100449696D01*
X147926814Y-100417644D01*
X147910779Y-100342202D01*
X147926815Y-100282355D01*
X147936939Y-100262485D01*
X147943146Y-100250304D01*
X147958000Y-100156519D01*
X147957999Y-99893482D01*
X147943146Y-99799696D01*
X147926814Y-99767644D01*
X147910779Y-99692202D01*
X147926815Y-99632355D01*
X147938466Y-99609488D01*
X147943146Y-99600304D01*
X147958000Y-99506519D01*
X147957999Y-99243482D01*
X147943146Y-99149696D01*
X147926814Y-99117644D01*
X147910779Y-99042202D01*
X147926815Y-98982355D01*
X147943146Y-98950304D01*
X147958000Y-98856519D01*
X147957999Y-98593482D01*
X147943146Y-98499696D01*
X147926814Y-98467644D01*
X147910779Y-98392202D01*
X147926815Y-98332355D01*
X147943145Y-98300305D01*
X147943146Y-98300304D01*
X147958000Y-98206519D01*
X147957999Y-97943482D01*
X147943146Y-97849696D01*
X147926814Y-97817644D01*
X147910779Y-97742202D01*
X147926815Y-97682355D01*
X147928506Y-97679037D01*
X147943146Y-97650304D01*
X147958000Y-97556519D01*
X147957999Y-97293482D01*
X147943146Y-97199696D01*
X147926814Y-97167644D01*
X147910779Y-97092202D01*
X147926815Y-97032355D01*
X147932645Y-97020913D01*
X147943146Y-97000304D01*
X147958000Y-96906519D01*
X147957999Y-96643482D01*
X147943146Y-96549696D01*
X147926814Y-96517644D01*
X147910779Y-96442202D01*
X147926815Y-96382355D01*
X147927184Y-96381631D01*
X147943146Y-96350304D01*
X147958000Y-96256519D01*
X147957999Y-95993482D01*
X147943146Y-95899696D01*
X147885550Y-95786658D01*
X147795842Y-95696950D01*
X147783183Y-95690500D01*
X147682805Y-95639354D01*
X147647888Y-95633823D01*
X147589019Y-95624500D01*
X147589017Y-95624500D01*
X147589011Y-95624499D01*
X147587798Y-95624404D01*
X147587304Y-95624229D01*
X147583237Y-95623585D01*
X147583356Y-95622830D01*
X147515096Y-95598652D01*
X147465010Y-95540000D01*
X147450500Y-95475864D01*
X147450500Y-95377525D01*
X147450499Y-95377523D01*
X147448332Y-95369437D01*
X147412984Y-95237515D01*
X147412983Y-95237514D01*
X147412983Y-95237512D01*
X147340511Y-95111988D01*
X147340510Y-95111987D01*
X147340509Y-95111985D01*
X147238015Y-95009491D01*
X147238012Y-95009489D01*
X147238011Y-95009488D01*
X147112487Y-94937016D01*
X146972475Y-94899500D01*
X146827525Y-94899500D01*
X146687512Y-94937016D01*
X146561988Y-95009488D01*
X146459488Y-95111988D01*
X146387016Y-95237512D01*
X146349500Y-95377523D01*
X146349500Y-95481639D01*
X146329538Y-95556139D01*
X146275000Y-95610677D01*
X146223808Y-95628804D01*
X146182228Y-95635389D01*
X146157195Y-95639354D01*
X146157193Y-95639355D01*
X146044157Y-95696950D01*
X145954450Y-95786657D01*
X145896854Y-95899694D01*
X145893714Y-95919520D01*
X145882000Y-95993481D01*
X145882000Y-96124206D01*
X145882001Y-96225499D01*
X145862039Y-96299999D01*
X145807502Y-96354537D01*
X145733002Y-96374500D01*
X144432611Y-96374500D01*
X144358111Y-96354538D01*
X144327252Y-96330859D01*
X143516506Y-95520113D01*
X143477942Y-95453318D01*
X143477942Y-95376190D01*
X143480141Y-95368763D01*
X143522171Y-95239409D01*
X143550500Y-95060546D01*
X143550500Y-94879454D01*
X143522171Y-94700591D01*
X143466211Y-94528361D01*
X143383996Y-94367006D01*
X143383989Y-94366997D01*
X143362253Y-94337079D01*
X143277553Y-94220499D01*
X143149501Y-94092447D01*
X143076247Y-94039225D01*
X143002996Y-93986005D01*
X143002990Y-93986002D01*
X142921952Y-93944710D01*
X142864635Y-93893101D01*
X142840802Y-93819748D01*
X142856839Y-93744305D01*
X142908448Y-93686988D01*
X142921953Y-93679191D01*
X143107555Y-93584621D01*
X143202671Y-93515515D01*
X143202672Y-93515514D01*
X142585177Y-92898019D01*
X142592993Y-92895925D01*
X142707007Y-92830099D01*
X142800099Y-92737007D01*
X142865925Y-92622993D01*
X142868019Y-92615176D01*
X143485514Y-93232672D01*
X143485515Y-93232671D01*
X143554621Y-93137555D01*
X143554622Y-93137555D01*
X143651093Y-92948220D01*
X143716757Y-92746128D01*
X143750000Y-92536242D01*
X143750000Y-92323757D01*
X143716757Y-92113871D01*
X143651093Y-91911779D01*
X143554621Y-91722444D01*
X143554616Y-91722435D01*
X143485516Y-91627327D01*
X143485514Y-91627327D01*
X142868019Y-92244821D01*
X142865925Y-92237007D01*
X142800099Y-92122993D01*
X142707007Y-92029901D01*
X142592993Y-91964075D01*
X142585174Y-91961980D01*
X143202671Y-91344484D01*
X143202671Y-91344482D01*
X143107564Y-91275383D01*
X143107555Y-91275378D01*
X142921953Y-91180808D01*
X142864636Y-91129199D01*
X142840802Y-91055846D01*
X142856838Y-90980403D01*
X142908447Y-90923086D01*
X142921954Y-90915288D01*
X143002994Y-90873996D01*
X143149501Y-90767553D01*
X143277553Y-90639501D01*
X143383996Y-90492994D01*
X143406988Y-90447870D01*
X144231600Y-90447870D01*
X144231600Y-90452500D01*
X144841600Y-90452500D01*
X144841600Y-89872499D01*
X144841599Y-89872499D01*
X144806977Y-89872500D01*
X144806955Y-89872501D01*
X144770688Y-89875354D01*
X144615408Y-89920467D01*
X144615405Y-89920468D01*
X144476225Y-90002779D01*
X144476223Y-90002780D01*
X144361880Y-90117123D01*
X144361879Y-90117125D01*
X144279568Y-90256305D01*
X144279568Y-90256306D01*
X144234455Y-90411583D01*
X144231600Y-90447870D01*
X143406988Y-90447870D01*
X143421881Y-90418641D01*
X143442951Y-90377291D01*
X143442951Y-90377290D01*
X143466209Y-90331642D01*
X143466211Y-90331639D01*
X143522171Y-90159409D01*
X143550500Y-89980546D01*
X143550500Y-89799454D01*
X143522171Y-89620591D01*
X143480158Y-89491286D01*
X143476122Y-89414263D01*
X143511138Y-89345542D01*
X143516488Y-89339903D01*
X145627643Y-87228748D01*
X145694436Y-87190186D01*
X145771564Y-87190186D01*
X145838359Y-87228750D01*
X145876923Y-87295545D01*
X145882000Y-87334108D01*
X145882000Y-87456514D01*
X145896853Y-87550302D01*
X145913185Y-87582356D01*
X145929220Y-87657799D01*
X145913186Y-87717640D01*
X145896854Y-87749693D01*
X145896854Y-87749696D01*
X145882000Y-87843481D01*
X145882000Y-87843484D01*
X145882000Y-87843485D01*
X145882000Y-88106514D01*
X145896853Y-88200302D01*
X145913185Y-88232356D01*
X145929220Y-88307799D01*
X145913186Y-88367640D01*
X145896854Y-88399693D01*
X145896854Y-88399696D01*
X145882000Y-88493481D01*
X145882000Y-88493484D01*
X145882000Y-88493485D01*
X145882000Y-88756514D01*
X145896853Y-88850302D01*
X145913185Y-88882356D01*
X145929220Y-88957799D01*
X145913186Y-89017640D01*
X145896854Y-89049693D01*
X145893877Y-89068491D01*
X145882000Y-89143481D01*
X145882000Y-89143484D01*
X145882000Y-89143485D01*
X145882000Y-89406514D01*
X145896853Y-89500302D01*
X145913185Y-89532356D01*
X145929220Y-89607799D01*
X145913186Y-89667640D01*
X145896854Y-89699693D01*
X145890488Y-89739889D01*
X145882000Y-89793481D01*
X145882000Y-89793484D01*
X145882000Y-89793485D01*
X145882000Y-89918086D01*
X145862038Y-89992586D01*
X145807500Y-90047124D01*
X145733000Y-90067086D01*
X145658500Y-90047124D01*
X145627641Y-90023445D01*
X145606976Y-90002780D01*
X145606974Y-90002779D01*
X145467793Y-89920468D01*
X145312516Y-89875355D01*
X145312517Y-89875355D01*
X145276229Y-89872500D01*
X145241600Y-89872500D01*
X145241600Y-90452500D01*
X145527500Y-90452500D01*
X145561359Y-90418641D01*
X145591291Y-90401359D01*
X145620214Y-90382443D01*
X145625529Y-90381592D01*
X145628154Y-90380077D01*
X145634997Y-90380077D01*
X145666718Y-90375000D01*
X146051465Y-90375000D01*
X146119109Y-90391239D01*
X146157196Y-90410646D01*
X146250981Y-90425500D01*
X146771002Y-90425499D01*
X146845500Y-90445461D01*
X146900038Y-90499999D01*
X146920000Y-90574499D01*
X146920000Y-90575500D01*
X146900038Y-90650000D01*
X146845500Y-90704538D01*
X146771000Y-90724500D01*
X146250981Y-90724500D01*
X146157195Y-90739354D01*
X146157193Y-90739355D01*
X146119110Y-90758760D01*
X146051465Y-90775000D01*
X146006600Y-90775000D01*
X145972741Y-90808859D01*
X145942808Y-90826140D01*
X145913886Y-90845057D01*
X145909634Y-90845293D01*
X145905946Y-90847423D01*
X145867382Y-90852500D01*
X144231601Y-90852500D01*
X144231601Y-90857142D01*
X144234454Y-90893411D01*
X144279567Y-91048691D01*
X144279568Y-91048694D01*
X144361879Y-91187874D01*
X144361880Y-91187876D01*
X144401333Y-91227329D01*
X144439897Y-91294124D01*
X144439897Y-91371252D01*
X144436614Y-91381895D01*
X144433890Y-91389680D01*
X144433889Y-91389685D01*
X144431100Y-91419425D01*
X144431100Y-91805574D01*
X144433889Y-91835314D01*
X144433889Y-91835316D01*
X144433890Y-91835319D01*
X144477748Y-91960657D01*
X144556601Y-92067499D01*
X144556602Y-92067500D01*
X144561985Y-92074793D01*
X144590163Y-92146590D01*
X144591100Y-92163273D01*
X144591100Y-92500911D01*
X144604383Y-92550485D01*
X144604385Y-92550489D01*
X144608218Y-92564793D01*
X144621801Y-92615487D01*
X144681111Y-92718214D01*
X144693733Y-92730836D01*
X144704593Y-92752756D01*
X144707532Y-92767395D01*
X144715002Y-92780335D01*
X144737015Y-92862484D01*
X144809488Y-92988011D01*
X144809489Y-92988012D01*
X144809491Y-92988015D01*
X144911985Y-93090509D01*
X144911987Y-93090510D01*
X144911988Y-93090511D01*
X145037512Y-93162983D01*
X145037514Y-93162983D01*
X145037515Y-93162984D01*
X145177525Y-93200500D01*
X145322475Y-93200500D01*
X145462485Y-93162984D01*
X145588015Y-93090509D01*
X145690509Y-92988015D01*
X145762984Y-92862485D01*
X145800500Y-92722475D01*
X145800500Y-92577525D01*
X145762984Y-92437515D01*
X145762983Y-92437514D01*
X145762983Y-92437512D01*
X145690511Y-92311988D01*
X145690510Y-92311987D01*
X145690509Y-92311985D01*
X145588015Y-92209491D01*
X145588012Y-92209489D01*
X145583051Y-92204528D01*
X145544487Y-92137733D01*
X145544487Y-92060605D01*
X145568523Y-92010693D01*
X145605452Y-91960657D01*
X145649310Y-91835319D01*
X145652100Y-91805566D01*
X145652100Y-91590576D01*
X145672062Y-91516076D01*
X145726600Y-91461538D01*
X145801100Y-91441576D01*
X145875600Y-91461538D01*
X145930138Y-91516076D01*
X145933851Y-91522915D01*
X145954450Y-91563342D01*
X146044158Y-91653050D01*
X146157196Y-91710646D01*
X146250981Y-91725500D01*
X146418396Y-91725499D01*
X146492895Y-91745461D01*
X146547433Y-91799998D01*
X146562318Y-91835933D01*
X146566088Y-91850001D01*
X146570090Y-91864938D01*
X146619523Y-91950560D01*
X147419439Y-92750476D01*
X147445791Y-92765690D01*
X147505062Y-92799910D01*
X147544543Y-92810489D01*
X147600564Y-92825500D01*
X147600565Y-92825500D01*
X148335259Y-92825500D01*
X148409759Y-92845462D01*
X148440613Y-92869137D01*
X148461985Y-92890509D01*
X148461987Y-92890510D01*
X148461988Y-92890511D01*
X148587512Y-92962983D01*
X148587514Y-92962983D01*
X148587515Y-92962984D01*
X148727525Y-93000500D01*
X148872475Y-93000500D01*
X149012485Y-92962984D01*
X149138015Y-92890509D01*
X149240509Y-92788015D01*
X149312984Y-92662485D01*
X149350500Y-92522475D01*
X149350500Y-92520719D01*
X149350954Y-92519023D01*
X149351774Y-92512796D01*
X149352594Y-92512903D01*
X149370462Y-92446219D01*
X149425000Y-92391681D01*
X149460934Y-92376797D01*
X149512485Y-92362984D01*
X149638015Y-92290509D01*
X149740509Y-92188015D01*
X149806476Y-92073757D01*
X149812983Y-92062487D01*
X149812984Y-92062485D01*
X149850500Y-91922475D01*
X149850500Y-91777525D01*
X149812984Y-91637515D01*
X149812983Y-91637514D01*
X149812983Y-91637512D01*
X149740511Y-91511988D01*
X149740510Y-91511987D01*
X149740509Y-91511985D01*
X149638015Y-91409491D01*
X149638012Y-91409489D01*
X149638011Y-91409488D01*
X149585269Y-91379038D01*
X149530731Y-91324500D01*
X149510769Y-91250000D01*
X149530731Y-91175500D01*
X149585269Y-91120962D01*
X149594395Y-91115693D01*
X149638015Y-91090509D01*
X149740509Y-90988015D01*
X149812984Y-90862485D01*
X149850500Y-90722475D01*
X149850500Y-90577525D01*
X149812984Y-90437515D01*
X149812983Y-90437514D01*
X149812983Y-90437512D01*
X149740511Y-90311988D01*
X149740510Y-90311987D01*
X149740509Y-90311985D01*
X149638015Y-90209491D01*
X149638012Y-90209489D01*
X149638011Y-90209488D01*
X149585269Y-90179038D01*
X149530731Y-90124500D01*
X149510769Y-90050000D01*
X149530731Y-89975500D01*
X149585269Y-89920962D01*
X149590250Y-89918086D01*
X149638015Y-89890509D01*
X149740509Y-89788015D01*
X149812984Y-89662485D01*
X149850500Y-89522475D01*
X149850500Y-89377525D01*
X149812984Y-89237515D01*
X149812983Y-89237514D01*
X149812983Y-89237512D01*
X149740511Y-89111988D01*
X149740510Y-89111987D01*
X149740509Y-89111985D01*
X149638015Y-89009491D01*
X149638012Y-89009489D01*
X149638011Y-89009488D01*
X149585269Y-88979038D01*
X149530731Y-88924500D01*
X149510769Y-88850000D01*
X149530731Y-88775500D01*
X149585269Y-88720962D01*
X149638015Y-88690509D01*
X149740509Y-88588015D01*
X149802354Y-88480897D01*
X149812983Y-88462487D01*
X149821646Y-88430158D01*
X149850500Y-88322475D01*
X149850500Y-88177525D01*
X149812984Y-88037515D01*
X149812983Y-88037514D01*
X149812983Y-88037512D01*
X149740511Y-87911988D01*
X149740510Y-87911987D01*
X149740509Y-87911985D01*
X149638015Y-87809491D01*
X149638012Y-87809489D01*
X149638011Y-87809488D01*
X149585269Y-87779038D01*
X149530731Y-87724500D01*
X149510769Y-87650000D01*
X149530731Y-87575500D01*
X149585269Y-87520962D01*
X149596108Y-87514704D01*
X149638015Y-87490509D01*
X149740509Y-87388015D01*
X149812984Y-87262485D01*
X149850500Y-87122475D01*
X149850500Y-86977525D01*
X149812984Y-86837515D01*
X149812983Y-86837514D01*
X149812983Y-86837512D01*
X149740511Y-86711988D01*
X149740510Y-86711987D01*
X149740509Y-86711985D01*
X149638015Y-86609491D01*
X149638012Y-86609489D01*
X149638011Y-86609488D01*
X149585269Y-86579038D01*
X149530731Y-86524500D01*
X149510769Y-86450000D01*
X149530731Y-86375500D01*
X149585269Y-86320962D01*
X149596943Y-86314222D01*
X149638015Y-86290509D01*
X149740509Y-86188015D01*
X149812984Y-86062485D01*
X149850500Y-85922475D01*
X149850500Y-85777525D01*
X149812984Y-85637515D01*
X149812983Y-85637514D01*
X149812983Y-85637512D01*
X149740511Y-85511988D01*
X149740510Y-85511987D01*
X149740509Y-85511985D01*
X149638015Y-85409491D01*
X149638012Y-85409489D01*
X149638011Y-85409488D01*
X149585269Y-85379038D01*
X149530731Y-85324500D01*
X149510769Y-85250000D01*
X149530731Y-85175500D01*
X149531231Y-85175000D01*
X151415488Y-85175000D01*
X152445000Y-85175000D01*
X152445000Y-84675000D01*
X151968178Y-84675000D01*
X151968170Y-84675001D01*
X151850870Y-84690443D01*
X151850868Y-84690443D01*
X151704910Y-84750900D01*
X151579577Y-84847073D01*
X151579573Y-84847077D01*
X151483400Y-84972410D01*
X151422944Y-85118367D01*
X151422944Y-85118368D01*
X151415488Y-85175000D01*
X149531231Y-85175000D01*
X149585269Y-85120962D01*
X149589764Y-85118367D01*
X149638015Y-85090509D01*
X149740509Y-84988015D01*
X149806204Y-84874229D01*
X149812983Y-84862487D01*
X149812984Y-84862485D01*
X149850500Y-84722475D01*
X149850500Y-84577525D01*
X149812984Y-84437515D01*
X149812983Y-84437514D01*
X149812983Y-84437512D01*
X149740511Y-84311988D01*
X149740510Y-84311987D01*
X149740509Y-84311985D01*
X149638015Y-84209491D01*
X149638012Y-84209489D01*
X149638011Y-84209488D01*
X149512487Y-84137016D01*
X149460935Y-84123203D01*
X149394140Y-84084638D01*
X149355577Y-84017843D01*
X149350500Y-83979280D01*
X149350500Y-83977525D01*
X149350499Y-83977523D01*
X149343258Y-83950500D01*
X149312984Y-83837515D01*
X149312983Y-83837514D01*
X149312983Y-83837512D01*
X149240511Y-83711988D01*
X149240510Y-83711987D01*
X149240509Y-83711985D01*
X149138015Y-83609491D01*
X149138012Y-83609489D01*
X149138011Y-83609488D01*
X149012487Y-83537016D01*
X148872475Y-83499500D01*
X148727525Y-83499500D01*
X148587512Y-83537016D01*
X148461988Y-83609488D01*
X148359488Y-83711988D01*
X148287016Y-83837512D01*
X148249500Y-83977523D01*
X148249500Y-84007745D01*
X148229538Y-84082245D01*
X148205859Y-84113104D01*
X147899525Y-84419437D01*
X147899523Y-84419439D01*
X147850089Y-84505062D01*
X147845013Y-84524009D01*
X147833021Y-84568763D01*
X147833020Y-84568766D01*
X147828910Y-84584108D01*
X147824500Y-84600565D01*
X147824500Y-84741022D01*
X147824318Y-84744702D01*
X147813598Y-84778023D01*
X147804538Y-84811840D01*
X147801858Y-84814519D01*
X147800699Y-84818125D01*
X147774752Y-84841625D01*
X147750000Y-84866378D01*
X147746341Y-84867358D01*
X147743534Y-84869901D01*
X147709315Y-84877279D01*
X147675500Y-84886340D01*
X147669487Y-84885866D01*
X147668138Y-84886158D01*
X147666503Y-84885632D01*
X147652197Y-84884506D01*
X147589019Y-84874500D01*
X147589018Y-84874500D01*
X147589012Y-84874499D01*
X147587798Y-84874404D01*
X147587304Y-84874229D01*
X147583237Y-84873585D01*
X147583356Y-84872830D01*
X147515096Y-84848652D01*
X147465010Y-84790000D01*
X147450500Y-84725864D01*
X147450500Y-84577525D01*
X147450499Y-84577523D01*
X147442128Y-84546283D01*
X147412984Y-84437515D01*
X147412983Y-84437514D01*
X147412983Y-84437512D01*
X147340511Y-84311988D01*
X147340510Y-84311987D01*
X147340509Y-84311985D01*
X147238015Y-84209491D01*
X147238012Y-84209489D01*
X147238011Y-84209488D01*
X147112487Y-84137016D01*
X146972475Y-84099500D01*
X146827525Y-84099500D01*
X146687512Y-84137016D01*
X146561988Y-84209488D01*
X146561987Y-84209489D01*
X146561985Y-84209490D01*
X146561985Y-84209491D01*
X146459491Y-84311985D01*
X146459489Y-84311987D01*
X146454859Y-84316618D01*
X146388064Y-84355182D01*
X146310936Y-84355182D01*
X146244141Y-84316618D01*
X146205577Y-84249823D01*
X146200500Y-84211259D01*
X146200500Y-83378395D01*
X146220462Y-83303895D01*
X146275000Y-83249357D01*
X146349500Y-83229395D01*
X146388059Y-83234471D01*
X146488375Y-83261351D01*
X146633325Y-83261351D01*
X146773335Y-83223835D01*
X146898865Y-83151360D01*
X147001359Y-83048866D01*
X147073834Y-82923336D01*
X147100987Y-82821997D01*
X147115866Y-82786073D01*
X147139519Y-82745105D01*
X147194054Y-82690571D01*
X147268554Y-82670608D01*
X147310125Y-82676524D01*
X147465082Y-82721543D01*
X147501372Y-82724400D01*
X147505999Y-82724399D01*
X147906000Y-82724399D01*
X147910624Y-82724399D01*
X147910642Y-82724398D01*
X147946911Y-82721545D01*
X148102191Y-82676432D01*
X148102194Y-82676431D01*
X148241374Y-82594120D01*
X148241376Y-82594119D01*
X148355719Y-82479776D01*
X148355720Y-82479774D01*
X148438031Y-82340594D01*
X148438031Y-82340593D01*
X148483144Y-82185316D01*
X148485999Y-82149029D01*
X148486000Y-82149029D01*
X148486000Y-82114400D01*
X147906000Y-82114400D01*
X147906000Y-82724399D01*
X147505999Y-82724399D01*
X147506000Y-82724398D01*
X147506000Y-82063400D01*
X147525962Y-81988900D01*
X147580500Y-81934362D01*
X147655000Y-81914400D01*
X147706000Y-81914400D01*
X147706000Y-81863400D01*
X147725962Y-81788900D01*
X147780500Y-81734362D01*
X147855000Y-81714400D01*
X148485999Y-81714400D01*
X148485999Y-81679775D01*
X148485998Y-81679757D01*
X148483145Y-81643488D01*
X148438032Y-81488208D01*
X148438031Y-81488205D01*
X148355720Y-81349025D01*
X148355719Y-81349023D01*
X148241376Y-81234680D01*
X148241374Y-81234679D01*
X148102194Y-81152368D01*
X148102190Y-81152367D01*
X148097589Y-81151030D01*
X148093803Y-81148737D01*
X148093590Y-81148645D01*
X148093602Y-81148615D01*
X148031617Y-81111074D01*
X147994462Y-81043485D01*
X147996079Y-80966374D01*
X148033804Y-80902588D01*
X148123047Y-80813345D01*
X148123050Y-80813342D01*
X148180646Y-80700304D01*
X148195500Y-80606519D01*
X148195499Y-80439244D01*
X148215461Y-80364746D01*
X148226290Y-80348539D01*
X148319099Y-80227589D01*
X148379555Y-80081632D01*
X148379555Y-80081631D01*
X148387012Y-80025000D01*
X148026035Y-80025000D01*
X147958390Y-80008760D01*
X147920305Y-79989354D01*
X147904673Y-79986878D01*
X147826519Y-79974500D01*
X147826514Y-79974500D01*
X147306500Y-79974500D01*
X147232000Y-79954538D01*
X147177462Y-79900000D01*
X147157500Y-79825500D01*
X147157500Y-79824499D01*
X147177462Y-79749999D01*
X147232000Y-79695461D01*
X147306498Y-79675499D01*
X147826518Y-79675499D01*
X147826519Y-79675499D01*
X147839341Y-79673468D01*
X147920304Y-79660646D01*
X147958390Y-79641239D01*
X148026035Y-79625000D01*
X148387011Y-79625000D01*
X148387011Y-79624999D01*
X148379557Y-79568373D01*
X148379554Y-79568364D01*
X148319099Y-79422410D01*
X148226289Y-79301458D01*
X148196774Y-79230201D01*
X148195499Y-79210762D01*
X148195499Y-79043482D01*
X148180646Y-78949696D01*
X148164314Y-78917644D01*
X148148279Y-78842202D01*
X148164315Y-78782355D01*
X148180645Y-78750305D01*
X148180646Y-78750304D01*
X148195500Y-78656519D01*
X148195499Y-78393482D01*
X148180646Y-78299696D01*
X148164314Y-78267644D01*
X148148279Y-78192202D01*
X148164315Y-78132355D01*
X148180646Y-78100304D01*
X148195500Y-78006519D01*
X148195499Y-77743482D01*
X148180646Y-77649696D01*
X148164314Y-77617644D01*
X148148279Y-77542202D01*
X148164315Y-77482355D01*
X148176005Y-77459412D01*
X148180646Y-77450304D01*
X148195500Y-77356519D01*
X148195499Y-77093482D01*
X148180646Y-76999696D01*
X148164314Y-76967644D01*
X148148279Y-76892202D01*
X148164315Y-76832355D01*
X148180645Y-76800305D01*
X148180646Y-76800304D01*
X148195500Y-76706519D01*
X148195499Y-76443482D01*
X148180646Y-76349696D01*
X148164314Y-76317644D01*
X148148279Y-76242202D01*
X148164315Y-76182355D01*
X148180645Y-76150305D01*
X148180646Y-76150304D01*
X148195500Y-76056519D01*
X148195499Y-75793482D01*
X148180646Y-75699696D01*
X148164314Y-75667644D01*
X148148279Y-75592202D01*
X148164315Y-75532355D01*
X148180645Y-75500305D01*
X148180646Y-75500304D01*
X148195500Y-75406519D01*
X148195499Y-75143482D01*
X148180646Y-75049696D01*
X148164314Y-75017644D01*
X148148279Y-74942202D01*
X148164315Y-74882355D01*
X148174439Y-74862485D01*
X148180646Y-74850304D01*
X148195500Y-74756519D01*
X148195499Y-74493482D01*
X148180646Y-74399696D01*
X148123050Y-74286658D01*
X148033342Y-74196950D01*
X147920305Y-74139354D01*
X147904673Y-74136878D01*
X147826519Y-74124500D01*
X147826514Y-74124500D01*
X147373627Y-74124500D01*
X147299129Y-74104539D01*
X147293188Y-74101109D01*
X147293187Y-74101108D01*
X147293186Y-74101108D01*
X147165892Y-74067000D01*
X145904343Y-74067000D01*
X145829844Y-74047038D01*
X145822840Y-74042994D01*
X145812486Y-74037016D01*
X145672475Y-73999500D01*
X145527525Y-73999500D01*
X145387512Y-74037016D01*
X145261988Y-74109488D01*
X145159488Y-74211988D01*
X145087016Y-74337512D01*
X145049500Y-74477523D01*
X145049500Y-74622478D01*
X145066772Y-74686936D01*
X145066772Y-74764064D01*
X145028208Y-74830859D01*
X144961413Y-74869423D01*
X144922849Y-74874500D01*
X143699500Y-74874500D01*
X143625000Y-74854538D01*
X143570462Y-74800000D01*
X143550500Y-74725500D01*
X143550499Y-73755133D01*
X143547585Y-73730010D01*
X143547584Y-73730008D01*
X143502206Y-73627235D01*
X143422765Y-73547794D01*
X143422764Y-73547793D01*
X143319994Y-73502416D01*
X143319991Y-73502415D01*
X143319982Y-73502414D01*
X143294865Y-73499500D01*
X143294859Y-73499500D01*
X141505133Y-73499500D01*
X141480010Y-73502414D01*
X141480007Y-73502415D01*
X141377235Y-73547793D01*
X141297793Y-73627235D01*
X141252416Y-73730005D01*
X141252415Y-73730008D01*
X141252415Y-73730009D01*
X141249500Y-73755135D01*
X141249500Y-73755136D01*
X141249500Y-73755140D01*
X141249500Y-75544866D01*
X141252414Y-75569989D01*
X141252415Y-75569992D01*
X141297793Y-75672764D01*
X141297794Y-75672765D01*
X141377235Y-75752206D01*
X141480009Y-75797585D01*
X141505135Y-75800500D01*
X142012596Y-75800499D01*
X142087094Y-75820461D01*
X142141632Y-75874999D01*
X142161594Y-75949499D01*
X142141632Y-76023999D01*
X142087094Y-76078537D01*
X142058638Y-76091206D01*
X141958364Y-76123786D01*
X141958363Y-76123787D01*
X141797004Y-76206005D01*
X141797003Y-76206005D01*
X141650500Y-76312446D01*
X141650497Y-76312448D01*
X141522448Y-76440497D01*
X141522446Y-76440500D01*
X141416005Y-76587003D01*
X141416005Y-76587004D01*
X141333789Y-76748360D01*
X141307634Y-76828859D01*
X141277829Y-76920591D01*
X141249500Y-77099454D01*
X141249500Y-77280546D01*
X141277829Y-77459409D01*
X141333789Y-77631639D01*
X141390778Y-77743486D01*
X141416005Y-77792995D01*
X141416005Y-77792996D01*
X141429804Y-77811988D01*
X141522447Y-77939501D01*
X141650499Y-78067553D01*
X141797006Y-78173996D01*
X141958361Y-78256211D01*
X142130591Y-78312171D01*
X142130592Y-78312171D01*
X142130595Y-78312172D01*
X142134779Y-78312835D01*
X142205238Y-78344206D01*
X142250573Y-78406604D01*
X142258634Y-78483310D01*
X142227263Y-78553769D01*
X142164865Y-78599104D01*
X142134779Y-78607165D01*
X142130595Y-78607827D01*
X141958360Y-78663789D01*
X141797004Y-78746005D01*
X141797003Y-78746005D01*
X141650500Y-78852446D01*
X141650497Y-78852448D01*
X141522448Y-78980497D01*
X141522446Y-78980500D01*
X141416005Y-79127003D01*
X141416005Y-79127004D01*
X141333789Y-79288360D01*
X141290213Y-79422475D01*
X141277829Y-79460591D01*
X141249500Y-79639454D01*
X141249500Y-79820546D01*
X141277829Y-79999409D01*
X141333789Y-80171639D01*
X141389256Y-80280499D01*
X141416005Y-80332995D01*
X141416005Y-80332996D01*
X141469225Y-80406247D01*
X141522447Y-80479501D01*
X141650499Y-80607553D01*
X141797006Y-80713996D01*
X141958361Y-80796211D01*
X142130591Y-80852171D01*
X142130592Y-80852171D01*
X142130595Y-80852172D01*
X142134779Y-80852835D01*
X142205238Y-80884206D01*
X142250573Y-80946604D01*
X142258634Y-81023310D01*
X142227263Y-81093769D01*
X142164865Y-81139104D01*
X142134779Y-81147165D01*
X142130595Y-81147827D01*
X141958360Y-81203789D01*
X141797004Y-81286005D01*
X141797003Y-81286005D01*
X141650500Y-81392446D01*
X141650497Y-81392448D01*
X141522448Y-81520497D01*
X141522446Y-81520500D01*
X141416005Y-81667003D01*
X141416005Y-81667004D01*
X141333789Y-81828360D01*
X141305834Y-81914400D01*
X141277829Y-82000591D01*
X141249500Y-82179454D01*
X141249500Y-82360546D01*
X141277829Y-82539409D01*
X141333789Y-82711639D01*
X141416004Y-82872994D01*
X141522447Y-83019501D01*
X141650499Y-83147553D01*
X141797006Y-83253996D01*
X141958361Y-83336211D01*
X142130591Y-83392171D01*
X142130592Y-83392171D01*
X142130595Y-83392172D01*
X142134779Y-83392835D01*
X142205238Y-83424206D01*
X142250573Y-83486604D01*
X142258634Y-83563310D01*
X142227263Y-83633769D01*
X142164865Y-83679104D01*
X142134779Y-83687165D01*
X142130595Y-83687827D01*
X141958360Y-83743789D01*
X141797004Y-83826005D01*
X141797003Y-83826005D01*
X141650500Y-83932446D01*
X141650497Y-83932448D01*
X141522448Y-84060497D01*
X141522446Y-84060500D01*
X141416005Y-84207003D01*
X141416005Y-84207004D01*
X141333789Y-84368360D01*
X141286131Y-84515039D01*
X141277829Y-84540591D01*
X141249500Y-84719454D01*
X141249500Y-84900546D01*
X141277829Y-85079409D01*
X141333789Y-85251639D01*
X141414219Y-85409491D01*
X141416005Y-85412995D01*
X141416005Y-85412996D01*
X141448535Y-85457769D01*
X141522447Y-85559501D01*
X141650499Y-85687553D01*
X141797006Y-85793996D01*
X141958361Y-85876211D01*
X142130591Y-85932171D01*
X142130592Y-85932171D01*
X142130595Y-85932172D01*
X142134779Y-85932835D01*
X142205238Y-85964206D01*
X142250573Y-86026604D01*
X142258634Y-86103310D01*
X142227263Y-86173769D01*
X142164865Y-86219104D01*
X142134779Y-86227165D01*
X142130595Y-86227827D01*
X141958360Y-86283789D01*
X141797004Y-86366005D01*
X141797003Y-86366005D01*
X141650500Y-86472446D01*
X141650497Y-86472448D01*
X141522448Y-86600497D01*
X141522446Y-86600500D01*
X141416005Y-86747003D01*
X141416005Y-86747004D01*
X141333789Y-86908360D01*
X141304014Y-87000000D01*
X141277829Y-87080591D01*
X141249500Y-87259454D01*
X141249500Y-87440546D01*
X141277829Y-87619409D01*
X141333789Y-87791639D01*
X141405362Y-87932109D01*
X141416005Y-87952995D01*
X141416005Y-87952996D01*
X141469046Y-88026000D01*
X141522447Y-88099501D01*
X141650499Y-88227553D01*
X141797006Y-88333996D01*
X141958361Y-88416211D01*
X142130591Y-88472171D01*
X142130592Y-88472171D01*
X142130595Y-88472172D01*
X142134779Y-88472835D01*
X142205238Y-88504206D01*
X142250573Y-88566604D01*
X142258634Y-88643310D01*
X142227263Y-88713769D01*
X142164865Y-88759104D01*
X142134779Y-88767165D01*
X142130595Y-88767827D01*
X141958360Y-88823789D01*
X141797004Y-88906005D01*
X141797003Y-88906005D01*
X141650500Y-89012446D01*
X141650497Y-89012448D01*
X141522448Y-89140497D01*
X141522446Y-89140500D01*
X141416005Y-89287003D01*
X141416005Y-89287004D01*
X141333789Y-89448360D01*
X141309708Y-89522475D01*
X141277829Y-89620591D01*
X141249500Y-89799454D01*
X141249500Y-89980546D01*
X141277829Y-90159409D01*
X141333789Y-90331639D01*
X141406581Y-90474501D01*
X141416005Y-90492995D01*
X141416005Y-90492996D01*
X141469225Y-90566247D01*
X141522447Y-90639501D01*
X141650499Y-90767553D01*
X141797006Y-90873996D01*
X141878046Y-90915288D01*
X141935363Y-90966897D01*
X141959197Y-91040250D01*
X141943161Y-91115693D01*
X141891552Y-91173010D01*
X141878046Y-91180808D01*
X141692444Y-91275378D01*
X141597327Y-91344483D01*
X141597327Y-91344484D01*
X142214823Y-91961980D01*
X142207007Y-91964075D01*
X142092993Y-92029901D01*
X141999901Y-92122993D01*
X141934075Y-92237007D01*
X141931980Y-92244823D01*
X141314484Y-91627327D01*
X141314483Y-91627327D01*
X141245378Y-91722444D01*
X141148906Y-91911777D01*
X141102767Y-92053780D01*
X141060760Y-92118465D01*
X140992038Y-92153480D01*
X140915016Y-92149443D01*
X140850331Y-92107436D01*
X140819623Y-92054603D01*
X140771546Y-91909514D01*
X140682572Y-91765267D01*
X140562733Y-91645428D01*
X140556499Y-91640499D01*
X140510441Y-91578634D01*
X140501486Y-91502027D01*
X140530189Y-91433590D01*
X140572364Y-91377975D01*
X140625359Y-91243590D01*
X140635500Y-91159144D01*
X140635500Y-90626856D01*
X140625359Y-90542410D01*
X140605872Y-90492996D01*
X140587127Y-90445461D01*
X140572364Y-90408025D01*
X140485078Y-90292922D01*
X140485076Y-90292921D01*
X140485076Y-90292920D01*
X140469468Y-90281084D01*
X140422168Y-90220163D01*
X140410500Y-90162361D01*
X140410500Y-89436525D01*
X140410499Y-89436523D01*
X140404534Y-89414263D01*
X140372984Y-89296515D01*
X140372983Y-89296514D01*
X140372983Y-89296512D01*
X140300511Y-89170988D01*
X140300510Y-89170987D01*
X140300509Y-89170985D01*
X140198015Y-89068491D01*
X140198012Y-89068489D01*
X140198011Y-89068488D01*
X140072487Y-88996016D01*
X139932475Y-88958500D01*
X139787525Y-88958500D01*
X139647512Y-88996016D01*
X139521988Y-89068488D01*
X139419488Y-89170988D01*
X139347016Y-89296512D01*
X139309500Y-89436523D01*
X139309500Y-90162361D01*
X139289538Y-90236861D01*
X139250532Y-90281084D01*
X139234923Y-90292920D01*
X139147636Y-90408025D01*
X139147635Y-90408026D01*
X139094640Y-90542409D01*
X139084500Y-90626852D01*
X139084500Y-91159147D01*
X139094640Y-91243590D01*
X139147635Y-91377973D01*
X139147638Y-91377979D01*
X139189809Y-91433588D01*
X139218919Y-91505011D01*
X139208418Y-91581421D01*
X139163504Y-91640496D01*
X139157267Y-91645427D01*
X139037427Y-91765267D01*
X138948454Y-91909513D01*
X138900376Y-92054604D01*
X138857993Y-92119043D01*
X138789069Y-92153658D01*
X138712071Y-92149173D01*
X138647632Y-92106790D01*
X138617231Y-92053779D01*
X138571091Y-91911773D01*
X138474621Y-91722444D01*
X138474616Y-91722435D01*
X138405516Y-91627327D01*
X138405514Y-91627327D01*
X137788019Y-92244821D01*
X137785925Y-92237007D01*
X137720099Y-92122993D01*
X137627007Y-92029901D01*
X137512993Y-91964075D01*
X137505174Y-91961980D01*
X138122671Y-91344484D01*
X138122671Y-91344482D01*
X138027564Y-91275383D01*
X138027555Y-91275378D01*
X137841953Y-91180808D01*
X137784636Y-91129199D01*
X137760802Y-91055846D01*
X137776838Y-90980403D01*
X137828447Y-90923086D01*
X137841954Y-90915288D01*
X137922994Y-90873996D01*
X138069501Y-90767553D01*
X138197553Y-90639501D01*
X138303996Y-90492994D01*
X138386211Y-90331639D01*
X138442171Y-90159409D01*
X138470500Y-89980546D01*
X138470500Y-89799454D01*
X138442171Y-89620591D01*
X138386211Y-89448361D01*
X138303996Y-89287006D01*
X138302804Y-89285366D01*
X138219702Y-89170985D01*
X138197553Y-89140499D01*
X138069501Y-89012447D01*
X137922994Y-88906004D01*
X137761639Y-88823789D01*
X137589408Y-88767828D01*
X137585223Y-88767166D01*
X137514762Y-88735796D01*
X137469427Y-88673398D01*
X137461364Y-88596693D01*
X137492734Y-88526232D01*
X137555132Y-88480897D01*
X137585223Y-88472834D01*
X137585362Y-88472811D01*
X137589409Y-88472171D01*
X137761639Y-88416211D01*
X137922994Y-88333996D01*
X138069501Y-88227553D01*
X138197553Y-88099501D01*
X138303996Y-87952994D01*
X138386211Y-87791639D01*
X138442171Y-87619409D01*
X138470500Y-87440546D01*
X138470500Y-87259454D01*
X138442171Y-87080591D01*
X138386211Y-86908361D01*
X138303996Y-86747006D01*
X138303989Y-86746997D01*
X138278552Y-86711985D01*
X138197553Y-86600499D01*
X138069501Y-86472447D01*
X137922994Y-86366004D01*
X137761639Y-86283789D01*
X137757229Y-86282356D01*
X137589408Y-86227828D01*
X137585223Y-86227166D01*
X137514762Y-86195796D01*
X137469427Y-86133398D01*
X137461364Y-86056693D01*
X137492734Y-85986232D01*
X137555132Y-85940897D01*
X137585223Y-85932834D01*
X137585362Y-85932811D01*
X137589409Y-85932171D01*
X137761639Y-85876211D01*
X137922994Y-85793996D01*
X138069501Y-85687553D01*
X138197553Y-85559501D01*
X138303996Y-85412994D01*
X138386211Y-85251639D01*
X138442171Y-85079409D01*
X138470500Y-84900546D01*
X138470500Y-84719454D01*
X138442171Y-84540591D01*
X138386211Y-84368361D01*
X138303996Y-84207006D01*
X138197553Y-84060499D01*
X138069501Y-83932447D01*
X137922994Y-83826004D01*
X137761639Y-83743789D01*
X137589408Y-83687828D01*
X137585223Y-83687166D01*
X137514762Y-83655796D01*
X137469427Y-83593398D01*
X137461364Y-83516693D01*
X137492734Y-83446232D01*
X137555132Y-83400897D01*
X137585223Y-83392834D01*
X137585362Y-83392811D01*
X137589409Y-83392171D01*
X137761639Y-83336211D01*
X137922994Y-83253996D01*
X138069501Y-83147553D01*
X138197553Y-83019501D01*
X138303996Y-82872994D01*
X138386211Y-82711639D01*
X138442171Y-82539409D01*
X138470500Y-82360546D01*
X138470500Y-82179454D01*
X138442171Y-82000591D01*
X138386211Y-81828361D01*
X138303996Y-81667006D01*
X138303989Y-81666997D01*
X138282253Y-81637079D01*
X138197553Y-81520499D01*
X138069501Y-81392447D01*
X137922994Y-81286004D01*
X137761639Y-81203789D01*
X137746897Y-81198999D01*
X137589408Y-81147828D01*
X137585223Y-81147166D01*
X137514762Y-81115796D01*
X137469427Y-81053398D01*
X137461364Y-80976693D01*
X137492734Y-80906232D01*
X137555132Y-80860897D01*
X137585223Y-80852834D01*
X137585362Y-80852811D01*
X137589409Y-80852171D01*
X137761639Y-80796211D01*
X137922994Y-80713996D01*
X138069501Y-80607553D01*
X138197553Y-80479501D01*
X138303996Y-80332994D01*
X138386211Y-80171639D01*
X138442171Y-79999409D01*
X138470500Y-79820546D01*
X138470500Y-79639454D01*
X138442171Y-79460591D01*
X138386211Y-79288361D01*
X138303996Y-79127006D01*
X138303989Y-79126997D01*
X138246517Y-79047893D01*
X138197553Y-78980499D01*
X138069501Y-78852447D01*
X137922994Y-78746004D01*
X137761639Y-78663789D01*
X137739264Y-78656519D01*
X137589408Y-78607828D01*
X137585223Y-78607166D01*
X137514762Y-78575796D01*
X137469427Y-78513398D01*
X137461364Y-78436693D01*
X137492734Y-78366232D01*
X137555132Y-78320897D01*
X137585223Y-78312834D01*
X137585362Y-78312811D01*
X137589409Y-78312171D01*
X137761639Y-78256211D01*
X137922994Y-78173996D01*
X138069501Y-78067553D01*
X138197553Y-77939501D01*
X138303996Y-77792994D01*
X138386211Y-77631639D01*
X138442171Y-77459409D01*
X138470500Y-77280546D01*
X138470500Y-77099454D01*
X138442171Y-76920591D01*
X138386211Y-76748361D01*
X138303996Y-76587006D01*
X138303989Y-76586997D01*
X138272750Y-76544000D01*
X138197553Y-76440499D01*
X138069501Y-76312447D01*
X137922994Y-76206004D01*
X137761639Y-76123789D01*
X137661359Y-76091206D01*
X137596675Y-76049200D01*
X137561659Y-75980479D01*
X137565695Y-75903456D01*
X137607702Y-75838771D01*
X137676423Y-75803755D01*
X137707400Y-75800499D01*
X138214864Y-75800499D01*
X138214867Y-75800499D01*
X138229940Y-75798750D01*
X138239991Y-75797585D01*
X138342765Y-75752206D01*
X138422206Y-75672765D01*
X138467585Y-75569991D01*
X138470500Y-75544865D01*
X138470499Y-75000239D01*
X138490461Y-74925742D01*
X138544999Y-74871204D01*
X138619499Y-74851242D01*
X138693999Y-74871204D01*
X138748536Y-74925741D01*
X138784486Y-74988008D01*
X138784489Y-74988012D01*
X138784491Y-74988015D01*
X138886985Y-75090509D01*
X138886987Y-75090510D01*
X138886988Y-75090511D01*
X139012512Y-75162983D01*
X139012514Y-75162983D01*
X139012515Y-75162984D01*
X139152525Y-75200500D01*
X139297475Y-75200500D01*
X139437485Y-75162984D01*
X139462505Y-75148539D01*
X139545710Y-75100500D01*
X139563015Y-75090509D01*
X139665509Y-74988015D01*
X139726512Y-74882355D01*
X139737983Y-74862487D01*
X139740113Y-74854538D01*
X139775500Y-74722475D01*
X139775500Y-74577525D01*
X139737984Y-74437515D01*
X139737983Y-74437514D01*
X139737983Y-74437512D01*
X139665511Y-74311988D01*
X139665510Y-74311987D01*
X139665509Y-74311985D01*
X139563015Y-74209491D01*
X139563012Y-74209489D01*
X139563011Y-74209488D01*
X139437487Y-74137016D01*
X139297475Y-74099500D01*
X139152525Y-74099500D01*
X139012512Y-74137016D01*
X138886988Y-74209488D01*
X138784489Y-74311987D01*
X138784486Y-74311991D01*
X138748536Y-74374258D01*
X138693998Y-74428796D01*
X138619497Y-74448757D01*
X138544998Y-74428794D01*
X138490460Y-74374256D01*
X138470499Y-74299757D01*
X138470499Y-73755133D01*
X138467585Y-73730010D01*
X138467584Y-73730008D01*
X138422206Y-73627235D01*
X138342765Y-73547794D01*
X138342764Y-73547793D01*
X138239994Y-73502416D01*
X138239991Y-73502415D01*
X138239982Y-73502414D01*
X138214865Y-73499500D01*
X138214859Y-73499500D01*
X137469000Y-73499500D01*
X137394500Y-73479538D01*
X137339962Y-73425000D01*
X137320000Y-73350500D01*
X137320000Y-73299500D01*
X137339962Y-73225000D01*
X137394500Y-73170462D01*
X137469000Y-73150500D01*
X150530152Y-73150500D01*
X150539751Y-73153072D01*
G37*
%TD.AperFunction*%
%TA.AperFunction,Conductor*%
G36*
X158789851Y-73153198D02*
G01*
X158800194Y-73151905D01*
X158826597Y-73163043D01*
X158854282Y-73170462D01*
X158861653Y-73177833D01*
X158871257Y-73181885D01*
X158888554Y-73204734D01*
X158908820Y-73225000D01*
X158911517Y-73235068D01*
X158917809Y-73243379D01*
X158921364Y-73271815D01*
X158928782Y-73299500D01*
X158926083Y-73309569D01*
X158927377Y-73319912D01*
X158919067Y-73380000D01*
X158910000Y-73380000D01*
X158910000Y-73445563D01*
X158908595Y-73455723D01*
X158897456Y-73482126D01*
X158890038Y-73509811D01*
X158882666Y-73517182D01*
X158878615Y-73526786D01*
X158855765Y-73544083D01*
X158835500Y-73564349D01*
X158825431Y-73567046D01*
X158817121Y-73573338D01*
X158788684Y-73576893D01*
X158761000Y-73584311D01*
X158750930Y-73581612D01*
X158740588Y-73582906D01*
X158714184Y-73571767D01*
X158686500Y-73564349D01*
X158679128Y-73556977D01*
X158674537Y-73555040D01*
X158674157Y-73555597D01*
X158671432Y-73553730D01*
X158669525Y-73552926D01*
X158666986Y-73550685D01*
X158662766Y-73547794D01*
X158559994Y-73502416D01*
X158559991Y-73502415D01*
X158559982Y-73502414D01*
X158534865Y-73499500D01*
X158534859Y-73499500D01*
X156745133Y-73499500D01*
X156720010Y-73502414D01*
X156720007Y-73502415D01*
X156617235Y-73547793D01*
X156537793Y-73627235D01*
X156492416Y-73730005D01*
X156492415Y-73730008D01*
X156492415Y-73730009D01*
X156489500Y-73755135D01*
X156489500Y-74625500D01*
X156489501Y-75370500D01*
X156469539Y-75445000D01*
X156415001Y-75499538D01*
X156340501Y-75519500D01*
X156077270Y-75519500D01*
X155975408Y-75546794D01*
X155884093Y-75599515D01*
X155884089Y-75599518D01*
X154174858Y-77308747D01*
X154108063Y-77347311D01*
X154030935Y-77347311D01*
X153964140Y-77308747D01*
X153925576Y-77241952D01*
X153920499Y-77203388D01*
X153920499Y-77093486D01*
X153920499Y-77093482D01*
X153905646Y-76999696D01*
X153889314Y-76967644D01*
X153873279Y-76892202D01*
X153889315Y-76832355D01*
X153905645Y-76800305D01*
X153905646Y-76800304D01*
X153920500Y-76706519D01*
X153920499Y-76443482D01*
X153905646Y-76349696D01*
X153889314Y-76317644D01*
X153873279Y-76242202D01*
X153889315Y-76182355D01*
X153905645Y-76150305D01*
X153905646Y-76150304D01*
X153920500Y-76056519D01*
X153920499Y-75793482D01*
X153905646Y-75699696D01*
X153889314Y-75667644D01*
X153873279Y-75592202D01*
X153889315Y-75532355D01*
X153905645Y-75500305D01*
X153905646Y-75500304D01*
X153920500Y-75406519D01*
X153920499Y-75239244D01*
X153940461Y-75164746D01*
X153951290Y-75148539D01*
X154044099Y-75027589D01*
X154104555Y-74881632D01*
X154104555Y-74881631D01*
X154112012Y-74825000D01*
X153751035Y-74825000D01*
X153683390Y-74808760D01*
X153645305Y-74789354D01*
X153629673Y-74786878D01*
X153551519Y-74774500D01*
X153551514Y-74774500D01*
X153031500Y-74774500D01*
X152957000Y-74754538D01*
X152902462Y-74700000D01*
X152882500Y-74625500D01*
X152882500Y-74625000D01*
X152831500Y-74625000D01*
X152757000Y-74605038D01*
X152702462Y-74550500D01*
X152682500Y-74476000D01*
X152682500Y-74425000D01*
X153082500Y-74425000D01*
X154112011Y-74425000D01*
X154112011Y-74424999D01*
X154104557Y-74368373D01*
X154104554Y-74368364D01*
X154044099Y-74222410D01*
X153947926Y-74097077D01*
X153947922Y-74097073D01*
X153822589Y-74000900D01*
X153676628Y-73940442D01*
X153559328Y-73925000D01*
X153082500Y-73925000D01*
X153082500Y-74425000D01*
X152682500Y-74425000D01*
X152682500Y-73925000D01*
X152205678Y-73925000D01*
X152205670Y-73925001D01*
X152088370Y-73940443D01*
X152088368Y-73940443D01*
X151942410Y-74000900D01*
X151817077Y-74097073D01*
X151817073Y-74097077D01*
X151720901Y-74222409D01*
X151683968Y-74311575D01*
X151666234Y-74334685D01*
X151651669Y-74359914D01*
X151643063Y-74364882D01*
X151637015Y-74372765D01*
X151610102Y-74383912D01*
X151584874Y-74398478D01*
X151574937Y-74398478D01*
X151565758Y-74402280D01*
X151536878Y-74398478D01*
X151507746Y-74398478D01*
X151499140Y-74393509D01*
X151489290Y-74392213D01*
X151440951Y-74359914D01*
X151359133Y-74278096D01*
X151320569Y-74211301D01*
X151320569Y-74134177D01*
X151350500Y-74022475D01*
X151350500Y-73877525D01*
X151312984Y-73737515D01*
X151312983Y-73737514D01*
X151312983Y-73737512D01*
X151240511Y-73611988D01*
X151240510Y-73611987D01*
X151240509Y-73611985D01*
X151138015Y-73509491D01*
X151138012Y-73509489D01*
X151138011Y-73509488D01*
X151004028Y-73432133D01*
X151004719Y-73430934D01*
X150951642Y-73390210D01*
X150922123Y-73318954D01*
X150932188Y-73242485D01*
X150979138Y-73181294D01*
X151050394Y-73151775D01*
X151069848Y-73150500D01*
X158779782Y-73150500D01*
X158789851Y-73153198D01*
G37*
%TD.AperFunction*%
%TD*%
M02*
