%TF.GenerationSoftware,KiCad,Pcbnew,9.0.3*%
%TF.CreationDate,2025-07-14T16:06:07+02:00*%
%TF.ProjectId,IF-Board,49462d42-6f61-4726-942e-6b696361645f,rev?*%
%TF.SameCoordinates,Original*%
%TF.FileFunction,Soldermask,Bot*%
%TF.FilePolarity,Negative*%
%FSLAX46Y46*%
G04 Gerber Fmt 4.6, Leading zero omitted, Abs format (unit mm)*
G04 Created by KiCad (PCBNEW 9.0.3) date 2025-07-14 16:06:07*
%MOMM*%
%LPD*%
G01*
G04 APERTURE LIST*
%ADD10R,1.700000X1.700000*%
%ADD11C,1.700000*%
G04 APERTURE END LIST*
D10*
%TO.C,J8*%
X157640000Y-125450000D03*
D11*
X155100000Y-125450000D03*
%TD*%
D10*
%TO.C,J4*%
X162720000Y-74650000D03*
D11*
X162720000Y-77190000D03*
X162720000Y-79730000D03*
X162720000Y-82270000D03*
X162720000Y-84810000D03*
X162720000Y-87350000D03*
X162720000Y-89890000D03*
X162720000Y-92430000D03*
X162720000Y-94970000D03*
X162720000Y-97510000D03*
X162720000Y-100050000D03*
X162720000Y-102590000D03*
X162720000Y-105130000D03*
X162720000Y-107670000D03*
X162720000Y-110210000D03*
X162720000Y-112750000D03*
X162720000Y-115290000D03*
X162720000Y-117830000D03*
X162720000Y-120370000D03*
X162720000Y-122910000D03*
%TD*%
D10*
%TO.C,J2*%
X137320000Y-74650000D03*
D11*
X137320000Y-77190000D03*
X137320000Y-79730000D03*
X137320000Y-82270000D03*
X137320000Y-84810000D03*
X137320000Y-87350000D03*
X137320000Y-89890000D03*
X137320000Y-92430000D03*
X137320000Y-94970000D03*
X137320000Y-97510000D03*
X137320000Y-100050000D03*
X137320000Y-102590000D03*
X137320000Y-105130000D03*
X137320000Y-107670000D03*
X137320000Y-110210000D03*
X137320000Y-112750000D03*
X137320000Y-115290000D03*
X137320000Y-117830000D03*
X137320000Y-120370000D03*
X137320000Y-122910000D03*
%TD*%
D10*
%TO.C,J11*%
X142400000Y-74650000D03*
D11*
X142400000Y-77190000D03*
X142400000Y-79730000D03*
X142400000Y-82270000D03*
X142400000Y-84810000D03*
X142400000Y-87350000D03*
X142400000Y-89890000D03*
X142400000Y-92430000D03*
X142400000Y-94970000D03*
X142400000Y-97510000D03*
X142400000Y-100050000D03*
X142400000Y-102590000D03*
X142400000Y-105130000D03*
X142400000Y-107670000D03*
X142400000Y-110210000D03*
X142400000Y-112750000D03*
X142400000Y-115290000D03*
X142400000Y-117830000D03*
X142400000Y-120370000D03*
X142400000Y-122910000D03*
%TD*%
D10*
%TO.C,J10*%
X157640000Y-74650000D03*
D11*
X157640000Y-77190000D03*
X157640000Y-79730000D03*
X157640000Y-82270000D03*
X157640000Y-84810000D03*
X157640000Y-87350000D03*
X157640000Y-89890000D03*
X157640000Y-92430000D03*
X157640000Y-94970000D03*
X157640000Y-97510000D03*
X157640000Y-100050000D03*
X157640000Y-102590000D03*
X157640000Y-105130000D03*
X157640000Y-107670000D03*
X157640000Y-110210000D03*
X157640000Y-112750000D03*
X157640000Y-115290000D03*
X157640000Y-117830000D03*
X157640000Y-120370000D03*
X157640000Y-122910000D03*
%TD*%
M02*
